M48
;Layer_Color=9474304
;FILE_FORMAT=4:4
METRIC,LZ
;TYPE=PLATED
T1F00S00C0.2000
T2F00S00C0.3000
T3F00S00C0.7500
T4F00S00C0.8000
T5F00S00C0.8100
T6F00S00C0.9000
T7F00S00C1.0000
T8F00S00C1.2000
T9F00S00C1.3000
T10F00S00C1.5000
T11F00S00C2.5400
T12F00S00C3.5000
%
T01
X00468398Y00370512
Y00375512
Y00380512
Y00385512
Y00390512
Y00395512
Y00400512
X00473848Y00397778
Y00392778
Y00387778
Y00382778
Y00377778
Y00372778
Y00367778
X00479298Y00370572
Y00375572
Y00380572
Y00385572
Y00390572
Y00395572
Y00400572
X00484748Y00398032
Y00393032
Y00388032
Y00383032
Y00378032
Y00373032
Y00368032
X00490198Y00370572
Y00375572
Y00380572
Y00385572
Y00390572
Y00395572
Y00400572
X00495648Y00397838
Y00392838
Y00387838
Y00382838
Y00377838
Y00372838
Y00367838
X00501098Y00370632
Y00375632
Y00380632
Y00385632
Y00390632
Y00395632
Y00400632
X00506548Y00398092
Y00393092
Y00388092
Y00383092
Y00378092
Y00373092
Y00368092
X00511998Y00370632
Y00375632
Y00380632
Y00385632
Y00390632
Y00395632
Y00400632
X00517448Y00397898
Y00392898
Y00387898
Y00382898
Y00377898
Y00372898
Y00367898
X00522898Y00370692
Y00375692
Y00380692
Y00385692
Y00390692
Y00395692
Y00400692
X00528348Y00398152
Y00393152
Y00388152
Y00383152
Y00378152
Y00373152
Y00368152
X00533798Y00370692
Y00375692
Y00380692
Y00385692
Y00390692
Y00395692
Y00400692
X00489552Y00504458
Y00509458
Y00514458
Y00519458
Y00524458
Y00529458
Y00534458
X00484102Y00531918
Y00526918
Y00521918
Y00516918
Y00511918
Y00506918
Y00501918
X00478652Y00504458
Y00509458
Y00514458
Y00519458
Y00524458
Y00529458
Y00534458
X00473202Y00531664
Y00526664
Y00521664
Y00516664
Y00511664
Y00506664
Y00501664
X00467752Y00504398
Y00509398
Y00514398
Y00519398
Y00524398
Y00529398
Y00534398
T02
X0051816Y00105918
X00759714Y00420906
X00704088Y00450116
X00779018Y00496852
X00782828Y00528602
X00859282Y00450116
X00940308Y00496344
X00941832Y00529618
X01021334Y00450116
X00602488Y00424716
X00566674Y00453898
X00552196Y00440718
X00528066Y00448084
X00574294Y00482472
Y00504472
X00572262Y00538
X00622584Y0053292
X006223Y00497614
X00444754Y00497868
X00451804Y00422938
T03
X0042799Y00113538
Y00138938
Y00164338
T04
X00586894Y00200307
Y00219357
Y00238407
Y00257457
X00825908Y00256949
Y00237899
Y00218849
Y00199799
T05
X00643382Y00801498
X00668782
X00694182
X00719582
X00744982
X00770382
X00795782
X00821182
X00846582
X00871982
X00897382
X00922782
X00617982
X00592582
X00516382Y00801498
X00490982Y00801498
X00465582
X00440182
X00414782
X00389382
X00363982
X00338582
X00262382
X00236982
X00211582
X00198882Y00820498
X00224282Y00820498
X00211582Y00839498
X00236982
X00224282Y00858498
X00198882
X00249682
X00262382Y00839498
X00249682Y00820498
X00325882
X00351282
X00376682
X00402082
X00427482
X00452882
X00478282
X00503682
X00490982Y00839498
X00465582
X00440182
X00414782
X00389382
X00363982
X00338582
X00325882Y00858498
X00351282
X00376682
X00402082
X00427482
X00452882
X00478282
X00503682
X00516382Y00839498
X00592582
X00617982
X00605282Y00858498
X00579882
Y00820498
X00605282Y00820498
X00630682Y00820498
Y00858498
X00656082
X00681482
X00706882
X00732282
X00757682
X00783082
X00808482
X00833882
X00859282
X00884682
X00910082
X00897382Y00839498
X00871982
X00846582
X00821182
X00795782
X00770382
X00744982
X00719582
X00694182
X00668782
X00643382
X00656082Y00820498
X00681482
X00706882
X00732282
X00757682
X00783082
X00808482
X00833882
X00859282
X00884682
X00910082
X00922782Y00839498
T06
X00527304Y00312194
X00540004
X00552704
T07
X00429Y00061
X00514604Y00043208
X00593636Y00069578
X00618636Y00119578
X0055753Y0037163
X00452374Y00401066
X00402082Y00226658
X0063725Y0035625
X00795782Y00342928
X00931672Y00340388
X00668636Y00119578
X00643636Y00069578
X00693636
X01041362Y00664638
Y00714638
Y00764638
X00991362Y00739638
Y00689638
X00994918Y00626364
X00976376Y00558828
X00832612Y00560352
X00662686Y00561368
X00898906Y00726722
X00898652Y00763806
X00526796Y00566194
X0055118Y00540258
X0033331Y00614454
X00073152Y00636016
X00046482Y00491518
X00117602Y0076787
X0016383Y00768886
X0016065Y008914
X0018605
X0021145
X0023685
X0026225
X0028765
X00313152Y00891398
X00338552
X00363952
X00389352
X00414752
X00440152
X00490952
X00516352
X00541752
X00567152
X00592552
X00617952
X00643352
X00668752
X00694152
X00719552
X00744952
X00770352
X00795752
X00821152
X00846552
X00871952
X00897352
T08
X00104032Y00101628
X00154032
X00769912Y00092484
X00819912
X00869912
X00951122Y00091722
X01001122
T09
X00688594Y00165382
X00713994
X00739394
X00764794
Y00292382
X00739394
X00713994
X00688594
X00927608Y00291874
X00953008
X00978408
X01003808
Y00164874
X00978408
X00953008
X00927608
T10
X00792Y00215
X00792734Y00244884
T11
X00167182Y00829998
X00954482
T12
X0003Y0003
X0112
X00378714Y00474726
X00312928Y0052705
X0003Y0092
X0112
M30
