G04 Layer_Color=2752767*
%FSLAX44Y44*%
%MOMM*%
G71*
G01*
G75*
%ADD84C,0.0508*%
%ADD85C,0.0677*%
%ADD86C,0.0339*%
D84*
X467912Y478010D02*
X465880Y482074D01*
X469944D01*
X467912Y478010D01*
Y479026D02*
X466896Y481058D01*
X468928D01*
X467912Y479026D01*
Y473010D02*
X465880Y477074D01*
X469944D01*
X467912Y473010D01*
Y474026D02*
X466896Y476058D01*
X468928D01*
X467912Y474026D01*
Y468010D02*
X465880Y472074D01*
X469944D01*
X467912Y468010D01*
Y469026D02*
X466896Y471058D01*
X468928D01*
X467912Y469026D01*
Y463010D02*
X465880Y467074D01*
X469944D01*
X467912Y463010D01*
Y464026D02*
X466896Y466058D01*
X468928D01*
X467912Y464026D01*
Y458010D02*
X465880Y462074D01*
X469944D01*
X467912Y458010D01*
Y459026D02*
X466896Y461058D01*
X468928D01*
X467912Y459026D01*
Y453010D02*
X465880Y457074D01*
X469944D01*
X467912Y453010D01*
Y454026D02*
X466896Y456058D01*
X468928D01*
X467912Y454026D01*
Y448010D02*
X465880Y452074D01*
X469944D01*
X467912Y448010D01*
Y449026D02*
X466896Y451058D01*
X468928D01*
X467912Y449026D01*
X473362Y445276D02*
X471330Y449340D01*
X475394D01*
X473362Y445276D01*
Y446292D02*
X472346Y448324D01*
X474378D01*
X473362Y446292D01*
Y450276D02*
X471330Y454340D01*
X475394D01*
X473362Y450276D01*
Y451292D02*
X472346Y453324D01*
X474378D01*
X473362Y451292D01*
Y455276D02*
X471330Y459340D01*
X475394D01*
X473362Y455276D01*
Y456292D02*
X472346Y458324D01*
X474378D01*
X473362Y456292D01*
Y460276D02*
X471330Y464340D01*
X475394D01*
X473362Y460276D01*
Y461292D02*
X472346Y463324D01*
X474378D01*
X473362Y461292D01*
Y465276D02*
X471330Y469340D01*
X475394D01*
X473362Y465276D01*
Y466292D02*
X472346Y468324D01*
X474378D01*
X473362Y466292D01*
Y470276D02*
X471330Y474340D01*
X475394D01*
X473362Y470276D01*
Y471292D02*
X472346Y473324D01*
X474378D01*
X473362Y471292D01*
Y475276D02*
X471330Y479340D01*
X475394D01*
X473362Y475276D01*
Y476292D02*
X472346Y478324D01*
X474378D01*
X473362Y476292D01*
X478812Y448070D02*
X476780Y452134D01*
X480844D01*
X478812Y448070D01*
Y449086D02*
X477796Y451118D01*
X479828D01*
X478812Y449086D01*
Y453070D02*
X476780Y457134D01*
X480844D01*
X478812Y453070D01*
Y454086D02*
X477796Y456118D01*
X479828D01*
X478812Y454086D01*
Y458070D02*
X476780Y462134D01*
X480844D01*
X478812Y458070D01*
Y459086D02*
X477796Y461118D01*
X479828D01*
X478812Y459086D01*
Y463070D02*
X476780Y467134D01*
X480844D01*
X478812Y463070D01*
Y464086D02*
X477796Y466118D01*
X479828D01*
X478812Y464086D01*
Y468070D02*
X476780Y472134D01*
X480844D01*
X478812Y468070D01*
Y469086D02*
X477796Y471118D01*
X479828D01*
X478812Y469086D01*
Y473070D02*
X476780Y477134D01*
X480844D01*
X478812Y473070D01*
Y474086D02*
X477796Y476118D01*
X479828D01*
X478812Y474086D01*
Y478070D02*
X476780Y482134D01*
X480844D01*
X478812Y478070D01*
Y479086D02*
X477796Y481118D01*
X479828D01*
X478812Y479086D01*
X484262Y445530D02*
X482230Y449594D01*
X486294D01*
X484262Y445530D01*
Y446546D02*
X483246Y448578D01*
X485278D01*
X484262Y446546D01*
Y450530D02*
X482230Y454594D01*
X486294D01*
X484262Y450530D01*
Y451546D02*
X483246Y453578D01*
X485278D01*
X484262Y451546D01*
Y455530D02*
X482230Y459594D01*
X486294D01*
X484262Y455530D01*
Y456546D02*
X483246Y458578D01*
X485278D01*
X484262Y456546D01*
Y460530D02*
X482230Y464594D01*
X486294D01*
X484262Y460530D01*
Y461546D02*
X483246Y463578D01*
X485278D01*
X484262Y461546D01*
Y465530D02*
X482230Y469594D01*
X486294D01*
X484262Y465530D01*
Y466546D02*
X483246Y468578D01*
X485278D01*
X484262Y466546D01*
Y470530D02*
X482230Y474594D01*
X486294D01*
X484262Y470530D01*
Y471546D02*
X483246Y473578D01*
X485278D01*
X484262Y471546D01*
Y475530D02*
X482230Y479594D01*
X486294D01*
X484262Y475530D01*
Y476546D02*
X483246Y478578D01*
X485278D01*
X484262Y476546D01*
X489712Y448070D02*
X487680Y452134D01*
X491744D01*
X489712Y448070D01*
Y449086D02*
X488696Y451118D01*
X490728D01*
X489712Y449086D01*
Y453070D02*
X487680Y457134D01*
X491744D01*
X489712Y453070D01*
Y454086D02*
X488696Y456118D01*
X490728D01*
X489712Y454086D01*
Y458070D02*
X487680Y462134D01*
X491744D01*
X489712Y458070D01*
Y459086D02*
X488696Y461118D01*
X490728D01*
X489712Y459086D01*
Y468070D02*
X487680Y472134D01*
X491744D01*
X489712Y468070D01*
Y469086D02*
X488696Y471118D01*
X490728D01*
X489712Y469086D01*
Y473070D02*
X487680Y477134D01*
X491744D01*
X489712Y473070D01*
Y474086D02*
X488696Y476118D01*
X490728D01*
X489712Y474086D01*
Y478070D02*
X487680Y482134D01*
X491744D01*
X489712Y478070D01*
Y479086D02*
X488696Y481118D01*
X490728D01*
X489712Y479086D01*
Y463070D02*
X487680Y467134D01*
X491744D01*
X489712Y463070D01*
Y464086D02*
X488696Y466118D01*
X490728D01*
X489712Y464086D01*
D85*
X498602Y84864D02*
G03*
X498602Y84864I-2032J0D01*
G01*
X557022Y504218D02*
G03*
X557022Y504218I-2032J0D01*
G01*
D86*
X497586Y84864D02*
G03*
X497586Y84864I-1016J0D01*
G01*
X556006Y504218D02*
G03*
X556006Y504218I-1016J0D01*
G01*
M02*
