G04 Layer_Color=32896*
%FSLAX44Y44*%
%MOMM*%
G71*
G01*
G75*
%ADD69C,0.2540*%
%ADD70C,0.2000*%
%ADD71C,0.1270*%
%ADD83C,0.1000*%
D69*
X449191Y669658D02*
G03*
X449191Y669658I-707J0D01*
G01*
X560495Y694096D02*
G03*
X560495Y694096I-707J0D01*
G01*
X680427Y757884D02*
G03*
X680427Y757884I-707J0D01*
G01*
X489409Y443380D02*
G03*
X489409Y443380I-1521J0D01*
G01*
X988217Y446428D02*
G03*
X988217Y446428I-1521J0D01*
G01*
X826467D02*
G03*
X826467Y446428I-1521J0D01*
G01*
X669447D02*
G03*
X669447Y446428I-1521J0D01*
G01*
X740117Y633398D02*
G03*
X740117Y633398I-1275J0D01*
G01*
X489007Y655916D02*
G03*
X489007Y655916I-901J0D01*
G01*
D70*
X462166Y159536D02*
Y195536D01*
Y159536D02*
X542666D01*
Y223036D01*
X462166D02*
X542666D01*
X462166Y195536D02*
Y223036D01*
X409484Y653408D02*
X452734D01*
X409484D02*
Y707658D01*
X452734D01*
Y653408D02*
Y707658D01*
X555538Y656096D02*
Y710346D01*
Y656096D02*
X598788D01*
Y710346D01*
X555538D02*
X598788D01*
X695970Y718884D02*
Y762134D01*
X641720Y718884D02*
X695970D01*
X641720D02*
Y762134D01*
X695970D01*
X560000Y500750D02*
Y549250D01*
X540250D02*
X560000D01*
X540250Y500750D02*
Y549250D01*
Y500750D02*
X560000D01*
X542638Y437630D02*
Y495630D01*
X453638D02*
X542638D01*
X453638Y437630D02*
Y495630D01*
Y437630D02*
X542638D01*
X952446Y440678D02*
X1041446D01*
X952446D02*
Y498678D01*
X1041446D01*
Y440678D02*
Y498678D01*
X879696Y440678D02*
Y498678D01*
X790696D02*
X879696D01*
X790696Y440678D02*
Y498678D01*
Y440678D02*
X879696D01*
X633676D02*
X722676D01*
X633676D02*
Y498678D01*
X722676D01*
Y440678D02*
Y498678D01*
X442424Y565098D02*
X451424D01*
X469424D02*
X478424D01*
X451424D02*
X469424D01*
X442424Y543348D02*
X478424D01*
Y565098D01*
X442424Y543348D02*
Y565098D01*
X381000Y107000D02*
X406500D01*
X381000D02*
Y155000D01*
X415000D01*
Y107000D02*
Y155000D01*
X406500Y107000D02*
X415000D01*
X504208Y146202D02*
X512708D01*
X504208Y98202D02*
Y146202D01*
Y98202D02*
X538208D01*
Y146202D01*
X512708D02*
X538208D01*
X519042Y755512D02*
Y785762D01*
Y755512D02*
X558292D01*
Y785762D01*
X536167D02*
X558292D01*
X519042D02*
X540917D01*
X393036Y414462D02*
Y434462D01*
Y414462D02*
X437036D01*
Y434462D01*
X393036D02*
X437036D01*
X391766Y546288D02*
X435766D01*
X391766D02*
Y566288D01*
X435766D01*
Y546288D02*
Y566288D01*
X363380Y539368D02*
X383380D01*
Y583368D01*
X363380D02*
X383380D01*
X363380Y539368D02*
Y583368D01*
X907382Y662558D02*
Y706558D01*
X887382Y662558D02*
X907382D01*
X887382D02*
Y706558D01*
X907382D01*
X861474Y706304D02*
X881474D01*
X861474Y662304D02*
Y706304D01*
Y662304D02*
X881474D01*
Y706304D01*
X603664Y670432D02*
Y714432D01*
X623664D01*
Y670432D02*
Y714432D01*
X603664Y670432D02*
X623664D01*
X615090Y768284D02*
Y788284D01*
X571090D02*
X615090D01*
X571090Y768284D02*
Y788284D01*
Y768284D02*
X615090D01*
X862932Y153288D02*
Y197288D01*
X842932Y153288D02*
X862932D01*
X842932D02*
Y197288D01*
X862932D01*
X360016Y613344D02*
Y633344D01*
Y613344D02*
X404016D01*
Y633344D01*
X360016D02*
X404016D01*
X597756Y95122D02*
Y139122D01*
X577756Y95122D02*
X597756D01*
X577756D02*
Y139122D01*
X597756D01*
X358492Y687258D02*
Y707258D01*
Y687258D02*
X402492D01*
Y707258D01*
X358492D02*
X402492D01*
X927006Y464438D02*
X947006D01*
Y508438D01*
X927006D02*
X947006D01*
X927006Y464438D02*
Y508438D01*
X765716Y465708D02*
X785716D01*
Y509708D01*
X765716D02*
X785716D01*
X765716Y465708D02*
Y509708D01*
X608998Y466216D02*
X628998D01*
Y510216D01*
X608998D02*
X628998D01*
X608998Y466216D02*
Y510216D01*
X428404Y463676D02*
X448404D01*
Y507676D01*
X428404D02*
X448404D01*
X428404Y463676D02*
Y507676D01*
X491334Y425826D02*
X535334D01*
Y405826D02*
Y425826D01*
X491334Y405826D02*
X535334D01*
X491334D02*
Y425826D01*
X919386Y433508D02*
X939386D01*
X919386Y389508D02*
Y433508D01*
Y389508D02*
X939386D01*
Y433508D01*
X904876Y542158D02*
X948876D01*
Y522158D02*
Y542158D01*
X904876Y522158D02*
X948876D01*
X904876D02*
Y542158D01*
X755556Y432238D02*
X775556D01*
X755556Y388238D02*
Y432238D01*
Y388238D02*
X775556D01*
Y432238D01*
X744826Y540888D02*
X788826D01*
Y520888D02*
Y540888D01*
X744826Y520888D02*
X788826D01*
X744826D02*
Y540888D01*
X592488Y432526D02*
X612488D01*
X592488Y388526D02*
Y432526D01*
Y388526D02*
X612488D01*
Y432526D01*
X586584Y542920D02*
X630584D01*
Y522920D02*
Y542920D01*
X586584Y522920D02*
X630584D01*
X586584D02*
Y542920D01*
X441804Y412938D02*
Y432938D01*
Y412938D02*
X485804D01*
Y432938D01*
X441804D02*
X485804D01*
X1002890Y414970D02*
X1046890D01*
X1002890D02*
Y434970D01*
X1046890D01*
Y414970D02*
Y434970D01*
X1014066Y505648D02*
Y525648D01*
Y505648D02*
X1058066D01*
Y525648D01*
X1014066D02*
X1058066D01*
X951582Y415986D02*
X995582D01*
X951582D02*
Y435986D01*
X995582D01*
Y415986D02*
Y435986D01*
X958186Y504378D02*
Y524378D01*
Y504378D02*
X1002186D01*
Y524378D01*
X958186D02*
X1002186D01*
X839314Y412938D02*
X883314D01*
X839314D02*
Y432938D01*
X883314D01*
Y412938D02*
Y432938D01*
X851506Y508188D02*
Y528188D01*
Y508188D02*
X895506D01*
Y528188D01*
X851506D02*
X895506D01*
X788260Y415732D02*
X832260D01*
X788260D02*
Y435732D01*
X832260D01*
Y415732D02*
Y435732D01*
X795626Y504378D02*
Y524378D01*
Y504378D02*
X839626D01*
Y524378D01*
X795626D02*
X839626D01*
X681580Y414970D02*
X725580D01*
X681580D02*
Y434970D01*
X725580D01*
Y414970D02*
Y434970D01*
X694026Y506918D02*
Y526918D01*
Y506918D02*
X738026D01*
Y526918D01*
X694026D02*
X738026D01*
X631288Y415732D02*
X675288D01*
X631288D02*
Y435732D01*
X675288D01*
Y415732D02*
Y435732D01*
X639416Y504378D02*
Y524378D01*
Y504378D02*
X683416D01*
Y524378D01*
X639416D02*
X683416D01*
X423258Y463676D02*
Y507676D01*
X403258Y463676D02*
X423258D01*
X403258D02*
Y507676D01*
X423258D01*
X515708Y544314D02*
X535708D01*
X515708Y500314D02*
Y544314D01*
Y500314D02*
X535708D01*
Y544314D01*
X404974Y459100D02*
X448974D01*
Y439100D02*
Y459100D01*
X404974Y439100D02*
X448974D01*
X404974D02*
Y459100D01*
X491165Y545714D02*
X511165D01*
X491165Y501714D02*
Y545714D01*
Y501714D02*
X511165D01*
Y545714D01*
X384000Y166000D02*
Y210000D01*
X364000Y166000D02*
X384000D01*
X364000D02*
Y210000D01*
X384000D01*
X260256Y743838D02*
X280256D01*
Y787838D01*
X260256D02*
X280256D01*
X260256Y743838D02*
Y787838D01*
X210980Y743838D02*
Y787838D01*
X230980D01*
Y743838D02*
Y787838D01*
X210980Y743838D02*
X230980D01*
X377854Y718754D02*
Y738754D01*
X333854D02*
X377854D01*
X333854Y718754D02*
Y738754D01*
Y718754D02*
X377854D01*
X207362Y446908D02*
X251362D01*
Y426908D02*
Y446908D01*
X207362Y426908D02*
X251362D01*
X207362D02*
Y446908D01*
X854612Y586928D02*
Y606928D01*
X810612D02*
X854612D01*
X810612Y586928D02*
Y606928D01*
Y586928D02*
X854612D01*
X809342Y612328D02*
X853342D01*
X809342D02*
Y632328D01*
X853342D01*
Y612328D02*
Y632328D01*
X810166Y705796D02*
X830166D01*
X810166Y661796D02*
Y705796D01*
Y661796D02*
X830166D01*
Y705796D01*
X805020Y657732D02*
Y701732D01*
X785020Y657732D02*
X805020D01*
X785020D02*
Y701732D01*
X805020D01*
X758858Y701224D02*
X778858D01*
X758858Y657224D02*
Y701224D01*
Y657224D02*
X778858D01*
Y701224D01*
X684882Y660522D02*
X728882D01*
Y640522D02*
Y660522D01*
X684882Y640522D02*
X728882D01*
X684882D02*
Y660522D01*
Y614868D02*
Y634868D01*
Y614868D02*
X728882D01*
Y634868D01*
X684882D02*
X728882D01*
X683612Y608198D02*
X727612D01*
Y588198D02*
Y608198D01*
X683612Y588198D02*
X727612D01*
X683612D02*
Y608198D01*
X889918Y275524D02*
Y295524D01*
X845918D02*
X889918D01*
X845918Y275524D02*
Y295524D01*
Y275524D02*
X889918D01*
X879442Y587628D02*
Y631628D01*
X859442Y587628D02*
X879442D01*
X859442D02*
Y631628D01*
X879442D01*
X854612Y636966D02*
Y656966D01*
X810612D02*
X854612D01*
X810612Y636966D02*
Y656966D01*
Y636966D02*
X854612D01*
X855312Y661796D02*
Y705796D01*
X835312Y661796D02*
X855312D01*
X835312D02*
Y705796D01*
X855312D01*
X835758Y712658D02*
Y732658D01*
Y712658D02*
X879758D01*
Y732658D01*
X835758D02*
X879758D01*
X727042Y665098D02*
Y709098D01*
X707042Y665098D02*
X727042D01*
X707042D02*
Y709098D01*
X727042D01*
X681642D02*
X701642D01*
X681642Y665098D02*
Y709098D01*
Y665098D02*
X701642D01*
Y709098D01*
X636114Y640964D02*
X680114D01*
Y620964D02*
Y640964D01*
X636114Y620964D02*
X680114D01*
X636114D02*
Y640964D01*
X634844Y594548D02*
Y614548D01*
Y594548D02*
X678844D01*
Y614548D01*
X634844D02*
X678844D01*
X547530Y97662D02*
Y141662D01*
X567530D01*
Y97662D02*
Y141662D01*
X547530Y97662D02*
X567530D01*
X186342Y787838D02*
X206342D01*
X186342Y743838D02*
Y787838D01*
Y743838D02*
X206342D01*
Y787838D01*
X458000Y110000D02*
Y154000D01*
X438000Y110000D02*
X458000D01*
X438000D02*
Y154000D01*
X458000D01*
X180500Y495738D02*
X200500D01*
X180500Y451738D02*
Y495738D01*
Y451738D02*
X200500D01*
Y495738D01*
X684436Y87756D02*
Y131756D01*
X704436D01*
Y87756D02*
Y131756D01*
X684436Y87756D02*
X704436D01*
X1017172Y754568D02*
Y774568D01*
X973172D02*
X1017172D01*
X973172Y754568D02*
Y774568D01*
Y754568D02*
X1017172D01*
X393352Y193542D02*
X413352D01*
Y237543D01*
X393352D02*
X413352D01*
X393352Y193542D02*
Y237543D01*
X648810Y161100D02*
Y205100D01*
X628810Y161100D02*
X648810D01*
X628810D02*
Y205100D01*
X648810D01*
X622202Y272222D02*
Y292222D01*
X578202D02*
X622202D01*
X578202Y272222D02*
Y292222D01*
Y272222D02*
X622202D01*
X726280Y197484D02*
Y241484D01*
X706280Y197484D02*
X726280D01*
X706280D02*
Y241484D01*
X726280D01*
X816770Y312350D02*
X836770D01*
X816770Y268350D02*
Y312350D01*
Y268350D02*
X836770D01*
Y312350D01*
X358808Y743838D02*
Y787838D01*
X378808D01*
Y743838D02*
Y787838D01*
X358808Y743838D02*
X378808D01*
X430178Y764474D02*
Y784474D01*
X386178D02*
X430178D01*
X386178Y764474D02*
Y784474D01*
Y764474D02*
X430178D01*
X284894Y743838D02*
Y787838D01*
X304894D01*
Y743838D02*
Y787838D01*
X284894Y743838D02*
X304894D01*
X592934Y743646D02*
Y763646D01*
Y743646D02*
X636934D01*
Y763646D01*
X592934D02*
X636934D01*
X543404Y388046D02*
X587404D01*
X543404D02*
Y408046D01*
X587404D01*
Y388046D02*
Y408046D01*
X587658Y412684D02*
Y432684D01*
X543658D02*
X587658D01*
X543658Y412684D02*
Y432684D01*
Y412684D02*
X587658D01*
X433230Y641026D02*
X453230D01*
X433230Y597026D02*
Y641026D01*
Y597026D02*
X453230D01*
Y641026D01*
X428592Y597026D02*
Y641026D01*
X408592Y597026D02*
X428592D01*
X408592D02*
Y641026D01*
X428592D01*
X404016Y637982D02*
Y657982D01*
X360016D02*
X404016D01*
X360016Y637982D02*
Y657982D01*
Y637982D02*
X404016D01*
X608490Y621410D02*
Y665410D01*
X628490D01*
Y621410D02*
Y665410D01*
X608490Y621410D02*
X628490D01*
X557182Y648646D02*
X577182D01*
X557182Y604646D02*
Y648646D01*
Y604646D02*
X577182D01*
Y648646D01*
X601820Y604900D02*
Y648900D01*
X581820Y604900D02*
X601820D01*
X581820D02*
Y648900D01*
X601820D01*
X387448Y738058D02*
Y758058D01*
Y738058D02*
X431448D01*
Y758058D01*
X387448D02*
X431448D01*
X359000Y662620D02*
X403000D01*
X359000D02*
Y682620D01*
X403000D01*
Y662620D02*
Y682620D01*
X205138Y451484D02*
X225138D01*
Y495484D01*
X205138D02*
X225138D01*
X205138Y451484D02*
Y495484D01*
X249776Y451484D02*
Y495484D01*
X229776Y451484D02*
X249776D01*
X229776D02*
Y495484D01*
X249776D01*
X117000Y136524D02*
X137000D01*
Y180524D01*
X117000D02*
X137000D01*
X117000Y136524D02*
Y180524D01*
X141892Y162178D02*
Y206178D01*
X161892D01*
Y162178D02*
Y206178D01*
X141892Y162178D02*
X161892D01*
X328324Y718500D02*
Y738500D01*
X284324D02*
X328324D01*
X284324Y718500D02*
Y738500D01*
Y718500D02*
X328324D01*
X456024Y712342D02*
Y756342D01*
X436024Y712342D02*
X456024D01*
X436024D02*
Y756342D01*
X456024D01*
X480978Y764474D02*
Y784474D01*
X436978D02*
X480978D01*
X436978Y764474D02*
Y784474D01*
Y764474D02*
X480978D01*
X360016Y588452D02*
X404016D01*
X360016D02*
Y608452D01*
X404016D01*
Y588452D02*
Y608452D01*
X411832Y572450D02*
Y592450D01*
Y572450D02*
X455832D01*
Y592450D01*
X411832D02*
X455832D01*
X507906Y604646D02*
Y648646D01*
X527906D01*
Y604646D02*
Y648646D01*
X507906Y604646D02*
X527906D01*
X532544D02*
X552544D01*
Y648646D01*
X532544D02*
X552544D01*
X532544Y604646D02*
Y648646D01*
X329532Y743838D02*
Y787838D01*
X309532Y743838D02*
X329532D01*
X309532D02*
Y787838D01*
X329532D01*
X342802Y579562D02*
Y599562D01*
X298802D02*
X342802D01*
X298802Y579562D02*
Y599562D01*
Y579562D02*
X342802D01*
X273910Y574134D02*
X317910D01*
Y554134D02*
Y574134D01*
X273910Y554134D02*
X317910D01*
X273910D02*
Y574134D01*
X667668Y768284D02*
Y788284D01*
X623668D02*
X667668D01*
X623668Y768284D02*
Y788284D01*
Y768284D02*
X667668D01*
X606650Y247584D02*
X650650D01*
X606650D02*
Y267584D01*
X650650D01*
Y247584D02*
Y267584D01*
X531466Y580070D02*
Y600070D01*
Y580070D02*
X575466D01*
Y600070D01*
X531466D02*
X575466D01*
X346808Y379918D02*
X390808D01*
X346808D02*
Y399918D01*
X390808D01*
Y379918D02*
Y399918D01*
X684120Y563560D02*
Y583560D01*
Y563560D02*
X728120D01*
Y583560D01*
X684120D02*
X728120D01*
X457868Y602106D02*
Y646106D01*
X477868D01*
Y602106D02*
Y646106D01*
X457868Y602106D02*
X477868D01*
X564802Y760660D02*
X584802D01*
X564802Y716660D02*
Y760660D01*
Y716660D02*
X584802D01*
Y760660D01*
X673452Y766760D02*
X717452D01*
X673452D02*
Y786760D01*
X717452D01*
Y766760D02*
Y786760D01*
X485300Y596830D02*
X505300D01*
X485300Y552830D02*
Y596830D01*
Y552830D02*
X505300D01*
Y596830D01*
X482506Y604646D02*
Y648646D01*
X502506D01*
Y604646D02*
Y648646D01*
X482506Y604646D02*
X502506D01*
X629826Y670178D02*
X649826D01*
Y714178D01*
X629826D02*
X649826D01*
X629826Y670178D02*
Y714178D01*
X732634Y710626D02*
X776634D01*
X732634D02*
Y730626D01*
X776634D01*
Y710626D02*
Y730626D01*
X626012Y580324D02*
Y600324D01*
X582012D02*
X626012D01*
X582012Y580324D02*
Y600324D01*
Y580324D02*
X626012D01*
X581442Y575178D02*
X625442D01*
Y555178D02*
Y575178D01*
X581442Y555178D02*
X625442D01*
X581442D02*
Y575178D01*
X235618Y787838D02*
X255618D01*
X235618Y743838D02*
Y787838D01*
Y743838D02*
X255618D01*
Y787838D01*
X387448Y713420D02*
X431448D01*
X387448D02*
Y733420D01*
X431448D01*
Y713420D02*
Y733420D01*
X779940Y785998D02*
X799940D01*
X779940Y741998D02*
Y785998D01*
Y741998D02*
X799940D01*
Y785998D01*
X256130Y422270D02*
X300130D01*
Y402270D02*
Y422270D01*
X256130Y402270D02*
X300130D01*
X256130D02*
Y422270D01*
X183294Y377824D02*
X203294D01*
Y421824D01*
X183294D02*
X203294D01*
X183294Y377824D02*
Y421824D01*
X827372Y739012D02*
Y783012D01*
X807372Y739012D02*
X827372D01*
X807372D02*
Y783012D01*
X827372D01*
X255176Y495484D02*
X275176D01*
X255176Y451484D02*
Y495484D01*
Y451484D02*
X275176D01*
Y495484D01*
X299814Y451738D02*
Y495738D01*
X279814Y451738D02*
X299814D01*
X279814D02*
Y495738D01*
X299814D01*
X334170Y787838D02*
X354170D01*
X334170Y743838D02*
Y787838D01*
Y743838D02*
X354170D01*
Y787838D01*
X728062Y784220D02*
X772062D01*
Y764220D02*
Y784220D01*
X728062Y764220D02*
X772062D01*
X728062D02*
Y784220D01*
X700692Y757866D02*
X720692D01*
X700692Y713866D02*
Y757866D01*
Y713866D02*
X720692D01*
Y757866D01*
X674464Y670178D02*
Y714178D01*
X654464Y670178D02*
X674464D01*
X654464D02*
Y714178D01*
X674464D01*
X592934Y719008D02*
Y739008D01*
Y719008D02*
X636934D01*
Y739008D01*
X592934D02*
X636934D01*
X299310Y624454D02*
X343310D01*
Y604454D02*
Y624454D01*
X299310Y604454D02*
X343310D01*
X299310D02*
Y624454D01*
X294542Y604200D02*
Y624200D01*
X250542D02*
X294542D01*
X250542Y604200D02*
Y624200D01*
Y604200D02*
X294542D01*
X578456Y144206D02*
X622456D01*
X578456D02*
Y164206D01*
X622456D01*
Y144206D02*
Y164206D01*
X633066Y645602D02*
Y665602D01*
Y645602D02*
X677066D01*
Y665602D01*
X633066D02*
X677066D01*
X727808Y757042D02*
X771808D01*
Y737042D02*
Y757042D01*
X727808Y737042D02*
X771808D01*
X727808D02*
Y757042D01*
X561500Y492882D02*
X581500D01*
X561500Y448882D02*
Y492882D01*
Y448882D02*
X581500D01*
Y492882D01*
X632750Y391094D02*
X676750D01*
X632750D02*
Y411094D01*
X676750D01*
Y391094D02*
Y411094D01*
X832260Y391094D02*
Y411094D01*
X788260D02*
X832260D01*
X788260Y391094D02*
Y411094D01*
Y391094D02*
X832260D01*
X951328Y391348D02*
X995328D01*
X951328D02*
Y411348D01*
X995328D01*
Y391348D02*
Y411348D01*
X256130Y426908D02*
Y446908D01*
Y426908D02*
X300130D01*
Y446908D01*
X256130D02*
X300130D01*
X363318Y532760D02*
X407318D01*
Y512760D02*
Y532760D01*
X363318Y512760D02*
X407318D01*
X363318D02*
Y532760D01*
X733712Y701732D02*
X753712D01*
X733712Y657732D02*
Y701732D01*
Y657732D02*
X753712D01*
Y701732D01*
X413864Y516570D02*
X457864D01*
X413864D02*
Y536570D01*
X457864D01*
Y516570D02*
Y536570D01*
X829974Y711642D02*
Y731642D01*
X785974D02*
X829974D01*
X785974Y711642D02*
Y731642D01*
Y711642D02*
X829974D01*
X494190Y747648D02*
Y791648D01*
X514190D01*
Y747648D02*
Y791648D01*
X494190Y747648D02*
X514190D01*
X1064104Y702752D02*
Y722752D01*
Y702752D02*
X1108104D01*
Y722752D01*
X1064104D02*
X1108104D01*
X925420Y617154D02*
X969420D01*
X925420D02*
Y637154D01*
X969420D01*
Y617154D02*
Y637154D01*
X1074518Y616646D02*
Y636646D01*
Y616646D02*
X1118518D01*
Y636646D01*
X1074518D02*
X1118518D01*
X1107280Y649604D02*
Y693604D01*
X1087280Y649604D02*
X1107280D01*
X1087280D02*
Y693604D01*
X1107280D01*
X968912Y591500D02*
Y611500D01*
X924912D02*
X968912D01*
X924912Y591500D02*
Y611500D01*
Y591500D02*
X968912D01*
X1073502Y610230D02*
X1117502D01*
Y590230D02*
Y610230D01*
X1073502Y590230D02*
X1117502D01*
X1073502D02*
Y610230D01*
X534826Y333182D02*
Y353182D01*
X490826D02*
X534826D01*
X490826Y333182D02*
Y353182D01*
Y333182D02*
X534826D01*
X917608Y650112D02*
Y694112D01*
X937608D01*
Y650112D02*
Y694112D01*
X917608Y650112D02*
X937608D01*
X913032Y637728D02*
Y657728D01*
X869032D02*
X913032D01*
X869032Y637728D02*
Y657728D01*
Y637728D02*
X913032D01*
X916784Y748980D02*
X960784D01*
X916784D02*
Y768980D01*
X960784D01*
Y748980D02*
Y768980D01*
X961800Y719262D02*
Y739262D01*
X917800D02*
X961800D01*
X917800Y719262D02*
Y739262D01*
Y719262D02*
X961800D01*
X919066Y588644D02*
Y632644D01*
X899066Y588644D02*
X919066D01*
X899066D02*
Y632644D01*
X919066D01*
X945548Y649920D02*
X965548D01*
Y693920D01*
X945548D02*
X965548D01*
X945548Y649920D02*
Y693920D01*
X464606Y653316D02*
X543106D01*
Y742216D01*
X464606D02*
X543106D01*
X464606Y653316D02*
Y742216D01*
X965000Y697750D02*
Y704748D01*
X961501D01*
X960335Y703581D01*
Y701249D01*
X961501Y700083D01*
X965000D01*
X962667D02*
X960335Y697750D01*
X958002Y704748D02*
Y697750D01*
Y701249D01*
X956836Y702415D01*
X954503D01*
X953337Y701249D01*
Y697750D01*
X951004Y698916D02*
X949838Y697750D01*
X947506D01*
X946339Y698916D01*
Y703581D01*
X947506Y704748D01*
X949838D01*
X951004Y703581D01*
Y702415D01*
X949838Y701249D01*
X946339D01*
X897000Y607000D02*
X890002D01*
Y603501D01*
X891169Y602335D01*
X893501D01*
X894667Y603501D01*
Y607000D01*
Y604667D02*
X897000Y602335D01*
X890002Y600002D02*
X897000D01*
X893501D01*
X892335Y598836D01*
Y596503D01*
X893501Y595337D01*
X897000D01*
X891169Y593004D02*
X890002Y591838D01*
Y589506D01*
X891169Y588339D01*
X892335D01*
X893501Y589506D01*
X894667Y588339D01*
X895834D01*
X897000Y589506D01*
Y591838D01*
X895834Y593004D01*
X894667D01*
X893501Y591838D01*
X892335Y593004D01*
X891169D01*
X893501Y591838D02*
Y589506D01*
X973000Y738000D02*
X966002D01*
Y734501D01*
X967169Y733335D01*
X969501D01*
X970667Y734501D01*
Y738000D01*
Y735667D02*
X973000Y733335D01*
X966002Y731002D02*
X973000D01*
X969501D01*
X968335Y729836D01*
Y727503D01*
X969501Y726337D01*
X973000D01*
X966002Y724005D02*
Y719339D01*
X967169D01*
X971834Y724005D01*
X973000D01*
X954335Y778831D02*
X955501Y779998D01*
X957834D01*
X959000Y778831D01*
Y774166D01*
X957834Y773000D01*
X955501D01*
X954335Y774166D01*
X952002Y779998D02*
Y773000D01*
Y776499D01*
X950836Y777665D01*
X948503D01*
X947337Y776499D01*
Y773000D01*
X945005Y778831D02*
X943838Y779998D01*
X941506D01*
X940339Y778831D01*
Y777665D01*
X941506Y776499D01*
X942672D01*
X941506D01*
X940339Y775333D01*
Y774166D01*
X941506Y773000D01*
X943838D01*
X945005Y774166D01*
X928335Y646331D02*
X929501Y647498D01*
X931834D01*
X933000Y646331D01*
Y641666D01*
X931834Y640500D01*
X929501D01*
X928335Y641666D01*
X926002Y647498D02*
Y640500D01*
Y643999D01*
X924836Y645165D01*
X922503D01*
X921337Y643999D01*
Y640500D01*
X914339D02*
X919005D01*
X914339Y645165D01*
Y646331D01*
X915506Y647498D01*
X917838D01*
X919005Y646331D01*
X931335Y702831D02*
X932501Y703998D01*
X934834D01*
X936000Y702831D01*
Y698166D01*
X934834Y697000D01*
X932501D01*
X931335Y698166D01*
X929002Y703998D02*
Y697000D01*
Y700499D01*
X927836Y701665D01*
X925503D01*
X924337Y700499D01*
Y697000D01*
X922004D02*
X919672D01*
X920838D01*
Y703998D01*
X922004Y702831D01*
X529085Y362581D02*
X530251Y363748D01*
X532584D01*
X533750Y362581D01*
Y357916D01*
X532584Y356750D01*
X530251D01*
X529085Y357916D01*
X526752Y356750D02*
X524420D01*
X525586D01*
Y363748D01*
X526752Y362581D01*
X519754D02*
Y361415D01*
X520921D01*
X518588D01*
X519754D01*
Y357916D01*
X518588Y356750D01*
X1069000Y611000D02*
X1062002D01*
Y607501D01*
X1063168Y606335D01*
X1065501D01*
X1066667Y607501D01*
Y611000D01*
Y608667D02*
X1069000Y606335D01*
X1062002Y604002D02*
X1069000D01*
X1065501D01*
X1064335Y602836D01*
Y600503D01*
X1065501Y599337D01*
X1069000D01*
X1062002Y592339D02*
X1063168Y594672D01*
X1065501Y597005D01*
X1067834D01*
X1069000Y595838D01*
Y593506D01*
X1067834Y592339D01*
X1066667D01*
X1065501Y593506D01*
Y597005D01*
X979000Y611000D02*
X972002D01*
Y607501D01*
X973168Y606335D01*
X975501D01*
X976667Y607501D01*
Y611000D01*
Y608667D02*
X979000Y606335D01*
X972002Y604002D02*
X979000D01*
X975501D01*
X974335Y602836D01*
Y600503D01*
X975501Y599337D01*
X979000D01*
X972002Y592339D02*
Y597005D01*
X975501D01*
X974335Y594672D01*
Y593506D01*
X975501Y592339D01*
X977834D01*
X979000Y593506D01*
Y595838D01*
X977834Y597005D01*
X1084000Y667000D02*
X1077002D01*
Y663501D01*
X1078168Y662335D01*
X1080501D01*
X1081667Y663501D01*
Y667000D01*
Y664667D02*
X1084000Y662335D01*
X1077002Y660002D02*
X1084000D01*
X1080501D01*
X1079335Y658836D01*
Y656503D01*
X1080501Y655337D01*
X1084000D01*
Y649506D02*
X1077002D01*
X1080501Y653005D01*
Y648339D01*
X1069000Y636000D02*
X1062002D01*
Y632501D01*
X1063168Y631335D01*
X1065501D01*
X1066667Y632501D01*
Y636000D01*
Y633667D02*
X1069000Y631335D01*
X1062002Y629002D02*
X1069000D01*
X1065501D01*
X1064335Y627836D01*
Y625503D01*
X1065501Y624337D01*
X1069000D01*
X1063168Y622005D02*
X1062002Y620838D01*
Y618506D01*
X1063168Y617339D01*
X1064335D01*
X1065501Y618506D01*
Y619672D01*
Y618506D01*
X1066667Y617339D01*
X1067834D01*
X1069000Y618506D01*
Y620838D01*
X1067834Y622005D01*
X979000Y637000D02*
X972002D01*
Y633501D01*
X973168Y632335D01*
X975501D01*
X976667Y633501D01*
Y637000D01*
Y634667D02*
X979000Y632335D01*
X972002Y630002D02*
X979000D01*
X975501D01*
X974335Y628836D01*
Y626503D01*
X975501Y625337D01*
X979000D01*
Y618339D02*
Y623004D01*
X974335Y618339D01*
X973168D01*
X972002Y619506D01*
Y621838D01*
X973168Y623004D01*
X1106000Y727000D02*
Y733998D01*
X1102501D01*
X1101335Y732831D01*
Y730499D01*
X1102501Y729333D01*
X1106000D01*
X1103667D02*
X1101335Y727000D01*
X1099002Y733998D02*
Y727000D01*
Y730499D01*
X1097836Y731665D01*
X1095503D01*
X1094337Y730499D01*
Y727000D01*
X1092004D02*
X1089672D01*
X1090838D01*
Y733998D01*
X1092004Y732831D01*
X546500Y794498D02*
Y788666D01*
X545334Y787500D01*
X543001D01*
X541835Y788666D01*
Y794498D01*
X539502Y787500D02*
Y792165D01*
X536003D01*
X534837Y790999D01*
Y787500D01*
X484389Y775143D02*
X483222Y776309D01*
Y778642D01*
X484389Y779808D01*
X489054D01*
X490220Y778642D01*
Y776309D01*
X489054Y775143D01*
X490220Y772810D02*
X485555D01*
Y769311D01*
X486721Y768145D01*
X490220D01*
X849000Y736000D02*
Y742998D01*
X845501D01*
X844335Y741832D01*
Y739499D01*
X845501Y738333D01*
X849000D01*
X846667D02*
X844335Y736000D01*
X842002D02*
Y740665D01*
X838503D01*
X837337Y739499D01*
Y736000D01*
X835005Y741832D02*
X833838Y742998D01*
X831506D01*
X830339Y741832D01*
Y740665D01*
X831506Y739499D01*
X832672D01*
X831506D01*
X830339Y738333D01*
Y737166D01*
X831506Y736000D01*
X833838D01*
X835005Y737166D01*
X411000Y536000D02*
Y542998D01*
X407501D01*
X406335Y541832D01*
Y539499D01*
X407501Y538333D01*
X411000D01*
X408667D02*
X406335Y536000D01*
X404002D02*
Y540665D01*
X400503D01*
X399337Y539499D01*
Y536000D01*
X392339D02*
X397005D01*
X392339Y540665D01*
Y541832D01*
X393506Y542998D01*
X395838D01*
X397005Y541832D01*
X748335Y709081D02*
X749501Y710248D01*
X751834D01*
X753000Y709081D01*
Y704416D01*
X751834Y703250D01*
X749501D01*
X748335Y704416D01*
X746002Y703250D02*
Y707915D01*
X742503D01*
X741337Y706749D01*
Y703250D01*
X739005Y709081D02*
X737838Y710248D01*
X735506D01*
X734339Y709081D01*
Y707915D01*
X735506Y706749D01*
X736672D01*
X735506D01*
X734339Y705583D01*
Y704416D01*
X735506Y703250D01*
X737838D01*
X739005Y704416D01*
X369731Y509541D02*
X370897Y510708D01*
X373230D01*
X374396Y509541D01*
Y504876D01*
X373230Y503710D01*
X370897D01*
X369731Y504876D01*
X367398Y503710D02*
Y508375D01*
X363899D01*
X362733Y507209D01*
Y503710D01*
X355735D02*
X360401D01*
X355735Y508375D01*
Y509541D01*
X356902Y510708D01*
X359234D01*
X360401Y509541D01*
X311000Y502000D02*
X304002D01*
Y498501D01*
X305168Y497335D01*
X307501D01*
X308667Y498501D01*
Y502000D01*
Y499667D02*
X311000Y497335D01*
X304002Y495002D02*
X311000D01*
Y491503D01*
X309834Y490337D01*
X308667D01*
X307501D01*
X306335Y491503D01*
Y495002D01*
X311000Y488004D02*
Y485672D01*
Y486838D01*
X304002D01*
X305168Y488004D01*
X311000Y478674D02*
X304002D01*
X307501Y482173D01*
Y477508D01*
X482000Y573498D02*
Y567666D01*
X480834Y566500D01*
X478501D01*
X477335Y567666D01*
Y573498D01*
X475002Y566500D02*
Y571165D01*
X471503D01*
X470337Y569999D01*
Y566500D01*
X466838D02*
X464506D01*
X463339Y567666D01*
Y569999D01*
X464506Y571165D01*
X466838D01*
X468004Y569999D01*
Y567666D01*
X466838Y566500D01*
X461007Y571165D02*
Y566500D01*
Y568833D01*
X459841Y569999D01*
X458674Y571165D01*
X457508D01*
X982335Y387831D02*
X983501Y388998D01*
X985834D01*
X987000Y387831D01*
Y383166D01*
X985834Y382000D01*
X983501D01*
X982335Y383166D01*
X980002Y388998D02*
Y382000D01*
X976503D01*
X975337Y383166D01*
Y387831D01*
X976503Y388998D01*
X980002D01*
X973005Y387831D02*
X971838Y388998D01*
X969506D01*
X968339Y387831D01*
Y386665D01*
X969506Y385499D01*
X970672D01*
X969506D01*
X968339Y384333D01*
Y383166D01*
X969506Y382000D01*
X971838D01*
X973005Y383166D01*
X961342Y388998D02*
X966007D01*
Y385499D01*
X963674Y386665D01*
X962508D01*
X961342Y385499D01*
Y383166D01*
X962508Y382000D01*
X964840D01*
X966007Y383166D01*
X819335Y386832D02*
X820501Y387998D01*
X822834D01*
X824000Y386832D01*
Y382166D01*
X822834Y381000D01*
X820501D01*
X819335Y382166D01*
X817002Y387998D02*
Y381000D01*
X813503D01*
X812337Y382166D01*
Y386832D01*
X813503Y387998D01*
X817002D01*
X805339Y381000D02*
X810005D01*
X805339Y385665D01*
Y386832D01*
X806506Y387998D01*
X808838D01*
X810005Y386832D01*
X798342Y387998D02*
X803007D01*
Y384499D01*
X800674Y385665D01*
X799508D01*
X798342Y384499D01*
Y382166D01*
X799508Y381000D01*
X801841D01*
X803007Y382166D01*
X666085Y387081D02*
X667251Y388248D01*
X669584D01*
X670750Y387081D01*
Y382416D01*
X669584Y381250D01*
X667251D01*
X666085Y382416D01*
X663752Y388248D02*
Y381250D01*
X660253D01*
X659087Y382416D01*
Y387081D01*
X660253Y388248D01*
X663752D01*
X656755Y381250D02*
X654422D01*
X655588D01*
Y388248D01*
X656755Y387081D01*
X646258Y388248D02*
X650923D01*
Y384749D01*
X648590Y385915D01*
X647424D01*
X646258Y384749D01*
Y382416D01*
X647424Y381250D01*
X649757D01*
X650923Y382416D01*
X799750Y275998D02*
Y270166D01*
X798584Y269000D01*
X796251D01*
X795085Y270166D01*
Y275998D01*
X792752Y269000D02*
Y273665D01*
X791586D01*
X790420Y272499D01*
Y269000D01*
Y272499D01*
X789253Y273665D01*
X788087Y272499D01*
Y269000D01*
X781089D02*
X785754D01*
X781089Y273665D01*
Y274832D01*
X782256Y275998D01*
X784588D01*
X785754Y274832D01*
X592000Y484250D02*
X585002D01*
Y480751D01*
X586169Y479585D01*
X588501D01*
X589667Y480751D01*
Y484250D01*
Y481917D02*
X592000Y479585D01*
X587335Y477252D02*
Y472587D01*
X592000Y477252D01*
Y472587D01*
X587335Y470255D02*
X592000Y467922D01*
X587335Y465589D01*
X592000Y463257D02*
Y459758D01*
X590834Y458592D01*
X589667Y459758D01*
Y462090D01*
X588501Y463257D01*
X587335Y462090D01*
Y458592D01*
X620250Y167250D02*
Y174248D01*
X616751D01*
X615585Y173081D01*
Y170749D01*
X616751Y169583D01*
X620250D01*
X617917D02*
X615585Y167250D01*
X612086Y173081D02*
Y171915D01*
X613252D01*
X610920D01*
X612086D01*
Y168416D01*
X610920Y167250D01*
X602756D02*
X607421D01*
X602756Y171915D01*
Y173081D01*
X603922Y174248D01*
X606255D01*
X607421Y173081D01*
X272000Y628000D02*
Y634998D01*
X268501D01*
X267335Y633831D01*
Y631499D01*
X268501Y630333D01*
X272000D01*
X269667D02*
X267335Y628000D01*
X265002D02*
Y632665D01*
X263836D01*
X262670Y631499D01*
Y628000D01*
Y631499D01*
X261503Y632665D01*
X260337Y631499D01*
Y628000D01*
X253339D02*
X258004D01*
X253339Y632665D01*
Y633831D01*
X254506Y634998D01*
X256838D01*
X258004Y633831D01*
X340000Y629000D02*
Y635998D01*
X336501D01*
X335335Y634832D01*
Y632499D01*
X336501Y631333D01*
X340000D01*
X337667D02*
X335335Y629000D01*
X333002D02*
Y633665D01*
X331836D01*
X330670Y632499D01*
Y629000D01*
Y632499D01*
X329503Y633665D01*
X328337Y632499D01*
Y629000D01*
X326004D02*
X323672D01*
X324838D01*
Y635998D01*
X326004Y634832D01*
X724500Y759000D02*
Y765998D01*
X721001D01*
X719835Y764831D01*
Y762499D01*
X721001Y761333D01*
X724500D01*
X722167D02*
X719835Y759000D01*
X712837Y763665D02*
X716336D01*
X717502Y762499D01*
Y760166D01*
X716336Y759000D01*
X712837D01*
X710505Y764831D02*
X709338Y765998D01*
X707006D01*
X705839Y764831D01*
Y763665D01*
X707006Y762499D01*
X708172D01*
X707006D01*
X705839Y761333D01*
Y760166D01*
X707006Y759000D01*
X709338D01*
X710505Y760166D01*
X703507Y764831D02*
X702340Y765998D01*
X700008D01*
X698842Y764831D01*
Y763665D01*
X700008Y762499D01*
X701174D01*
X700008D01*
X698842Y761333D01*
Y760166D01*
X700008Y759000D01*
X702340D01*
X703507Y760166D01*
X769000Y786000D02*
Y792998D01*
X765501D01*
X764335Y791832D01*
Y789499D01*
X765501Y788333D01*
X769000D01*
X766667D02*
X764335Y786000D01*
X757337Y790665D02*
X760836D01*
X762002Y789499D01*
Y787166D01*
X760836Y786000D01*
X757337D01*
X755005Y791832D02*
X753838Y792998D01*
X751506D01*
X750339Y791832D01*
Y790665D01*
X751506Y789499D01*
X752672D01*
X751506D01*
X750339Y788333D01*
Y787166D01*
X751506Y786000D01*
X753838D01*
X755005Y787166D01*
X743342Y786000D02*
X748007D01*
X743342Y790665D01*
Y791832D01*
X744508Y792998D01*
X746841D01*
X748007Y791832D01*
X357000Y789000D02*
Y795998D01*
X353501D01*
X352335Y794831D01*
Y792499D01*
X353501Y791333D01*
X357000D01*
X354667D02*
X352335Y789000D01*
X350002Y795998D02*
Y789000D01*
X346503D01*
X345337Y790166D01*
Y791333D01*
Y792499D01*
X346503Y793665D01*
X350002D01*
X343004Y789000D02*
X340672D01*
X341838D01*
Y795998D01*
X343004Y794831D01*
X332508Y789000D02*
X337173D01*
X332508Y793665D01*
Y794831D01*
X333674Y795998D01*
X336007D01*
X337173Y794831D01*
X300000Y500000D02*
Y506998D01*
X296501D01*
X295335Y505831D01*
Y503499D01*
X296501Y502333D01*
X300000D01*
X297667D02*
X295335Y500000D01*
X293002Y506998D02*
Y500000D01*
X289503D01*
X288337Y501166D01*
Y502333D01*
Y503499D01*
X289503Y504665D01*
X293002D01*
X286005Y500000D02*
X283672D01*
X284838D01*
Y506998D01*
X286005Y505831D01*
X280173Y500000D02*
X277840D01*
X279007D01*
Y506998D01*
X280173Y505831D01*
X276000Y499000D02*
Y505998D01*
X272501D01*
X271335Y504832D01*
Y502499D01*
X272501Y501333D01*
X276000D01*
X273667D02*
X271335Y499000D01*
X269002Y505998D02*
Y499000D01*
X265503D01*
X264337Y500166D01*
Y501333D01*
Y502499D01*
X265503Y503665D01*
X269002D01*
X262005Y499000D02*
X259672D01*
X260838D01*
Y505998D01*
X262005Y504832D01*
X256173D02*
X255007Y505998D01*
X252674D01*
X251508Y504832D01*
Y500166D01*
X252674Y499000D01*
X255007D01*
X256173Y500166D01*
Y504832D01*
X837250Y776500D02*
X830252D01*
Y773001D01*
X831419Y771835D01*
X833751D01*
X834917Y773001D01*
Y776500D01*
Y774167D02*
X837250Y771835D01*
X830252Y769502D02*
X837250D01*
Y766003D01*
X836084Y764837D01*
X834917D01*
X833751D01*
X832585Y766003D01*
Y769502D01*
X831419Y761338D02*
X832585D01*
Y762505D01*
Y760172D01*
Y761338D01*
X836084D01*
X837250Y760172D01*
X830252Y752008D02*
Y756673D01*
X833751D01*
X832585Y754341D01*
Y753174D01*
X833751Y752008D01*
X836084D01*
X837250Y753174D01*
Y755507D01*
X836084Y756673D01*
X202184Y429796D02*
Y436794D01*
X198685D01*
X197519Y435627D01*
Y433295D01*
X198685Y432129D01*
X202184D01*
X199851D02*
X197519Y429796D01*
X195186Y436794D02*
Y429796D01*
X191687D01*
X190521Y430962D01*
Y432129D01*
Y433295D01*
X191687Y434461D01*
X195186D01*
X183523Y429796D02*
X188188D01*
X183523Y434461D01*
Y435627D01*
X184690Y436794D01*
X187022D01*
X188188Y435627D01*
X252000Y421000D02*
X245002D01*
Y417501D01*
X246168Y416335D01*
X248501D01*
X249667Y417501D01*
Y421000D01*
Y418667D02*
X252000Y416335D01*
X245002Y414002D02*
X252000D01*
Y410503D01*
X250834Y409337D01*
X249667D01*
X248501D01*
X247335Y410503D01*
Y414002D01*
X252000Y407005D02*
Y404672D01*
Y405838D01*
X245002D01*
X246168Y407005D01*
X807000Y788000D02*
Y794998D01*
X803501D01*
X802335Y793831D01*
Y791499D01*
X803501Y790333D01*
X807000D01*
X804667D02*
X802335Y788000D01*
X800002Y794998D02*
Y788000D01*
X796503D01*
X795337Y789166D01*
Y790333D01*
Y791499D01*
X796503Y792665D01*
X800002D01*
X791838Y793831D02*
Y792665D01*
X793005D01*
X790672D01*
X791838D01*
Y789166D01*
X790672Y788000D01*
X783674D02*
Y794998D01*
X787173Y791499D01*
X782508D01*
X386250Y728750D02*
X379252D01*
Y725251D01*
X380419Y724085D01*
X382751D01*
X383917Y725251D01*
Y728750D01*
Y726417D02*
X386250Y724085D01*
X380419Y721752D02*
X379252Y720586D01*
Y718253D01*
X380419Y717087D01*
X381585D01*
X382751Y718253D01*
Y719420D01*
Y718253D01*
X383917Y717087D01*
X385084D01*
X386250Y718253D01*
Y720586D01*
X385084Y721752D01*
X379252Y710089D02*
X380419Y712422D01*
X382751Y714754D01*
X385084D01*
X386250Y713588D01*
Y711256D01*
X385084Y710089D01*
X383917D01*
X382751Y711256D01*
Y714754D01*
X255000Y734000D02*
Y740998D01*
X251501D01*
X250335Y739831D01*
Y737499D01*
X251501Y736333D01*
X255000D01*
X252667D02*
X250335Y734000D01*
X248002Y739831D02*
X246836Y740998D01*
X244503D01*
X243337Y739831D01*
Y738665D01*
X244503Y737499D01*
X245670D01*
X244503D01*
X243337Y736333D01*
Y735166D01*
X244503Y734000D01*
X246836D01*
X248002Y735166D01*
X241005Y739831D02*
X239838Y740998D01*
X237506D01*
X236339Y739831D01*
Y738665D01*
X237506Y737499D01*
X238672D01*
X237506D01*
X236339Y736333D01*
Y735166D01*
X237506Y734000D01*
X239838D01*
X241005Y735166D01*
X577000Y575000D02*
X570002D01*
Y571501D01*
X571169Y570335D01*
X573501D01*
X574667Y571501D01*
Y575000D01*
Y572667D02*
X577000Y570335D01*
Y563337D02*
Y568002D01*
X572335Y563337D01*
X571169D01*
X570002Y564503D01*
Y566836D01*
X571169Y568002D01*
X570002Y561004D02*
Y556339D01*
X571169D01*
X575834Y561004D01*
X577000D01*
X636000Y591000D02*
X629002D01*
Y587501D01*
X630168Y586335D01*
X632501D01*
X633667Y587501D01*
Y591000D01*
Y588667D02*
X636000Y586335D01*
Y579337D02*
Y584002D01*
X631335Y579337D01*
X630168D01*
X629002Y580503D01*
Y582836D01*
X630168Y584002D01*
X629002Y572339D02*
X630168Y574672D01*
X632501Y577005D01*
X634834D01*
X636000Y575838D01*
Y573506D01*
X634834Y572339D01*
X633667D01*
X632501Y573506D01*
Y577005D01*
X778335Y738831D02*
X779501Y739998D01*
X781834D01*
X783000Y738831D01*
Y734166D01*
X781834Y733000D01*
X779501D01*
X778335Y734166D01*
X774836Y738831D02*
Y737665D01*
X776002D01*
X773670D01*
X774836D01*
Y734166D01*
X773670Y733000D01*
X499335Y603831D02*
X500501Y604998D01*
X502834D01*
X504000Y603831D01*
Y599166D01*
X502834Y598000D01*
X500501D01*
X499335Y599166D01*
X495836Y598000D02*
X493503D01*
X492337Y599166D01*
Y601499D01*
X493503Y602665D01*
X495836D01*
X497002Y601499D01*
Y599166D01*
X495836Y598000D01*
X490005Y602665D02*
Y598000D01*
Y600333D01*
X488838Y601499D01*
X487672Y602665D01*
X486506D01*
X476169Y595335D02*
X475002Y596501D01*
Y598834D01*
X476169Y600000D01*
X480834D01*
X482000Y598834D01*
Y596501D01*
X480834Y595335D01*
X482000Y593002D02*
X477335D01*
Y589503D01*
X478501Y588337D01*
X482000D01*
Y584838D02*
Y582506D01*
X480834Y581339D01*
X478501D01*
X477335Y582506D01*
Y584838D01*
X478501Y586004D01*
X480834D01*
X482000Y584838D01*
X477335Y579007D02*
X482000D01*
X479667D01*
X478501Y577840D01*
X477335Y576674D01*
Y575508D01*
X708335Y793831D02*
X709501Y794998D01*
X711834D01*
X713000Y793831D01*
Y789166D01*
X711834Y788000D01*
X709501D01*
X708335Y789166D01*
X701337Y792665D02*
X704836D01*
X706002Y791499D01*
Y789166D01*
X704836Y788000D01*
X701337D01*
X699005Y793831D02*
X697838Y794998D01*
X695506D01*
X694339Y793831D01*
Y792665D01*
X695506Y791499D01*
X696672D01*
X695506D01*
X694339Y790333D01*
Y789166D01*
X695506Y788000D01*
X697838D01*
X699005Y789166D01*
X467335Y597831D02*
X468501Y598998D01*
X470834D01*
X472000Y597831D01*
Y593166D01*
X470834Y592000D01*
X468501D01*
X467335Y593166D01*
X460337Y596665D02*
X463836D01*
X465002Y595499D01*
Y593166D01*
X463836Y592000D01*
X460337D01*
X458004D02*
X455672D01*
X456838D01*
Y598998D01*
X458004Y597831D01*
X711585Y560081D02*
X712751Y561248D01*
X715084D01*
X716250Y560081D01*
Y555416D01*
X715084Y554250D01*
X712751D01*
X711585Y555416D01*
X709252Y561248D02*
Y554250D01*
X705753D01*
X704587Y555416D01*
Y556583D01*
Y557749D01*
X705753Y558915D01*
X709252D01*
X701088D02*
X698756D01*
X697589Y557749D01*
Y554250D01*
X701088D01*
X702254Y555416D01*
X701088Y556583D01*
X697589D01*
X694090Y554250D02*
Y560081D01*
Y557749D01*
X695257D01*
X692924D01*
X694090D01*
Y560081D01*
X692924Y561248D01*
X394418Y394585D02*
X393252Y395751D01*
Y398084D01*
X394418Y399250D01*
X399084D01*
X400250Y398084D01*
Y395751D01*
X399084Y394585D01*
X393252Y392252D02*
X400250D01*
Y388753D01*
X399084Y387587D01*
X397917D01*
X396751D01*
X395585Y388753D01*
Y392252D01*
X394418Y385255D02*
X393252Y384088D01*
Y381756D01*
X394418Y380589D01*
X399084D01*
X400250Y381756D01*
Y384088D01*
X399084Y385255D01*
X394418D01*
X556085Y577332D02*
X557251Y578498D01*
X559584D01*
X560750Y577332D01*
Y572666D01*
X559584Y571500D01*
X557251D01*
X556085Y572666D01*
X549087Y571500D02*
X553752D01*
X549087Y576165D01*
Y577332D01*
X550253Y578498D01*
X552586D01*
X553752Y577332D01*
X546754Y571500D02*
X544422D01*
X545588D01*
Y578498D01*
X546754Y577332D01*
X645085Y277331D02*
X646251Y278498D01*
X648584D01*
X649750Y277331D01*
Y272666D01*
X648584Y271500D01*
X646251D01*
X645085Y272666D01*
X642752Y271500D02*
X640420D01*
X641586D01*
Y278498D01*
X642752Y277331D01*
X633422Y271500D02*
Y278498D01*
X636921Y274999D01*
X632256D01*
X537210Y752770D02*
Y746938D01*
X536044Y745772D01*
X533711D01*
X532545Y746938D01*
Y752770D01*
X529046Y745772D02*
X526713D01*
X525547Y746938D01*
Y749271D01*
X526713Y750437D01*
X529046D01*
X530212Y749271D01*
Y746938D01*
X529046Y745772D01*
X523214Y750437D02*
Y745772D01*
Y748105D01*
X522048Y749271D01*
X520882Y750437D01*
X519716D01*
X545252Y718500D02*
X551084D01*
X552250Y717334D01*
Y715001D01*
X551084Y713835D01*
X545252D01*
X547585Y706837D02*
Y710336D01*
X548751Y711502D01*
X551084D01*
X552250Y710336D01*
Y706837D01*
Y704504D02*
X547585D01*
Y703338D01*
X548751Y702172D01*
X552250D01*
X548751D01*
X547585Y701006D01*
X548751Y699839D01*
X552250D01*
X554583Y697507D02*
X547585D01*
Y694008D01*
X548751Y692842D01*
X551084D01*
X552250Y694008D01*
Y697507D01*
Y685844D02*
Y690509D01*
X547585Y685844D01*
X546418D01*
X545252Y687010D01*
Y689343D01*
X546418Y690509D01*
X665000Y789000D02*
Y795998D01*
X661501D01*
X660335Y794831D01*
Y792499D01*
X661501Y791333D01*
X665000D01*
X662667D02*
X660335Y789000D01*
X658002D02*
Y793665D01*
X656836D01*
X655670Y792499D01*
Y789000D01*
Y792499D01*
X654503Y793665D01*
X653337Y792499D01*
Y789000D01*
X646339Y795998D02*
X648672Y794831D01*
X651004Y792499D01*
Y790166D01*
X649838Y789000D01*
X647506D01*
X646339Y790166D01*
Y791333D01*
X647506Y792499D01*
X651004D01*
X270000Y574000D02*
X263002D01*
Y570501D01*
X264168Y569335D01*
X266501D01*
X267667Y570501D01*
Y574000D01*
Y571667D02*
X270000Y569335D01*
Y567002D02*
X265335D01*
Y565836D01*
X266501Y564670D01*
X270000D01*
X266501D01*
X265335Y563503D01*
X266501Y562337D01*
X270000D01*
X263002Y555339D02*
Y560005D01*
X266501D01*
X265335Y557672D01*
Y556506D01*
X266501Y555339D01*
X268834D01*
X270000Y556506D01*
Y558838D01*
X268834Y560005D01*
X293000Y599000D02*
X286002D01*
Y595501D01*
X287169Y594335D01*
X289501D01*
X290667Y595501D01*
Y599000D01*
Y596667D02*
X293000Y594335D01*
Y592002D02*
X288335D01*
Y590836D01*
X289501Y589670D01*
X293000D01*
X289501D01*
X288335Y588503D01*
X289501Y587337D01*
X293000D01*
Y581506D02*
X286002D01*
X289501Y585005D01*
Y580339D01*
X329000Y790000D02*
Y796998D01*
X325501D01*
X324335Y795832D01*
Y793499D01*
X325501Y792333D01*
X329000D01*
X326667D02*
X324335Y790000D01*
X322002D02*
Y794665D01*
X320836D01*
X319670Y793499D01*
Y790000D01*
Y793499D01*
X318503Y794665D01*
X317337Y793499D01*
Y790000D01*
X315005Y795832D02*
X313838Y796998D01*
X311506D01*
X310339Y795832D01*
Y794665D01*
X311506Y793499D01*
X312672D01*
X311506D01*
X310339Y792333D01*
Y791166D01*
X311506Y790000D01*
X313838D01*
X315005Y791166D01*
X552500Y676000D02*
X545502D01*
Y672501D01*
X546669Y671335D01*
X549001D01*
X550167Y672501D01*
Y676000D01*
Y673667D02*
X552500Y671335D01*
X547835Y664337D02*
Y667836D01*
X549001Y669002D01*
X551334D01*
X552500Y667836D01*
Y664337D01*
Y657339D02*
Y662004D01*
X547835Y657339D01*
X546669D01*
X545502Y658506D01*
Y660838D01*
X546669Y662004D01*
Y655007D02*
X545502Y653840D01*
Y651508D01*
X546669Y650342D01*
X547835D01*
X549001Y651508D01*
X550167Y650342D01*
X551334D01*
X552500Y651508D01*
Y653840D01*
X551334Y655007D01*
X550167D01*
X549001Y653840D01*
X547835Y655007D01*
X546669D01*
X549001Y653840D02*
Y651508D01*
X527000Y596000D02*
Y600998D01*
X524501D01*
X523668Y600165D01*
Y598499D01*
X524501Y597666D01*
X527000D01*
X525334D02*
X523668Y596000D01*
X518669Y599332D02*
X521169D01*
X522002Y598499D01*
Y596833D01*
X521169Y596000D01*
X518669D01*
X513671D02*
X517003D01*
X513671Y599332D01*
Y600165D01*
X514504Y600998D01*
X516170D01*
X517003Y600165D01*
X512005Y596833D02*
X511172Y596000D01*
X509506D01*
X508673Y596833D01*
Y600165D01*
X509506Y600998D01*
X511172D01*
X512005Y600165D01*
Y599332D01*
X511172Y598499D01*
X508673D01*
X410000Y581000D02*
Y587998D01*
X406501D01*
X405335Y586832D01*
Y584499D01*
X406501Y583333D01*
X410000D01*
X407667D02*
X405335Y581000D01*
X398337Y585665D02*
X401836D01*
X403002Y584499D01*
Y582166D01*
X401836Y581000D01*
X398337D01*
X396004D02*
X393672D01*
X394838D01*
Y587998D01*
X396004Y586832D01*
X385508Y581000D02*
X390173D01*
X385508Y585665D01*
Y586832D01*
X386674Y587998D01*
X389007D01*
X390173Y586832D01*
X357000Y609000D02*
X350002D01*
Y605501D01*
X351169Y604335D01*
X353501D01*
X354667Y605501D01*
Y609000D01*
Y606667D02*
X357000Y604335D01*
X352335Y597337D02*
Y600836D01*
X353501Y602002D01*
X355834D01*
X357000Y600836D01*
Y597337D01*
Y595005D02*
Y592672D01*
Y593838D01*
X350002D01*
X351169Y595005D01*
X357000Y589173D02*
Y586841D01*
Y588007D01*
X350002D01*
X351169Y589173D01*
X480000Y786000D02*
Y792998D01*
X476501D01*
X475335Y791832D01*
Y789499D01*
X476501Y788333D01*
X480000D01*
X477667D02*
X475335Y786000D01*
X468337Y790665D02*
X471836D01*
X473002Y789499D01*
Y787166D01*
X471836Y786000D01*
X468337D01*
X466004D02*
X463672D01*
X464838D01*
Y792998D01*
X466004Y791832D01*
X460173D02*
X459007Y792998D01*
X456674D01*
X455508Y791832D01*
Y790665D01*
X456674Y789499D01*
X455508Y788333D01*
Y787166D01*
X456674Y786000D01*
X459007D01*
X460173Y787166D01*
Y788333D01*
X459007Y789499D01*
X460173Y790665D01*
Y791832D01*
X459007Y789499D02*
X456674D01*
X483250Y745250D02*
Y752248D01*
X479751D01*
X478585Y751081D01*
Y748749D01*
X479751Y747583D01*
X483250D01*
X480917D02*
X478585Y745250D01*
X471587Y749915D02*
X475086D01*
X476252Y748749D01*
Y746416D01*
X475086Y745250D01*
X471587D01*
X469254D02*
X466922D01*
X468088D01*
Y752248D01*
X469254Y751081D01*
X463423Y746416D02*
X462257Y745250D01*
X459924D01*
X458758Y746416D01*
Y751081D01*
X459924Y752248D01*
X462257D01*
X463423Y751081D01*
Y749915D01*
X462257Y748749D01*
X458758D01*
X316000Y709000D02*
Y715998D01*
X312501D01*
X311335Y714831D01*
Y712499D01*
X312501Y711333D01*
X316000D01*
X313667D02*
X311335Y709000D01*
X309002Y715998D02*
Y709000D01*
X305503D01*
X304337Y710166D01*
Y711333D01*
Y712499D01*
X305503Y713665D01*
X309002D01*
X300838Y714831D02*
Y713665D01*
X302005D01*
X299672D01*
X300838D01*
Y710166D01*
X299672Y709000D01*
X296173Y714831D02*
X295007Y715998D01*
X292674D01*
X291508Y714831D01*
Y713665D01*
X292674Y712499D01*
X293841D01*
X292674D01*
X291508Y711333D01*
Y710166D01*
X292674Y709000D01*
X295007D01*
X296173Y710166D01*
X160782Y214150D02*
Y221148D01*
X157283D01*
X156117Y219981D01*
Y217649D01*
X157283Y216483D01*
X160782D01*
X158449D02*
X156117Y214150D01*
X153784Y221148D02*
Y214150D01*
X150285D01*
X149119Y215316D01*
Y216483D01*
Y217649D01*
X150285Y218815D01*
X153784D01*
X145620Y219981D02*
Y218815D01*
X146786D01*
X144454D01*
X145620D01*
Y215316D01*
X144454Y214150D01*
X136290D02*
X140955D01*
X136290Y218815D01*
Y219981D01*
X137456Y221148D01*
X139789D01*
X140955Y219981D01*
X135890Y188496D02*
Y195494D01*
X132391D01*
X131225Y194327D01*
Y191995D01*
X132391Y190829D01*
X135890D01*
X133557D02*
X131225Y188496D01*
X128892Y195494D02*
Y188496D01*
X125393D01*
X124227Y189662D01*
Y190829D01*
Y191995D01*
X125393Y193161D01*
X128892D01*
X120728Y194327D02*
Y193161D01*
X121895D01*
X119562D01*
X120728D01*
Y189662D01*
X119562Y188496D01*
X116063D02*
X113730D01*
X114897D01*
Y195494D01*
X116063Y194327D01*
X249000Y499000D02*
Y505998D01*
X245501D01*
X244335Y504832D01*
Y502499D01*
X245501Y501333D01*
X249000D01*
X246667D02*
X244335Y499000D01*
X242002Y505998D02*
Y499000D01*
X238503D01*
X237337Y500166D01*
Y501333D01*
Y502499D01*
X238503Y503665D01*
X242002D01*
X230339Y505998D02*
X232672Y504832D01*
X235005Y502499D01*
Y500166D01*
X233838Y499000D01*
X231506D01*
X230339Y500166D01*
Y501333D01*
X231506Y502499D01*
X235005D01*
X225000Y499000D02*
Y505998D01*
X221501D01*
X220335Y504832D01*
Y502499D01*
X221501Y501333D01*
X225000D01*
X222667D02*
X220335Y499000D01*
X218002Y505998D02*
Y499000D01*
X214503D01*
X213337Y500166D01*
Y501333D01*
Y502499D01*
X214503Y503665D01*
X218002D01*
X206339Y505998D02*
X211005D01*
Y502499D01*
X208672Y503665D01*
X207506D01*
X206339Y502499D01*
Y500166D01*
X207506Y499000D01*
X209838D01*
X211005Y500166D01*
X355000Y681000D02*
X348002D01*
Y677501D01*
X349169Y676335D01*
X351501D01*
X352667Y677501D01*
Y681000D01*
Y678667D02*
X355000Y676335D01*
X349169Y674002D02*
X348002Y672836D01*
Y670503D01*
X349169Y669337D01*
X350335D01*
X351501Y670503D01*
Y671670D01*
Y670503D01*
X352667Y669337D01*
X353834D01*
X355000Y670503D01*
Y672836D01*
X353834Y674002D01*
X348002Y667004D02*
Y662339D01*
X349169D01*
X353834Y667004D01*
X355000D01*
X386750Y756000D02*
X379752D01*
Y752501D01*
X380919Y751335D01*
X383251D01*
X384417Y752501D01*
Y756000D01*
Y753667D02*
X386750Y751335D01*
X380919Y749002D02*
X379752Y747836D01*
Y745503D01*
X380919Y744337D01*
X382085D01*
X383251Y745503D01*
Y746670D01*
Y745503D01*
X384417Y744337D01*
X385584D01*
X386750Y745503D01*
Y747836D01*
X385584Y749002D01*
X379752Y737339D02*
Y742004D01*
X383251D01*
X382085Y739672D01*
Y738506D01*
X383251Y737339D01*
X385584D01*
X386750Y738506D01*
Y740838D01*
X385584Y742004D01*
X601250Y649000D02*
Y655998D01*
X597751D01*
X596585Y654831D01*
Y652499D01*
X597751Y651333D01*
X601250D01*
X598917D02*
X596585Y649000D01*
X589587D02*
X594252D01*
X589587Y653665D01*
Y654831D01*
X590753Y655998D01*
X593086D01*
X594252Y654831D01*
X582589Y655998D02*
X587254D01*
Y652499D01*
X584922Y653665D01*
X583756D01*
X582589Y652499D01*
Y650166D01*
X583756Y649000D01*
X586088D01*
X587254Y650166D01*
X576000Y648750D02*
Y655748D01*
X572501D01*
X571335Y654582D01*
Y652249D01*
X572501Y651083D01*
X576000D01*
X573667D02*
X571335Y648750D01*
X564337D02*
X569002D01*
X564337Y653415D01*
Y654582D01*
X565503Y655748D01*
X567836D01*
X569002Y654582D01*
X558506Y648750D02*
Y655748D01*
X562005Y652249D01*
X557339D01*
X624000Y612000D02*
Y618998D01*
X620501D01*
X619335Y617831D01*
Y615499D01*
X620501Y614333D01*
X624000D01*
X621667D02*
X619335Y612000D01*
X612337D02*
X617002D01*
X612337Y616665D01*
Y617831D01*
X613503Y618998D01*
X615836D01*
X617002Y617831D01*
X605339Y612000D02*
X610005D01*
X605339Y616665D01*
Y617831D01*
X606506Y618998D01*
X608838D01*
X610005Y617831D01*
X357000Y657000D02*
X350002D01*
Y653501D01*
X351169Y652335D01*
X353501D01*
X354667Y653501D01*
Y657000D01*
Y654667D02*
X357000Y652335D01*
Y650002D02*
Y647670D01*
Y648836D01*
X350002D01*
X351169Y650002D01*
X350002Y644171D02*
Y639506D01*
X351169D01*
X355834Y644171D01*
X357000D01*
X427000Y644000D02*
Y650998D01*
X423501D01*
X422335Y649831D01*
Y647499D01*
X423501Y646333D01*
X427000D01*
X424667D02*
X422335Y644000D01*
X420002D02*
X417670D01*
X418836D01*
Y650998D01*
X420002Y649831D01*
X409506Y650998D02*
X411838Y649831D01*
X414171Y647499D01*
Y645166D01*
X413004Y644000D01*
X410672D01*
X409506Y645166D01*
Y646333D01*
X410672Y647499D01*
X414171D01*
X451000Y644000D02*
Y650998D01*
X447501D01*
X446335Y649831D01*
Y647499D01*
X447501Y646333D01*
X451000D01*
X448667D02*
X446335Y644000D01*
X444002D02*
X441670D01*
X442836D01*
Y650998D01*
X444002Y649831D01*
X433506Y650998D02*
X438171D01*
Y647499D01*
X435838Y648665D01*
X434672D01*
X433506Y647499D01*
Y645166D01*
X434672Y644000D01*
X437005D01*
X438171Y645166D01*
X559530Y558960D02*
Y551962D01*
X556031D01*
X554865Y553128D01*
Y557794D01*
X556031Y558960D01*
X559530D01*
X552532Y557794D02*
X551366Y558960D01*
X549033D01*
X547867Y557794D01*
Y556627D01*
X549033Y555461D01*
X547867Y554295D01*
Y553128D01*
X549033Y551962D01*
X551366D01*
X552532Y553128D01*
Y554295D01*
X551366Y555461D01*
X552532Y556627D01*
Y557794D01*
X551366Y555461D02*
X549033D01*
X545535Y551962D02*
X543202D01*
X544368D01*
Y558960D01*
X545535Y557794D01*
X581313Y442458D02*
X582479Y443624D01*
X584812D01*
X585978Y442458D01*
Y437792D01*
X584812Y436626D01*
X582479D01*
X581313Y437792D01*
X578980Y443624D02*
X574315D01*
Y442458D01*
X578980Y437792D01*
Y436626D01*
X574315D01*
X567317D02*
X571982D01*
X567317Y441291D01*
Y442458D01*
X568484Y443624D01*
X570816D01*
X571982Y442458D01*
X582329Y382767D02*
X583495Y383934D01*
X585828D01*
X586994Y382767D01*
Y378102D01*
X585828Y376936D01*
X583495D01*
X582329Y378102D01*
X579996Y383934D02*
X575331D01*
Y382767D01*
X579996Y378102D01*
Y376936D01*
X575331D01*
X572999D02*
X570666D01*
X571832D01*
Y383934D01*
X572999Y382767D01*
X298335Y795832D02*
X299501Y796998D01*
X301834D01*
X303000Y795832D01*
Y791166D01*
X301834Y790000D01*
X299501D01*
X298335Y791166D01*
X296002Y790000D02*
Y794665D01*
X294836D01*
X293670Y793499D01*
Y790000D01*
Y793499D01*
X292503Y794665D01*
X291337Y793499D01*
Y790000D01*
X289004D02*
X286672D01*
X287838D01*
Y796998D01*
X289004Y795832D01*
X426335Y792831D02*
X427501Y793998D01*
X429834D01*
X431000Y792831D01*
Y788166D01*
X429834Y787000D01*
X427501D01*
X426335Y788166D01*
X424002Y793998D02*
Y787000D01*
X420503D01*
X419337Y788166D01*
Y789333D01*
Y790499D01*
X420503Y791665D01*
X424002D01*
X415838Y792831D02*
Y791665D01*
X417005D01*
X414672D01*
X415838D01*
Y788166D01*
X414672Y787000D01*
X381335Y794831D02*
X382501Y795998D01*
X384834D01*
X386000Y794831D01*
Y790166D01*
X384834Y789000D01*
X382501D01*
X381335Y790166D01*
X379002Y795998D02*
Y789000D01*
X375503D01*
X374337Y790166D01*
Y791333D01*
Y792499D01*
X375503Y793665D01*
X379002D01*
X368506Y789000D02*
Y795998D01*
X372005Y792499D01*
X367339D01*
X830585Y322332D02*
X831751Y323498D01*
X834084D01*
X835250Y322332D01*
Y317666D01*
X834084Y316500D01*
X831751D01*
X830585Y317666D01*
X828252Y322332D02*
X827086Y323498D01*
X824753D01*
X823587Y322332D01*
Y321165D01*
X824753Y319999D01*
X825920D01*
X824753D01*
X823587Y318833D01*
Y317666D01*
X824753Y316500D01*
X827086D01*
X828252Y317666D01*
X816589Y323498D02*
X818922Y322332D01*
X821255Y319999D01*
Y317666D01*
X820088Y316500D01*
X817756D01*
X816589Y317666D01*
Y318833D01*
X817756Y319999D01*
X821255D01*
X720335Y251082D02*
X721501Y252248D01*
X723834D01*
X725000Y251082D01*
Y246416D01*
X723834Y245250D01*
X721501D01*
X720335Y246416D01*
X713337Y245250D02*
X718002D01*
X713337Y249915D01*
Y251082D01*
X714503Y252248D01*
X716836D01*
X718002Y251082D01*
X711004D02*
X709838Y252248D01*
X707506D01*
X706339Y251082D01*
Y246416D01*
X707506Y245250D01*
X709838D01*
X711004Y246416D01*
Y251082D01*
X613585Y301581D02*
X614751Y302748D01*
X617084D01*
X618250Y301581D01*
Y296916D01*
X617084Y295750D01*
X614751D01*
X613585Y296916D01*
X611252Y295750D02*
X608920D01*
X610086D01*
Y302748D01*
X611252Y301581D01*
X600756Y302748D02*
X603088Y301581D01*
X605421Y299249D01*
Y296916D01*
X604254Y295750D01*
X601922D01*
X600756Y296916D01*
Y298083D01*
X601922Y299249D01*
X605421D01*
X643335Y156332D02*
X644501Y157498D01*
X646834D01*
X648000Y156332D01*
Y151666D01*
X646834Y150500D01*
X644501D01*
X643335Y151666D01*
X641002Y150500D02*
X638670D01*
X639836D01*
Y157498D01*
X641002Y156332D01*
X630506Y157498D02*
X635171D01*
Y153999D01*
X632838Y155165D01*
X631672D01*
X630506Y153999D01*
Y151666D01*
X631672Y150500D01*
X634005D01*
X635171Y151666D01*
X412242Y245735D02*
Y252732D01*
X408743D01*
X407577Y251566D01*
Y249233D01*
X408743Y248067D01*
X412242D01*
X409909D02*
X407577Y245735D01*
X405244D02*
X402912D01*
X404078D01*
Y252732D01*
X405244Y251566D01*
X394748Y252732D02*
X399413D01*
Y249233D01*
X397080Y250400D01*
X395914D01*
X394748Y249233D01*
Y246901D01*
X395914Y245735D01*
X398246D01*
X399413Y246901D01*
X387750Y245735D02*
X392415D01*
X387750Y250400D01*
Y251566D01*
X388916Y252732D01*
X391249D01*
X392415Y251566D01*
X1014000Y778000D02*
Y784998D01*
X1010501D01*
X1009335Y783831D01*
Y781499D01*
X1010501Y780333D01*
X1014000D01*
X1011667D02*
X1009335Y778000D01*
X1007002Y784998D02*
Y778000D01*
Y780333D01*
X1002337Y784998D01*
X1005836Y781499D01*
X1002337Y778000D01*
X1000005Y783831D02*
X998838Y784998D01*
X996506D01*
X995339Y783831D01*
Y782665D01*
X996506Y781499D01*
X997672D01*
X996506D01*
X995339Y780333D01*
Y779166D01*
X996506Y778000D01*
X998838D01*
X1000005Y779166D01*
X703326Y139728D02*
Y146726D01*
X699827D01*
X698661Y145559D01*
Y143227D01*
X699827Y142061D01*
X703326D01*
X700993D02*
X698661Y139728D01*
X696328Y146726D02*
Y139728D01*
Y142061D01*
X691663Y146726D01*
X695162Y143227D01*
X691663Y139728D01*
X689331D02*
X686998D01*
X688164D01*
Y146726D01*
X689331Y145559D01*
X200000Y499000D02*
Y505998D01*
X196501D01*
X195335Y504832D01*
Y502499D01*
X196501Y501333D01*
X200000D01*
X197667D02*
X195335Y499000D01*
X193002Y505998D02*
Y499000D01*
X189503D01*
X188337Y500166D01*
Y501333D01*
X189503Y502499D01*
X193002D01*
X189503D01*
X188337Y503665D01*
Y504832D01*
X189503Y505998D01*
X193002D01*
X186005Y504832D02*
X184838Y505998D01*
X182506D01*
X181339Y504832D01*
Y503665D01*
X182506Y502499D01*
X183672D01*
X182506D01*
X181339Y501333D01*
Y500166D01*
X182506Y499000D01*
X184838D01*
X186005Y500166D01*
X469444Y142642D02*
X462446D01*
Y139143D01*
X463613Y137977D01*
X465945D01*
X467111Y139143D01*
Y142642D01*
Y140309D02*
X469444Y137977D01*
Y135644D02*
Y133312D01*
Y134478D01*
X462446D01*
X463613Y135644D01*
X462446Y125148D02*
Y129813D01*
X465945D01*
X464779Y127480D01*
Y126314D01*
X465945Y125148D01*
X468278D01*
X469444Y126314D01*
Y128646D01*
X468278Y129813D01*
X469444Y122815D02*
Y120483D01*
Y121649D01*
X462446D01*
X463613Y122815D01*
X205250Y733750D02*
Y740748D01*
X201751D01*
X200585Y739582D01*
Y737249D01*
X201751Y736083D01*
X205250D01*
X202917D02*
X200585Y733750D01*
X198252D02*
X195920D01*
X197086D01*
Y740748D01*
X198252Y739582D01*
X192421D02*
X191255Y740748D01*
X188922D01*
X187756Y739582D01*
Y738415D01*
X188922Y737249D01*
X190088D01*
X188922D01*
X187756Y736083D01*
Y734916D01*
X188922Y733750D01*
X191255D01*
X192421Y734916D01*
X566500Y146250D02*
Y153248D01*
X563001D01*
X561835Y152081D01*
Y149749D01*
X563001Y148583D01*
X566500D01*
X564167D02*
X561835Y146250D01*
X554837Y153248D02*
X559502D01*
Y149749D01*
X557170Y150915D01*
X556003D01*
X554837Y149749D01*
Y147416D01*
X556003Y146250D01*
X558336D01*
X559502Y147416D01*
X547839Y146250D02*
X552505D01*
X547839Y150915D01*
Y152081D01*
X549006Y153248D01*
X551338D01*
X552505Y152081D01*
X781000Y572998D02*
Y567166D01*
X779834Y566000D01*
X777501D01*
X776335Y567166D01*
Y572998D01*
X774002D02*
Y566000D01*
X770503D01*
X769337Y567166D01*
Y568333D01*
Y569499D01*
X770503Y570665D01*
X774002D01*
X765838D02*
X763506D01*
X762339Y569499D01*
Y566000D01*
X765838D01*
X767004Y567166D01*
X765838Y568333D01*
X762339D01*
X758840Y566000D02*
Y571832D01*
Y569499D01*
X760007D01*
X757674D01*
X758840D01*
Y571832D01*
X757674Y572998D01*
X754175Y566000D02*
X751843D01*
X753009D01*
Y572998D01*
X754175Y571832D01*
X664000Y585000D02*
Y591998D01*
X660501D01*
X659335Y590831D01*
Y588499D01*
X660501Y587333D01*
X664000D01*
X661667D02*
X659335Y585000D01*
X657002Y582667D02*
Y589665D01*
X653503D01*
X652337Y588499D01*
Y586166D01*
X653503Y585000D01*
X657002D01*
X650005D02*
X647672D01*
X648838D01*
Y591998D01*
X650005Y590831D01*
X640674Y585000D02*
Y591998D01*
X644173Y588499D01*
X639508D01*
X700250Y710500D02*
Y717498D01*
X696751D01*
X695585Y716331D01*
Y713999D01*
X696751Y712833D01*
X700250D01*
X697917D02*
X695585Y710500D01*
X693252Y708167D02*
Y715165D01*
X689753D01*
X688587Y713999D01*
Y711666D01*
X689753Y710500D01*
X693252D01*
X686255D02*
X683922D01*
X685088D01*
Y717498D01*
X686255Y716331D01*
X675758Y710500D02*
X680423D01*
X675758Y715165D01*
Y716331D01*
X676924Y717498D01*
X679257D01*
X680423Y716331D01*
X878000Y737000D02*
Y743998D01*
X874501D01*
X873335Y742831D01*
Y740499D01*
X874501Y739333D01*
X878000D01*
X875667D02*
X873335Y737000D01*
X871002Y734667D02*
Y741665D01*
X867503D01*
X866337Y740499D01*
Y738166D01*
X867503Y737000D01*
X871002D01*
X864005D02*
X861672D01*
X862838D01*
Y743998D01*
X864005Y742831D01*
X858173D02*
X857007Y743998D01*
X854674D01*
X853508Y742831D01*
Y738166D01*
X854674Y737000D01*
X857007D01*
X858173Y738166D01*
Y742831D01*
X863250Y655750D02*
X856252D01*
Y652251D01*
X857419Y651085D01*
X859751D01*
X860917Y652251D01*
Y655750D01*
Y653417D02*
X863250Y651085D01*
X865583Y648752D02*
X858585D01*
Y645253D01*
X859751Y644087D01*
X862084D01*
X863250Y645253D01*
Y648752D01*
X857419Y641755D02*
X856252Y640588D01*
Y638256D01*
X857419Y637089D01*
X858585D01*
X859751Y638256D01*
X860917Y637089D01*
X862084D01*
X863250Y638256D01*
Y640588D01*
X862084Y641755D01*
X860917D01*
X859751Y640588D01*
X858585Y641755D01*
X857419D01*
X859751Y640588D02*
Y638256D01*
X890000Y628000D02*
X883002D01*
Y624501D01*
X884168Y623335D01*
X886501D01*
X887667Y624501D01*
Y628000D01*
Y625667D02*
X890000Y623335D01*
X892333Y621002D02*
X885335D01*
Y617503D01*
X886501Y616337D01*
X888834D01*
X890000Y617503D01*
Y621002D01*
X883002Y614005D02*
Y609339D01*
X884168D01*
X888834Y614005D01*
X890000D01*
X894669Y291585D02*
X893502Y292751D01*
Y295084D01*
X894669Y296250D01*
X899334D01*
X900500Y295084D01*
Y292751D01*
X899334Y291585D01*
X894669Y289252D02*
X893502Y288086D01*
Y285753D01*
X894669Y284587D01*
X895835D01*
X897001Y285753D01*
Y286920D01*
Y285753D01*
X898167Y284587D01*
X899334D01*
X900500Y285753D01*
Y288086D01*
X899334Y289252D01*
X900500Y278756D02*
X893502D01*
X897001Y282255D01*
Y277589D01*
X674169Y587585D02*
X673002Y588751D01*
Y591084D01*
X674169Y592250D01*
X678834D01*
X680000Y591084D01*
Y588751D01*
X678834Y587585D01*
X682333Y585252D02*
X675335D01*
Y581753D01*
X676501Y580587D01*
X678834D01*
X680000Y581753D01*
Y585252D01*
Y578255D02*
Y575922D01*
Y577088D01*
X673002D01*
X674169Y578255D01*
X680000Y568924D02*
X673002D01*
X676501Y572423D01*
Y567758D01*
X749335Y654831D02*
X750501Y655998D01*
X752834D01*
X754000Y654831D01*
Y650166D01*
X752834Y649000D01*
X750501D01*
X749335Y650166D01*
X747002Y646667D02*
Y653665D01*
X743503D01*
X742337Y652499D01*
Y650166D01*
X743503Y649000D01*
X747002D01*
X740005D02*
X737672D01*
X738838D01*
Y655998D01*
X740005Y654831D01*
X729508Y649000D02*
X734173D01*
X729508Y653665D01*
Y654831D01*
X730674Y655998D01*
X733007D01*
X734173Y654831D01*
X775835Y708831D02*
X777001Y709998D01*
X779334D01*
X780500Y708831D01*
Y704166D01*
X779334Y703000D01*
X777001D01*
X775835Y704166D01*
X773502Y700667D02*
Y707665D01*
X770003D01*
X768837Y706499D01*
Y704166D01*
X770003Y703000D01*
X773502D01*
X766505D02*
X764172D01*
X765338D01*
Y709998D01*
X766505Y708831D01*
X760673Y703000D02*
X758340D01*
X759507D01*
Y709998D01*
X760673Y708831D01*
X802835Y709582D02*
X804001Y710748D01*
X806334D01*
X807500Y709582D01*
Y704916D01*
X806334Y703750D01*
X804001D01*
X802835Y704916D01*
X800502Y701417D02*
Y708415D01*
X797003D01*
X795837Y707249D01*
Y704916D01*
X797003Y703750D01*
X800502D01*
X793504D02*
X791172D01*
X792338D01*
Y710748D01*
X793504Y709582D01*
X787673D02*
X786507Y710748D01*
X784174D01*
X783008Y709582D01*
Y704916D01*
X784174Y703750D01*
X786507D01*
X787673Y704916D01*
Y709582D01*
X851085Y582581D02*
X852251Y583748D01*
X854584D01*
X855750Y582581D01*
Y577916D01*
X854584Y576750D01*
X852251D01*
X851085Y577916D01*
X848752Y574417D02*
Y581415D01*
X845253D01*
X844087Y580249D01*
Y577916D01*
X845253Y576750D01*
X848752D01*
X841755Y583748D02*
X837089D01*
Y582581D01*
X841755Y577916D01*
Y576750D01*
X222157Y421149D02*
X223323Y422316D01*
X225656D01*
X226822Y421149D01*
Y416484D01*
X225656Y415318D01*
X223323D01*
X222157Y416484D01*
X219824Y422316D02*
Y415318D01*
X216325D01*
X215159Y416484D01*
Y417651D01*
X216325Y418817D01*
X219824D01*
X216325D01*
X215159Y419983D01*
Y421149D01*
X216325Y422316D01*
X219824D01*
X208161Y415318D02*
X212826D01*
X208161Y419983D01*
Y421149D01*
X209328Y422316D01*
X211660D01*
X212826Y421149D01*
X347335Y714831D02*
X348501Y715998D01*
X350834D01*
X352000Y714831D01*
Y710166D01*
X350834Y709000D01*
X348501D01*
X347335Y710166D01*
X345002Y715998D02*
Y709000D01*
X341503D01*
X340337Y710166D01*
Y711333D01*
X341503Y712499D01*
X345002D01*
X341503D01*
X340337Y713665D01*
Y714831D01*
X341503Y715998D01*
X345002D01*
X338004Y709000D02*
X335672D01*
X336838D01*
Y715998D01*
X338004Y714831D01*
X225335Y739831D02*
X226501Y740998D01*
X228834D01*
X230000Y739831D01*
Y735166D01*
X228834Y734000D01*
X226501D01*
X225335Y735166D01*
X223002Y734000D02*
X220670D01*
X221836D01*
Y740998D01*
X223002Y739831D01*
X217171Y734000D02*
X214838D01*
X216005D01*
Y740998D01*
X217171Y739831D01*
X273335D02*
X274501Y740998D01*
X276834D01*
X278000Y739831D01*
Y735166D01*
X276834Y734000D01*
X274501D01*
X273335Y735166D01*
X271002Y739831D02*
X269836Y740998D01*
X267503D01*
X266337Y739831D01*
Y738665D01*
X267503Y737499D01*
X268670D01*
X267503D01*
X266337Y736333D01*
Y735166D01*
X267503Y734000D01*
X269836D01*
X271002Y735166D01*
X264004Y734000D02*
X261672D01*
X262838D01*
Y740998D01*
X264004Y739831D01*
X495168Y115585D02*
X494002Y116751D01*
Y119084D01*
X495168Y120250D01*
X499834D01*
X501000Y119084D01*
Y116751D01*
X499834Y115585D01*
X494002Y108587D02*
Y113252D01*
X497501D01*
X496335Y110920D01*
Y109753D01*
X497501Y108587D01*
X499834D01*
X501000Y109753D01*
Y112086D01*
X499834Y113252D01*
X501000Y101589D02*
Y106255D01*
X496335Y101589D01*
X495168D01*
X494002Y102756D01*
Y105088D01*
X495168Y106255D01*
X359511Y190125D02*
X360678Y188959D01*
Y186626D01*
X359511Y185460D01*
X354846D01*
X353680Y186626D01*
Y188959D01*
X354846Y190125D01*
X353680Y192458D02*
Y194790D01*
Y193624D01*
X360678D01*
X359511Y192458D01*
X360678Y202954D02*
Y198289D01*
X357179D01*
X358345Y200622D01*
Y201788D01*
X357179Y202954D01*
X354846D01*
X353680Y201788D01*
Y199456D01*
X354846Y198289D01*
X353680Y205287D02*
Y207619D01*
Y206453D01*
X360678D01*
X359511Y205287D01*
X402973Y101153D02*
X404139Y102320D01*
X406472D01*
X407638Y101153D01*
Y96488D01*
X406472Y95322D01*
X404139D01*
X402973Y96488D01*
X400640Y95322D02*
X398308D01*
X399474D01*
Y102320D01*
X400640Y101153D01*
X390144Y102320D02*
X394809D01*
Y98821D01*
X392476Y99987D01*
X391310D01*
X390144Y98821D01*
Y96488D01*
X391310Y95322D01*
X393643D01*
X394809Y96488D01*
X383146Y95322D02*
X387811D01*
X383146Y99987D01*
Y101153D01*
X384312Y102320D01*
X386645D01*
X387811Y101153D01*
X505382Y552332D02*
X504216Y553498D01*
X501883D01*
X500717Y552332D01*
Y547666D01*
X501883Y546500D01*
X504216D01*
X505382Y547666D01*
X507715Y553498D02*
Y546500D01*
X511214D01*
X512380Y547666D01*
Y552332D01*
X511214Y553498D01*
X507715D01*
X514712Y546500D02*
X517045D01*
X515879D01*
Y553498D01*
X514712Y552332D01*
X395669Y452835D02*
X394502Y454001D01*
Y456334D01*
X395669Y457500D01*
X400334D01*
X401500Y456334D01*
Y454001D01*
X400334Y452835D01*
X394502Y450502D02*
X401500D01*
Y447003D01*
X400334Y445837D01*
X395669D01*
X394502Y447003D01*
Y450502D01*
X401500Y438839D02*
Y443504D01*
X396835Y438839D01*
X395669D01*
X394502Y440006D01*
Y442338D01*
X395669Y443504D01*
X533956Y547919D02*
X535123Y546752D01*
X537455D01*
X538621Y547919D01*
Y552584D01*
X537455Y553750D01*
X535123D01*
X533956Y552584D01*
X531624Y546752D02*
Y553750D01*
X528125D01*
X526959Y552584D01*
Y547919D01*
X528125Y546752D01*
X531624D01*
X524626Y547919D02*
X523460Y546752D01*
X521127D01*
X519961Y547919D01*
Y549085D01*
X521127Y550251D01*
X522293D01*
X521127D01*
X519961Y551417D01*
Y552584D01*
X521127Y553750D01*
X523460D01*
X524626Y552584D01*
X395669Y505085D02*
X394502Y506251D01*
Y508584D01*
X395669Y509750D01*
X400334D01*
X401500Y508584D01*
Y506251D01*
X400334Y505085D01*
X394502Y502752D02*
X401500D01*
Y499253D01*
X400334Y498087D01*
X395669D01*
X394502Y499253D01*
Y502752D01*
X401500Y492256D02*
X394502D01*
X398001Y495755D01*
Y491089D01*
X672585Y534081D02*
X673751Y535248D01*
X676084D01*
X677250Y534081D01*
Y529416D01*
X676084Y528250D01*
X673751D01*
X672585Y529416D01*
X670252Y535248D02*
Y528250D01*
X666753D01*
X665587Y529416D01*
Y534081D01*
X666753Y535248D01*
X670252D01*
X663254Y528250D02*
X660922D01*
X662088D01*
Y535248D01*
X663254Y534081D01*
X657423Y528250D02*
X655090D01*
X656257D01*
Y535248D01*
X657423Y534081D01*
X621669Y431335D02*
X620502Y432501D01*
Y434834D01*
X621669Y436000D01*
X626334D01*
X627500Y434834D01*
Y432501D01*
X626334Y431335D01*
X620502Y429002D02*
X627500D01*
Y425503D01*
X626334Y424337D01*
X621669D01*
X620502Y425503D01*
Y429002D01*
X627500Y422005D02*
Y419672D01*
Y420838D01*
X620502D01*
X621669Y422005D01*
X627500Y411508D02*
Y416173D01*
X622835Y411508D01*
X621669D01*
X620502Y412674D01*
Y415007D01*
X621669Y416173D01*
X720835Y536082D02*
X722001Y537248D01*
X724334D01*
X725500Y536082D01*
Y531416D01*
X724334Y530250D01*
X722001D01*
X720835Y531416D01*
X718502Y537248D02*
Y530250D01*
X715003D01*
X713837Y531416D01*
Y536082D01*
X715003Y537248D01*
X718502D01*
X711505Y530250D02*
X709172D01*
X710338D01*
Y537248D01*
X711505Y536082D01*
X705673D02*
X704507Y537248D01*
X702174D01*
X701008Y536082D01*
Y534915D01*
X702174Y533749D01*
X703341D01*
X702174D01*
X701008Y532583D01*
Y531416D01*
X702174Y530250D01*
X704507D01*
X705673Y531416D01*
X705011Y411724D02*
X706177Y412890D01*
X708510D01*
X709676Y411724D01*
Y407058D01*
X708510Y405892D01*
X706177D01*
X705011Y407058D01*
X702678Y412890D02*
Y405892D01*
X699179D01*
X698013Y407058D01*
Y411724D01*
X699179Y412890D01*
X702678D01*
X695680Y405892D02*
X693348D01*
X694514D01*
Y412890D01*
X695680Y411724D01*
X686350Y405892D02*
Y412890D01*
X689849Y409391D01*
X685184D01*
X824085Y533331D02*
X825251Y534498D01*
X827584D01*
X828750Y533331D01*
Y528666D01*
X827584Y527500D01*
X825251D01*
X824085Y528666D01*
X821752Y534498D02*
Y527500D01*
X818253D01*
X817087Y528666D01*
Y533331D01*
X818253Y534498D01*
X821752D01*
X810089Y527500D02*
X814754D01*
X810089Y532165D01*
Y533331D01*
X811256Y534498D01*
X813588D01*
X814754Y533331D01*
X807757Y527500D02*
X805424D01*
X806590D01*
Y534498D01*
X807757Y533331D01*
X780169Y429335D02*
X779002Y430501D01*
Y432834D01*
X780169Y434000D01*
X784834D01*
X786000Y432834D01*
Y430501D01*
X784834Y429335D01*
X779002Y427002D02*
X786000D01*
Y423503D01*
X784834Y422337D01*
X780169D01*
X779002Y423503D01*
Y427002D01*
X786000Y415339D02*
Y420005D01*
X781335Y415339D01*
X780169D01*
X779002Y416506D01*
Y418838D01*
X780169Y420005D01*
X786000Y408342D02*
Y413007D01*
X781335Y408342D01*
X780169D01*
X779002Y409508D01*
Y411841D01*
X780169Y413007D01*
X881591Y536149D02*
X882757Y537316D01*
X885090D01*
X886256Y536149D01*
Y531484D01*
X885090Y530318D01*
X882757D01*
X881591Y531484D01*
X879258Y537316D02*
Y530318D01*
X875759D01*
X874593Y531484D01*
Y536149D01*
X875759Y537316D01*
X879258D01*
X867595Y530318D02*
X872261D01*
X867595Y534983D01*
Y536149D01*
X868762Y537316D01*
X871094D01*
X872261Y536149D01*
X865263D02*
X864096Y537316D01*
X861764D01*
X860598Y536149D01*
Y534983D01*
X861764Y533817D01*
X862930D01*
X861764D01*
X860598Y532651D01*
Y531484D01*
X861764Y530318D01*
X864096D01*
X865263Y531484D01*
X871335Y408831D02*
X872501Y409998D01*
X874834D01*
X876000Y408831D01*
Y404166D01*
X874834Y403000D01*
X872501D01*
X871335Y404166D01*
X869002Y409998D02*
Y403000D01*
X865503D01*
X864337Y404166D01*
Y408831D01*
X865503Y409998D01*
X869002D01*
X857339Y403000D02*
X862004D01*
X857339Y407665D01*
Y408831D01*
X858506Y409998D01*
X860838D01*
X862004Y408831D01*
X851508Y403000D02*
Y409998D01*
X855007Y406499D01*
X850342D01*
X986835Y533582D02*
X988001Y534748D01*
X990334D01*
X991500Y533582D01*
Y528916D01*
X990334Y527750D01*
X988001D01*
X986835Y528916D01*
X984502Y534748D02*
Y527750D01*
X981003D01*
X979837Y528916D01*
Y533582D01*
X981003Y534748D01*
X984502D01*
X977505Y533582D02*
X976338Y534748D01*
X974006D01*
X972839Y533582D01*
Y532415D01*
X974006Y531249D01*
X975172D01*
X974006D01*
X972839Y530083D01*
Y528916D01*
X974006Y527750D01*
X976338D01*
X977505Y528916D01*
X970507Y527750D02*
X968174D01*
X969341D01*
Y534748D01*
X970507Y533582D01*
X943168Y432335D02*
X942002Y433501D01*
Y435834D01*
X943168Y437000D01*
X947834D01*
X949000Y435834D01*
Y433501D01*
X947834Y432335D01*
X942002Y430002D02*
X949000D01*
Y426503D01*
X947834Y425337D01*
X943168D01*
X942002Y426503D01*
Y430002D01*
X943168Y423004D02*
X942002Y421838D01*
Y419506D01*
X943168Y418339D01*
X944335D01*
X945501Y419506D01*
Y420672D01*
Y419506D01*
X946667Y418339D01*
X947834D01*
X949000Y419506D01*
Y421838D01*
X947834Y423004D01*
X949000Y411342D02*
Y416007D01*
X944335Y411342D01*
X943168D01*
X942002Y412508D01*
Y414840D01*
X943168Y416007D01*
X1042835Y535081D02*
X1044001Y536248D01*
X1046334D01*
X1047500Y535081D01*
Y530416D01*
X1046334Y529250D01*
X1044001D01*
X1042835Y530416D01*
X1040502Y536248D02*
Y529250D01*
X1037003D01*
X1035837Y530416D01*
Y535081D01*
X1037003Y536248D01*
X1040502D01*
X1033504Y535081D02*
X1032338Y536248D01*
X1030006D01*
X1028839Y535081D01*
Y533915D01*
X1030006Y532749D01*
X1031172D01*
X1030006D01*
X1028839Y531583D01*
Y530416D01*
X1030006Y529250D01*
X1032338D01*
X1033504Y530416D01*
X1026507Y535081D02*
X1025340Y536248D01*
X1023008D01*
X1021842Y535081D01*
Y533915D01*
X1023008Y532749D01*
X1024174D01*
X1023008D01*
X1021842Y531583D01*
Y530416D01*
X1023008Y529250D01*
X1025340D01*
X1026507Y530416D01*
X1039335Y411832D02*
X1040501Y412998D01*
X1042834D01*
X1044000Y411832D01*
Y407166D01*
X1042834Y406000D01*
X1040501D01*
X1039335Y407166D01*
X1037002Y412998D02*
Y406000D01*
X1033503D01*
X1032337Y407166D01*
Y411832D01*
X1033503Y412998D01*
X1037002D01*
X1030005Y411832D02*
X1028838Y412998D01*
X1026506D01*
X1025339Y411832D01*
Y410665D01*
X1026506Y409499D01*
X1027672D01*
X1026506D01*
X1025339Y408333D01*
Y407166D01*
X1026506Y406000D01*
X1028838D01*
X1030005Y407166D01*
X1019508Y406000D02*
Y412998D01*
X1023007Y409499D01*
X1018342D01*
X433419Y405835D02*
X432252Y407001D01*
Y409334D01*
X433419Y410500D01*
X438084D01*
X439250Y409334D01*
Y407001D01*
X438084Y405835D01*
X439250Y403502D02*
X432252D01*
Y400003D01*
X433419Y398837D01*
X435751D01*
X436917Y400003D01*
Y403502D01*
Y401170D02*
X439250Y398837D01*
X432252Y396505D02*
Y391839D01*
X433419D01*
X438084Y396505D01*
X439250D01*
X605000Y545000D02*
Y551998D01*
X601501D01*
X600335Y550831D01*
Y548499D01*
X601501Y547333D01*
X605000D01*
X602667D02*
X600335Y545000D01*
X598002D02*
X595670D01*
X596836D01*
Y551998D01*
X598002Y550831D01*
X609000Y378500D02*
Y385498D01*
X605501D01*
X604335Y384332D01*
Y381999D01*
X605501Y380833D01*
X609000D01*
X606667D02*
X604335Y378500D01*
X597337D02*
X602002D01*
X597337Y383165D01*
Y384332D01*
X598503Y385498D01*
X600836D01*
X602002Y384332D01*
X774250Y544750D02*
Y551748D01*
X770751D01*
X769585Y550581D01*
Y548249D01*
X770751Y547083D01*
X774250D01*
X771917D02*
X769585Y544750D01*
X767252Y550581D02*
X766086Y551748D01*
X763753D01*
X762587Y550581D01*
Y549415D01*
X763753Y548249D01*
X764920D01*
X763753D01*
X762587Y547083D01*
Y545916D01*
X763753Y544750D01*
X766086D01*
X767252Y545916D01*
X752000Y404000D02*
X745002D01*
Y400501D01*
X746169Y399335D01*
X748501D01*
X749667Y400501D01*
Y404000D01*
Y401667D02*
X752000Y399335D01*
Y393503D02*
X745002D01*
X748501Y397002D01*
Y392337D01*
X924000Y512500D02*
Y519498D01*
X920501D01*
X919335Y518331D01*
Y515999D01*
X920501Y514833D01*
X924000D01*
X921667D02*
X919335Y512500D01*
X912337Y519498D02*
X917002D01*
Y515999D01*
X914670Y517165D01*
X913503D01*
X912337Y515999D01*
Y513666D01*
X913503Y512500D01*
X915836D01*
X917002Y513666D01*
X916000Y408000D02*
X909002D01*
Y404501D01*
X910169Y403335D01*
X912501D01*
X913667Y404501D01*
Y408000D01*
Y405667D02*
X916000Y403335D01*
X909002Y396337D02*
X910169Y398670D01*
X912501Y401002D01*
X914834D01*
X916000Y399836D01*
Y397503D01*
X914834Y396337D01*
X913667D01*
X912501Y397503D01*
Y401002D01*
X532250Y396500D02*
Y403498D01*
X528751D01*
X527585Y402332D01*
Y399999D01*
X528751Y398833D01*
X532250D01*
X529917D02*
X527585Y396500D01*
X525252Y403498D02*
X520587D01*
Y402332D01*
X525252Y397666D01*
Y396500D01*
X458000Y499000D02*
X451002D01*
Y502499D01*
X452169Y503665D01*
X454501D01*
X455667Y502499D01*
Y499000D01*
Y501333D02*
X458000Y503665D01*
X451002Y505998D02*
X458000D01*
Y509497D01*
X456834Y510663D01*
X452169D01*
X451002Y509497D01*
Y505998D01*
X458000Y512995D02*
Y515328D01*
Y514162D01*
X451002D01*
X452169Y512995D01*
X628250Y455250D02*
Y462248D01*
X624751D01*
X623585Y461082D01*
Y458749D01*
X624751Y457583D01*
X628250D01*
X625917D02*
X623585Y455250D01*
X621252Y462248D02*
Y455250D01*
X617753D01*
X616587Y456416D01*
Y461082D01*
X617753Y462248D01*
X621252D01*
X614254Y455250D02*
X611922D01*
X613088D01*
Y462248D01*
X614254Y461082D01*
X608423Y455250D02*
X606091D01*
X607257D01*
Y462248D01*
X608423Y461082D01*
X762000Y483000D02*
X755002D01*
Y479501D01*
X756169Y478335D01*
X758501D01*
X759667Y479501D01*
Y483000D01*
Y480667D02*
X762000Y478335D01*
X755002Y476002D02*
X762000D01*
Y472503D01*
X760834Y471337D01*
X756169D01*
X755002Y472503D01*
Y476002D01*
X762000Y464339D02*
Y469005D01*
X757335Y464339D01*
X756169D01*
X755002Y465506D01*
Y467838D01*
X756169Y469005D01*
X762000Y462007D02*
Y459674D01*
Y460840D01*
X755002D01*
X756169Y462007D01*
X947000Y453250D02*
Y460248D01*
X943501D01*
X942335Y459081D01*
Y456749D01*
X943501Y455583D01*
X947000D01*
X944667D02*
X942335Y453250D01*
X940002Y460248D02*
Y453250D01*
X936503D01*
X935337Y454416D01*
Y459081D01*
X936503Y460248D01*
X940002D01*
X933005Y459081D02*
X931838Y460248D01*
X929506D01*
X928339Y459081D01*
Y457915D01*
X929506Y456749D01*
X930672D01*
X929506D01*
X928339Y455583D01*
Y454416D01*
X929506Y453250D01*
X931838D01*
X933005Y454416D01*
X926007Y453250D02*
X923674D01*
X924840D01*
Y460248D01*
X926007Y459081D01*
X322072Y400726D02*
Y394894D01*
X320906Y393728D01*
X318573D01*
X317407Y394894D01*
Y400726D01*
X315074D02*
Y393728D01*
X311575D01*
X310409Y394894D01*
Y396061D01*
X311575Y397227D01*
X315074D01*
X311575D01*
X310409Y398393D01*
Y399559D01*
X311575Y400726D01*
X315074D01*
X654164Y238788D02*
X659996D01*
X661162Y237622D01*
Y235289D01*
X659996Y234123D01*
X654164D01*
X656497Y231790D02*
X661162D01*
X658829D01*
X657663Y230624D01*
X656497Y229458D01*
Y228291D01*
X661162Y224792D02*
Y222460D01*
Y223626D01*
X654164D01*
X655331Y224792D01*
X892002Y255750D02*
X897834D01*
X899000Y254584D01*
Y252251D01*
X897834Y251085D01*
X892002D01*
X894335Y248752D02*
X899000D01*
X896667D01*
X895501Y247586D01*
X894335Y246420D01*
Y245253D01*
X893168Y241754D02*
X892002Y240588D01*
Y238256D01*
X893168Y237089D01*
X894335D01*
X895501Y238256D01*
Y239422D01*
Y238256D01*
X896667Y237089D01*
X897834D01*
X899000Y238256D01*
Y240588D01*
X897834Y241754D01*
X350168Y701335D02*
X349002Y702501D01*
Y704834D01*
X350168Y706000D01*
X354834D01*
X356000Y704834D01*
Y702501D01*
X354834Y701335D01*
X350168Y699002D02*
X349002Y697836D01*
Y695503D01*
X350168Y694337D01*
X351335D01*
X352501Y695503D01*
Y696670D01*
Y695503D01*
X353667Y694337D01*
X354834D01*
X356000Y695503D01*
Y697836D01*
X354834Y699002D01*
X350168Y692004D02*
X349002Y690838D01*
Y688506D01*
X350168Y687339D01*
X351335D01*
X352501Y688506D01*
Y689672D01*
Y688506D01*
X353667Y687339D01*
X354834D01*
X356000Y688506D01*
Y690838D01*
X354834Y692004D01*
X596500Y83500D02*
Y90498D01*
X593001D01*
X591835Y89332D01*
Y86999D01*
X593001Y85833D01*
X596500D01*
X594167D02*
X591835Y83500D01*
X588336Y89332D02*
Y88165D01*
X589502D01*
X587170D01*
X588336D01*
Y84666D01*
X587170Y83500D01*
X583671D02*
X581338D01*
X582505D01*
Y90498D01*
X583671Y89332D01*
X351169Y627335D02*
X350002Y628501D01*
Y630834D01*
X351169Y632000D01*
X355834D01*
X357000Y630834D01*
Y628501D01*
X355834Y627335D01*
X357000Y625002D02*
Y622670D01*
Y623836D01*
X350002D01*
X351169Y625002D01*
Y619171D02*
X350002Y618004D01*
Y615672D01*
X351169Y614506D01*
X352335D01*
X353501Y615672D01*
Y616838D01*
Y615672D01*
X354667Y614506D01*
X355834D01*
X357000Y615672D01*
Y618004D01*
X355834Y619171D01*
X858335Y209081D02*
X859501Y210248D01*
X861834D01*
X863000Y209081D01*
Y204416D01*
X861834Y203250D01*
X859501D01*
X858335Y204416D01*
X856002Y209081D02*
X854836Y210248D01*
X852503D01*
X851337Y209081D01*
Y207915D01*
X852503Y206749D01*
X853670D01*
X852503D01*
X851337Y205583D01*
Y204416D01*
X852503Y203250D01*
X854836D01*
X856002Y204416D01*
X844339Y210248D02*
X849005D01*
Y206749D01*
X846672Y207915D01*
X845506D01*
X844339Y206749D01*
Y204416D01*
X845506Y203250D01*
X847838D01*
X849005Y204416D01*
X742250Y467998D02*
Y462166D01*
X741084Y461000D01*
X738751D01*
X737585Y462166D01*
Y467998D01*
X735252D02*
Y461000D01*
X731753D01*
X730587Y462166D01*
Y466832D01*
X731753Y467998D01*
X735252D01*
X728254Y461000D02*
X725922D01*
X727088D01*
Y467998D01*
X728254Y466832D01*
X883752Y466250D02*
X889584D01*
X890750Y465084D01*
Y462751D01*
X889584Y461585D01*
X883752D01*
Y459252D02*
X890750D01*
Y455753D01*
X889584Y454587D01*
X884919D01*
X883752Y455753D01*
Y459252D01*
X890750Y447589D02*
Y452254D01*
X886085Y447589D01*
X884919D01*
X883752Y448756D01*
Y451088D01*
X884919Y452254D01*
X1045502Y468000D02*
X1051334D01*
X1052500Y466834D01*
Y464501D01*
X1051334Y463335D01*
X1045502D01*
Y461002D02*
X1052500D01*
Y457503D01*
X1051334Y456337D01*
X1046668D01*
X1045502Y457503D01*
Y461002D01*
X1046668Y454005D02*
X1045502Y452838D01*
Y450506D01*
X1046668Y449339D01*
X1047835D01*
X1049001Y450506D01*
Y451672D01*
Y450506D01*
X1050167Y449339D01*
X1051334D01*
X1052500Y450506D01*
Y452838D01*
X1051334Y454005D01*
X546002Y484000D02*
X551834D01*
X553000Y482834D01*
Y480501D01*
X551834Y479335D01*
X546002D01*
Y477002D02*
X553000D01*
Y473503D01*
X551834Y472337D01*
X547169D01*
X546002Y473503D01*
Y477002D01*
X585250Y790500D02*
Y797498D01*
X581751D01*
X580585Y796331D01*
Y793999D01*
X581751Y792833D01*
X585250D01*
X582917D02*
X580585Y790500D01*
X573587Y795165D02*
X577086D01*
X578252Y793999D01*
Y791666D01*
X577086Y790500D01*
X573587D01*
X571255Y796331D02*
X570088Y797498D01*
X567756D01*
X566589Y796331D01*
Y795165D01*
X567756Y793999D01*
X568922D01*
X567756D01*
X566589Y792833D01*
Y791666D01*
X567756Y790500D01*
X570088D01*
X571255Y791666D01*
X564257Y796331D02*
X563091Y797498D01*
X560758D01*
X559592Y796331D01*
Y795165D01*
X560758Y793999D01*
X559592Y792833D01*
Y791666D01*
X560758Y790500D01*
X563091D01*
X564257Y791666D01*
Y792833D01*
X563091Y793999D01*
X564257Y795165D01*
Y796331D01*
X563091Y793999D02*
X560758D01*
X906750Y708500D02*
Y715498D01*
X903251D01*
X902085Y714332D01*
Y711999D01*
X903251Y710833D01*
X906750D01*
X904417D02*
X902085Y708500D01*
X895087Y715498D02*
X897420D01*
X896253D01*
Y709666D01*
X897420Y708500D01*
X898586D01*
X899752Y709666D01*
X888089Y708500D02*
X892755D01*
X888089Y713165D01*
Y714332D01*
X889256Y715498D01*
X891588D01*
X892755Y714332D01*
X354169Y576335D02*
X353002Y577501D01*
Y579834D01*
X354169Y581000D01*
X358834D01*
X360000Y579834D01*
Y577501D01*
X358834Y576335D01*
X360000Y574002D02*
X355335D01*
Y570503D01*
X356501Y569337D01*
X360000D01*
Y567005D02*
Y564672D01*
Y565838D01*
X353002D01*
X354169Y567005D01*
X407000Y571000D02*
Y577998D01*
X403501D01*
X402335Y576832D01*
Y574499D01*
X403501Y573333D01*
X407000D01*
X404667D02*
X402335Y571000D01*
X400002D02*
Y575665D01*
X396503D01*
X395337Y574499D01*
Y571000D01*
X393004D02*
X390672D01*
X391838D01*
Y577998D01*
X393004Y576832D01*
X454752Y702250D02*
X460584D01*
X461750Y701084D01*
Y698751D01*
X460584Y697585D01*
X454752D01*
X457085Y690587D02*
Y694086D01*
X458251Y695252D01*
X460584D01*
X461750Y694086D01*
Y690587D01*
Y688254D02*
X457085D01*
Y687088D01*
X458251Y685922D01*
X461750D01*
X458251D01*
X457085Y684756D01*
X458251Y683589D01*
X461750D01*
X464083Y681257D02*
X457085D01*
Y677758D01*
X458251Y676592D01*
X460584D01*
X461750Y677758D01*
Y681257D01*
Y674259D02*
Y671926D01*
Y673093D01*
X454752D01*
X455919Y674259D01*
X383169Y429335D02*
X382002Y430501D01*
Y432834D01*
X383169Y434000D01*
X387834D01*
X389000Y432834D01*
Y430501D01*
X387834Y429335D01*
X382002Y427002D02*
X389000D01*
Y423503D01*
X387834Y422337D01*
X383169D01*
X382002Y423503D01*
Y427002D01*
Y415339D02*
Y420005D01*
X385501D01*
X384335Y417672D01*
Y416506D01*
X385501Y415339D01*
X387834D01*
X389000Y416506D01*
Y418838D01*
X387834Y420005D01*
X454925Y214311D02*
X453758Y215477D01*
Y217810D01*
X454925Y218976D01*
X459590D01*
X460756Y217810D01*
Y215477D01*
X459590Y214311D01*
X453758Y207313D02*
Y211978D01*
X457257D01*
X456091Y209646D01*
Y208479D01*
X457257Y207313D01*
X459590D01*
X460756Y208479D01*
Y210812D01*
X459590Y211978D01*
X460756Y204981D02*
Y202648D01*
Y203814D01*
X453758D01*
X454925Y204981D01*
D71*
X375102Y404968D02*
Y475468D01*
X304352D02*
X375102D01*
X304352Y404968D02*
X375102D01*
X304352D02*
Y475468D01*
X731584Y265370D02*
X802084D01*
X731584Y194620D02*
Y265370D01*
X802084Y194620D02*
Y265370D01*
X731584Y194620D02*
X802084D01*
X887332Y239298D02*
Y271298D01*
X848332D02*
X887332D01*
X848332Y239298D02*
Y271298D01*
Y239298D02*
X887332D01*
X609482Y211358D02*
X648482D01*
X609482D02*
Y243358D01*
X648482D01*
Y211358D02*
Y243358D01*
X733842Y569898D02*
X801842D01*
Y651898D01*
X733842D02*
X801842D01*
X733842Y569898D02*
Y651898D01*
D83*
X777500Y749750D02*
X773501D01*
Y747751D01*
X774168Y747084D01*
X775501D01*
X776167Y747751D01*
Y749750D01*
Y748417D02*
X777500Y747084D01*
X774168Y745085D02*
X774834D01*
Y745751D01*
Y744418D01*
Y745085D01*
X776833D01*
X777500Y744418D01*
X683000Y662250D02*
X679001D01*
Y660251D01*
X679668Y659584D01*
X681001D01*
X681667Y660251D01*
Y662250D01*
Y660917D02*
X683000Y659584D01*
X679668Y657585D02*
X680334D01*
Y658251D01*
Y656918D01*
Y657585D01*
X682334D01*
X683000Y656918D01*
X679668Y654919D02*
X679001Y654253D01*
Y652920D01*
X679668Y652253D01*
X680334D01*
X681001Y652920D01*
Y653586D01*
Y652920D01*
X681667Y652253D01*
X682334D01*
X683000Y652920D01*
Y654253D01*
X682334Y654919D01*
X591000Y736000D02*
X587001D01*
Y734001D01*
X587668Y733334D01*
X589001D01*
X589667Y734001D01*
Y736000D01*
Y734667D02*
X591000Y733334D01*
X588334Y729335D02*
Y731335D01*
X589001Y732001D01*
X590334D01*
X591000Y731335D01*
Y729335D01*
X587668Y728003D02*
X587001Y727336D01*
Y726003D01*
X587668Y725337D01*
X588334D01*
X589001Y726003D01*
Y726670D01*
Y726003D01*
X589667Y725337D01*
X590334D01*
X591000Y726003D01*
Y727336D01*
X590334Y728003D01*
X587001Y721338D02*
Y724004D01*
X589001D01*
X588334Y722671D01*
Y722005D01*
X589001Y721338D01*
X590334D01*
X591000Y722005D01*
Y723337D01*
X590334Y724004D01*
X672500Y714500D02*
Y718499D01*
X670501D01*
X669834Y717832D01*
Y716499D01*
X670501Y715833D01*
X672500D01*
X671167D02*
X669834Y714500D01*
X665835Y717166D02*
X667835D01*
X668501Y716499D01*
Y715166D01*
X667835Y714500D01*
X665835D01*
X664503Y717832D02*
X663836Y718499D01*
X662503D01*
X661837Y717832D01*
Y717166D01*
X662503Y716499D01*
X663170D01*
X662503D01*
X661837Y715833D01*
Y715166D01*
X662503Y714500D01*
X663836D01*
X664503Y715166D01*
X658505Y714500D02*
Y718499D01*
X660504Y716499D01*
X657838D01*
X637584Y717832D02*
X638251Y718499D01*
X639584D01*
X640250Y717832D01*
Y715166D01*
X639584Y714500D01*
X638251D01*
X637584Y715166D01*
X635585Y717832D02*
Y717166D01*
X636251D01*
X634918D01*
X635585D01*
Y715166D01*
X634918Y714500D01*
X632919D02*
X631586D01*
X632253D01*
Y718499D01*
X632919Y717832D01*
X578834Y765832D02*
X579501Y766499D01*
X580834D01*
X581500Y765832D01*
Y763166D01*
X580834Y762500D01*
X579501D01*
X578834Y763166D01*
X574836Y765166D02*
X576835D01*
X577501Y764499D01*
Y763166D01*
X576835Y762500D01*
X574836D01*
X570837D02*
X573503D01*
X570837Y765166D01*
Y765832D01*
X571503Y766499D01*
X572836D01*
X573503Y765832D01*
X664000Y767249D02*
Y763916D01*
X663334Y763250D01*
X662001D01*
X661334Y763916D01*
Y767249D01*
X657336Y765916D02*
X659335D01*
X660001Y765249D01*
Y763916D01*
X659335Y763250D01*
X657336D01*
X656003D02*
Y765916D01*
X655336D01*
X654670Y765249D01*
Y763250D01*
Y765249D01*
X654003Y765916D01*
X653337Y765249D01*
Y763250D01*
X652004Y761917D02*
Y765916D01*
X650005D01*
X649338Y765249D01*
Y763916D01*
X650005Y763250D01*
X652004D01*
X648005Y766582D02*
X647339Y767249D01*
X646006D01*
X645339Y766582D01*
Y765916D01*
X646006Y765249D01*
X646672D01*
X646006D01*
X645339Y764583D01*
Y763916D01*
X646006Y763250D01*
X647339D01*
X648005Y763916D01*
X587668Y756334D02*
X587001Y757001D01*
Y758334D01*
X587668Y759000D01*
X590334D01*
X591000Y758334D01*
Y757001D01*
X590334Y756334D01*
X591000Y755001D02*
X588334D01*
Y754335D01*
X589001Y753668D01*
X591000D01*
X589001D01*
X588334Y753002D01*
X589001Y752336D01*
X591000D01*
Y748337D02*
Y751003D01*
X588334Y748337D01*
X587668D01*
X587001Y749003D01*
Y750336D01*
X587668Y751003D01*
X631500Y614750D02*
X627501D01*
Y612751D01*
X628168Y612084D01*
X629501D01*
X630167Y612751D01*
Y614750D01*
Y613417D02*
X631500Y612084D01*
X632833Y610751D02*
X628834D01*
Y608752D01*
X629501Y608086D01*
X630834D01*
X631500Y608752D01*
Y610751D01*
Y606753D02*
Y605420D01*
Y606086D01*
X627501D01*
X628168Y606753D01*
Y603420D02*
X627501Y602754D01*
Y601421D01*
X628168Y600755D01*
X628834D01*
X629501Y601421D01*
Y602088D01*
Y601421D01*
X630167Y600755D01*
X630834D01*
X631500Y601421D01*
Y602754D01*
X630834Y603420D01*
X731500Y695750D02*
X727501D01*
Y693751D01*
X728168Y693084D01*
X729501D01*
X730167Y693751D01*
Y695750D01*
Y694417D02*
X731500Y693084D01*
X732833Y691751D02*
X728834D01*
Y689752D01*
X729501Y689085D01*
X730834D01*
X731500Y689752D01*
Y691751D01*
Y687753D02*
Y686420D01*
Y687086D01*
X727501D01*
X728168Y687753D01*
X731500Y684420D02*
Y683087D01*
Y683754D01*
X727501D01*
X728168Y684420D01*
X851250Y707500D02*
Y711499D01*
X849251D01*
X848584Y710832D01*
Y709499D01*
X849251Y708833D01*
X851250D01*
X849917D02*
X848584Y707500D01*
X847251Y706167D02*
Y710166D01*
X845252D01*
X844585Y709499D01*
Y708167D01*
X845252Y707500D01*
X847251D01*
X843253Y708167D02*
X842586Y707500D01*
X841253D01*
X840587Y708167D01*
Y710832D01*
X841253Y711499D01*
X842586D01*
X843253Y710832D01*
Y710166D01*
X842586Y709499D01*
X840587D01*
X714584Y613332D02*
X715251Y613999D01*
X716584D01*
X717250Y613332D01*
Y610666D01*
X716584Y610000D01*
X715251D01*
X714584Y610666D01*
X713251Y608667D02*
Y612666D01*
X711252D01*
X710585Y611999D01*
Y610666D01*
X711252Y610000D01*
X713251D01*
X709253D02*
X707920D01*
X708586D01*
Y613999D01*
X709253Y613332D01*
X705920D02*
X705254Y613999D01*
X703921D01*
X703254Y613332D01*
Y612666D01*
X703921Y611999D01*
X704587D01*
X703921D01*
X703254Y611333D01*
Y610666D01*
X703921Y610000D01*
X705254D01*
X705920Y610666D01*
X822834Y710082D02*
X823501Y710749D01*
X824834D01*
X825500Y710082D01*
Y707416D01*
X824834Y706750D01*
X823501D01*
X822834Y707416D01*
X821501Y705417D02*
Y709416D01*
X819502D01*
X818836Y708749D01*
Y707416D01*
X819502Y706750D01*
X821501D01*
X817503Y707416D02*
X816836Y706750D01*
X815503D01*
X814837Y707416D01*
Y710082D01*
X815503Y710749D01*
X816836D01*
X817503Y710082D01*
Y709416D01*
X816836Y708749D01*
X814837D01*
X803418Y629084D02*
X802751Y629751D01*
Y631083D01*
X803418Y631750D01*
X806084D01*
X806750Y631083D01*
Y629751D01*
X806084Y629084D01*
X808083Y627751D02*
X804084D01*
Y625752D01*
X804751Y625085D01*
X806084D01*
X806750Y625752D01*
Y627751D01*
X803418Y623753D02*
X802751Y623086D01*
Y621753D01*
X803418Y621087D01*
X804084D01*
X804751Y621753D01*
X805417Y621087D01*
X806084D01*
X806750Y621753D01*
Y623086D01*
X806084Y623753D01*
X805417D01*
X804751Y623086D01*
X804084Y623753D01*
X803418D01*
X804751Y623086D02*
Y621753D01*
X602000Y712500D02*
Y716499D01*
X600001D01*
X599334Y715832D01*
Y714499D01*
X600001Y713833D01*
X602000D01*
X600667D02*
X599334Y712500D01*
X595336Y715166D02*
X597335D01*
X598001Y714499D01*
Y713166D01*
X597335Y712500D01*
X595336D01*
X594003Y715832D02*
X593336Y716499D01*
X592003D01*
X591337Y715832D01*
Y715166D01*
X592003Y714499D01*
X592670D01*
X592003D01*
X591337Y713833D01*
Y713166D01*
X592003Y712500D01*
X593336D01*
X594003Y713166D01*
X590004D02*
X589338Y712500D01*
X588004D01*
X587338Y713166D01*
Y715832D01*
X588004Y716499D01*
X589338D01*
X590004Y715832D01*
Y715166D01*
X589338Y714499D01*
X587338D01*
X878250Y707500D02*
Y711499D01*
X876251D01*
X875584Y710832D01*
Y709499D01*
X876251Y708833D01*
X878250D01*
X876917D02*
X875584Y707500D01*
X871585Y711499D02*
X872918D01*
X872252D01*
Y708167D01*
X872918Y707500D01*
X873585D01*
X874251Y708167D01*
X870253Y707500D02*
X868920D01*
X869586D01*
Y711499D01*
X870253Y710832D01*
M02*
