G04 Layer_Color=8388736*
%FSLAX44Y44*%
%MOMM*%
G71*
G01*
G75*
%ADD11R,5.7000X1.9000*%
%ADD12R,1.0000X5.0000*%
%ADD13R,1.0000X1.5000*%
%ADD14R,1.2500X1.5000*%
%ADD15R,1.5000X0.8000*%
%ADD16R,1.2000X0.8000*%
%ADD19R,4.0000X5.5000*%
%ADD20R,2.7000X1.6000*%
%ADD21R,5.5000X5.8000*%
%ADD22R,6.3500X5.4000*%
%ADD23R,5.4000X6.3500*%
%ADD24R,5.8000X5.5000*%
%ADD25R,1.4000X1.5000*%
%ADD26R,1.5000X1.4000*%
%ADD31R,2.0000X2.0000*%
%ADD32R,2.0000X2.0000*%
%ADD33O,1.9000X2.5400*%
%ADD34O,2.3000X1.3000*%
%ADD35C,1.5000*%
%ADD36C,2.0000*%
%ADD39O,2.0000X2.5000*%
%ADD40C,5.0000*%
%ADD41C,1.4000*%
%ADD42R,1.4000X1.4000*%
%ADD43C,4.0400*%
%ADD44C,1.8000*%
%ADD45C,0.5000*%
%ADD46C,0.4000*%
%ADD73R,0.5000X0.4500*%
%ADD74R,1.0000X0.4500*%
%ADD75R,1.1000X1.8000*%
%ADD76O,1.1000X1.8000*%
D11*
X477012Y318858D02*
D03*
Y262858D02*
D03*
X404622Y318858D02*
D03*
Y262858D02*
D03*
X228092Y74898D02*
D03*
Y130898D02*
D03*
X297942D02*
D03*
Y74898D02*
D03*
D12*
X498508Y195316D02*
D03*
X478508Y95316D02*
D03*
X538508Y195316D02*
D03*
X478508D02*
D03*
X518508Y95316D02*
D03*
X498508D02*
D03*
D13*
X555294Y504472D02*
D03*
X574294D02*
D03*
Y482472D02*
D03*
D14*
X557294D02*
D03*
D15*
X450342Y537630D02*
D03*
Y524630D02*
D03*
Y511630D02*
D03*
Y498630D02*
D03*
X505460Y482374D02*
D03*
Y469374D02*
D03*
Y456374D02*
D03*
Y443374D02*
D03*
X998982Y440834D02*
D03*
Y453834D02*
D03*
Y466834D02*
D03*
Y479834D02*
D03*
X943796Y496148D02*
D03*
Y509148D02*
D03*
Y522148D02*
D03*
Y535148D02*
D03*
X836930Y441734D02*
D03*
Y454734D02*
D03*
Y467734D02*
D03*
Y480734D02*
D03*
X782066Y496298D02*
D03*
Y509298D02*
D03*
Y522298D02*
D03*
Y535298D02*
D03*
X679958Y441988D02*
D03*
Y454988D02*
D03*
Y467988D02*
D03*
Y480988D02*
D03*
X625286Y496628D02*
D03*
Y509628D02*
D03*
Y522628D02*
D03*
Y535628D02*
D03*
D16*
X505342Y537630D02*
D03*
Y524630D02*
D03*
Y511630D02*
D03*
Y498630D02*
D03*
X450460Y482374D02*
D03*
Y469374D02*
D03*
Y456374D02*
D03*
Y443374D02*
D03*
X943982Y440834D02*
D03*
Y453834D02*
D03*
Y466834D02*
D03*
Y479834D02*
D03*
X998796Y496148D02*
D03*
Y509148D02*
D03*
Y522148D02*
D03*
Y535148D02*
D03*
X781930Y441734D02*
D03*
Y454734D02*
D03*
Y467734D02*
D03*
Y480734D02*
D03*
X837066Y496298D02*
D03*
Y509298D02*
D03*
Y522298D02*
D03*
Y535298D02*
D03*
X624958Y441988D02*
D03*
Y454988D02*
D03*
Y467988D02*
D03*
Y480988D02*
D03*
X680286Y496628D02*
D03*
Y509628D02*
D03*
Y522628D02*
D03*
Y535628D02*
D03*
D19*
X773684Y623344D02*
D03*
Y713344D02*
D03*
X653542Y713048D02*
D03*
Y623048D02*
D03*
X536702D02*
D03*
Y713048D02*
D03*
X418592D02*
D03*
Y623048D02*
D03*
D20*
X533908Y267774D02*
D03*
Y239774D02*
D03*
D21*
X158242Y490248D02*
D03*
X259842D02*
D03*
D22*
X209042Y712648D02*
D03*
D23*
X95862Y303558D02*
D03*
D24*
X318262Y354358D02*
D03*
Y252758D02*
D03*
D25*
X1022350Y444438D02*
D03*
Y468438D02*
D03*
X860298Y444782D02*
D03*
Y468782D02*
D03*
X704088Y445482D02*
D03*
Y469482D02*
D03*
X528320Y445990D02*
D03*
Y469990D02*
D03*
X529336Y519266D02*
D03*
Y495266D02*
D03*
X1022604Y493234D02*
D03*
Y517234D02*
D03*
X861314Y517550D02*
D03*
Y493550D02*
D03*
X704088Y494758D02*
D03*
Y518758D02*
D03*
X891032Y536668D02*
D03*
Y560668D02*
D03*
X758444Y444082D02*
D03*
Y420082D02*
D03*
X728726Y537684D02*
D03*
Y561684D02*
D03*
X601980Y447610D02*
D03*
Y423610D02*
D03*
X572262Y538000D02*
D03*
Y562000D02*
D03*
D26*
X912492Y449100D02*
D03*
X888492D02*
D03*
X422340Y227358D02*
D03*
X446340D02*
D03*
X505652Y421414D02*
D03*
X529652D02*
D03*
D31*
X557530Y371630D02*
D03*
X211450Y891400D02*
D03*
X186050D02*
D03*
X117602Y767870D02*
D03*
X931672Y340388D02*
D03*
X795782Y342928D02*
D03*
X637250Y356250D02*
D03*
X514604Y43208D02*
D03*
X832612Y560352D02*
D03*
X526796Y566194D02*
D03*
X287650Y891400D02*
D03*
X363952Y891398D02*
D03*
X262250Y891400D02*
D03*
X313152Y891398D02*
D03*
X338552D02*
D03*
X389352D02*
D03*
X490952D02*
D03*
X643352D02*
D03*
X516352D02*
D03*
X541752D02*
D03*
X567152D02*
D03*
X592552D02*
D03*
X668752D02*
D03*
X617952D02*
D03*
X994918Y626364D02*
D03*
X898652Y763806D02*
D03*
X694152Y891398D02*
D03*
X236850Y891400D02*
D03*
X770352Y891398D02*
D03*
X719552D02*
D03*
X795752D02*
D03*
X440152D02*
D03*
X821152D02*
D03*
X846552D02*
D03*
X897352D02*
D03*
X871952D02*
D03*
X898906Y726722D02*
D03*
X163830Y768886D02*
D03*
X160650Y891400D02*
D03*
X414752Y891398D02*
D03*
D32*
X429000Y61000D02*
D03*
X976376Y558828D02*
D03*
X662686Y561368D02*
D03*
X452374Y401066D02*
D03*
X46482Y491518D02*
D03*
X744952Y891398D02*
D03*
D33*
X688594Y165382D02*
D03*
X713994D02*
D03*
X739394D02*
D03*
X764794D02*
D03*
X688594Y292382D02*
D03*
X713994D02*
D03*
X739394D02*
D03*
X764794D02*
D03*
X1003808Y291874D02*
D03*
X978408D02*
D03*
X953008D02*
D03*
X927608D02*
D03*
X1003808Y164874D02*
D03*
X978408D02*
D03*
X953008D02*
D03*
X927608D02*
D03*
D34*
X586894Y200307D02*
D03*
Y257457D02*
D03*
Y219357D02*
D03*
Y238407D02*
D03*
X825908Y237899D02*
D03*
Y218849D02*
D03*
Y256949D02*
D03*
Y199799D02*
D03*
D35*
X427990Y113538D02*
D03*
Y164338D02*
D03*
Y138938D02*
D03*
D36*
X593636Y69578D02*
D03*
X668636Y119578D02*
D03*
X693636Y69578D02*
D03*
X618636Y119578D02*
D03*
X643636Y69578D02*
D03*
X1041362Y714638D02*
D03*
X991362Y689638D02*
D03*
X1041362Y764638D02*
D03*
X991362Y739638D02*
D03*
X1041362Y664638D02*
D03*
X1001122Y91722D02*
D03*
X951122D02*
D03*
X104032Y101628D02*
D03*
X154032D02*
D03*
D39*
X769912Y92484D02*
D03*
X819912D02*
D03*
X869912D02*
D03*
D40*
X1120000Y30000D02*
D03*
Y920000D02*
D03*
X30000D02*
D03*
Y30000D02*
D03*
D41*
X910082Y858498D02*
D03*
X922782Y839498D02*
D03*
X910082Y820498D02*
D03*
X922782Y801498D02*
D03*
X884682Y858498D02*
D03*
X897382Y839498D02*
D03*
X884682Y820498D02*
D03*
X897382Y801498D02*
D03*
X859282Y858498D02*
D03*
X871982Y839498D02*
D03*
X859282Y820498D02*
D03*
X871982Y801498D02*
D03*
X833882Y858498D02*
D03*
X846582Y839498D02*
D03*
X833882Y820498D02*
D03*
X846582Y801498D02*
D03*
X808482Y858498D02*
D03*
X821182Y839498D02*
D03*
X808482Y820498D02*
D03*
X821182Y801498D02*
D03*
X783082Y858498D02*
D03*
X795782Y839498D02*
D03*
X783082Y820498D02*
D03*
X795782Y801498D02*
D03*
X757682Y858498D02*
D03*
X770382Y839498D02*
D03*
X757682Y820498D02*
D03*
X770382Y801498D02*
D03*
X732282Y858498D02*
D03*
X744982Y839498D02*
D03*
X732282Y820498D02*
D03*
X744982Y801498D02*
D03*
X706882Y858498D02*
D03*
X719582Y839498D02*
D03*
X706882Y820498D02*
D03*
X719582Y801498D02*
D03*
X681482Y858498D02*
D03*
X694182Y839498D02*
D03*
X681482Y820498D02*
D03*
X694182Y801498D02*
D03*
X656082Y858498D02*
D03*
X668782Y839498D02*
D03*
X656082Y820498D02*
D03*
X668782Y801498D02*
D03*
X630682Y858498D02*
D03*
X643382Y839498D02*
D03*
X630682Y820498D02*
D03*
X643382Y801498D02*
D03*
X605282Y858498D02*
D03*
X617982Y839498D02*
D03*
X605282Y820498D02*
D03*
X617982Y801498D02*
D03*
X579882Y858498D02*
D03*
X592582Y839498D02*
D03*
X579882Y820498D02*
D03*
X592582Y801498D02*
D03*
X503682Y858498D02*
D03*
X516382Y839498D02*
D03*
X503682Y820498D02*
D03*
X516382Y801498D02*
D03*
X478282Y858498D02*
D03*
X490982Y839498D02*
D03*
X478282Y820498D02*
D03*
X490982Y801498D02*
D03*
X452882Y858498D02*
D03*
X465582Y839498D02*
D03*
X452882Y820498D02*
D03*
X465582Y801498D02*
D03*
X427482Y858498D02*
D03*
X440182Y839498D02*
D03*
X427482Y820498D02*
D03*
X440182Y801498D02*
D03*
X402082Y858498D02*
D03*
X414782Y839498D02*
D03*
X402082Y820498D02*
D03*
X414782Y801498D02*
D03*
X376682Y858498D02*
D03*
X389382Y839498D02*
D03*
X376682Y820498D02*
D03*
X389382Y801498D02*
D03*
X351282Y858498D02*
D03*
X363982Y839498D02*
D03*
X351282Y820498D02*
D03*
X363982Y801498D02*
D03*
X325882Y858498D02*
D03*
X338582Y839498D02*
D03*
X325882Y820498D02*
D03*
X338582Y801498D02*
D03*
X249682Y858498D02*
D03*
X262382Y839498D02*
D03*
X249682Y820498D02*
D03*
X262382Y801498D02*
D03*
X224282Y858498D02*
D03*
X236982Y839498D02*
D03*
X224282Y820498D02*
D03*
X236982Y801498D02*
D03*
X198882Y858498D02*
D03*
X211582Y839498D02*
D03*
Y801498D02*
D03*
D42*
X198882Y820498D02*
D03*
D43*
X167182Y829998D02*
D03*
X954482D02*
D03*
D44*
X553000Y461000D02*
D03*
X73152Y636016D02*
D03*
X402082Y226658D02*
D03*
X333310Y614454D02*
D03*
X404622Y262858D02*
D03*
X1022604Y493234D02*
D03*
X861314Y493550D02*
D03*
X836930Y450878D02*
D03*
X537464Y717578D02*
D03*
X655066Y718594D02*
D03*
X780288Y716308D02*
D03*
X228092Y74898D02*
D03*
X297942D02*
D03*
X427990Y702564D02*
D03*
X704000Y494250D02*
D03*
X529250Y494000D02*
D03*
X1000250Y453250D02*
D03*
X681000Y455000D02*
D03*
X506750Y455500D02*
D03*
X551180Y540258D02*
D03*
X510286Y194564D02*
D03*
D45*
X518160Y105918D02*
D03*
X552196Y440718D02*
D03*
X496570Y84864D02*
D03*
X782828Y528602D02*
D03*
X941832Y529618D02*
D03*
X940308Y496344D02*
D03*
X779018Y496852D02*
D03*
X622300Y497614D02*
D03*
X444754Y497868D02*
D03*
X728726Y537684D02*
D03*
X889000Y536730D02*
D03*
X622584Y532920D02*
D03*
X572262Y538000D02*
D03*
X574294Y504472D02*
D03*
X602488Y424716D02*
D03*
X759714Y420906D02*
D03*
X888492Y449100D02*
D03*
X554990Y504218D02*
D03*
X451804Y422938D02*
D03*
D46*
X467912Y450042D02*
D03*
D73*
X566768Y440672D02*
D03*
Y447172D02*
D03*
Y453672D02*
D03*
X547768Y440672D02*
D03*
Y447172D02*
D03*
Y453672D02*
D03*
D74*
X556768D02*
D03*
D75*
X527304Y312194D02*
D03*
D76*
X540004D02*
D03*
X552704D02*
D03*
M02*
