G04 Layer_Color=2752767*
%FSLAX44Y44*%
%MOMM*%
G71*
G01*
G75*
%ADD85C,0.0677*%
%ADD86C,0.0339*%
D85*
X425516Y700408D02*
G03*
X425516Y700408I-2032J0D01*
G01*
X415516D02*
G03*
X415516Y700408I-2032J0D01*
G01*
X652526Y723138D02*
G03*
X652526Y723138I-2032J0D01*
G01*
X425196Y657860D02*
G03*
X425196Y657860I-2032J0D01*
G01*
X718566Y791718D02*
G03*
X718566Y791718I-2032J0D01*
G01*
X684530Y800862D02*
G03*
X684530Y800862I-2032J0D01*
G01*
X749300Y688086D02*
G03*
X749300Y688086I-2032J0D01*
G01*
X692658Y737870D02*
G03*
X692658Y737870I-2032J0D01*
G01*
X741172Y772160D02*
G03*
X741172Y772160I-2032J0D01*
G01*
X523240Y138202D02*
G03*
X523240Y138202I-2032J0D01*
G01*
X769366Y201644D02*
G03*
X769366Y201644I-2032J0D01*
G01*
X747124Y580898D02*
G03*
X747124Y580898I-2032J0D01*
G01*
X799124Y640898D02*
G03*
X799124Y640898I-2032J0D01*
G01*
X701548Y620804D02*
G03*
X701548Y620804I-2032J0D01*
G01*
X700786Y646712D02*
G03*
X700786Y646712I-2032J0D01*
G01*
X454660Y559844D02*
G03*
X454660Y559844I-2032J0D01*
G01*
X1099312Y683604D02*
G03*
X1099312Y683604I-2032J0D01*
G01*
X1085534Y600230D02*
G03*
X1085534Y600230I-2032J0D01*
G01*
X596820Y663346D02*
G03*
X596820Y663346I-2032J0D01*
G01*
X617220Y653824D02*
G03*
X617220Y653824I-2032J0D01*
G01*
X223012Y753838D02*
G03*
X223012Y753838I-2032J0D01*
G01*
X272288D02*
G03*
X272288Y753838I-2032J0D01*
G01*
X296926Y753838D02*
G03*
X296926Y753838I-2032J0D01*
G01*
X422210Y774474D02*
G03*
X422210Y774474I-2032J0D01*
G01*
X370524Y697258D02*
G03*
X370524Y697258I-2032J0D01*
G01*
X369886Y728754D02*
G03*
X369886Y728754I-2032J0D01*
G01*
X370840Y753838D02*
G03*
X370840Y753838I-2032J0D01*
G01*
X399480Y748058D02*
G03*
X399480Y748058I-2032J0D01*
G01*
X473010Y774474D02*
G03*
X473010Y774474I-2032J0D01*
G01*
X478638Y735866D02*
G03*
X478638Y735866I-2032J0D01*
G01*
X506222Y757648D02*
G03*
X506222Y757648I-2032J0D01*
G01*
X552574Y761012D02*
G03*
X552574Y761012I-2032J0D01*
G01*
X604966Y753646D02*
G03*
X604966Y753646I-2032J0D01*
G01*
X576834Y750660D02*
G03*
X576834Y750660I-2032J0D01*
G01*
X706374Y774474D02*
G03*
X706374Y774474I-2032J0D01*
G01*
X816102Y745772D02*
G03*
X816102Y745772I-2032J0D01*
G01*
X952816Y758980D02*
G03*
X952816Y758980I-2032J0D01*
G01*
X960944Y601500D02*
G03*
X960944Y601500I-2032J0D01*
G01*
X845374Y622328D02*
G03*
X845374Y622328I-2032J0D01*
G01*
X846644Y596928D02*
G03*
X846644Y596928I-2032J0D01*
G01*
X905064Y647728D02*
G03*
X905064Y647728I-2032J0D01*
G01*
X929448Y659920D02*
G03*
X929448Y659920I-2032J0D01*
G01*
X899414Y696558D02*
G03*
X899414Y696558I-2032J0D01*
G01*
X764794Y723166D02*
G03*
X764794Y723166I-2032J0D01*
G01*
X822198Y695796D02*
G03*
X822198Y695796I-2032J0D01*
G01*
X797052Y691732D02*
G03*
X797052Y691732I-2032J0D01*
G01*
X770890Y691224D02*
G03*
X770890Y691224I-2032J0D01*
G01*
X638810Y679732D02*
G03*
X638810Y679732I-2032J0D01*
G01*
X696152Y573560D02*
G03*
X696152Y573560I-2032J0D01*
G01*
X695644Y598198D02*
G03*
X695644Y598198I-2032J0D01*
G01*
X591312Y613692D02*
G03*
X591312Y613692I-2032J0D01*
G01*
X469900Y612106D02*
G03*
X469900Y612106I-2032J0D01*
G01*
X544576Y614646D02*
G03*
X544576Y614646I-2032J0D01*
G01*
X497332Y586830D02*
G03*
X497332Y586830I-2032J0D01*
G01*
X445262Y607026D02*
G03*
X445262Y607026I-2032J0D01*
G01*
X423864Y582450D02*
G03*
X423864Y582450I-2032J0D01*
G01*
X372048Y623344D02*
G03*
X372048Y623344I-2032J0D01*
G01*
X375412Y573368D02*
G03*
X375412Y573368I-2032J0D01*
G01*
X375350Y522760D02*
G03*
X375350Y522760I-2032J0D01*
G01*
X262574Y614200D02*
G03*
X262574Y614200I-2032J0D01*
G01*
X285942Y564134D02*
G03*
X285942Y564134I-2032J0D01*
G01*
X857950Y285524D02*
G03*
X857950Y285524I-2032J0D01*
G01*
X614488Y154206D02*
G03*
X614488Y154206I-2032J0D01*
G01*
X526858Y343182D02*
G03*
X526858Y343182I-2032J0D01*
G01*
X192786Y386870D02*
G03*
X192786Y386870I-2032J0D01*
G01*
X382840Y389918D02*
G03*
X382840Y389918I-2032J0D01*
G01*
X369884Y440718D02*
G03*
X369884Y440718I-2032J0D01*
G01*
X313884D02*
G03*
X313884Y440718I-2032J0D01*
G01*
X450088Y580926D02*
G03*
X450088Y580926I-2032J0D01*
G01*
X375412Y596674D02*
G03*
X375412Y596674I-2032J0D01*
G01*
X846644Y646966D02*
G03*
X846644Y646966I-2032J0D01*
G01*
X847790Y722658D02*
G03*
X847790Y722658I-2032J0D01*
G01*
X693674Y699098D02*
G03*
X693674Y699098I-2032J0D01*
G01*
X528574Y761012D02*
G03*
X528574Y761012I-2032J0D01*
G01*
X822006Y721642D02*
G03*
X822006Y721642I-2032J0D01*
G01*
X647954Y630710D02*
G03*
X647954Y630710I-2032J0D01*
G01*
X719074Y698528D02*
G03*
X719074Y698528I-2032J0D01*
G01*
X427736Y555780D02*
G03*
X427736Y555780I-2032J0D01*
G01*
X450342Y525808D02*
G03*
X450342Y525808I-2032J0D01*
G01*
X473964Y559844D02*
G03*
X473964Y559844I-2032J0D01*
G01*
X645922Y657634D02*
G03*
X645922Y657634I-2032J0D01*
G01*
X641858Y703100D02*
G03*
X641858Y703100I-2032J0D01*
G01*
X881064Y647728D02*
G03*
X881064Y647728I-2032J0D01*
G01*
X646938Y604294D02*
G03*
X646938Y604294I-2032J0D01*
G01*
X223266Y776506D02*
G03*
X223266Y776506I-2032J0D01*
G01*
X298704Y777522D02*
G03*
X298704Y777522I-2032J0D01*
G01*
X532638Y735866D02*
G03*
X532638Y735866I-2032J0D01*
G01*
X744666Y720626D02*
G03*
X744666Y720626I-2032J0D01*
G01*
X763840Y747042D02*
G03*
X763840Y747042I-2032J0D01*
G01*
X682498Y644172D02*
G03*
X682498Y644172I-2032J0D01*
G01*
X632714Y644934D02*
G03*
X632714Y644934I-2032J0D01*
G01*
X767842Y759996D02*
G03*
X767842Y759996I-2032J0D01*
G01*
X688086Y758218D02*
G03*
X688086Y758218I-2032J0D01*
G01*
X153924Y196878D02*
G03*
X153924Y196878I-2032J0D01*
G01*
X640588Y170970D02*
G03*
X640588Y170970I-2032J0D01*
G01*
X854202Y163604D02*
G03*
X854202Y163604I-2032J0D01*
G01*
X829310Y302542D02*
G03*
X829310Y302542I-2032J0D01*
G01*
X718312Y230660D02*
G03*
X718312Y230660I-2032J0D01*
G01*
X743712Y229644D02*
G03*
X743712Y229644I-2032J0D01*
G01*
X341884Y416080D02*
G03*
X341884Y416080I-2032J0D01*
G01*
X216662Y461038D02*
G03*
X216662Y461038I-2032J0D01*
G01*
X218440Y436908D02*
G03*
X218440Y436908I-2032J0D01*
G01*
X292354Y462054D02*
G03*
X292354Y462054I-2032J0D01*
G01*
X551180Y770636D02*
G03*
X551180Y770636I-2032J0D01*
G01*
X858864Y255298D02*
G03*
X858864Y255298I-2032J0D01*
G01*
X769366Y257870D02*
G03*
X769366Y257870I-2032J0D01*
G01*
X399288Y701040D02*
G03*
X399288Y701040I-2032J0D01*
G01*
D86*
X424500Y700408D02*
G03*
X424500Y700408I-1016J0D01*
G01*
X414500D02*
G03*
X414500Y700408I-1016J0D01*
G01*
X651510Y723138D02*
G03*
X651510Y723138I-1016J0D01*
G01*
X424180Y657860D02*
G03*
X424180Y657860I-1016J0D01*
G01*
X717550Y791718D02*
G03*
X717550Y791718I-1016J0D01*
G01*
X683514Y800862D02*
G03*
X683514Y800862I-1016J0D01*
G01*
X748284Y688086D02*
G03*
X748284Y688086I-1016J0D01*
G01*
X691642Y737870D02*
G03*
X691642Y737870I-1016J0D01*
G01*
X740156Y772160D02*
G03*
X740156Y772160I-1016J0D01*
G01*
X522224Y138202D02*
G03*
X522224Y138202I-1016J0D01*
G01*
X768350Y201644D02*
G03*
X768350Y201644I-1016J0D01*
G01*
X746108Y580898D02*
G03*
X746108Y580898I-1016J0D01*
G01*
X798108Y640898D02*
G03*
X798108Y640898I-1016J0D01*
G01*
X700532Y620804D02*
G03*
X700532Y620804I-1016J0D01*
G01*
X699770Y646712D02*
G03*
X699770Y646712I-1016J0D01*
G01*
X453644Y559844D02*
G03*
X453644Y559844I-1016J0D01*
G01*
X1098296Y683604D02*
G03*
X1098296Y683604I-1016J0D01*
G01*
X1084518Y600230D02*
G03*
X1084518Y600230I-1016J0D01*
G01*
X595804Y663346D02*
G03*
X595804Y663346I-1016J0D01*
G01*
X616204Y653824D02*
G03*
X616204Y653824I-1016J0D01*
G01*
X221996Y753838D02*
G03*
X221996Y753838I-1016J0D01*
G01*
X271272D02*
G03*
X271272Y753838I-1016J0D01*
G01*
X295910Y753838D02*
G03*
X295910Y753838I-1016J0D01*
G01*
X421194Y774474D02*
G03*
X421194Y774474I-1016J0D01*
G01*
X369508Y697258D02*
G03*
X369508Y697258I-1016J0D01*
G01*
X368870Y728754D02*
G03*
X368870Y728754I-1016J0D01*
G01*
X369824Y753838D02*
G03*
X369824Y753838I-1016J0D01*
G01*
X398464Y748058D02*
G03*
X398464Y748058I-1016J0D01*
G01*
X471994Y774474D02*
G03*
X471994Y774474I-1016J0D01*
G01*
X477622Y735866D02*
G03*
X477622Y735866I-1016J0D01*
G01*
X505206Y757648D02*
G03*
X505206Y757648I-1016J0D01*
G01*
X551558Y761012D02*
G03*
X551558Y761012I-1016J0D01*
G01*
X603950Y753646D02*
G03*
X603950Y753646I-1016J0D01*
G01*
X575818Y750660D02*
G03*
X575818Y750660I-1016J0D01*
G01*
X705358Y774474D02*
G03*
X705358Y774474I-1016J0D01*
G01*
X815086Y745772D02*
G03*
X815086Y745772I-1016J0D01*
G01*
X951800Y758980D02*
G03*
X951800Y758980I-1016J0D01*
G01*
X959928Y601500D02*
G03*
X959928Y601500I-1016J0D01*
G01*
X844358Y622328D02*
G03*
X844358Y622328I-1016J0D01*
G01*
X845628Y596928D02*
G03*
X845628Y596928I-1016J0D01*
G01*
X904048Y647728D02*
G03*
X904048Y647728I-1016J0D01*
G01*
X928432Y659920D02*
G03*
X928432Y659920I-1016J0D01*
G01*
X898398Y696558D02*
G03*
X898398Y696558I-1016J0D01*
G01*
X763778Y723166D02*
G03*
X763778Y723166I-1016J0D01*
G01*
X821182Y695796D02*
G03*
X821182Y695796I-1016J0D01*
G01*
X796036Y691732D02*
G03*
X796036Y691732I-1016J0D01*
G01*
X769874Y691224D02*
G03*
X769874Y691224I-1016J0D01*
G01*
X637794Y679732D02*
G03*
X637794Y679732I-1016J0D01*
G01*
X695136Y573560D02*
G03*
X695136Y573560I-1016J0D01*
G01*
X694628Y598198D02*
G03*
X694628Y598198I-1016J0D01*
G01*
X590296Y613692D02*
G03*
X590296Y613692I-1016J0D01*
G01*
X468884Y612106D02*
G03*
X468884Y612106I-1016J0D01*
G01*
X543560Y614646D02*
G03*
X543560Y614646I-1016J0D01*
G01*
X496316Y586830D02*
G03*
X496316Y586830I-1016J0D01*
G01*
X444246Y607026D02*
G03*
X444246Y607026I-1016J0D01*
G01*
X422848Y582450D02*
G03*
X422848Y582450I-1016J0D01*
G01*
X371032Y623344D02*
G03*
X371032Y623344I-1016J0D01*
G01*
X374396Y573368D02*
G03*
X374396Y573368I-1016J0D01*
G01*
X374334Y522760D02*
G03*
X374334Y522760I-1016J0D01*
G01*
X261558Y614200D02*
G03*
X261558Y614200I-1016J0D01*
G01*
X284926Y564134D02*
G03*
X284926Y564134I-1016J0D01*
G01*
X856934Y285524D02*
G03*
X856934Y285524I-1016J0D01*
G01*
X613472Y154206D02*
G03*
X613472Y154206I-1016J0D01*
G01*
X525842Y343182D02*
G03*
X525842Y343182I-1016J0D01*
G01*
X191770Y386870D02*
G03*
X191770Y386870I-1016J0D01*
G01*
X381824Y389918D02*
G03*
X381824Y389918I-1016J0D01*
G01*
X368868Y440718D02*
G03*
X368868Y440718I-1016J0D01*
G01*
X312868D02*
G03*
X312868Y440718I-1016J0D01*
G01*
X449072Y580926D02*
G03*
X449072Y580926I-1016J0D01*
G01*
X374396Y596674D02*
G03*
X374396Y596674I-1016J0D01*
G01*
X845628Y646966D02*
G03*
X845628Y646966I-1016J0D01*
G01*
X846774Y722658D02*
G03*
X846774Y722658I-1016J0D01*
G01*
X692658Y699098D02*
G03*
X692658Y699098I-1016J0D01*
G01*
X527558Y761012D02*
G03*
X527558Y761012I-1016J0D01*
G01*
X820990Y721642D02*
G03*
X820990Y721642I-1016J0D01*
G01*
X646938Y630710D02*
G03*
X646938Y630710I-1016J0D01*
G01*
X718058Y698528D02*
G03*
X718058Y698528I-1016J0D01*
G01*
X426720Y555780D02*
G03*
X426720Y555780I-1016J0D01*
G01*
X449326Y525808D02*
G03*
X449326Y525808I-1016J0D01*
G01*
X472948Y559844D02*
G03*
X472948Y559844I-1016J0D01*
G01*
X644906Y657634D02*
G03*
X644906Y657634I-1016J0D01*
G01*
X640842Y703100D02*
G03*
X640842Y703100I-1016J0D01*
G01*
X880048Y647728D02*
G03*
X880048Y647728I-1016J0D01*
G01*
X645922Y604294D02*
G03*
X645922Y604294I-1016J0D01*
G01*
X222250Y776506D02*
G03*
X222250Y776506I-1016J0D01*
G01*
X297688Y777522D02*
G03*
X297688Y777522I-1016J0D01*
G01*
X531622Y735866D02*
G03*
X531622Y735866I-1016J0D01*
G01*
X743650Y720626D02*
G03*
X743650Y720626I-1016J0D01*
G01*
X762824Y747042D02*
G03*
X762824Y747042I-1016J0D01*
G01*
X681482Y644172D02*
G03*
X681482Y644172I-1016J0D01*
G01*
X631698Y644934D02*
G03*
X631698Y644934I-1016J0D01*
G01*
X766826Y759996D02*
G03*
X766826Y759996I-1016J0D01*
G01*
X687070Y758218D02*
G03*
X687070Y758218I-1016J0D01*
G01*
X152908Y196878D02*
G03*
X152908Y196878I-1016J0D01*
G01*
X639572Y170970D02*
G03*
X639572Y170970I-1016J0D01*
G01*
X853186Y163604D02*
G03*
X853186Y163604I-1016J0D01*
G01*
X828294Y302542D02*
G03*
X828294Y302542I-1016J0D01*
G01*
X717296Y230660D02*
G03*
X717296Y230660I-1016J0D01*
G01*
X742696Y229644D02*
G03*
X742696Y229644I-1016J0D01*
G01*
X340868Y416080D02*
G03*
X340868Y416080I-1016J0D01*
G01*
X215646Y461038D02*
G03*
X215646Y461038I-1016J0D01*
G01*
X217424Y436908D02*
G03*
X217424Y436908I-1016J0D01*
G01*
X291338Y462054D02*
G03*
X291338Y462054I-1016J0D01*
G01*
X550164Y770636D02*
G03*
X550164Y770636I-1016J0D01*
G01*
X857848Y255298D02*
G03*
X857848Y255298I-1016J0D01*
G01*
X768350Y257870D02*
G03*
X768350Y257870I-1016J0D01*
G01*
X398272Y701040D02*
G03*
X398272Y701040I-1016J0D01*
G01*
M02*
