M48
;Layer_Color=9474304
;FILE_FORMAT=4:4
METRIC,LZ
;TYPE=PLATED
T1F00S00C0.2000
T2F00S00C0.3000
%
T01
X00467912Y00450042
Y00455042
Y00460042
Y00465042
Y00470042
Y00475042
Y00480042
X00473362Y00477308
Y00472308
Y00467308
Y00462308
Y00457308
Y00452308
Y00447308
X00478812Y00450102
Y00455102
Y00460102
Y00465102
Y00470102
Y00475102
Y00480102
X00484262Y00477562
Y00472562
Y00467562
Y00462562
Y00457562
Y00452562
Y00447562
X00489712Y00450102
Y00455102
Y00460102
Y00465102
Y00470102
Y00475102
Y00480102
T02
X0049657Y00084864
X0055499Y00504218
M30
