M48
;Layer_Color=9474304
;FILE_FORMAT=4:4
METRIC,LZ
;TYPE=PLATED
T2F00S00C0.3000
%
T02
X00398Y00147
X00374Y00176
X00526166Y00191036
X00525334Y00415826
X00577404Y00398046
X00602488Y00398526
X00667766Y003983
X00765556Y00398238
X0082226Y0040211
X00929386Y00399508
X00985328Y00401348
X00985582Y00425986
X01025446Y00463578
X01024066Y00515648
X00968186Y00514378
X00861506Y00518188
X00863696Y00463578
X0082226Y00425732
X00805626Y00514378
X00704026Y00516918
X00706676Y00463578
X00665288Y00425732
X00649416Y00514378
X00529336Y00534314
X0050292Y005334
X00531622Y00459514
X00577658Y00422684
X00404368Y00425704
M30
