G04 Layer_Color=2752767*
%FSLAX44Y44*%
%MOMM*%
G71*
G01*
G75*
%ADD85C,0.0677*%
%ADD86C,0.0339*%
D85*
X376032Y176000D02*
G03*
X376032Y176000I-2032J0D01*
G01*
X400032Y147000D02*
G03*
X400032Y147000I-2032J0D01*
G01*
X531368Y534314D02*
G03*
X531368Y534314I-2032J0D01*
G01*
X931418Y399508D02*
G03*
X931418Y399508I-2032J0D01*
G01*
X824292Y425732D02*
G03*
X824292Y425732I-2032J0D01*
G01*
X767588Y398238D02*
G03*
X767588Y398238I-2032J0D01*
G01*
X579690Y422684D02*
G03*
X579690Y422684I-2032J0D01*
G01*
X527366Y415826D02*
G03*
X527366Y415826I-2032J0D01*
G01*
X1027478Y463578D02*
G03*
X1027478Y463578I-2032J0D01*
G01*
X1026098Y515648D02*
G03*
X1026098Y515648I-2032J0D01*
G01*
X865728Y463578D02*
G03*
X865728Y463578I-2032J0D01*
G01*
X863538Y518188D02*
G03*
X863538Y518188I-2032J0D01*
G01*
X807658Y514378D02*
G03*
X807658Y514378I-2032J0D01*
G01*
X708708Y463578D02*
G03*
X708708Y463578I-2032J0D01*
G01*
X706058Y516918D02*
G03*
X706058Y516918I-2032J0D01*
G01*
X651448Y514378D02*
G03*
X651448Y514378I-2032J0D01*
G01*
X970218Y514378D02*
G03*
X970218Y514378I-2032J0D01*
G01*
X533654Y459514D02*
G03*
X533654Y459514I-2032J0D01*
G01*
X579436Y398046D02*
G03*
X579436Y398046I-2032J0D01*
G01*
X669798Y398300D02*
G03*
X669798Y398300I-2032J0D01*
G01*
X504952Y533400D02*
G03*
X504952Y533400I-2032J0D01*
G01*
X604520Y398526D02*
G03*
X604520Y398526I-2032J0D01*
G01*
X667320Y425732D02*
G03*
X667320Y425732I-2032J0D01*
G01*
X987614Y425986D02*
G03*
X987614Y425986I-2032J0D01*
G01*
X406400Y425704D02*
G03*
X406400Y425704I-2032J0D01*
G01*
X824292Y402110D02*
G03*
X824292Y402110I-2032J0D01*
G01*
X987360Y401348D02*
G03*
X987360Y401348I-2032J0D01*
G01*
X528198Y191036D02*
G03*
X528198Y191036I-2032J0D01*
G01*
D86*
X375016Y176000D02*
G03*
X375016Y176000I-1016J0D01*
G01*
X399016Y147000D02*
G03*
X399016Y147000I-1016J0D01*
G01*
X530352Y534314D02*
G03*
X530352Y534314I-1016J0D01*
G01*
X930402Y399508D02*
G03*
X930402Y399508I-1016J0D01*
G01*
X823276Y425732D02*
G03*
X823276Y425732I-1016J0D01*
G01*
X766572Y398238D02*
G03*
X766572Y398238I-1016J0D01*
G01*
X578674Y422684D02*
G03*
X578674Y422684I-1016J0D01*
G01*
X526350Y415826D02*
G03*
X526350Y415826I-1016J0D01*
G01*
X1026462Y463578D02*
G03*
X1026462Y463578I-1016J0D01*
G01*
X1025082Y515648D02*
G03*
X1025082Y515648I-1016J0D01*
G01*
X864712Y463578D02*
G03*
X864712Y463578I-1016J0D01*
G01*
X862522Y518188D02*
G03*
X862522Y518188I-1016J0D01*
G01*
X806642Y514378D02*
G03*
X806642Y514378I-1016J0D01*
G01*
X707692Y463578D02*
G03*
X707692Y463578I-1016J0D01*
G01*
X705042Y516918D02*
G03*
X705042Y516918I-1016J0D01*
G01*
X650432Y514378D02*
G03*
X650432Y514378I-1016J0D01*
G01*
X969202Y514378D02*
G03*
X969202Y514378I-1016J0D01*
G01*
X532638Y459514D02*
G03*
X532638Y459514I-1016J0D01*
G01*
X578420Y398046D02*
G03*
X578420Y398046I-1016J0D01*
G01*
X668782Y398300D02*
G03*
X668782Y398300I-1016J0D01*
G01*
X503936Y533400D02*
G03*
X503936Y533400I-1016J0D01*
G01*
X603504Y398526D02*
G03*
X603504Y398526I-1016J0D01*
G01*
X666304Y425732D02*
G03*
X666304Y425732I-1016J0D01*
G01*
X986598Y425986D02*
G03*
X986598Y425986I-1016J0D01*
G01*
X405384Y425704D02*
G03*
X405384Y425704I-1016J0D01*
G01*
X823276Y402110D02*
G03*
X823276Y402110I-1016J0D01*
G01*
X986344Y401348D02*
G03*
X986344Y401348I-1016J0D01*
G01*
X527182Y191036D02*
G03*
X527182Y191036I-1016J0D01*
G01*
M02*
