G04 Layer_Color=128*
%FSLAX44Y44*%
%MOMM*%
G71*
G01*
G75*
%ADD84C,0.0508*%
D84*
X495070Y84864D02*
X498070D01*
X496570Y83364D02*
Y86364D01*
X466912Y480042D02*
X468912D01*
X467912Y479042D02*
Y481042D01*
X466912Y475042D02*
X468912D01*
X467912Y474042D02*
Y476042D01*
X466912Y470042D02*
X468912D01*
X467912Y469042D02*
Y471042D01*
X466912Y465042D02*
X468912D01*
X467912Y464042D02*
Y466042D01*
X466912Y460042D02*
X468912D01*
X467912Y459042D02*
Y461042D01*
X466912Y455042D02*
X468912D01*
X467912Y454042D02*
Y456042D01*
X466912Y450042D02*
X468912D01*
X467912Y449042D02*
Y451042D01*
X472362Y447308D02*
X474362D01*
X473362Y446308D02*
Y448308D01*
X472362Y452308D02*
X474362D01*
X473362Y451308D02*
Y453308D01*
X472362Y457308D02*
X474362D01*
X473362Y456308D02*
Y458308D01*
X472362Y462308D02*
X474362D01*
X473362Y461308D02*
Y463308D01*
X472362Y467308D02*
X474362D01*
X473362Y466308D02*
Y468308D01*
X472362Y472308D02*
X474362D01*
X473362Y471308D02*
Y473308D01*
X472362Y477308D02*
X474362D01*
X473362Y476308D02*
Y478308D01*
X477812Y450102D02*
X479812D01*
X478812Y449102D02*
Y451102D01*
X477812Y455102D02*
X479812D01*
X478812Y454102D02*
Y456102D01*
X477812Y460102D02*
X479812D01*
X478812Y459102D02*
Y461102D01*
X477812Y465102D02*
X479812D01*
X478812Y464102D02*
Y466102D01*
X477812Y470102D02*
X479812D01*
X478812Y469102D02*
Y471102D01*
X477812Y475102D02*
X479812D01*
X478812Y474102D02*
Y476102D01*
X477812Y480102D02*
X479812D01*
X478812Y479102D02*
Y481102D01*
X483262Y447562D02*
X485262D01*
X484262Y446562D02*
Y448562D01*
X483262Y452562D02*
X485262D01*
X484262Y451562D02*
Y453562D01*
X483262Y457562D02*
X485262D01*
X484262Y456562D02*
Y458562D01*
X483262Y462562D02*
X485262D01*
X484262Y461562D02*
Y463562D01*
X483262Y467562D02*
X485262D01*
X484262Y466562D02*
Y468562D01*
X483262Y472562D02*
X485262D01*
X484262Y471562D02*
Y473562D01*
X483262Y477562D02*
X485262D01*
X484262Y476562D02*
Y478562D01*
X488712Y450102D02*
X490712D01*
X489712Y449102D02*
Y451102D01*
X488712Y455102D02*
X490712D01*
X489712Y454102D02*
Y456102D01*
X488712Y460102D02*
X490712D01*
X489712Y459102D02*
Y461102D01*
X488712Y470102D02*
X490712D01*
X489712Y469102D02*
Y471102D01*
X488712Y475102D02*
X490712D01*
X489712Y474102D02*
Y476102D01*
X488712Y480102D02*
X490712D01*
X489712Y479102D02*
Y481102D01*
X488712Y465102D02*
X490712D01*
X489712Y464102D02*
Y466102D01*
X553490Y504218D02*
X556490D01*
X554990Y502718D02*
Y505718D01*
M02*
