G04 Layer_Color=255*
%FSLAX44Y44*%
%MOMM*%
G71*
G01*
G75*
%ADD20R,2.7000X1.6000*%
%ADD25R,1.4000X1.5000*%
%ADD26R,1.5000X1.4000*%
%ADD31R,2.0000X2.0000*%
%ADD32R,2.0000X2.0000*%
%ADD33O,1.9000X2.5400*%
%ADD34O,2.3000X1.3000*%
%ADD35C,1.5000*%
%ADD36C,2.0000*%
%ADD37R,1.0000X1.7000*%
%ADD38O,1.0000X1.7000*%
%ADD39O,2.0000X2.5000*%
%ADD40C,5.0000*%
%ADD41C,1.4000*%
%ADD42R,1.4000X1.4000*%
%ADD43C,4.0400*%
%ADD52R,1.0000X0.6000*%
%ADD53R,1.9000X1.8000*%
%ADD54R,0.6000X1.7000*%
%ADD55R,1.7000X0.6000*%
%ADD56R,0.6000X1.0000*%
%ADD57R,1.8000X1.9000*%
G04:AMPARAMS|DCode=58|XSize=0.8mm|YSize=1.4mm|CornerRadius=0.2mm|HoleSize=0mm|Usage=FLASHONLY|Rotation=270.000|XOffset=0mm|YOffset=0mm|HoleType=Round|Shape=RoundedRectangle|*
%AMROUNDEDRECTD58*
21,1,0.8000,1.0000,0,0,270.0*
21,1,0.4000,1.4000,0,0,270.0*
1,1,0.4000,-0.5000,-0.2000*
1,1,0.4000,-0.5000,0.2000*
1,1,0.4000,0.5000,0.2000*
1,1,0.4000,0.5000,-0.2000*
%
%ADD58ROUNDEDRECTD58*%
%ADD59R,1.9000X5.7000*%
%ADD60R,0.3000X0.8500*%
%ADD61R,0.8500X0.3000*%
%ADD62R,1.4000X1.2000*%
%ADD63R,2.4000X0.7000*%
%ADD64R,1.0000X0.4000*%
%ADD65R,1.1000X0.7500*%
%ADD66R,0.4000X1.2000*%
%ADD67R,1.6000X0.6000*%
D20*
X398000Y117000D02*
D03*
Y145000D02*
D03*
X521208Y108202D02*
D03*
Y136202D02*
D03*
D25*
X373380Y573368D02*
D03*
Y549368D02*
D03*
X897382Y696558D02*
D03*
Y672558D02*
D03*
X871474Y672304D02*
D03*
Y696304D02*
D03*
X613664Y680432D02*
D03*
Y704432D02*
D03*
X852932Y187288D02*
D03*
Y163288D02*
D03*
X587756Y129122D02*
D03*
Y105122D02*
D03*
X937006Y498438D02*
D03*
Y474438D02*
D03*
X775716Y499708D02*
D03*
Y475708D02*
D03*
X618998Y500216D02*
D03*
Y476216D02*
D03*
X438404Y497676D02*
D03*
Y473676D02*
D03*
X929386Y399508D02*
D03*
Y423508D02*
D03*
X765556Y398238D02*
D03*
Y422238D02*
D03*
X602488Y398526D02*
D03*
Y422526D02*
D03*
X413258Y497676D02*
D03*
Y473676D02*
D03*
X525708Y510314D02*
D03*
Y534314D02*
D03*
X501165Y511714D02*
D03*
Y535714D02*
D03*
X374000Y200000D02*
D03*
Y176000D02*
D03*
X270256Y777838D02*
D03*
Y753838D02*
D03*
X220980D02*
D03*
Y777838D02*
D03*
X820166Y671796D02*
D03*
Y695796D02*
D03*
X795020Y691732D02*
D03*
Y667732D02*
D03*
X768858Y667224D02*
D03*
Y691224D02*
D03*
X869442Y621628D02*
D03*
Y597628D02*
D03*
X845312Y695796D02*
D03*
Y671796D02*
D03*
X717042Y699098D02*
D03*
Y675098D02*
D03*
X691642D02*
D03*
Y699098D02*
D03*
X557530Y107662D02*
D03*
Y131662D02*
D03*
X196342Y753838D02*
D03*
Y777838D02*
D03*
X448000Y144000D02*
D03*
Y120000D02*
D03*
X190500Y461738D02*
D03*
Y485738D02*
D03*
X694436Y97756D02*
D03*
Y121756D02*
D03*
X403352Y227542D02*
D03*
Y203542D02*
D03*
X638810Y195100D02*
D03*
Y171100D02*
D03*
X716280Y231484D02*
D03*
Y207484D02*
D03*
X826770Y278350D02*
D03*
Y302350D02*
D03*
X368808Y753838D02*
D03*
Y777838D02*
D03*
X294894Y753838D02*
D03*
Y777838D02*
D03*
X443230Y607026D02*
D03*
Y631026D02*
D03*
X418592D02*
D03*
Y607026D02*
D03*
X618490Y631410D02*
D03*
Y655410D02*
D03*
X567182Y614646D02*
D03*
Y638646D02*
D03*
X591820Y638900D02*
D03*
Y614900D02*
D03*
X215138Y485484D02*
D03*
Y461484D02*
D03*
X239776Y485484D02*
D03*
Y461484D02*
D03*
X127000Y170524D02*
D03*
Y146524D02*
D03*
X151892Y172178D02*
D03*
Y196178D02*
D03*
X446024Y746342D02*
D03*
Y722342D02*
D03*
X517906Y614646D02*
D03*
Y638646D02*
D03*
X542544D02*
D03*
Y614646D02*
D03*
X319532Y777838D02*
D03*
Y753838D02*
D03*
X467868Y612106D02*
D03*
Y636106D02*
D03*
X574802Y726660D02*
D03*
Y750660D02*
D03*
X495300Y562830D02*
D03*
Y586830D02*
D03*
X492506Y614646D02*
D03*
Y638646D02*
D03*
X639826Y704178D02*
D03*
Y680178D02*
D03*
X245618Y753838D02*
D03*
Y777838D02*
D03*
X789940Y751998D02*
D03*
Y775998D02*
D03*
X193294Y411824D02*
D03*
Y387824D02*
D03*
X817372Y773012D02*
D03*
Y749012D02*
D03*
X265176Y461484D02*
D03*
Y485484D02*
D03*
X289814Y485738D02*
D03*
Y461738D02*
D03*
X344170Y753838D02*
D03*
Y777838D02*
D03*
X710692Y723866D02*
D03*
Y747866D02*
D03*
X664464Y704178D02*
D03*
Y680178D02*
D03*
X571500Y458882D02*
D03*
Y482882D02*
D03*
X743712Y667732D02*
D03*
Y691732D02*
D03*
X504190Y757648D02*
D03*
Y781648D02*
D03*
X1097280Y683604D02*
D03*
Y659604D02*
D03*
X927608Y660112D02*
D03*
Y684112D02*
D03*
X909066Y622644D02*
D03*
Y598644D02*
D03*
X955548Y683920D02*
D03*
Y659920D02*
D03*
D26*
X427036Y424462D02*
D03*
X403036D02*
D03*
X425766Y556288D02*
D03*
X401766D02*
D03*
X581090Y778284D02*
D03*
X605090D02*
D03*
X394016Y623344D02*
D03*
X370016D02*
D03*
X392492Y697258D02*
D03*
X368492D02*
D03*
X501334Y415826D02*
D03*
X525334D02*
D03*
X914876Y532158D02*
D03*
X938876D02*
D03*
X754826Y530888D02*
D03*
X778826D02*
D03*
X596584Y532920D02*
D03*
X620584D02*
D03*
X475804Y422938D02*
D03*
X451804D02*
D03*
X1036890Y424970D02*
D03*
X1012890D02*
D03*
X1048066Y515648D02*
D03*
X1024066D02*
D03*
X985582Y425986D02*
D03*
X961582D02*
D03*
X992186Y514378D02*
D03*
X968186D02*
D03*
X873314Y422938D02*
D03*
X849314D02*
D03*
X885506Y518188D02*
D03*
X861506D02*
D03*
X822260Y425732D02*
D03*
X798260D02*
D03*
X829626Y514378D02*
D03*
X805626D02*
D03*
X715580Y424970D02*
D03*
X691580D02*
D03*
X728026Y516918D02*
D03*
X704026D02*
D03*
X665288Y425732D02*
D03*
X641288D02*
D03*
X673416Y514378D02*
D03*
X649416D02*
D03*
X414974Y449100D02*
D03*
X438974D02*
D03*
X343854Y728754D02*
D03*
X367854D02*
D03*
X217362Y436908D02*
D03*
X241362D02*
D03*
X820612Y596928D02*
D03*
X844612D02*
D03*
X843342Y622328D02*
D03*
X819342D02*
D03*
X694882Y650522D02*
D03*
X718882D02*
D03*
Y624868D02*
D03*
X694882D02*
D03*
X693612Y598198D02*
D03*
X717612D02*
D03*
X855918Y285524D02*
D03*
X879918D02*
D03*
X820612Y646966D02*
D03*
X844612D02*
D03*
X869758Y722658D02*
D03*
X845758D02*
D03*
X646114Y630964D02*
D03*
X670114D02*
D03*
X668844Y604548D02*
D03*
X644844D02*
D03*
X983172Y764568D02*
D03*
X1007172D02*
D03*
X588202Y282222D02*
D03*
X612202D02*
D03*
X396178Y774474D02*
D03*
X420178D02*
D03*
X626934Y753646D02*
D03*
X602934D02*
D03*
X577404Y398046D02*
D03*
X553404D02*
D03*
X553658Y422684D02*
D03*
X577658D02*
D03*
X370016Y647982D02*
D03*
X394016D02*
D03*
X421448Y748058D02*
D03*
X397448D02*
D03*
X393000Y672620D02*
D03*
X369000D02*
D03*
X294324Y728500D02*
D03*
X318324D02*
D03*
X446978Y774474D02*
D03*
X470978D02*
D03*
X394016Y598452D02*
D03*
X370016D02*
D03*
X445832Y582450D02*
D03*
X421832D02*
D03*
X308802Y589562D02*
D03*
X332802D02*
D03*
X283910Y564134D02*
D03*
X307910D02*
D03*
X633668Y778284D02*
D03*
X657668D02*
D03*
X640650Y257584D02*
D03*
X616650D02*
D03*
X565466Y590070D02*
D03*
X541466D02*
D03*
X380808Y389918D02*
D03*
X356808D02*
D03*
X718120Y573560D02*
D03*
X694120D02*
D03*
X707452Y776760D02*
D03*
X683452D02*
D03*
X766634Y720626D02*
D03*
X742634D02*
D03*
X592012Y590324D02*
D03*
X616012D02*
D03*
X591442Y565178D02*
D03*
X615442D02*
D03*
X421448Y723420D02*
D03*
X397448D02*
D03*
X266130Y412270D02*
D03*
X290130D02*
D03*
X738062Y774220D02*
D03*
X762062D02*
D03*
X626934Y729008D02*
D03*
X602934D02*
D03*
X309310Y614454D02*
D03*
X333310D02*
D03*
X260542Y614200D02*
D03*
X284542D02*
D03*
X612456Y154206D02*
D03*
X588456D02*
D03*
X667066Y655602D02*
D03*
X643066D02*
D03*
X737808Y747042D02*
D03*
X761808D02*
D03*
X666750Y401094D02*
D03*
X642750D02*
D03*
X798260D02*
D03*
X822260D02*
D03*
X985328Y401348D02*
D03*
X961328D02*
D03*
X290130Y436908D02*
D03*
X266130D02*
D03*
X373318Y522760D02*
D03*
X397318D02*
D03*
X447864Y526570D02*
D03*
X423864D02*
D03*
X795974Y721642D02*
D03*
X819974D02*
D03*
X1098104Y712752D02*
D03*
X1074104D02*
D03*
X959420Y627154D02*
D03*
X935420D02*
D03*
X1108518Y626646D02*
D03*
X1084518D02*
D03*
X934912Y601500D02*
D03*
X958912D02*
D03*
X1083502Y600230D02*
D03*
X1107502D02*
D03*
X500826Y343182D02*
D03*
X524826D02*
D03*
X879032Y647728D02*
D03*
X903032D02*
D03*
X950784Y758980D02*
D03*
X926784D02*
D03*
X927800Y729262D02*
D03*
X951800D02*
D03*
D31*
X557530Y371630D02*
D03*
X211450Y891400D02*
D03*
X186050D02*
D03*
X117602Y767870D02*
D03*
X931672Y340388D02*
D03*
X795782Y342928D02*
D03*
X637250Y356250D02*
D03*
X514604Y43208D02*
D03*
X832612Y560352D02*
D03*
X526796Y566194D02*
D03*
X287650Y891400D02*
D03*
X363952Y891398D02*
D03*
X262250Y891400D02*
D03*
X313152Y891398D02*
D03*
X338552D02*
D03*
X389352D02*
D03*
X490952D02*
D03*
X643352D02*
D03*
X516352D02*
D03*
X541752D02*
D03*
X567152D02*
D03*
X592552D02*
D03*
X668752D02*
D03*
X617952D02*
D03*
X994918Y626364D02*
D03*
X898652Y763806D02*
D03*
X694152Y891398D02*
D03*
X236850Y891400D02*
D03*
X770352Y891398D02*
D03*
X719552D02*
D03*
X795752D02*
D03*
X440152D02*
D03*
X821152D02*
D03*
X846552D02*
D03*
X897352D02*
D03*
X871952D02*
D03*
X898906Y726722D02*
D03*
X163830Y768886D02*
D03*
X160650Y891400D02*
D03*
X414752Y891398D02*
D03*
D32*
X429000Y61000D02*
D03*
X976376Y558828D02*
D03*
X662686Y561368D02*
D03*
X452374Y401066D02*
D03*
X46482Y491518D02*
D03*
X744952Y891398D02*
D03*
D33*
X688594Y165382D02*
D03*
X713994D02*
D03*
X739394D02*
D03*
X764794D02*
D03*
X688594Y292382D02*
D03*
X713994D02*
D03*
X739394D02*
D03*
X764794D02*
D03*
X1003808Y291874D02*
D03*
X978408D02*
D03*
X953008D02*
D03*
X927608D02*
D03*
X1003808Y164874D02*
D03*
X978408D02*
D03*
X953008D02*
D03*
X927608D02*
D03*
D34*
X586894Y200307D02*
D03*
Y257457D02*
D03*
Y219357D02*
D03*
Y238407D02*
D03*
X825908Y237899D02*
D03*
Y218849D02*
D03*
Y256949D02*
D03*
Y199799D02*
D03*
D35*
X427990Y113538D02*
D03*
Y164338D02*
D03*
Y138938D02*
D03*
D36*
X593636Y69578D02*
D03*
X668636Y119578D02*
D03*
X693636Y69578D02*
D03*
X618636Y119578D02*
D03*
X643636Y69578D02*
D03*
X1041362Y714638D02*
D03*
X991362Y689638D02*
D03*
X1041362Y764638D02*
D03*
X991362Y739638D02*
D03*
X1041362Y664638D02*
D03*
X1001122Y91722D02*
D03*
X951122D02*
D03*
X104032Y101628D02*
D03*
X154032D02*
D03*
D37*
X527304Y312194D02*
D03*
D38*
X540004D02*
D03*
X552704D02*
D03*
D39*
X769912Y92484D02*
D03*
X819912D02*
D03*
X869912D02*
D03*
D40*
X1120000Y30000D02*
D03*
Y920000D02*
D03*
X30000D02*
D03*
Y30000D02*
D03*
D41*
X910082Y858498D02*
D03*
X922782Y839498D02*
D03*
X910082Y820498D02*
D03*
X922782Y801498D02*
D03*
X884682Y858498D02*
D03*
X897382Y839498D02*
D03*
X884682Y820498D02*
D03*
X897382Y801498D02*
D03*
X859282Y858498D02*
D03*
X871982Y839498D02*
D03*
X859282Y820498D02*
D03*
X871982Y801498D02*
D03*
X833882Y858498D02*
D03*
X846582Y839498D02*
D03*
X833882Y820498D02*
D03*
X846582Y801498D02*
D03*
X808482Y858498D02*
D03*
X821182Y839498D02*
D03*
X808482Y820498D02*
D03*
X821182Y801498D02*
D03*
X783082Y858498D02*
D03*
X795782Y839498D02*
D03*
X783082Y820498D02*
D03*
X795782Y801498D02*
D03*
X757682Y858498D02*
D03*
X770382Y839498D02*
D03*
X757682Y820498D02*
D03*
X770382Y801498D02*
D03*
X732282Y858498D02*
D03*
X744982Y839498D02*
D03*
X732282Y820498D02*
D03*
X744982Y801498D02*
D03*
X706882Y858498D02*
D03*
X719582Y839498D02*
D03*
X706882Y820498D02*
D03*
X719582Y801498D02*
D03*
X681482Y858498D02*
D03*
X694182Y839498D02*
D03*
X681482Y820498D02*
D03*
X694182Y801498D02*
D03*
X656082Y858498D02*
D03*
X668782Y839498D02*
D03*
X656082Y820498D02*
D03*
X668782Y801498D02*
D03*
X630682Y858498D02*
D03*
X643382Y839498D02*
D03*
X630682Y820498D02*
D03*
X643382Y801498D02*
D03*
X605282Y858498D02*
D03*
X617982Y839498D02*
D03*
X605282Y820498D02*
D03*
X617982Y801498D02*
D03*
X579882Y858498D02*
D03*
X592582Y839498D02*
D03*
X579882Y820498D02*
D03*
X592582Y801498D02*
D03*
X503682Y858498D02*
D03*
X516382Y839498D02*
D03*
X503682Y820498D02*
D03*
X516382Y801498D02*
D03*
X478282Y858498D02*
D03*
X490982Y839498D02*
D03*
X478282Y820498D02*
D03*
X490982Y801498D02*
D03*
X452882Y858498D02*
D03*
X465582Y839498D02*
D03*
X452882Y820498D02*
D03*
X465582Y801498D02*
D03*
X427482Y858498D02*
D03*
X440182Y839498D02*
D03*
X427482Y820498D02*
D03*
X440182Y801498D02*
D03*
X402082Y858498D02*
D03*
X414782Y839498D02*
D03*
X402082Y820498D02*
D03*
X414782Y801498D02*
D03*
X376682Y858498D02*
D03*
X389382Y839498D02*
D03*
X376682Y820498D02*
D03*
X389382Y801498D02*
D03*
X351282Y858498D02*
D03*
X363982Y839498D02*
D03*
X351282Y820498D02*
D03*
X363982Y801498D02*
D03*
X325882Y858498D02*
D03*
X338582Y839498D02*
D03*
X325882Y820498D02*
D03*
X338582Y801498D02*
D03*
X249682Y858498D02*
D03*
X262382Y839498D02*
D03*
X249682Y820498D02*
D03*
X262382Y801498D02*
D03*
X224282Y858498D02*
D03*
X236982Y839498D02*
D03*
X224282Y820498D02*
D03*
X236982Y801498D02*
D03*
X198882Y858498D02*
D03*
X211582Y839498D02*
D03*
Y801498D02*
D03*
D42*
X198882Y820498D02*
D03*
D43*
X167182Y829998D02*
D03*
X954482D02*
D03*
D52*
X367852Y440718D02*
D03*
X311852D02*
D03*
D53*
X354852Y464718D02*
D03*
X324852D02*
D03*
D54*
X355852Y415518D02*
D03*
X323852D02*
D03*
X339852D02*
D03*
D55*
X742134Y229870D02*
D03*
Y245870D02*
D03*
Y213870D02*
D03*
D56*
X767334Y257870D02*
D03*
Y201870D02*
D03*
D57*
X791334Y244870D02*
D03*
Y214870D02*
D03*
D58*
X878332Y264798D02*
D03*
Y245798D02*
D03*
X856832Y255298D02*
D03*
X617982Y227358D02*
D03*
X639482Y217858D02*
D03*
Y236858D02*
D03*
D59*
X530666Y191036D02*
D03*
X474666D02*
D03*
D60*
X413484Y700408D02*
D03*
X418484D02*
D03*
X423484D02*
D03*
X428484D02*
D03*
X433484D02*
D03*
X438484D02*
D03*
X443484D02*
D03*
X448484D02*
D03*
X413484Y660908D02*
D03*
X418484D02*
D03*
X423484D02*
D03*
X428484D02*
D03*
X433484D02*
D03*
X438484D02*
D03*
X443484D02*
D03*
X448484D02*
D03*
X559788Y702846D02*
D03*
X564788D02*
D03*
X569788D02*
D03*
X574788D02*
D03*
X579788D02*
D03*
X584788D02*
D03*
X589788D02*
D03*
X594788D02*
D03*
X559788Y663346D02*
D03*
X564788D02*
D03*
X569788D02*
D03*
X574788D02*
D03*
X579788D02*
D03*
X584788D02*
D03*
X589788D02*
D03*
X594788D02*
D03*
D61*
X648970Y722884D02*
D03*
Y727884D02*
D03*
Y732884D02*
D03*
Y737884D02*
D03*
Y742884D02*
D03*
Y747884D02*
D03*
Y752884D02*
D03*
Y757884D02*
D03*
X688470Y722884D02*
D03*
Y727884D02*
D03*
Y732884D02*
D03*
Y737884D02*
D03*
Y742884D02*
D03*
Y747884D02*
D03*
Y752884D02*
D03*
Y757884D02*
D03*
D62*
X550000Y540000D02*
D03*
Y510000D02*
D03*
D63*
X469138Y447830D02*
D03*
Y460530D02*
D03*
Y473230D02*
D03*
Y485930D02*
D03*
X526638Y447830D02*
D03*
Y460530D02*
D03*
Y473230D02*
D03*
Y485930D02*
D03*
X1025446Y488978D02*
D03*
Y476278D02*
D03*
Y463578D02*
D03*
Y450878D02*
D03*
X967946Y488978D02*
D03*
Y476278D02*
D03*
Y463578D02*
D03*
Y450878D02*
D03*
X806196D02*
D03*
Y463578D02*
D03*
Y476278D02*
D03*
Y488978D02*
D03*
X863696Y450878D02*
D03*
Y463578D02*
D03*
Y476278D02*
D03*
Y488978D02*
D03*
X706676D02*
D03*
Y476278D02*
D03*
Y463578D02*
D03*
Y450878D02*
D03*
X649176Y488978D02*
D03*
Y476278D02*
D03*
Y463578D02*
D03*
Y450878D02*
D03*
D64*
X449424Y547098D02*
D03*
Y553598D02*
D03*
Y560098D02*
D03*
X471424Y547098D02*
D03*
Y560098D02*
D03*
D65*
X526542Y761012D02*
D03*
Y780012D02*
D03*
X550542Y761012D02*
D03*
Y770512D02*
D03*
Y780012D02*
D03*
D66*
X784092Y644398D02*
D03*
X751592D02*
D03*
X777592D02*
D03*
X764592D02*
D03*
X771092D02*
D03*
X758092D02*
D03*
X790592D02*
D03*
X745092D02*
D03*
X797092D02*
D03*
X738592D02*
D03*
X771092Y577398D02*
D03*
X764592D02*
D03*
X797092D02*
D03*
X738592D02*
D03*
X790592D02*
D03*
X745092D02*
D03*
X784092D02*
D03*
X751592D02*
D03*
X777592D02*
D03*
X758092D02*
D03*
D67*
X476606Y659666D02*
D03*
Y672366D02*
D03*
Y685066D02*
D03*
Y697766D02*
D03*
Y710466D02*
D03*
Y723166D02*
D03*
Y735866D02*
D03*
X530606Y659666D02*
D03*
Y672366D02*
D03*
Y685066D02*
D03*
Y697766D02*
D03*
Y710466D02*
D03*
Y723166D02*
D03*
Y735866D02*
D03*
M02*
