G04 Layer_Color=2752767*
%FSLAX44Y44*%
%MOMM*%
G71*
G01*
G75*
%ADD85C,0.0677*%
%ADD86C,0.0339*%
D85*
X917194Y531650D02*
G03*
X917194Y531650I-2032J0D01*
G01*
X450088Y144108D02*
G03*
X450088Y144108I-2032J0D01*
G01*
X559562Y131662D02*
G03*
X559562Y131662I-2032J0D01*
G01*
X696468Y121756D02*
G03*
X696468Y121756I-2032J0D01*
G01*
X555244Y400332D02*
G03*
X555244Y400332I-2032J0D01*
G01*
X644782Y401094D02*
G03*
X644782Y401094I-2032J0D01*
G01*
X931418Y425508D02*
G03*
X931418Y425508I-2032J0D01*
G01*
X756920Y530126D02*
G03*
X756920Y530126I-2032J0D01*
G01*
X425958Y424434D02*
G03*
X425958Y424434I-2032J0D01*
G01*
X804672Y401066D02*
G03*
X804672Y401066I-2032J0D01*
G01*
X967232Y401320D02*
G03*
X967232Y401320I-2032J0D01*
G01*
D86*
X916178Y531650D02*
G03*
X916178Y531650I-1016J0D01*
G01*
X449072Y144108D02*
G03*
X449072Y144108I-1016J0D01*
G01*
X558546Y131662D02*
G03*
X558546Y131662I-1016J0D01*
G01*
X695452Y121756D02*
G03*
X695452Y121756I-1016J0D01*
G01*
X554228Y400332D02*
G03*
X554228Y400332I-1016J0D01*
G01*
X643766Y401094D02*
G03*
X643766Y401094I-1016J0D01*
G01*
X930402Y425508D02*
G03*
X930402Y425508I-1016J0D01*
G01*
X755904Y530126D02*
G03*
X755904Y530126I-1016J0D01*
G01*
X424942Y424434D02*
G03*
X424942Y424434I-1016J0D01*
G01*
X803656Y401066D02*
G03*
X803656Y401066I-1016J0D01*
G01*
X966216Y401320D02*
G03*
X966216Y401320I-1016J0D01*
G01*
M02*
