G04 Layer_Color=128*
%FSLAX44Y44*%
%MOMM*%
G71*
G01*
G75*
%ADD84C,0.0508*%
D84*
X548000Y461000D02*
X558000D01*
X553000Y456000D02*
Y466000D01*
X399622Y262858D02*
X409622D01*
X404622Y257858D02*
Y267858D01*
X1017604Y493234D02*
X1027604D01*
X1022604Y488234D02*
Y498234D01*
X856314Y493550D02*
X866314D01*
X861314Y488550D02*
Y498550D01*
X831930Y450878D02*
X841930D01*
X836930Y445878D02*
Y455878D01*
X532464Y717578D02*
X542464D01*
X537464Y712578D02*
Y722578D01*
X650066Y718594D02*
X660066D01*
X655066Y713594D02*
Y723594D01*
X775288Y716308D02*
X785288D01*
X780288Y711308D02*
Y721308D01*
X223092Y74898D02*
X233092D01*
X228092Y69898D02*
Y79898D01*
X292942Y74898D02*
X302942D01*
X297942Y69898D02*
Y79898D01*
X422990Y702564D02*
X432990D01*
X427990Y697564D02*
Y707564D01*
X699000Y494250D02*
X709000D01*
X704000Y489250D02*
Y499250D01*
X524250Y494000D02*
X534250D01*
X529250Y489000D02*
Y499000D01*
X995250Y453250D02*
X1005250D01*
X1000250Y448250D02*
Y458250D01*
X676000Y455000D02*
X686000D01*
X681000Y450000D02*
Y460000D01*
X501750Y455500D02*
X511750D01*
X506750Y450500D02*
Y460500D01*
X505286Y194564D02*
X515286D01*
X510286Y189564D02*
Y199564D01*
M02*
