G04 Layer_Physical_Order=1*
G04 Layer_Color=255*
%FSLAX44Y44*%
%MOMM*%
G71*
G01*
G75*
%ADD10C,0.3000*%
%ADD11R,5.7000X1.9000*%
%ADD12R,1.0000X5.0000*%
%ADD13R,1.0000X1.5000*%
%ADD14R,1.2500X1.5000*%
%ADD15R,1.5000X0.8000*%
%ADD16R,1.2000X0.8000*%
%ADD17R,0.4000X0.3500*%
%ADD18R,0.9000X0.3500*%
%ADD19R,4.0000X5.5000*%
%ADD20R,2.7000X1.6000*%
%ADD21R,5.5000X5.8000*%
%ADD22R,6.3500X5.4000*%
%ADD23R,5.4000X6.3500*%
%ADD24R,5.8000X5.5000*%
%ADD25R,1.4000X1.5000*%
%ADD26R,1.5000X1.4000*%
%ADD27C,1.5000*%
%ADD28C,0.5000*%
%ADD29C,1.0000*%
%ADD30R,3.9000X4.0000*%
%ADD31R,2.0000X2.0000*%
%ADD32R,2.0000X2.0000*%
%ADD33O,1.9000X2.5400*%
%ADD34O,2.3000X1.3000*%
%ADD35C,1.5000*%
%ADD36C,2.0000*%
%ADD37R,1.0000X1.7000*%
%ADD38O,1.0000X1.7000*%
%ADD39O,2.0000X2.5000*%
%ADD40C,5.0000*%
%ADD41C,1.4000*%
%ADD42R,1.4000X1.4000*%
%ADD43C,4.0400*%
%ADD44C,1.8000*%
%ADD45C,0.5000*%
%ADD46C,0.4000*%
%ADD47C,2.5000*%
%ADD48C,0.6000*%
%ADD49C,4.5000*%
G36*
X632460Y539778D02*
X632589Y539649D01*
X632729Y539312D01*
Y538946D01*
X632589Y538609D01*
X632460Y538480D01*
X632538Y535253D01*
X631809Y509644D01*
X629413Y507228D01*
X615950Y506730D01*
X615950Y506730D01*
X614781Y506683D01*
X612529Y506077D01*
X610552Y504838D01*
X609023Y503076D01*
X608471Y502045D01*
X608471Y491490D01*
X608471Y491490D01*
X608600Y490781D01*
X609063Y489417D01*
X609783Y488171D01*
X610732Y487088D01*
X611875Y486212D01*
X613166Y485575D01*
X614557Y485203D01*
X615994Y485109D01*
X616712Y485168D01*
X661924D01*
X661924Y485168D01*
X662786Y485014D01*
X664260Y484069D01*
X665260Y482632D01*
X665634Y480922D01*
X665480Y480060D01*
X665480Y441452D01*
X665480Y441452D01*
X665578Y440849D01*
X665298Y439658D01*
X664583Y438666D01*
X663543Y438022D01*
X662940Y437924D01*
X662679D01*
X663250Y436544D01*
Y435500D01*
Y428650D01*
X663372Y426160D01*
X664344Y421277D01*
X666249Y416676D01*
X669016Y412536D01*
X672536Y409016D01*
X676676Y406249D01*
X681277Y404344D01*
X686160Y403372D01*
X688650Y403250D01*
X752102D01*
X757009Y402274D01*
X761631Y400359D01*
X765791Y397579D01*
X769329Y394041D01*
X772109Y389881D01*
X774024Y385259D01*
X775000Y380352D01*
Y377850D01*
Y282500D01*
Y281244D01*
X774510Y278781D01*
X773549Y276461D01*
X772154Y274372D01*
X770378Y272596D01*
X768289Y271201D01*
X765969Y270240D01*
X763506Y269750D01*
X629240D01*
X627260Y270144D01*
X625395Y270917D01*
X623716Y272038D01*
X622288Y273466D01*
X621167Y275145D01*
X620394Y277010D01*
X620000Y278990D01*
Y280000D01*
Y282250D01*
X619000Y435500D01*
Y436544D01*
X619571Y437924D01*
X608048D01*
X608047Y437924D01*
X606147Y438075D01*
X602478Y439115D01*
X599083Y440851D01*
X596093Y443216D01*
X593622Y446119D01*
X591765Y449450D01*
X590595Y453078D01*
X590156Y456866D01*
X590310Y458766D01*
X590310Y520206D01*
X590310Y520205D01*
X589934Y521758D01*
X589804Y524949D01*
X590298Y528105D01*
X591399Y531104D01*
X593064Y533830D01*
X595229Y536180D01*
X597810Y538061D01*
X600709Y539403D01*
X602262Y539778D01*
X632460Y539778D01*
X632460Y539778D01*
D02*
G37*
G36*
X547633Y279695D02*
X548195Y279133D01*
X548500Y278398D01*
Y278000D01*
Y261000D01*
Y260055D01*
X547777Y258309D01*
X546441Y256973D01*
X544695Y256250D01*
X510750D01*
X510165Y256192D01*
X509083Y255744D01*
X508256Y254917D01*
X507808Y253835D01*
X507750Y253250D01*
Y253151D01*
X507674Y252967D01*
X507533Y252826D01*
X507349Y252750D01*
X449554D01*
X448267Y253283D01*
X447283Y254267D01*
X446750Y255554D01*
Y256250D01*
Y275750D01*
Y276595D01*
X447397Y278157D01*
X448593Y279353D01*
X450155Y280000D01*
X546898D01*
X547633Y279695D01*
D02*
G37*
G36*
X769112Y180594D02*
X769924Y180461D01*
X771464Y179883D01*
X772861Y179015D01*
X774063Y177892D01*
X775023Y176555D01*
X775703Y175058D01*
X776078Y173456D01*
X776133Y171812D01*
X776000Y171000D01*
X776000D01*
X776190Y159343D01*
X777045Y158064D01*
X778934Y156875D01*
X781144Y156558D01*
X782250Y156750D01*
X782250D01*
X787500Y156750D01*
X788445D01*
X790191Y156027D01*
X791527Y154691D01*
X792250Y152945D01*
Y152000D01*
X792250Y62000D01*
X792336Y60969D01*
X791705Y59000D01*
X790369Y57421D01*
X788531Y56474D01*
X787500Y56388D01*
X787500Y56388D01*
X770879D01*
X770879Y56388D01*
X770128Y56388D01*
X725003D01*
X723678Y56652D01*
X722430Y57168D01*
X721306Y57919D01*
X720351Y58874D01*
X719601Y59998D01*
X719083Y61246D01*
X718820Y62571D01*
Y63246D01*
Y91948D01*
X718775Y92869D01*
X718415Y94676D01*
X717710Y96378D01*
X716687Y97910D01*
X715384Y99213D01*
X713852Y100236D01*
X712150Y100941D01*
X710343Y101301D01*
X709422Y101346D01*
X689412D01*
X687638Y102081D01*
X686281Y103438D01*
X685546Y105212D01*
Y106172D01*
Y131064D01*
X685429Y132253D01*
X684519Y134451D01*
X682837Y136133D01*
X680639Y137043D01*
X679450Y137160D01*
X673665D01*
X671425Y138088D01*
X669710Y139803D01*
X668782Y142043D01*
Y143256D01*
Y176784D01*
X668782Y177542D01*
X669362Y178942D01*
X670434Y180014D01*
X671834Y180594D01*
X672592Y180594D01*
X672592Y180594D01*
X769112Y180594D01*
D02*
G37*
G36*
X173228Y528320D02*
X175480Y528320D01*
X179896Y527441D01*
X184056Y525718D01*
X187800Y523217D01*
X190984Y520032D01*
X193486Y516288D01*
X195209Y512128D01*
X196088Y507711D01*
X196088Y505460D01*
X196088Y505460D01*
Y429514D01*
X196210Y427024D01*
X197182Y422141D01*
X199087Y417541D01*
X201854Y413400D01*
X205374Y409879D01*
X209515Y407113D01*
X214115Y405208D01*
X218998Y404236D01*
X221488Y404114D01*
X402298D01*
X407205Y403138D01*
X411827Y401223D01*
X415988Y398443D01*
X419525Y394906D01*
X422305Y390745D01*
X424220Y386123D01*
X425196Y381216D01*
Y378714D01*
Y354554D01*
X425251Y353437D01*
X425687Y351245D01*
X426542Y349180D01*
X427784Y347322D01*
X429364Y345742D01*
X431222Y344500D01*
X433287Y343645D01*
X435479Y343209D01*
X436596Y343154D01*
X436596D01*
X498602Y343154D01*
X499553D01*
X501417Y342783D01*
X503174Y342056D01*
X504755Y340999D01*
X506099Y339655D01*
X507155Y338074D01*
X507883Y336317D01*
X508254Y334453D01*
Y333502D01*
Y300482D01*
Y299832D01*
X508000Y298556D01*
X507502Y297354D01*
X506780Y296272D01*
X505860Y295352D01*
X504778Y294630D01*
X503576Y294132D01*
X502300Y293878D01*
X167678D01*
X162771Y294854D01*
X158149Y296769D01*
X153988Y299548D01*
X150450Y303086D01*
X147671Y307247D01*
X145756Y311869D01*
X144780Y316776D01*
Y319278D01*
X144780Y343154D01*
X144705Y344673D01*
X144113Y347652D01*
X142950Y350458D01*
X141263Y352983D01*
X139115Y355131D01*
X136590Y356819D01*
X133784Y357981D01*
X130805Y358573D01*
X129286Y358648D01*
X129286Y358648D01*
X47282D01*
X42375Y359624D01*
X37753Y361539D01*
X33592Y364319D01*
X30055Y367856D01*
X27275Y372017D01*
X25360Y376639D01*
X24384Y381546D01*
Y384048D01*
Y502920D01*
Y505422D01*
X25360Y510329D01*
X27275Y514951D01*
X30055Y519112D01*
X33592Y522649D01*
X37753Y525429D01*
X42375Y527344D01*
X47282Y528320D01*
X49784D01*
X173228Y528320D01*
D02*
G37*
G36*
X687169Y471613D02*
X687860Y471485D01*
X689038Y470721D01*
X689835Y469564D01*
X690127Y468190D01*
X690000Y467500D01*
X690000Y467500D01*
X690000Y438250D01*
X689811Y437826D01*
X689136Y437187D01*
X688269Y436854D01*
X687340Y436879D01*
X686916Y437069D01*
X674215Y437069D01*
X673761D01*
X672921Y437417D01*
X672278Y438060D01*
X671929Y438900D01*
Y439355D01*
X672184Y470597D01*
Y470851D01*
Y471002D01*
X672299Y471282D01*
X672514Y471497D01*
X672794Y471613D01*
X672945D01*
X687169Y471613D01*
D02*
G37*
G36*
X845303Y470899D02*
X845803Y470399D01*
X846074Y469746D01*
Y469392D01*
Y437642D01*
Y437339D01*
X845842Y436779D01*
X845413Y436350D01*
X844853Y436118D01*
X830988D01*
X830335Y436389D01*
X829835Y436889D01*
X829564Y437542D01*
Y437896D01*
X829818Y469392D01*
Y470662D01*
Y470763D01*
X829895Y470950D01*
X830038Y471093D01*
X830225Y471170D01*
X844650D01*
X845303Y470899D01*
D02*
G37*
G36*
X565268Y449422D02*
Y445798D01*
X569468D01*
X569468Y415572D01*
Y415117D01*
X569120Y414277D01*
X568477Y413634D01*
X567637Y413286D01*
X523344D01*
X522597Y413595D01*
X522025Y414167D01*
X521716Y414914D01*
Y415318D01*
Y428526D01*
Y428627D01*
X521793Y428814D01*
X521936Y428957D01*
X522123Y429034D01*
X543052D01*
X543349Y429063D01*
X543899Y429291D01*
X544319Y429711D01*
X544547Y430261D01*
X544576Y430558D01*
X544576Y445798D01*
X549518D01*
Y449422D01*
X565268Y449422D01*
D02*
G37*
G36*
X353357Y286493D02*
X354651Y285957D01*
X355816Y285178D01*
X356806Y284188D01*
X357585Y283023D01*
X358121Y281728D01*
X358394Y280354D01*
Y279654D01*
Y247650D01*
X358521Y246362D01*
X359507Y243981D01*
X361329Y242159D01*
X363710Y241173D01*
X364998Y241046D01*
X420555D01*
X422910Y240577D01*
X425129Y239658D01*
X427126Y238324D01*
X428824Y236626D01*
X430158Y234629D01*
X431077Y232410D01*
X431546Y230055D01*
Y228854D01*
Y200660D01*
Y199809D01*
X431214Y198141D01*
X430563Y196569D01*
X429618Y195155D01*
X428415Y193952D01*
X427001Y193007D01*
X425429Y192356D01*
X423761Y192024D01*
X385318D01*
X384178Y191912D01*
X382072Y191039D01*
X380461Y189428D01*
X379588Y187322D01*
X379476Y186182D01*
Y122174D01*
Y121098D01*
X379056Y118988D01*
X378233Y117001D01*
X377038Y115212D01*
X375516Y113690D01*
X373727Y112495D01*
X371740Y111672D01*
X369630Y111252D01*
X194818D01*
X193922Y111208D01*
X192164Y110858D01*
X190508Y110172D01*
X189017Y109176D01*
X187750Y107909D01*
X186754Y106418D01*
X186068Y104762D01*
X185718Y103004D01*
X185674Y102108D01*
Y64516D01*
Y63490D01*
X185274Y61478D01*
X184489Y59583D01*
X183349Y57877D01*
X181898Y56427D01*
X180193Y55287D01*
X178298Y54502D01*
X176286Y54102D01*
X136867D01*
X135297Y54414D01*
X133818Y55027D01*
X132487Y55917D01*
X131355Y57049D01*
X130465Y58380D01*
X129852Y59859D01*
X129540Y61429D01*
Y62230D01*
Y116078D01*
X129503Y116825D01*
X129212Y118290D01*
X128640Y119670D01*
X127810Y120912D01*
X126754Y121968D01*
X125512Y122798D01*
X124132Y123370D01*
X122667Y123661D01*
X121920Y123698D01*
X32148D01*
X29940Y124137D01*
X27860Y124999D01*
X25988Y126250D01*
X24396Y127842D01*
X23145Y129714D01*
X22283Y131794D01*
X21844Y134002D01*
Y135128D01*
Y231902D01*
Y233278D01*
X22381Y235977D01*
X23434Y238519D01*
X24963Y240807D01*
X26909Y242753D01*
X29197Y244282D01*
X31739Y245335D01*
X34438Y245872D01*
X261874D01*
X262945Y245925D01*
X265044Y246342D01*
X267023Y247162D01*
X268803Y248351D01*
X270317Y249865D01*
X271506Y251645D01*
X272326Y253624D01*
X272743Y255723D01*
X272796Y256794D01*
Y281432D01*
Y282493D01*
X273608Y284454D01*
X275109Y285954D01*
X277069Y286766D01*
X351982D01*
X353357Y286493D01*
D02*
G37*
G36*
X441399Y121087D02*
X443087Y119399D01*
X444000Y117193D01*
Y116000D01*
Y47000D01*
Y46005D01*
X443239Y44168D01*
X441832Y42761D01*
X439995Y42000D01*
X418806D01*
X416601Y42913D01*
X414913Y44601D01*
X414000Y46807D01*
Y48000D01*
Y118000D01*
Y118796D01*
X414609Y120266D01*
X415734Y121391D01*
X417204Y122000D01*
X439193D01*
X441399Y121087D01*
D02*
G37*
G36*
X523544Y120744D02*
X524830Y119458D01*
X525526Y117777D01*
Y116868D01*
Y61496D01*
X525594Y60802D01*
X526125Y59520D01*
X527106Y58539D01*
X528388Y58008D01*
X529082Y57940D01*
X529890D01*
X531384Y57321D01*
X532527Y56178D01*
X533146Y54684D01*
Y53876D01*
Y23904D01*
Y23449D01*
X532798Y22609D01*
X532155Y21966D01*
X531315Y21618D01*
X500283D01*
X498696Y22275D01*
X497481Y23490D01*
X496824Y25077D01*
Y25936D01*
Y54638D01*
Y55648D01*
X497597Y57516D01*
X499026Y58945D01*
X500894Y59718D01*
X508762D01*
X509456Y59786D01*
X510738Y60317D01*
X511719Y61298D01*
X512250Y62580D01*
X512318Y63274D01*
X511810Y116106D01*
Y118392D01*
Y118998D01*
X512274Y120119D01*
X513131Y120976D01*
X514252Y121440D01*
X521863D01*
X523544Y120744D01*
D02*
G37*
G36*
X807634Y225364D02*
X808548Y224732D01*
X809150Y223797D01*
X809250Y223250D01*
X809250Y223250D01*
Y194500D01*
X809360Y193378D01*
X810219Y191305D01*
X811805Y189719D01*
X813878Y188860D01*
X814999Y188750D01*
X815000D01*
X832750Y188750D01*
X840944D01*
X843149Y187836D01*
X844837Y186149D01*
X845750Y183943D01*
Y182750D01*
X845750Y62750D01*
X845775Y61830D01*
X845117Y60111D01*
X843851Y58775D01*
X842170Y58025D01*
X841250Y58000D01*
X841250D01*
X833896Y58000D01*
Y58000D01*
X806000D01*
X805204Y58000D01*
X803734Y58609D01*
X802609Y59734D01*
X802000Y61204D01*
X802000Y62000D01*
Y62000D01*
X802000Y162500D01*
X801923Y163280D01*
X801326Y164722D01*
X800222Y165826D01*
X798780Y166423D01*
X798000Y166500D01*
X798000Y166500D01*
X787750D01*
X787054Y166500D01*
X785767Y167033D01*
X784783Y168017D01*
X784250Y169304D01*
X784250Y170000D01*
Y170000D01*
X784250Y178188D01*
X784183Y178836D01*
X783744Y180060D01*
X782939Y181081D01*
X781853Y181795D01*
X781238Y182012D01*
Y182012D01*
X780528Y181954D01*
X779191Y182445D01*
X778183Y183452D01*
X777692Y184790D01*
X777750Y185500D01*
X777750Y185500D01*
X777750Y222750D01*
X777750Y223297D01*
X778169Y224307D01*
X778942Y225081D01*
X779952Y225499D01*
X780499D01*
X780500Y225500D01*
X806000Y225500D01*
X806547Y225599D01*
X807634Y225364D01*
D02*
G37*
G36*
X460713Y235293D02*
X461071Y234935D01*
X461264Y234469D01*
Y234216D01*
X461317Y233145D01*
X461734Y231045D01*
X462554Y229067D01*
X463743Y227287D01*
X465257Y225773D01*
X467037Y224584D01*
X469016Y223764D01*
X471115Y223347D01*
X472186Y223294D01*
X479806D01*
X479806Y223294D01*
X480867Y223294D01*
X482827Y222482D01*
X484328Y220981D01*
X485140Y219021D01*
X485140Y217960D01*
X485140Y173256D01*
Y172346D01*
X484444Y170666D01*
X483158Y169380D01*
X481477Y168684D01*
X466852D01*
X466852Y168684D01*
X465791Y168684D01*
X463830Y169496D01*
X462330Y170996D01*
X461518Y172957D01*
X461518Y174018D01*
Y191544D01*
X461437Y193187D01*
X460796Y196410D01*
X459538Y199447D01*
X457713Y202179D01*
X455389Y204503D01*
X452657Y206329D01*
X449620Y207586D01*
X446397Y208227D01*
X444754Y208308D01*
X443592Y208308D01*
X441445Y209197D01*
X439801Y210841D01*
X438912Y212988D01*
X438912Y214150D01*
Y227104D01*
Y235486D01*
X460247D01*
X460713Y235293D01*
D02*
G37*
G36*
X547725Y247672D02*
X548154Y247243D01*
X548386Y246683D01*
Y246380D01*
Y232918D01*
Y232665D01*
X548193Y232199D01*
X547835Y231841D01*
X547369Y231648D01*
X519430D01*
X519182Y231624D01*
X518724Y231434D01*
X518374Y231084D01*
X518184Y230626D01*
X518160Y230378D01*
Y218186D01*
X518189Y217889D01*
X518417Y217339D01*
X518837Y216919D01*
X519387Y216691D01*
X519684Y216662D01*
X523898D01*
X524645Y216353D01*
X525217Y215781D01*
X525526Y215034D01*
Y214630D01*
Y212828D01*
X525780Y212215D01*
Y211356D01*
Y169954D01*
Y169449D01*
X525393Y168515D01*
X524679Y167801D01*
X523745Y167414D01*
X496060D01*
X495250Y167749D01*
X494631Y168369D01*
X494295Y169178D01*
Y169616D01*
X493522Y171483D01*
Y172494D01*
X493776Y211610D01*
Y212626D01*
Y213232D01*
X494240Y214352D01*
X494295Y214408D01*
Y234961D01*
Y235868D01*
X494990Y237545D01*
X496273Y238828D01*
X497949Y239522D01*
X504698D01*
X505193Y239571D01*
X506109Y239950D01*
X506810Y240651D01*
X507189Y241566D01*
X507238Y242062D01*
Y242315D01*
X507431Y242781D01*
X507789Y243139D01*
X508255Y243332D01*
X517398D01*
X517745Y243366D01*
X518386Y243632D01*
X518876Y244122D01*
X519142Y244763D01*
X519176Y245110D01*
Y246380D01*
Y246683D01*
X519408Y247243D01*
X519837Y247672D01*
X520397Y247904D01*
X547165D01*
X547725Y247672D01*
D02*
G37*
G36*
X1014265Y184150D02*
X1016668Y183155D01*
X1018832Y181709D01*
X1020671Y179870D01*
X1022117Y177706D01*
X1023112Y175303D01*
X1023620Y172751D01*
Y171450D01*
Y136144D01*
Y135469D01*
X1023356Y134144D01*
X1022840Y132895D01*
X1022089Y131772D01*
X1021134Y130817D01*
X1020011Y130066D01*
X1018762Y129550D01*
X1017437Y129286D01*
X1016762D01*
X923036Y129286D01*
X922314Y129250D01*
X920898Y128969D01*
X919564Y128416D01*
X918363Y127614D01*
X917342Y126593D01*
X916540Y125392D01*
X915987Y124058D01*
X915705Y122642D01*
X915670Y121920D01*
X915670Y121920D01*
Y67056D01*
Y66005D01*
X915260Y63944D01*
X914456Y62003D01*
X913288Y60255D01*
X911802Y58770D01*
X910055Y57602D01*
X908114Y56798D01*
X906053Y56388D01*
X867410D01*
X866023Y56388D01*
X863368Y57189D01*
X861058Y58722D01*
X859289Y60858D01*
X858750Y62135D01*
Y62135D01*
Y180112D01*
X859225Y181131D01*
X860707Y182821D01*
X862604Y184029D01*
X864762Y184658D01*
X865886D01*
X865886Y184658D01*
X1011713D01*
X1014265Y184150D01*
D02*
G37*
G36*
X512920Y472863D02*
X513610Y472735D01*
X514789Y471971D01*
X515585Y470814D01*
X515878Y469440D01*
X515750Y468750D01*
X515750Y468750D01*
X515750Y439500D01*
X515561Y439076D01*
X514886Y438437D01*
X514019Y438104D01*
X513090Y438130D01*
X512665Y438319D01*
X499966Y438319D01*
X499511D01*
X498671Y438667D01*
X498028Y439310D01*
X497680Y440150D01*
Y440605D01*
X497934Y471847D01*
Y472101D01*
Y472252D01*
X498050Y472533D01*
X498264Y472747D01*
X498544Y472863D01*
X498696D01*
X512920Y472863D01*
D02*
G37*
G36*
X950900Y539154D02*
X951114Y538940D01*
X951230Y538660D01*
Y538508D01*
X951230Y506836D01*
X950833Y506236D01*
X950833D01*
X950660Y506162D01*
X950286Y506123D01*
X949917Y506195D01*
X949585Y506371D01*
X949452Y506504D01*
X932329Y506504D01*
X932329Y506504D01*
X931556Y506428D01*
X930129Y505837D01*
X929037Y504744D01*
X928446Y503317D01*
X928370Y502545D01*
X928370Y491010D01*
Y491010D01*
X928492Y489771D01*
X929440Y487482D01*
X931192Y485730D01*
X933481Y484782D01*
X934720Y484660D01*
X979932Y484660D01*
X980892D01*
X982666Y483925D01*
X984023Y482568D01*
X984758Y480794D01*
Y479834D01*
Y441226D01*
X984758Y441226D01*
X984758Y440468D01*
X984692Y440308D01*
X984753Y439175D01*
X983960Y422230D01*
X983960Y422230D01*
X983965Y421486D01*
X984216Y420020D01*
X984776Y418642D01*
X985618Y417417D01*
X986703Y416400D01*
X987982Y415641D01*
X989394Y415174D01*
X990873Y415020D01*
X991616Y415064D01*
X992886Y415064D01*
X995388D01*
X1000295Y414088D01*
X1004917Y412173D01*
X1009078Y409393D01*
X1012615Y405855D01*
X1015395Y401695D01*
X1017310Y397073D01*
X1018286Y392166D01*
Y389664D01*
Y291874D01*
Y290248D01*
X1017652Y287058D01*
X1016407Y284054D01*
X1014600Y281350D01*
X1012300Y279050D01*
X1009596Y277243D01*
X1006592Y275998D01*
X1003402Y275364D01*
X924052D01*
X924052Y275364D01*
X922000Y275364D01*
X917976Y276164D01*
X914186Y277735D01*
X910775Y280014D01*
X907874Y282915D01*
X905594Y286326D01*
X904024Y290117D01*
X903224Y294141D01*
X903224Y296192D01*
Y453418D01*
D01*
Y454302D01*
Y454626D01*
X903472Y455224D01*
X903930Y455682D01*
X904528Y455930D01*
X905054D01*
X905292Y455953D01*
X905731Y456135D01*
X906067Y456471D01*
X906249Y456910D01*
X906272Y457148D01*
Y454626D01*
X906286D01*
X906286Y532652D01*
X905929Y533612D01*
X906005Y535658D01*
X906859Y537520D01*
X908360Y538914D01*
X909320Y539270D01*
X950468Y539270D01*
X950620D01*
X950900Y539154D01*
D02*
G37*
G36*
X789356Y539408D02*
X789570Y539194D01*
X789686Y538914D01*
Y538762D01*
Y506758D01*
X789686Y506758D01*
X789661Y506480D01*
X789401Y505986D01*
X788973Y505629D01*
X788440Y505463D01*
X788162Y505488D01*
X772160D01*
X772160Y505488D01*
X771097Y505358D01*
X769147Y504497D01*
X767676Y502955D01*
X766906Y500968D01*
X766826Y499900D01*
X766826Y491264D01*
Y491264D01*
X766948Y490025D01*
X767896Y487736D01*
X769648Y485984D01*
X771937Y485036D01*
X773176Y484914D01*
X818388Y484914D01*
X819348D01*
X821122Y484179D01*
X822479Y482822D01*
X823214Y481048D01*
Y480088D01*
Y441480D01*
Y436654D01*
X823264Y435633D01*
X823662Y433631D01*
X824444Y431745D01*
X825578Y430047D01*
X827021Y428604D01*
X828719Y427470D01*
X830605Y426688D01*
X832607Y426290D01*
X833628Y426240D01*
X836930D01*
X836930Y426240D01*
X838456Y426240D01*
X841449Y425645D01*
X844269Y424477D01*
X846807Y422781D01*
X848965Y420623D01*
X850661Y418085D01*
X851829Y415265D01*
X852424Y412272D01*
X852424Y410746D01*
X852424Y304828D01*
Y302326D01*
X851448Y297419D01*
X849533Y292797D01*
X846753Y288636D01*
X843215Y285098D01*
X839055Y282319D01*
X834433Y280404D01*
X829526Y279428D01*
X825500D01*
X824106Y279359D01*
X821371Y278815D01*
X818795Y277748D01*
X816476Y276199D01*
X814505Y274228D01*
X812955Y271909D01*
X811889Y269333D01*
X811345Y266598D01*
X811276Y265204D01*
X811276Y246408D01*
X811276Y246408D01*
X811276Y244995D01*
X810725Y242225D01*
X809644Y239615D01*
X808074Y237265D01*
X806076Y235268D01*
X803727Y233698D01*
X801117Y232617D01*
X798346Y232066D01*
X796934Y232066D01*
X788596D01*
X788625Y231875D01*
X761375Y231875D01*
X761375D01*
X760329Y231875D01*
X758276Y232283D01*
X756342Y233084D01*
X754602Y234247D01*
X753122Y235727D01*
X751959Y237467D01*
X751158Y239401D01*
X750750Y241453D01*
Y242500D01*
Y252750D01*
X750750Y252750D01*
X750750Y253587D01*
X751077Y255229D01*
X751717Y256776D01*
X752647Y258168D01*
X753831Y259352D01*
X755224Y260283D01*
X756771Y260923D01*
X758413Y261250D01*
X759250Y261250D01*
X772500Y261250D01*
X773480Y261298D01*
X775403Y261681D01*
X777214Y262431D01*
X778844Y263520D01*
X780230Y264906D01*
X781319Y266536D01*
X781930Y268010D01*
Y437670D01*
X750570D01*
X749915Y437763D01*
X748668Y438201D01*
X747529Y438874D01*
X746544Y439757D01*
X745750Y440814D01*
X745178Y442006D01*
X744849Y443287D01*
X744776Y444607D01*
X744869Y445262D01*
Y532779D01*
X744869D01*
X744487Y533739D01*
X744517Y535805D01*
X745334Y537702D01*
X746816Y539142D01*
X747776Y539524D01*
X788924Y539524D01*
X789076D01*
X789356Y539408D01*
D02*
G37*
G36*
X712909Y503160D02*
X713120Y502949D01*
X713234Y502673D01*
Y502524D01*
Y486524D01*
Y486375D01*
Y486151D01*
X713063Y485738D01*
X712746Y485421D01*
X712333Y485250D01*
X696155D01*
X695503Y485520D01*
X695004Y486019D01*
X694734Y486671D01*
Y487024D01*
X694734Y502274D01*
X694734Y502274D01*
X694734Y502473D01*
X694886Y502840D01*
X695167Y503122D01*
X695535Y503274D01*
X695734Y503274D01*
X712484Y503274D01*
X712633D01*
X712909Y503160D01*
D02*
G37*
G36*
X796078Y745753D02*
X797373Y745217D01*
X798538Y744438D01*
X799528Y743448D01*
X800307Y742283D01*
X800843Y740988D01*
X801116Y739614D01*
Y738914D01*
Y687860D01*
Y687085D01*
X800813Y685563D01*
X800220Y684130D01*
X799358Y682841D01*
X798261Y681744D01*
X796972Y680882D01*
X795539Y680289D01*
X794017Y679986D01*
X402913D01*
X400558Y680454D01*
X398339Y681374D01*
X396342Y682708D01*
X394644Y684406D01*
X393310Y686403D01*
X392391Y688622D01*
X391922Y690977D01*
Y692178D01*
Y739930D01*
Y741143D01*
X392850Y743383D01*
X394565Y745098D01*
X396805Y746026D01*
X794705D01*
X796078Y745753D01*
D02*
G37*
G36*
X914713Y650990D02*
X918966Y649228D01*
X922793Y646670D01*
X926048Y643415D01*
X928605Y639588D01*
X930366Y635335D01*
X931264Y630820D01*
X931264Y628518D01*
X931265Y628520D01*
X931359Y626603D01*
X932107Y622842D01*
X933574Y619300D01*
X935704Y616112D01*
X938415Y613401D01*
X941602Y611271D01*
X945144Y609804D01*
X948905Y609056D01*
X950822Y608961D01*
X950823D01*
X1002091Y608961D01*
Y608961D01*
X1002030D01*
Y609092D01*
X1002091Y608961D01*
X1008503D01*
X1009173Y609027D01*
X1010411Y609540D01*
X1011357Y610487D01*
X1011870Y611724D01*
X1011936Y612394D01*
Y608584D01*
Y608267D01*
X1012000Y608254D01*
Y621000D01*
Y622822D01*
X1012711Y626396D01*
X1014106Y629763D01*
X1016130Y632793D01*
X1018707Y635370D01*
X1021737Y637394D01*
X1025104Y638789D01*
X1028678Y639500D01*
X1030500D01*
X1111500Y639500D01*
X1112620Y639438D01*
X1114794Y638881D01*
X1116817Y637909D01*
X1118612Y636562D01*
X1120109Y634891D01*
X1121252Y632959D01*
X1121995Y630842D01*
X1122311Y628620D01*
X1122250Y627500D01*
X1122250Y627500D01*
X1122250Y576542D01*
X1122426Y576117D01*
Y575056D01*
Y76454D01*
Y75503D01*
X1122055Y73639D01*
X1121328Y71882D01*
X1120271Y70301D01*
X1118927Y68957D01*
X1117346Y67901D01*
X1115589Y67173D01*
X1113725Y66802D01*
X989520D01*
X987901Y67124D01*
X986376Y67756D01*
X985003Y68673D01*
X983835Y69841D01*
X982918Y71214D01*
X982286Y72739D01*
X981964Y74358D01*
Y75184D01*
Y108458D01*
Y109158D01*
X982237Y110533D01*
X982773Y111827D01*
X983552Y112992D01*
X984542Y113982D01*
X985707Y114761D01*
X987001Y115297D01*
X988375Y115570D01*
X1028446D01*
X1030936Y115692D01*
X1035819Y116664D01*
X1040419Y118569D01*
X1044560Y121335D01*
X1048081Y124856D01*
X1050847Y128996D01*
X1052752Y133597D01*
X1053724Y138480D01*
X1053846Y140970D01*
Y502666D01*
X1053744Y503707D01*
X1052947Y505629D01*
X1051475Y507101D01*
X1049553Y507897D01*
X1048512Y508000D01*
X1029214D01*
X1028899Y507869D01*
X1011021D01*
X1009832Y507752D01*
X1007634Y506842D01*
X1005952Y505160D01*
X1005042Y502963D01*
X1004925Y501773D01*
X1004925Y493108D01*
X1004925Y492863D01*
X1004778Y492396D01*
X1004498Y491995D01*
X1004109Y491697D01*
X1003879Y491614D01*
X1003880Y491614D01*
X961555Y491614D01*
X961018Y491445D01*
X959894Y491400D01*
X958797Y491648D01*
X957802Y492174D01*
X957390Y492557D01*
Y492557D01*
Y538640D01*
X957318Y540105D01*
X956747Y542980D01*
X955625Y545687D01*
X953997Y548124D01*
X951925Y550196D01*
X949488Y551824D01*
X946780Y552945D01*
X943906Y553517D01*
X942440Y553588D01*
X942441Y553589D01*
X884551Y553590D01*
X883230Y553525D01*
X880637Y553009D01*
X878195Y551998D01*
X875996Y550529D01*
X874127Y548660D01*
X872659Y546462D01*
X871647Y544019D01*
X871132Y541427D01*
X871067Y540105D01*
Y540105D01*
X871067Y515490D01*
Y514814D01*
X870804Y513489D01*
X870287Y512241D01*
X869536Y511118D01*
X868581Y510163D01*
X867458Y509412D01*
X866209Y508895D01*
X864884Y508632D01*
X864209D01*
X855131Y508631D01*
X854014Y508749D01*
X851774Y508621D01*
X849613Y508015D01*
X847633Y506959D01*
X845925Y505503D01*
X844570Y503715D01*
X843629Y501678D01*
X843148Y499486D01*
X843087Y498364D01*
X843087Y498364D01*
X843159Y497724D01*
X843094Y497083D01*
X843000Y491750D01*
X837644Y491609D01*
X837644Y491609D01*
X837000Y491614D01*
X837000D01*
X837000D01*
X837000D01*
X803757Y491359D01*
X803095Y491247D01*
X801752Y491286D01*
X800442Y491586D01*
X799216Y492136D01*
X798121Y492914D01*
X797198Y493891D01*
X796484Y495029D01*
X796006Y496285D01*
X795894Y496948D01*
X795894Y496948D01*
X795894Y545196D01*
X795823Y546142D01*
X795405Y547991D01*
X794634Y549722D01*
X793540Y551269D01*
X792165Y552574D01*
X790563Y553585D01*
X788793Y554263D01*
X786925Y554584D01*
X785977Y554605D01*
X785977Y554605D01*
X719452Y554605D01*
X718802Y554574D01*
X717528Y554321D01*
X716327Y553824D01*
X715247Y553102D01*
X714328Y552183D01*
X713607Y551103D01*
X713110Y549903D01*
X712857Y548629D01*
X712825Y547979D01*
Y547979D01*
Y547979D01*
D01*
X712825Y515235D01*
Y514377D01*
X712168Y512790D01*
X710953Y511575D01*
X709366Y510918D01*
X708507D01*
X698347Y510918D01*
X697227Y510863D01*
X695029Y510426D01*
X692958Y509569D01*
X691095Y508324D01*
X689510Y506740D01*
X688266Y504876D01*
X687408Y502806D01*
X686972Y500608D01*
X686917Y499487D01*
Y493417D01*
X686917Y493058D01*
X686643Y492395D01*
X686135Y491888D01*
X685472Y491613D01*
X685113Y491614D01*
X685114Y491614D01*
X645515D01*
X644815Y491689D01*
X643470Y492109D01*
X642233Y492784D01*
X641152Y493687D01*
X640267Y494784D01*
X639613Y496032D01*
X639216Y497384D01*
X639090Y498787D01*
X639165Y499487D01*
Y499487D01*
X639165Y539619D01*
X638996Y541034D01*
X638247Y543779D01*
X636977Y546325D01*
X635235Y548574D01*
X633087Y550440D01*
X630616Y551852D01*
X627918Y552754D01*
X625095Y553111D01*
X623671Y553081D01*
X623671Y553082D01*
X558139D01*
X556571Y553004D01*
X556478Y552986D01*
X562102D01*
X561557Y552932D01*
X560550Y552515D01*
X559779Y551744D01*
X559362Y550737D01*
X559308Y550192D01*
Y530126D01*
Y529823D01*
X559076Y529263D01*
X558647Y528834D01*
X558087Y528602D01*
X544830D01*
X544285Y528548D01*
X543278Y528131D01*
X542507Y527360D01*
X542137Y526468D01*
Y518792D01*
Y518016D01*
X541834Y516495D01*
X541241Y515062D01*
X540379Y513772D01*
X539282Y512675D01*
X537993Y511814D01*
X536560Y511220D01*
X535039Y510918D01*
X534263D01*
X526897Y510918D01*
X525321Y510976D01*
X522200Y510557D01*
X519252Y509447D01*
X516631Y507702D01*
X514468Y505412D01*
X512877Y502695D01*
X511938Y499688D01*
X511700Y496548D01*
X511848Y494978D01*
X511848Y494978D01*
X511931Y494745D01*
X511904Y494251D01*
X511690Y493804D01*
X511322Y493474D01*
X511089Y493391D01*
X511089Y493391D01*
X468985Y493391D01*
X467803Y493450D01*
X465679Y494495D01*
X464143Y496296D01*
X463448Y498559D01*
X463577Y499735D01*
X463577Y499735D01*
X463926Y548720D01*
X463898Y549355D01*
X463646Y550597D01*
X463142Y551761D01*
X462410Y552796D01*
X461480Y553658D01*
X460392Y554309D01*
X459194Y554722D01*
X457935Y554879D01*
X457301Y554859D01*
Y554859D01*
X363575Y554860D01*
X361073D01*
X356166Y555836D01*
X351544Y557750D01*
X347383Y560530D01*
X343846Y564068D01*
X341066Y568228D01*
X339151Y572851D01*
X338175Y577758D01*
Y580260D01*
Y601601D01*
X338074Y601500D01*
Y601500D01*
X337823Y601751D01*
X337444Y602095D01*
X336594Y602663D01*
X335650Y603054D01*
X334648Y603253D01*
X334137Y603278D01*
X326038D01*
X324917Y603742D01*
X324060Y604599D01*
X323596Y605720D01*
Y606326D01*
Y622328D01*
Y622833D01*
X323983Y623767D01*
X324697Y624481D01*
X325631Y624868D01*
X335026D01*
X335621Y624926D01*
X336719Y625382D01*
X337560Y626223D01*
X338015Y627321D01*
X338074Y627916D01*
X338098Y627668D01*
X338175Y627483D01*
Y651888D01*
X907897Y651888D01*
X910199Y651888D01*
X914713Y650990D01*
D02*
G37*
G36*
X454015Y542317D02*
X455193Y541816D01*
X456248Y541090D01*
X456692Y540629D01*
X456692Y509887D01*
X455070Y508727D01*
X441273Y508727D01*
X441273Y508727D01*
X440132Y508555D01*
X437941Y507838D01*
X435961Y506657D01*
X434291Y505069D01*
X433011Y503151D01*
X432184Y500999D01*
X431852Y498718D01*
X432029Y496420D01*
X432308Y495300D01*
X432597Y494475D01*
X433371Y492909D01*
X434390Y491489D01*
X435625Y490254D01*
X437044Y489235D01*
X438610Y488461D01*
X440280Y487950D01*
X442012Y487718D01*
X442886Y487708D01*
X483616Y486918D01*
X483616Y486918D01*
X484483Y487048D01*
X486232Y486917D01*
X487908Y486402D01*
X489429Y485528D01*
X490073Y484934D01*
X490294Y481837D01*
X490876Y448012D01*
X490876Y448012D01*
X491195Y446822D01*
X491294Y444360D01*
X491071Y443148D01*
D01*
Y431965D01*
X491123Y431438D01*
X491526Y430462D01*
X492273Y429716D01*
X493248Y429312D01*
X493776Y429260D01*
X491898D01*
X492000Y429250D01*
X492000Y429250D01*
X511000Y429250D01*
X511696Y429250D01*
X512983Y428717D01*
X513967Y427732D01*
X514500Y426446D01*
X514500Y425750D01*
X514500Y425750D01*
X514500Y406748D01*
X514723Y405982D01*
X515591Y404653D01*
X516902Y403757D01*
X518455Y403430D01*
X519250Y403500D01*
X519250Y403500D01*
X533775D01*
X534451Y403413D01*
X535743Y402977D01*
X536925Y402299D01*
X537952Y401402D01*
X538784Y400323D01*
X539389Y399102D01*
X539745Y397786D01*
X539837Y396426D01*
X539750Y395750D01*
X539750Y395750D01*
Y357250D01*
Y356057D01*
X538837Y353851D01*
X537149Y352163D01*
X534944Y351250D01*
X439610D01*
X438354Y351500D01*
X437171Y351990D01*
X436106Y352701D01*
X435201Y353606D01*
X434490Y354671D01*
X434000Y355854D01*
X433750Y357110D01*
Y357750D01*
X433750Y393500D01*
X433769Y395122D01*
X433330Y398333D01*
X432273Y401396D01*
X430639Y404194D01*
X428491Y406620D01*
X425910Y408580D01*
X422997Y409999D01*
X419862Y410822D01*
X418250Y411000D01*
X418250Y411000D01*
X364000Y412000D01*
X362092Y412283D01*
X358459Y413583D01*
X355150Y415567D01*
X352291Y418158D01*
X349993Y421257D01*
X348343Y424745D01*
X347406Y428488D01*
X347217Y432342D01*
X347500Y434250D01*
Y434250D01*
Y449672D01*
X347472Y449813D01*
Y451528D01*
X347472Y531904D01*
X347472Y532955D01*
X347881Y535016D01*
X348685Y536958D01*
X349853Y538705D01*
X351339Y540191D01*
X353086Y541358D01*
X355028Y542163D01*
X357089Y542572D01*
X358140Y542572D01*
X452120Y542572D01*
X452120Y542572D01*
X452760Y542572D01*
X454015Y542317D01*
D02*
G37*
G36*
X560133Y469696D02*
X560695Y469133D01*
X561000Y468398D01*
Y468000D01*
Y453000D01*
Y452801D01*
X560848Y452434D01*
X560566Y452152D01*
X560199Y452000D01*
X546602D01*
X545867Y452304D01*
X545304Y452867D01*
X545000Y453602D01*
Y454000D01*
Y469000D01*
Y469199D01*
X545152Y469566D01*
X545434Y469848D01*
X545801Y470000D01*
X559398D01*
X560133Y469696D01*
D02*
G37*
G36*
X298482Y597477D02*
X300562Y596615D01*
X302434Y595364D01*
X304026Y593772D01*
X305277Y591900D01*
X306139Y589820D01*
X306578Y587612D01*
Y586486D01*
Y564134D01*
X306690Y562994D01*
X307563Y560888D01*
X309174Y559277D01*
X311280Y558404D01*
X312420Y558292D01*
X335937D01*
X337150Y557789D01*
X338079Y556860D01*
X338582Y555647D01*
Y554990D01*
Y459486D01*
Y458760D01*
X338299Y457337D01*
X337744Y455997D01*
X336937Y454790D01*
X335911Y453764D01*
X334705Y452958D01*
X333365Y452403D01*
X331941Y452120D01*
X220225D01*
X217891Y453087D01*
X216105Y454873D01*
X215138Y457207D01*
Y458470D01*
Y586486D01*
Y587612D01*
X215577Y589820D01*
X216439Y591900D01*
X217690Y593772D01*
X219282Y595364D01*
X221154Y596615D01*
X223234Y597477D01*
X225442Y597916D01*
X296274D01*
X298482Y597477D01*
D02*
G37*
G36*
X1007807Y470004D02*
X1008533Y469652D01*
X1009161Y469146D01*
X1009411Y468828D01*
X1009411Y468829D01*
X1009788Y434267D01*
X1009796Y433887D01*
X1009516Y433178D01*
X1008984Y432634D01*
X1008282Y432339D01*
X1007901Y432339D01*
X997219D01*
X996057Y432339D01*
X993910Y433228D01*
X992266Y434872D01*
X991377Y437019D01*
X991377Y438181D01*
Y438181D01*
X991123Y462819D01*
Y467137D01*
Y467743D01*
X991587Y468863D01*
X992444Y469721D01*
X993565Y470185D01*
X994171D01*
X1006617Y470185D01*
X1007020Y470185D01*
X1007807Y470004D01*
D02*
G37*
G36*
X870135Y501952D02*
X870346Y501741D01*
X870460Y501465D01*
Y501316D01*
Y485316D01*
Y485167D01*
X870346Y484891D01*
X870135Y484680D01*
X869859Y484566D01*
X852961D01*
X852502Y484756D01*
X852150Y485108D01*
X851960Y485567D01*
Y485816D01*
Y501066D01*
Y501265D01*
X852112Y501632D01*
X852393Y501914D01*
X852761Y502066D01*
X869859D01*
X870135Y501952D01*
D02*
G37*
G36*
X1031425Y501636D02*
X1031636Y501425D01*
X1031750Y501149D01*
Y501000D01*
Y485000D01*
Y484851D01*
X1031636Y484575D01*
X1031425Y484364D01*
X1031149Y484250D01*
X1014201D01*
X1014109Y484288D01*
X1014074Y484324D01*
X1013792Y484440D01*
X1013440Y484792D01*
X1013250Y485251D01*
Y485500D01*
Y500750D01*
Y500949D01*
X1013402Y501316D01*
X1013683Y501598D01*
X1014051Y501750D01*
X1031149D01*
X1031425Y501636D01*
D02*
G37*
G36*
X538972Y502808D02*
X539496Y502095D01*
Y501653D01*
Y495554D01*
X539545Y495058D01*
X539924Y494143D01*
X540625Y493442D01*
X541540Y493063D01*
X542036Y493014D01*
X562558D01*
X562932Y492859D01*
X563217Y492574D01*
X563372Y492200D01*
Y491998D01*
Y475488D01*
Y475387D01*
X563295Y475200D01*
X563152Y475057D01*
X562965Y474980D01*
X551028D01*
X550748Y475096D01*
X550534Y475310D01*
X550418Y475590D01*
Y475742D01*
Y476758D01*
X550389Y477055D01*
X550161Y477605D01*
X549741Y478025D01*
X549191Y478253D01*
X548894Y478282D01*
X542394D01*
X541647Y478591D01*
X541075Y479163D01*
X540766Y479910D01*
Y480314D01*
Y481076D01*
X540732Y481423D01*
X540466Y482064D01*
X539976Y482554D01*
X539335Y482820D01*
X538988Y482854D01*
X522504D01*
X521470Y483282D01*
X520678Y484074D01*
X520250Y485108D01*
Y485668D01*
Y486501D01*
Y486584D01*
Y486750D01*
Y502000D01*
Y502199D01*
X520402Y502566D01*
X520684Y502848D01*
X521051Y503000D01*
X537923D01*
X538127Y503071D01*
X538972Y502808D01*
D02*
G37*
%LPC*%
G36*
X906286Y532652D02*
Y532652D01*
D01*
Y532652D01*
D02*
G37*
G36*
X347472Y531904D02*
Y531904D01*
D01*
Y531904D01*
D02*
G37*
%LPD*%
D10*
X557530Y371630D02*
G03*
X557784Y371884I0J254D01*
G01*
D11*
X477012Y318858D02*
D03*
Y262858D02*
D03*
X404622Y318858D02*
D03*
Y262858D02*
D03*
X228092Y74898D02*
D03*
Y130898D02*
D03*
X297942D02*
D03*
Y74898D02*
D03*
D12*
X498508Y195316D02*
D03*
X478508Y95316D02*
D03*
X538508Y195316D02*
D03*
X478508D02*
D03*
X518508Y95316D02*
D03*
X498508D02*
D03*
D13*
X555294Y504472D02*
D03*
X574294D02*
D03*
Y482472D02*
D03*
D14*
X557294D02*
D03*
D15*
X450342Y537630D02*
D03*
Y524630D02*
D03*
Y511630D02*
D03*
Y498630D02*
D03*
X505460Y482374D02*
D03*
Y469374D02*
D03*
Y456374D02*
D03*
Y443374D02*
D03*
X998982Y440834D02*
D03*
Y453834D02*
D03*
Y466834D02*
D03*
Y479834D02*
D03*
X943796Y496148D02*
D03*
Y509148D02*
D03*
Y522148D02*
D03*
Y535148D02*
D03*
X836930Y441734D02*
D03*
Y454734D02*
D03*
Y467734D02*
D03*
Y480734D02*
D03*
X782066Y496298D02*
D03*
Y509298D02*
D03*
Y522298D02*
D03*
Y535298D02*
D03*
X679958Y441988D02*
D03*
Y454988D02*
D03*
Y467988D02*
D03*
Y480988D02*
D03*
X625286Y496628D02*
D03*
Y509628D02*
D03*
Y522628D02*
D03*
Y535628D02*
D03*
D16*
X505342Y537630D02*
D03*
Y524630D02*
D03*
Y511630D02*
D03*
Y498630D02*
D03*
X450460Y482374D02*
D03*
Y469374D02*
D03*
Y456374D02*
D03*
Y443374D02*
D03*
X943982Y440834D02*
D03*
Y453834D02*
D03*
Y466834D02*
D03*
Y479834D02*
D03*
X998796Y496148D02*
D03*
Y509148D02*
D03*
Y522148D02*
D03*
Y535148D02*
D03*
X781930Y441734D02*
D03*
Y454734D02*
D03*
Y467734D02*
D03*
Y480734D02*
D03*
X837066Y496298D02*
D03*
Y509298D02*
D03*
Y522298D02*
D03*
Y535298D02*
D03*
X624958Y441988D02*
D03*
Y454988D02*
D03*
Y467988D02*
D03*
Y480988D02*
D03*
X680286Y496628D02*
D03*
Y509628D02*
D03*
Y522628D02*
D03*
Y535628D02*
D03*
D17*
X566768Y440672D02*
D03*
Y447172D02*
D03*
Y453672D02*
D03*
X547768Y440672D02*
D03*
Y447172D02*
D03*
Y453672D02*
D03*
D18*
X556768D02*
D03*
D19*
X773684Y623344D02*
D03*
Y713344D02*
D03*
X653542Y713048D02*
D03*
Y623048D02*
D03*
X536702D02*
D03*
Y713048D02*
D03*
X418592D02*
D03*
Y623048D02*
D03*
D20*
X533908Y267774D02*
D03*
Y239774D02*
D03*
D21*
X158242Y490248D02*
D03*
X259842D02*
D03*
D22*
X209042Y712648D02*
D03*
D23*
X95862Y303558D02*
D03*
D24*
X318262Y354358D02*
D03*
Y252758D02*
D03*
D25*
X1022350Y444438D02*
D03*
Y468438D02*
D03*
X860298Y444782D02*
D03*
Y468782D02*
D03*
X704088Y445482D02*
D03*
Y469482D02*
D03*
X528320Y445990D02*
D03*
Y469990D02*
D03*
X529336Y519266D02*
D03*
Y495266D02*
D03*
X1022604Y493234D02*
D03*
Y517234D02*
D03*
X861314Y517550D02*
D03*
Y493550D02*
D03*
X704088Y494758D02*
D03*
Y518758D02*
D03*
X891032Y536668D02*
D03*
Y560668D02*
D03*
X758444Y444082D02*
D03*
Y420082D02*
D03*
X728726Y537684D02*
D03*
Y561684D02*
D03*
X601980Y447610D02*
D03*
Y423610D02*
D03*
X572262Y538000D02*
D03*
Y562000D02*
D03*
D26*
X912492Y449100D02*
D03*
X888492D02*
D03*
X422340Y227358D02*
D03*
X446340D02*
D03*
X505652Y421414D02*
D03*
X529652D02*
D03*
D27*
X557784Y371884D02*
Y417604D01*
D28*
X848346Y480734D02*
X860298Y468782D01*
X836930Y480734D02*
X848346D01*
X1010474Y479834D02*
X1021842Y468466D01*
X998982Y479834D02*
X1010474D01*
X697000Y476500D02*
X704088Y469482D01*
X689250Y480750D02*
X697000Y476500D01*
X679958Y480988D02*
X689250Y480750D01*
X521750Y476500D02*
X528320Y469990D01*
X513500Y481250D02*
X521750Y476500D01*
X505460Y482374D02*
X513500Y481250D01*
D29*
X533908Y238186D02*
Y239774D01*
X498508Y225232D02*
X511462Y238186D01*
X498508Y195316D02*
Y225232D01*
X528487Y493411D02*
X528487D01*
X528487D02*
X529076Y494000D01*
X529250D01*
X511462Y238186D02*
X533908D01*
X528487Y493411D02*
X556278Y480694D01*
D30*
X483342Y518130D02*
D03*
X472460Y462874D02*
D03*
X965982Y460334D02*
D03*
X976796Y515648D02*
D03*
X803930Y461234D02*
D03*
X815066Y515798D02*
D03*
X646958Y461488D02*
D03*
X658286Y516128D02*
D03*
D31*
X557530Y371630D02*
D03*
X211450Y891400D02*
D03*
X186050D02*
D03*
X117602Y767870D02*
D03*
X931672Y340388D02*
D03*
X795782Y342928D02*
D03*
X637250Y356250D02*
D03*
X514604Y43208D02*
D03*
X832612Y560352D02*
D03*
X526796Y566194D02*
D03*
X287650Y891400D02*
D03*
X363952Y891398D02*
D03*
X262250Y891400D02*
D03*
X313152Y891398D02*
D03*
X338552D02*
D03*
X389352D02*
D03*
X490952D02*
D03*
X643352D02*
D03*
X516352D02*
D03*
X541752D02*
D03*
X567152D02*
D03*
X592552D02*
D03*
X668752D02*
D03*
X617952D02*
D03*
X994918Y626364D02*
D03*
X898652Y763806D02*
D03*
X694152Y891398D02*
D03*
X236850Y891400D02*
D03*
X770352Y891398D02*
D03*
X719552D02*
D03*
X795752D02*
D03*
X440152D02*
D03*
X821152D02*
D03*
X846552D02*
D03*
X897352D02*
D03*
X871952D02*
D03*
X898906Y726722D02*
D03*
X163830Y768886D02*
D03*
X160650Y891400D02*
D03*
X414752Y891398D02*
D03*
D32*
X429000Y61000D02*
D03*
X976376Y558828D02*
D03*
X662686Y561368D02*
D03*
X452374Y401066D02*
D03*
X46482Y491518D02*
D03*
X744952Y891398D02*
D03*
D33*
X688594Y165382D02*
D03*
X713994D02*
D03*
X739394D02*
D03*
X764794D02*
D03*
X688594Y292382D02*
D03*
X713994D02*
D03*
X739394D02*
D03*
X764794D02*
D03*
X1003808Y291874D02*
D03*
X978408D02*
D03*
X953008D02*
D03*
X927608D02*
D03*
X1003808Y164874D02*
D03*
X978408D02*
D03*
X953008D02*
D03*
X927608D02*
D03*
D34*
X586894Y200307D02*
D03*
Y257457D02*
D03*
Y219357D02*
D03*
Y238407D02*
D03*
X825908Y237899D02*
D03*
Y218849D02*
D03*
Y256949D02*
D03*
Y199799D02*
D03*
D35*
X427990Y113538D02*
D03*
Y164338D02*
D03*
Y138938D02*
D03*
D36*
X593636Y69578D02*
D03*
X668636Y119578D02*
D03*
X693636Y69578D02*
D03*
X618636Y119578D02*
D03*
X643636Y69578D02*
D03*
X1041362Y714638D02*
D03*
X991362Y689638D02*
D03*
X1041362Y764638D02*
D03*
X991362Y739638D02*
D03*
X1041362Y664638D02*
D03*
X1001122Y91722D02*
D03*
X951122D02*
D03*
X104032Y101628D02*
D03*
X154032D02*
D03*
D37*
X527304Y312194D02*
D03*
D38*
X540004D02*
D03*
X552704D02*
D03*
D39*
X769912Y92484D02*
D03*
X819912D02*
D03*
X869912D02*
D03*
D40*
X1120000Y30000D02*
D03*
Y920000D02*
D03*
X30000D02*
D03*
Y30000D02*
D03*
D41*
X910082Y858498D02*
D03*
X922782Y839498D02*
D03*
X910082Y820498D02*
D03*
X922782Y801498D02*
D03*
X884682Y858498D02*
D03*
X897382Y839498D02*
D03*
X884682Y820498D02*
D03*
X897382Y801498D02*
D03*
X859282Y858498D02*
D03*
X871982Y839498D02*
D03*
X859282Y820498D02*
D03*
X871982Y801498D02*
D03*
X833882Y858498D02*
D03*
X846582Y839498D02*
D03*
X833882Y820498D02*
D03*
X846582Y801498D02*
D03*
X808482Y858498D02*
D03*
X821182Y839498D02*
D03*
X808482Y820498D02*
D03*
X821182Y801498D02*
D03*
X783082Y858498D02*
D03*
X795782Y839498D02*
D03*
X783082Y820498D02*
D03*
X795782Y801498D02*
D03*
X757682Y858498D02*
D03*
X770382Y839498D02*
D03*
X757682Y820498D02*
D03*
X770382Y801498D02*
D03*
X732282Y858498D02*
D03*
X744982Y839498D02*
D03*
X732282Y820498D02*
D03*
X744982Y801498D02*
D03*
X706882Y858498D02*
D03*
X719582Y839498D02*
D03*
X706882Y820498D02*
D03*
X719582Y801498D02*
D03*
X681482Y858498D02*
D03*
X694182Y839498D02*
D03*
X681482Y820498D02*
D03*
X694182Y801498D02*
D03*
X656082Y858498D02*
D03*
X668782Y839498D02*
D03*
X656082Y820498D02*
D03*
X668782Y801498D02*
D03*
X630682Y858498D02*
D03*
X643382Y839498D02*
D03*
X630682Y820498D02*
D03*
X643382Y801498D02*
D03*
X605282Y858498D02*
D03*
X617982Y839498D02*
D03*
X605282Y820498D02*
D03*
X617982Y801498D02*
D03*
X579882Y858498D02*
D03*
X592582Y839498D02*
D03*
X579882Y820498D02*
D03*
X592582Y801498D02*
D03*
X503682Y858498D02*
D03*
X516382Y839498D02*
D03*
X503682Y820498D02*
D03*
X516382Y801498D02*
D03*
X478282Y858498D02*
D03*
X490982Y839498D02*
D03*
X478282Y820498D02*
D03*
X490982Y801498D02*
D03*
X452882Y858498D02*
D03*
X465582Y839498D02*
D03*
X452882Y820498D02*
D03*
X465582Y801498D02*
D03*
X427482Y858498D02*
D03*
X440182Y839498D02*
D03*
X427482Y820498D02*
D03*
X440182Y801498D02*
D03*
X402082Y858498D02*
D03*
X414782Y839498D02*
D03*
X402082Y820498D02*
D03*
X414782Y801498D02*
D03*
X376682Y858498D02*
D03*
X389382Y839498D02*
D03*
X376682Y820498D02*
D03*
X389382Y801498D02*
D03*
X351282Y858498D02*
D03*
X363982Y839498D02*
D03*
X351282Y820498D02*
D03*
X363982Y801498D02*
D03*
X325882Y858498D02*
D03*
X338582Y839498D02*
D03*
X325882Y820498D02*
D03*
X338582Y801498D02*
D03*
X249682Y858498D02*
D03*
X262382Y839498D02*
D03*
X249682Y820498D02*
D03*
X262382Y801498D02*
D03*
X224282Y858498D02*
D03*
X236982Y839498D02*
D03*
X224282Y820498D02*
D03*
X236982Y801498D02*
D03*
X198882Y858498D02*
D03*
X211582Y839498D02*
D03*
Y801498D02*
D03*
D42*
X198882Y820498D02*
D03*
D43*
X167182Y829998D02*
D03*
X954482D02*
D03*
D44*
X553000Y461000D02*
D03*
X73152Y636016D02*
D03*
X402082Y226658D02*
D03*
X333310Y614454D02*
D03*
X404622Y262858D02*
D03*
X1022604Y493234D02*
D03*
X861314Y493550D02*
D03*
X836930Y450878D02*
D03*
X537464Y717578D02*
D03*
X655066Y718594D02*
D03*
X780288Y716308D02*
D03*
X228092Y74898D02*
D03*
X297942D02*
D03*
X427990Y702564D02*
D03*
X704000Y494250D02*
D03*
X529250Y494000D02*
D03*
X1000250Y453250D02*
D03*
X681000Y455000D02*
D03*
X506750Y455500D02*
D03*
X551180Y540258D02*
D03*
X510286Y194564D02*
D03*
D45*
X518160Y105918D02*
D03*
X566674Y453898D02*
D03*
X528066Y448084D02*
D03*
X552196Y440718D02*
D03*
X496570Y84864D02*
D03*
X782828Y528602D02*
D03*
X941832Y529618D02*
D03*
X940308Y496344D02*
D03*
X779018Y496852D02*
D03*
X622300Y497614D02*
D03*
X444754Y497868D02*
D03*
X859282Y450116D02*
D03*
X704088D02*
D03*
X574294Y482472D02*
D03*
X728726Y537684D02*
D03*
X889000Y536730D02*
D03*
X622584Y532920D02*
D03*
X572262Y538000D02*
D03*
X574294Y504472D02*
D03*
X602488Y424716D02*
D03*
X759714Y420906D02*
D03*
X888492Y449100D02*
D03*
X554990Y504218D02*
D03*
X451804Y422938D02*
D03*
D46*
X467912Y480042D02*
D03*
Y475042D02*
D03*
Y470042D02*
D03*
Y465042D02*
D03*
Y460042D02*
D03*
Y455042D02*
D03*
Y450042D02*
D03*
X473362Y447308D02*
D03*
Y452308D02*
D03*
Y457308D02*
D03*
Y462308D02*
D03*
Y467308D02*
D03*
Y472308D02*
D03*
Y477308D02*
D03*
X478812Y450102D02*
D03*
Y455102D02*
D03*
Y460102D02*
D03*
Y465102D02*
D03*
Y470102D02*
D03*
Y475102D02*
D03*
Y480102D02*
D03*
X484262Y447562D02*
D03*
Y452562D02*
D03*
Y457562D02*
D03*
Y462562D02*
D03*
Y467562D02*
D03*
Y472562D02*
D03*
Y477562D02*
D03*
X489712Y450102D02*
D03*
Y455102D02*
D03*
Y460102D02*
D03*
Y470102D02*
D03*
Y475102D02*
D03*
Y480102D02*
D03*
Y465102D02*
D03*
X489552Y519458D02*
D03*
Y534458D02*
D03*
Y529458D02*
D03*
Y524458D02*
D03*
Y514458D02*
D03*
Y509458D02*
D03*
Y504458D02*
D03*
X484102Y531918D02*
D03*
Y526918D02*
D03*
Y521918D02*
D03*
Y516918D02*
D03*
Y511918D02*
D03*
Y506918D02*
D03*
Y501918D02*
D03*
X478652Y534458D02*
D03*
Y529458D02*
D03*
Y524458D02*
D03*
Y519458D02*
D03*
Y514458D02*
D03*
Y509458D02*
D03*
Y504458D02*
D03*
X473202Y531664D02*
D03*
Y526664D02*
D03*
Y521664D02*
D03*
Y516664D02*
D03*
Y511664D02*
D03*
Y506664D02*
D03*
Y501664D02*
D03*
X467752Y504398D02*
D03*
Y509398D02*
D03*
Y514398D02*
D03*
Y519398D02*
D03*
Y524398D02*
D03*
Y529398D02*
D03*
Y534398D02*
D03*
X468398Y400512D02*
D03*
Y395512D02*
D03*
Y390512D02*
D03*
Y385512D02*
D03*
Y380512D02*
D03*
Y375512D02*
D03*
Y370512D02*
D03*
X473848Y367778D02*
D03*
Y372778D02*
D03*
Y377778D02*
D03*
Y382778D02*
D03*
Y387778D02*
D03*
Y392778D02*
D03*
Y397778D02*
D03*
X479298Y370572D02*
D03*
Y375572D02*
D03*
Y380572D02*
D03*
Y385572D02*
D03*
Y390572D02*
D03*
Y395572D02*
D03*
Y400572D02*
D03*
X484748Y368032D02*
D03*
Y373032D02*
D03*
Y378032D02*
D03*
Y383032D02*
D03*
Y388032D02*
D03*
Y393032D02*
D03*
Y398032D02*
D03*
X490198Y370572D02*
D03*
Y375572D02*
D03*
Y380572D02*
D03*
Y390572D02*
D03*
Y395572D02*
D03*
Y400572D02*
D03*
Y385572D02*
D03*
X511998Y385632D02*
D03*
Y400632D02*
D03*
Y395632D02*
D03*
Y390632D02*
D03*
Y380632D02*
D03*
Y375632D02*
D03*
Y370632D02*
D03*
X506548Y398092D02*
D03*
Y393092D02*
D03*
Y388092D02*
D03*
Y383092D02*
D03*
Y378092D02*
D03*
Y373092D02*
D03*
Y368092D02*
D03*
X501098Y400632D02*
D03*
Y395632D02*
D03*
Y390632D02*
D03*
Y385632D02*
D03*
Y380632D02*
D03*
Y375632D02*
D03*
Y370632D02*
D03*
X495648Y397838D02*
D03*
Y392838D02*
D03*
Y387838D02*
D03*
Y382838D02*
D03*
Y377838D02*
D03*
Y372838D02*
D03*
Y367838D02*
D03*
X533798Y385692D02*
D03*
Y400692D02*
D03*
Y395692D02*
D03*
Y390692D02*
D03*
Y380692D02*
D03*
Y375692D02*
D03*
Y370692D02*
D03*
X528348Y398152D02*
D03*
Y393152D02*
D03*
Y388152D02*
D03*
Y383152D02*
D03*
Y378152D02*
D03*
Y373152D02*
D03*
Y368152D02*
D03*
X522898Y400692D02*
D03*
Y395692D02*
D03*
Y390692D02*
D03*
Y385692D02*
D03*
Y380692D02*
D03*
Y375692D02*
D03*
Y370692D02*
D03*
X517448Y397898D02*
D03*
Y392898D02*
D03*
Y387898D02*
D03*
Y382898D02*
D03*
Y377898D02*
D03*
Y372898D02*
D03*
Y367898D02*
D03*
D47*
X792734Y244884D02*
D03*
X792000Y215000D02*
D03*
D48*
X1021334Y450116D02*
D03*
D49*
X312928Y527050D02*
D03*
X378714Y474726D02*
D03*
M02*
