M48
;Layer_Color=9474304
;FILE_FORMAT=4:4
METRIC,LZ
;TYPE=PLATED
T2F00S00C0.3000
%
T02
X00151892Y00172178
X00449874Y00096
X00588456Y00154206
X00742134Y00213644
Y00245644
X00879918Y00285524
X01037336Y0042497
X01084518Y00626646
X00868934Y00621792
X00871474Y00696304
X00845312Y00695796
X00820166Y00671796
X00777592Y00640898
X00738592
X00742442Y00631472
X00738378Y00618964
X00743712Y00667732
X00737616Y0074755
X0073025Y0078994
X00728218Y00811022
X00774954Y00789714
X0084Y0076
X00690626Y00752884
X00686054Y0074755
X0068453Y00774474
X00647192Y00758726
X0064897Y00747884
X00664464Y00704178
X00667066Y00655602
X0071812Y0057356
X00777592Y00580898
X00806196Y00488978
Y00463578
X00849314Y00422938
X00873314
X00885506Y00518188
X00967946Y00488978
Y00463578
X01013206Y0042497
X0071558Y0042497
X0069158
X00649176Y00463578
Y00488978
X00615442Y00565178
X00574788Y00663346
X00574802Y0070104
X00569976Y00704878
X00589788Y00702564
X00613664Y00704432
X00626934Y00729008
X00633668Y00778792
X00550542Y00780012
X0050419Y00781648
X00497586Y00732564
X00476606Y00723166
X00446024Y00746342
X00433578Y00702818
X00428498Y00661416
X00438658Y00658368
X00413512Y0066294
X00369Y0067262
X00370016Y00647982
X00394716Y00599468
X00332802Y00589562
X0030931Y00614454
X00318324Y007285
X00294324
X00343854Y00728754
X00319532Y00753838
X00395478Y00773966
X00467614Y00638584
X00492506Y00638646
X00517906Y00614646
X00530606Y00659666
X00289814Y00485738
X00215138Y00485484
X001905Y00485738
X00592582Y00853186
X00633504Y0083439
X0058Y0092036
M30
