M48
;Layer_Color=9474304
;FILE_FORMAT=4:4
METRIC,LZ
;TYPE=PLATED
T2F00S00C0.3000
%
T02
X00151892Y00196878
X00190754Y0038687
X00339852Y0041608
X00380808Y00389918
X00524826Y00343182
X00521208Y00138202
X00612456Y00154206
X00638556Y0017097
X0071628Y0023066
X0074168Y00229644
X00767334Y00201644
Y0025787
X00856832Y00255298
X00855918Y00285524
X00827278Y00302542
X0085217Y00163604
X01083502Y0060023
X0109728Y00683604
X00927416Y0065992
X00903032Y00647728
X00879032
X00844612Y00646966
X00843342Y00622328
X00844612Y00596928
X00797092Y00640898
X0079502Y00691732
X00768858Y00691224
X00747268Y00688086
X00742634Y00720626
X00762762Y00723166
X00761808Y00747042
X0076581Y00759996
X0073914Y0077216
X00704342Y00774474
X00716534Y00791718
X00682498Y00800862
X00686054Y00758218
X00690626Y0073787
X00691642Y00699098
X00717042Y00698528
X00698754Y00646712
X00680466Y00644172
X00699516Y00620804
X00693612Y00598198
X0069412Y0057356
X00745092Y00580898
X00644906Y00604294
X00645922Y0063071
X0064389Y00657634
X00636778Y00679732
X00639826Y007031
X00650494Y00723138
X00819974Y00721642
X00820166Y00695796
X00845758Y00722658
X0081407Y00745772
X00897382Y00696558
X00950784Y0075898
X00958912Y006015
X00630682Y00644934
X00615188Y00653824
X00594788Y00663346
X0058928Y00613692
X00542544Y00614646
X004953Y0058683
X00471932Y00559844
X00452628
X00448056Y00580926
X00421832Y0058245
X00425704Y0055578
X0044831Y00525808
X00373318Y0052276
X0037338Y00573368
Y00596674
X00370016Y00623344
X00368492Y00697258
X00367854Y00728754
X00368808Y00753838
X00397448Y00748058
X00397256Y0070104
X00413484Y00700408
X00423484
X00423164Y0065786
X0044323Y00607026
X00467868Y00612106
X00476606Y00735866
X00470978Y00774474
X0050419Y00757648
X00526542Y00761012
X00550542
X00549148Y00770636
X00574802Y0075066
X00602934Y00753646
X00530606Y00735866
X00420178Y00774474
X00296672Y00777522
X00294894Y00753838
X00270256Y00753838
X00260542Y006142
X0028391Y00564134
X00290322Y00462054
X00311852Y00440718
X00367852
X00216408Y00436908
X0021463Y00461038
X0022098Y00753838
X00221234Y00776506
M30
