G04 Layer_Color=8421504*
%FSLAX44Y44*%
%MOMM*%
G71*
G01*
G75*
%ADD11R,5.7000X1.9000*%
%ADD12R,1.0000X5.0000*%
%ADD13R,1.0000X1.5000*%
%ADD14R,1.2500X1.5000*%
%ADD15R,1.5000X0.8000*%
%ADD16R,1.2000X0.8000*%
%ADD17R,0.4000X0.3500*%
%ADD18R,0.9000X0.3500*%
%ADD19R,4.0000X5.5000*%
%ADD20R,2.7000X1.6000*%
%ADD21R,5.5000X5.8000*%
%ADD22R,6.3500X5.4000*%
%ADD23R,5.4000X6.3500*%
%ADD24R,5.8000X5.5000*%
%ADD25R,1.4000X1.5000*%
%ADD26R,1.5000X1.4000*%
D11*
X477012Y318858D02*
D03*
Y262858D02*
D03*
X404622Y318858D02*
D03*
Y262858D02*
D03*
X228092Y74898D02*
D03*
Y130898D02*
D03*
X297942D02*
D03*
Y74898D02*
D03*
D12*
X498508Y195316D02*
D03*
X478508Y95316D02*
D03*
X538508Y195316D02*
D03*
X478508D02*
D03*
X518508Y95316D02*
D03*
X498508D02*
D03*
D13*
X555294Y504472D02*
D03*
X574294D02*
D03*
Y482472D02*
D03*
D14*
X557294D02*
D03*
D15*
X450342Y537630D02*
D03*
Y524630D02*
D03*
Y511630D02*
D03*
Y498630D02*
D03*
X505460Y482374D02*
D03*
Y469374D02*
D03*
Y456374D02*
D03*
Y443374D02*
D03*
X998982Y440834D02*
D03*
Y453834D02*
D03*
Y466834D02*
D03*
Y479834D02*
D03*
X943796Y496148D02*
D03*
Y509148D02*
D03*
Y522148D02*
D03*
Y535148D02*
D03*
X836930Y441734D02*
D03*
Y454734D02*
D03*
Y467734D02*
D03*
Y480734D02*
D03*
X782066Y496298D02*
D03*
Y509298D02*
D03*
Y522298D02*
D03*
Y535298D02*
D03*
X679958Y441988D02*
D03*
Y454988D02*
D03*
Y467988D02*
D03*
Y480988D02*
D03*
X625286Y496628D02*
D03*
Y509628D02*
D03*
Y522628D02*
D03*
Y535628D02*
D03*
D16*
X505342Y537630D02*
D03*
Y524630D02*
D03*
Y511630D02*
D03*
Y498630D02*
D03*
X450460Y482374D02*
D03*
Y469374D02*
D03*
Y456374D02*
D03*
Y443374D02*
D03*
X943982Y440834D02*
D03*
Y453834D02*
D03*
Y466834D02*
D03*
Y479834D02*
D03*
X998796Y496148D02*
D03*
Y509148D02*
D03*
Y522148D02*
D03*
Y535148D02*
D03*
X781930Y441734D02*
D03*
Y454734D02*
D03*
Y467734D02*
D03*
Y480734D02*
D03*
X837066Y496298D02*
D03*
Y509298D02*
D03*
Y522298D02*
D03*
Y535298D02*
D03*
X624958Y441988D02*
D03*
Y454988D02*
D03*
Y467988D02*
D03*
Y480988D02*
D03*
X680286Y496628D02*
D03*
Y509628D02*
D03*
Y522628D02*
D03*
Y535628D02*
D03*
D17*
X566768Y440672D02*
D03*
Y447172D02*
D03*
Y453672D02*
D03*
X547768Y440672D02*
D03*
Y447172D02*
D03*
Y453672D02*
D03*
D18*
X556768D02*
D03*
D19*
X773684Y623344D02*
D03*
Y713344D02*
D03*
X653542Y713048D02*
D03*
Y623048D02*
D03*
X536702D02*
D03*
Y713048D02*
D03*
X418592D02*
D03*
Y623048D02*
D03*
D20*
X533908Y267774D02*
D03*
Y239774D02*
D03*
D21*
X158242Y490248D02*
D03*
X259842D02*
D03*
D22*
X209042Y712648D02*
D03*
D23*
X95862Y303558D02*
D03*
D24*
X318262Y354358D02*
D03*
Y252758D02*
D03*
D25*
X1022350Y444438D02*
D03*
Y468438D02*
D03*
X860298Y444782D02*
D03*
Y468782D02*
D03*
X704088Y445482D02*
D03*
Y469482D02*
D03*
X528320Y445990D02*
D03*
Y469990D02*
D03*
X529336Y519266D02*
D03*
Y495266D02*
D03*
X1022604Y493234D02*
D03*
Y517234D02*
D03*
X861314Y517550D02*
D03*
Y493550D02*
D03*
X704088Y494758D02*
D03*
Y518758D02*
D03*
X891032Y536668D02*
D03*
Y560668D02*
D03*
X758444Y444082D02*
D03*
Y420082D02*
D03*
X728726Y537684D02*
D03*
Y561684D02*
D03*
X601980Y447610D02*
D03*
Y423610D02*
D03*
X572262Y538000D02*
D03*
Y562000D02*
D03*
D26*
X912492Y449100D02*
D03*
X888492D02*
D03*
X422340Y227358D02*
D03*
X446340D02*
D03*
X505652Y421414D02*
D03*
X529652D02*
D03*
M02*
