G04 Layer_Physical_Order=3*
G04 Layer_Color=16737945*
%FSLAX44Y44*%
%MOMM*%
G71*
G01*
G75*
%ADD35C,1.5000*%
%ADD36C,2.0000*%
%ADD44C,1.8000*%
%ADD45C,0.5000*%
%ADD46C,0.4000*%
%ADD49C,4.5000*%
G36*
X1107808Y947500D02*
X1103252Y945065D01*
X1098684Y941316D01*
X1094935Y936748D01*
X1092150Y931536D01*
X1090434Y925881D01*
X1089855Y920000D01*
X1090434Y914119D01*
X1092150Y908464D01*
X1094935Y903252D01*
X1098684Y898684D01*
X1103252Y894935D01*
X1108464Y892150D01*
X1114119Y890434D01*
X1120000Y889855D01*
X1125881Y890434D01*
X1131536Y892150D01*
X1136748Y894935D01*
X1141316Y898684D01*
X1145065Y903252D01*
X1147500Y907808D01*
X1150000Y907182D01*
Y42818D01*
X1147500Y42192D01*
X1145065Y46748D01*
X1141316Y51316D01*
X1136748Y55065D01*
X1131536Y57850D01*
X1125881Y59566D01*
X1120000Y60145D01*
X1114119Y59566D01*
X1108464Y57850D01*
X1103252Y55065D01*
X1098684Y51316D01*
X1094935Y46748D01*
X1092150Y41536D01*
X1090434Y35881D01*
X1089855Y30000D01*
X1090434Y24119D01*
X1092150Y18464D01*
X1094935Y13252D01*
X1098684Y8684D01*
X1103252Y4935D01*
X1107808Y2500D01*
X1107182Y0D01*
X42818D01*
X42192Y2500D01*
X46748Y4935D01*
X51316Y8684D01*
X55065Y13252D01*
X57850Y18464D01*
X59566Y24119D01*
X60145Y30000D01*
X59566Y35881D01*
X57850Y41536D01*
X55065Y46748D01*
X51316Y51316D01*
X46748Y55065D01*
X41536Y57850D01*
X35881Y59566D01*
X30000Y60145D01*
X24119Y59566D01*
X18464Y57850D01*
X13252Y55065D01*
X8684Y51316D01*
X4935Y46748D01*
X2500Y42192D01*
X0Y42818D01*
Y907182D01*
X2500Y907808D01*
X4935Y903252D01*
X8684Y898684D01*
X13252Y894935D01*
X18464Y892150D01*
X24119Y890434D01*
X30000Y889855D01*
X35881Y890434D01*
X41536Y892150D01*
X46748Y894935D01*
X51316Y898684D01*
X55065Y903252D01*
X57850Y908464D01*
X59566Y914119D01*
X60145Y920000D01*
X59566Y925881D01*
X57850Y931536D01*
X55065Y936748D01*
X51316Y941316D01*
X46748Y945065D01*
X42192Y947500D01*
X42818Y950000D01*
X1107182D01*
X1107808Y947500D01*
D02*
G37*
%LPC*%
G36*
X552704Y325900D02*
X548607Y325085D01*
X546354Y323579D01*
X544101Y325085D01*
X540004Y325900D01*
X535907Y325085D01*
X535570Y324859D01*
X534755Y325404D01*
X532804Y325792D01*
X521804D01*
X519853Y325404D01*
X518199Y324299D01*
X517094Y322645D01*
X516706Y320694D01*
Y303694D01*
X517094Y301743D01*
X518199Y300089D01*
X519853Y298984D01*
X521804Y298596D01*
X532804D01*
X534755Y298984D01*
X535570Y299529D01*
X535907Y299303D01*
X540004Y298488D01*
X544101Y299303D01*
X546354Y300809D01*
X548607Y299303D01*
X552704Y298488D01*
X556801Y299303D01*
X560274Y301624D01*
X562595Y305097D01*
X563410Y309194D01*
Y315194D01*
X562595Y319291D01*
X560274Y322764D01*
X556801Y325085D01*
X552704Y325900D01*
D02*
G37*
G36*
X764794Y310207D02*
X761009Y309709D01*
X757481Y308248D01*
X754453Y305924D01*
X753670Y304903D01*
X750518D01*
X749735Y305924D01*
X746707Y308248D01*
X743179Y309709D01*
X739394Y310207D01*
X735609Y309709D01*
X732081Y308248D01*
X729053Y305924D01*
X728270Y304903D01*
X725118D01*
X724335Y305924D01*
X721307Y308248D01*
X717779Y309709D01*
X713994Y310207D01*
X710209Y309709D01*
X706681Y308248D01*
X703652Y305924D01*
X702870Y304903D01*
X699718D01*
X698935Y305924D01*
X695907Y308248D01*
X692379Y309709D01*
X688594Y310207D01*
X684809Y309709D01*
X681281Y308248D01*
X678252Y305924D01*
X675928Y302894D01*
X674467Y299367D01*
X673969Y295582D01*
Y289182D01*
X674467Y285397D01*
X675928Y281869D01*
X678252Y278841D01*
X681281Y276516D01*
X684809Y275055D01*
X688594Y274557D01*
X692379Y275055D01*
X695907Y276516D01*
X698935Y278841D01*
X699718Y279861D01*
X702870D01*
X703652Y278841D01*
X706681Y276516D01*
X710209Y275055D01*
X713994Y274557D01*
X717779Y275055D01*
X721307Y276516D01*
X724335Y278841D01*
X725118Y279861D01*
X728270D01*
X729053Y278841D01*
X732081Y276516D01*
X735609Y275055D01*
X739394Y274557D01*
X743179Y275055D01*
X746707Y276516D01*
X749735Y278841D01*
X750518Y279861D01*
X753670D01*
X754453Y278841D01*
X757481Y276516D01*
X761009Y275055D01*
X764794Y274557D01*
X768579Y275055D01*
X772107Y276516D01*
X775135Y278841D01*
X777460Y281869D01*
X778921Y285397D01*
X779419Y289182D01*
Y295582D01*
X778921Y299367D01*
X777460Y302894D01*
X775135Y305924D01*
X772107Y308248D01*
X768579Y309709D01*
X764794Y310207D01*
D02*
G37*
G36*
X941672Y355486D02*
X921672D01*
X919721Y355098D01*
X918067Y353993D01*
X916962Y352339D01*
X916574Y350388D01*
Y330388D01*
X916962Y328437D01*
X918067Y326783D01*
X919721Y325678D01*
X921672Y325290D01*
X941672D01*
X943623Y325678D01*
X945277Y326783D01*
X946382Y328437D01*
X946770Y330388D01*
Y350388D01*
X946382Y352339D01*
X945277Y353993D01*
X943623Y355098D01*
X941672Y355486D01*
D02*
G37*
G36*
X805782Y358026D02*
X785782D01*
X783831Y357638D01*
X782177Y356533D01*
X781072Y354879D01*
X780684Y352928D01*
Y332928D01*
X781072Y330977D01*
X782177Y329323D01*
X783831Y328218D01*
X785782Y327830D01*
X805782D01*
X807733Y328218D01*
X809387Y329323D01*
X810492Y330977D01*
X810880Y332928D01*
Y352928D01*
X810492Y354879D01*
X809387Y356533D01*
X807733Y357638D01*
X805782Y358026D01*
D02*
G37*
G36*
X1003808Y309699D02*
X1000023Y309201D01*
X996495Y307740D01*
X993466Y305415D01*
X992684Y304395D01*
X989532D01*
X988749Y305415D01*
X985721Y307740D01*
X982193Y309201D01*
X978408Y309699D01*
X974623Y309201D01*
X971095Y307740D01*
X968066Y305415D01*
X967284Y304395D01*
X964132D01*
X963350Y305415D01*
X960321Y307740D01*
X956793Y309201D01*
X953008Y309699D01*
X949223Y309201D01*
X945695Y307740D01*
X942666Y305415D01*
X941884Y304395D01*
X938732D01*
X937950Y305415D01*
X934921Y307740D01*
X931393Y309201D01*
X927608Y309699D01*
X923823Y309201D01*
X920295Y307740D01*
X917266Y305415D01*
X914942Y302386D01*
X913481Y298859D01*
X912983Y295074D01*
Y288674D01*
X913481Y284889D01*
X914942Y281361D01*
X917266Y278333D01*
X920295Y276008D01*
X923823Y274547D01*
X927608Y274049D01*
X931393Y274547D01*
X934921Y276008D01*
X937950Y278333D01*
X938732Y279353D01*
X941884D01*
X942666Y278333D01*
X945695Y276008D01*
X949223Y274547D01*
X953008Y274049D01*
X956793Y274547D01*
X960321Y276008D01*
X963350Y278333D01*
X964132Y279353D01*
X967284D01*
X968066Y278333D01*
X971095Y276008D01*
X974623Y274547D01*
X978408Y274049D01*
X982193Y274547D01*
X985721Y276008D01*
X988749Y278333D01*
X989532Y279353D01*
X992684D01*
X993466Y278333D01*
X996495Y276008D01*
X1000023Y274547D01*
X1003808Y274049D01*
X1007593Y274547D01*
X1011121Y276008D01*
X1014149Y278333D01*
X1016474Y281361D01*
X1017935Y284889D01*
X1018433Y288674D01*
Y295074D01*
X1017935Y298859D01*
X1016474Y302386D01*
X1014149Y305415D01*
X1011121Y307740D01*
X1007593Y309201D01*
X1003808Y309699D01*
D02*
G37*
G36*
X591894Y269182D02*
X581894D01*
X577407Y268290D01*
X573603Y265748D01*
X571061Y261944D01*
X570169Y257457D01*
X571061Y252970D01*
X573354Y249538D01*
X573603Y248177D01*
Y247687D01*
X573354Y246325D01*
X571061Y242894D01*
X570169Y238407D01*
X571061Y233920D01*
X573354Y230488D01*
X573603Y229127D01*
Y228637D01*
X573354Y227276D01*
X571061Y223844D01*
X570169Y219357D01*
X571061Y214870D01*
X573354Y211438D01*
X573603Y210077D01*
Y209587D01*
X573354Y208225D01*
X571061Y204794D01*
X570169Y200307D01*
X571061Y195820D01*
X573603Y192016D01*
X577407Y189474D01*
X581894Y188582D01*
X591894D01*
X596381Y189474D01*
X600185Y192016D01*
X602727Y195820D01*
X603619Y200307D01*
X602727Y204794D01*
X600434Y208225D01*
X600185Y209587D01*
Y210077D01*
X600434Y211438D01*
X602727Y214870D01*
X603619Y219357D01*
X602727Y223844D01*
X600434Y227276D01*
X600185Y228637D01*
Y229127D01*
X600434Y230488D01*
X602727Y233920D01*
X603619Y238407D01*
X602727Y242894D01*
X600434Y246325D01*
X600185Y247687D01*
Y248177D01*
X600434Y249538D01*
X602727Y252970D01*
X603619Y257457D01*
X602727Y261944D01*
X600185Y265748D01*
X596381Y268290D01*
X591894Y269182D01*
D02*
G37*
G36*
X764794Y183207D02*
X761009Y182709D01*
X757481Y181248D01*
X754453Y178923D01*
X753670Y177903D01*
X750518D01*
X749735Y178923D01*
X746707Y181248D01*
X743179Y182709D01*
X739394Y183207D01*
X735609Y182709D01*
X732081Y181248D01*
X729053Y178923D01*
X728270Y177903D01*
X725118D01*
X724335Y178923D01*
X721307Y181248D01*
X717779Y182709D01*
X713994Y183207D01*
X710209Y182709D01*
X706681Y181248D01*
X703652Y178923D01*
X702870Y177903D01*
X699718D01*
X698935Y178923D01*
X695907Y181248D01*
X692379Y182709D01*
X688594Y183207D01*
X684809Y182709D01*
X681281Y181248D01*
X678252Y178923D01*
X675928Y175895D01*
X674467Y172367D01*
X673969Y168582D01*
Y162182D01*
X674467Y158397D01*
X675928Y154869D01*
X678252Y151840D01*
X681281Y149516D01*
X684809Y148055D01*
X688594Y147557D01*
X692379Y148055D01*
X695907Y149516D01*
X698935Y151840D01*
X699718Y152861D01*
X702870D01*
X703652Y151840D01*
X706681Y149516D01*
X710209Y148055D01*
X713994Y147557D01*
X717779Y148055D01*
X721307Y149516D01*
X724335Y151840D01*
X725118Y152861D01*
X728270D01*
X729053Y151840D01*
X732081Y149516D01*
X735609Y148055D01*
X739394Y147557D01*
X743179Y148055D01*
X746707Y149516D01*
X749735Y151840D01*
X750518Y152861D01*
X753670D01*
X754453Y151840D01*
X757481Y149516D01*
X761009Y148055D01*
X764794Y147557D01*
X768579Y148055D01*
X772107Y149516D01*
X775135Y151840D01*
X777460Y154869D01*
X778921Y158397D01*
X779419Y162182D01*
Y168582D01*
X778921Y172367D01*
X777460Y175895D01*
X775135Y178923D01*
X772107Y181248D01*
X768579Y182709D01*
X764794Y183207D01*
D02*
G37*
G36*
X830908Y268674D02*
X820908D01*
X816421Y267782D01*
X812617Y265240D01*
X810075Y261436D01*
X809183Y256949D01*
X809357Y256075D01*
X807018Y255015D01*
X805215Y257365D01*
X801560Y260170D01*
X797302Y261933D01*
X792734Y262535D01*
X788166Y261933D01*
X783908Y260170D01*
X780253Y257365D01*
X777448Y253710D01*
X775685Y249452D01*
X775083Y244884D01*
X775685Y240316D01*
X777448Y236059D01*
X780253Y232403D01*
X781464Y231474D01*
Y228974D01*
X779519Y227481D01*
X776714Y223825D01*
X774950Y219568D01*
X774349Y215000D01*
X774950Y210432D01*
X776714Y206175D01*
X779519Y202519D01*
X783175Y199714D01*
X787432Y197950D01*
X792000Y197349D01*
X796568Y197950D01*
X800826Y199714D01*
X804481Y202519D01*
X807286Y206175D01*
X808642Y209447D01*
X811003Y210398D01*
X811565Y210389D01*
X812609Y209613D01*
X812617Y209569D01*
Y209079D01*
X812368Y207717D01*
X810075Y204286D01*
X809183Y199799D01*
X810075Y195312D01*
X812617Y191508D01*
X816421Y188966D01*
X820908Y188074D01*
X830908D01*
X835395Y188966D01*
X839199Y191508D01*
X841741Y195312D01*
X842633Y199799D01*
X841741Y204286D01*
X839448Y207717D01*
X839199Y209079D01*
Y209569D01*
X839448Y210930D01*
X841741Y214362D01*
X842633Y218849D01*
X841741Y223336D01*
X839448Y226768D01*
X839199Y228129D01*
Y228619D01*
X839448Y229980D01*
X841741Y233412D01*
X842633Y237899D01*
X841741Y242386D01*
X839448Y245818D01*
X839199Y247179D01*
Y247669D01*
X839448Y249030D01*
X841741Y252462D01*
X842633Y256949D01*
X841741Y261436D01*
X839199Y265240D01*
X835395Y267782D01*
X830908Y268674D01*
D02*
G37*
G36*
X402082Y240779D02*
X398427Y240298D01*
X395022Y238887D01*
X392097Y236643D01*
X389853Y233718D01*
X388442Y230313D01*
X387961Y226658D01*
X388442Y223003D01*
X389853Y219598D01*
X392097Y216673D01*
X395022Y214429D01*
X398427Y213018D01*
X402082Y212537D01*
X405737Y213018D01*
X409142Y214429D01*
X412067Y216673D01*
X414311Y219598D01*
X415722Y223003D01*
X416203Y226658D01*
X415722Y230313D01*
X414311Y233718D01*
X412067Y236643D01*
X409142Y238887D01*
X405737Y240298D01*
X402082Y240779D01*
D02*
G37*
G36*
X647250Y371348D02*
X627250D01*
X625299Y370960D01*
X623645Y369855D01*
X622540Y368201D01*
X622152Y366250D01*
Y346250D01*
X622540Y344299D01*
X623645Y342645D01*
X625299Y341540D01*
X627250Y341152D01*
X647250D01*
X649201Y341540D01*
X650855Y342645D01*
X651960Y344299D01*
X652348Y346250D01*
Y366250D01*
X651960Y368201D01*
X650855Y369855D01*
X649201Y370960D01*
X647250Y371348D01*
D02*
G37*
G36*
X602488Y432363D02*
X599562Y431781D01*
X597081Y430123D01*
X595423Y427642D01*
X594841Y424716D01*
X595423Y421790D01*
X597081Y419309D01*
X599562Y417651D01*
X602488Y417069D01*
X605414Y417651D01*
X607895Y419309D01*
X609553Y421790D01*
X610135Y424716D01*
X609553Y427642D01*
X607895Y430123D01*
X605414Y431781D01*
X602488Y432363D01*
D02*
G37*
G36*
X423926Y432081D02*
X421000Y431499D01*
X418519Y429841D01*
X416861Y427360D01*
X416279Y424434D01*
X416861Y421508D01*
X418519Y419027D01*
X421000Y417369D01*
X423926Y416787D01*
X426852Y417369D01*
X429333Y419027D01*
X430991Y421508D01*
X431573Y424434D01*
X430991Y427360D01*
X429333Y429841D01*
X426852Y431499D01*
X423926Y432081D01*
D02*
G37*
G36*
X552196Y448365D02*
X549270Y447783D01*
X546789Y446125D01*
X545131Y443644D01*
X544549Y440718D01*
X545131Y437792D01*
X546789Y435311D01*
X549270Y433653D01*
X552196Y433071D01*
X555122Y433653D01*
X557603Y435311D01*
X559261Y437792D01*
X559843Y440718D01*
X559261Y443644D01*
X557603Y446125D01*
X555122Y447783D01*
X552196Y448365D01*
D02*
G37*
G36*
X929386Y433155D02*
X926460Y432573D01*
X923979Y430915D01*
X922321Y428434D01*
X921739Y425508D01*
X922321Y422582D01*
X923979Y420101D01*
X926460Y418443D01*
X929386Y417861D01*
X932312Y418443D01*
X934793Y420101D01*
X936451Y422582D01*
X937033Y425508D01*
X936451Y428434D01*
X934793Y430915D01*
X932312Y432573D01*
X929386Y433155D01*
D02*
G37*
G36*
X759714Y428553D02*
X756788Y427971D01*
X754307Y426313D01*
X752649Y423832D01*
X752067Y420906D01*
X752649Y417980D01*
X754307Y415499D01*
X756788Y413841D01*
X759714Y413259D01*
X762640Y413841D01*
X765121Y415499D01*
X766779Y417980D01*
X767361Y420906D01*
X766779Y423832D01*
X765121Y426313D01*
X762640Y427971D01*
X759714Y428553D01*
D02*
G37*
G36*
X802640Y408713D02*
X799714Y408131D01*
X797233Y406473D01*
X795575Y403992D01*
X794993Y401066D01*
X795575Y398140D01*
X797233Y395659D01*
X799714Y394001D01*
X802640Y393419D01*
X805566Y394001D01*
X808047Y395659D01*
X809705Y398140D01*
X810287Y401066D01*
X809705Y403992D01*
X808047Y406473D01*
X805566Y408131D01*
X802640Y408713D01*
D02*
G37*
G36*
X553212Y407979D02*
X550286Y407397D01*
X547805Y405739D01*
X546147Y403258D01*
X545565Y400332D01*
X546147Y397406D01*
X547805Y394925D01*
X550286Y393267D01*
X553212Y392685D01*
X556138Y393267D01*
X558619Y394925D01*
X560277Y397406D01*
X560859Y400332D01*
X560277Y403258D01*
X558619Y405739D01*
X556138Y407397D01*
X553212Y407979D01*
D02*
G37*
G36*
X965200Y408967D02*
X962274Y408385D01*
X959793Y406727D01*
X958135Y404246D01*
X957553Y401320D01*
X958135Y398394D01*
X959793Y395913D01*
X962274Y394255D01*
X965200Y393673D01*
X968126Y394255D01*
X970607Y395913D01*
X972265Y398394D01*
X972847Y401320D01*
X972265Y404246D01*
X970607Y406727D01*
X968126Y408385D01*
X965200Y408967D01*
D02*
G37*
G36*
X642750Y408741D02*
X639824Y408159D01*
X637343Y406501D01*
X635685Y404020D01*
X635103Y401094D01*
X635685Y398168D01*
X637343Y395687D01*
X639824Y394029D01*
X642750Y393447D01*
X645676Y394029D01*
X648157Y395687D01*
X649815Y398168D01*
X650397Y401094D01*
X649815Y404020D01*
X648157Y406501D01*
X645676Y408159D01*
X642750Y408741D01*
D02*
G37*
G36*
X819912Y110113D02*
X815996Y109598D01*
X812347Y108086D01*
X809214Y105682D01*
X806809Y102549D01*
X805298Y98900D01*
X804783Y94984D01*
Y89984D01*
X805298Y86068D01*
X806809Y82419D01*
X809214Y79286D01*
X812347Y76881D01*
X815996Y75370D01*
X819912Y74855D01*
X823828Y75370D01*
X827477Y76881D01*
X830610Y79286D01*
X833015Y82419D01*
X834526Y86068D01*
X835041Y89984D01*
Y94984D01*
X834526Y98900D01*
X833015Y102549D01*
X830610Y105682D01*
X827477Y108086D01*
X823828Y109598D01*
X819912Y110113D01*
D02*
G37*
G36*
X769912D02*
X765996Y109598D01*
X762347Y108086D01*
X759214Y105682D01*
X756809Y102549D01*
X755298Y98900D01*
X754783Y94984D01*
Y89984D01*
X755298Y86068D01*
X756809Y82419D01*
X759214Y79286D01*
X762347Y76881D01*
X765996Y75370D01*
X769912Y74855D01*
X773828Y75370D01*
X777477Y76881D01*
X780610Y79286D01*
X783015Y82419D01*
X784526Y86068D01*
X785041Y89984D01*
Y94984D01*
X784526Y98900D01*
X783015Y102549D01*
X780610Y105682D01*
X777477Y108086D01*
X773828Y109598D01*
X769912Y110113D01*
D02*
G37*
G36*
X1001122Y106851D02*
X997206Y106336D01*
X993557Y104824D01*
X990424Y102420D01*
X988019Y99287D01*
X986508Y95638D01*
X985993Y91722D01*
X986508Y87806D01*
X988019Y84157D01*
X990424Y81024D01*
X993557Y78619D01*
X997206Y77108D01*
X1001122Y76593D01*
X1005038Y77108D01*
X1008687Y78619D01*
X1011820Y81024D01*
X1014224Y84157D01*
X1015736Y87806D01*
X1016251Y91722D01*
X1015736Y95638D01*
X1014224Y99287D01*
X1011820Y102420D01*
X1008687Y104824D01*
X1005038Y106336D01*
X1001122Y106851D01*
D02*
G37*
G36*
X869912Y110113D02*
X865996Y109598D01*
X862347Y108086D01*
X859214Y105682D01*
X856809Y102549D01*
X855298Y98900D01*
X854783Y94984D01*
Y89984D01*
X855298Y86068D01*
X856809Y82419D01*
X859214Y79286D01*
X862347Y76881D01*
X865996Y75370D01*
X869912Y74855D01*
X873828Y75370D01*
X877477Y76881D01*
X880610Y79286D01*
X883015Y82419D01*
X884526Y86068D01*
X885041Y89984D01*
Y94984D01*
X884526Y98900D01*
X883015Y102549D01*
X880610Y105682D01*
X877477Y108086D01*
X873828Y109598D01*
X869912Y110113D01*
D02*
G37*
G36*
X693636Y84707D02*
X689720Y84192D01*
X686071Y82681D01*
X682938Y80276D01*
X680534Y77143D01*
X679022Y73494D01*
X678507Y69578D01*
X679022Y65662D01*
X680534Y62013D01*
X682938Y58880D01*
X686071Y56476D01*
X689720Y54964D01*
X693636Y54449D01*
X697552Y54964D01*
X701201Y56476D01*
X704334Y58880D01*
X706739Y62013D01*
X708250Y65662D01*
X708765Y69578D01*
X708250Y73494D01*
X706739Y77143D01*
X704334Y80276D01*
X701201Y82681D01*
X697552Y84192D01*
X693636Y84707D01*
D02*
G37*
G36*
X439000Y76098D02*
X419000D01*
X417049Y75710D01*
X415395Y74605D01*
X414290Y72951D01*
X413902Y71000D01*
Y51000D01*
X414290Y49049D01*
X415395Y47395D01*
X417049Y46290D01*
X419000Y45902D01*
X439000D01*
X440951Y46290D01*
X442605Y47395D01*
X443710Y49049D01*
X444098Y51000D01*
Y71000D01*
X443710Y72951D01*
X442605Y74605D01*
X440951Y75710D01*
X439000Y76098D01*
D02*
G37*
G36*
X524604Y58306D02*
X504604D01*
X502653Y57918D01*
X500999Y56813D01*
X499894Y55159D01*
X499506Y53208D01*
Y33208D01*
X499894Y31257D01*
X500999Y29603D01*
X502653Y28498D01*
X504604Y28110D01*
X524604D01*
X526555Y28498D01*
X528209Y29603D01*
X529314Y31257D01*
X529702Y33208D01*
Y53208D01*
X529314Y55159D01*
X528209Y56813D01*
X526555Y57918D01*
X524604Y58306D01*
D02*
G37*
G36*
X643636Y84707D02*
X639720Y84192D01*
X636071Y82681D01*
X632938Y80276D01*
X630533Y77143D01*
X629022Y73494D01*
X628507Y69578D01*
X629022Y65662D01*
X630533Y62013D01*
X632938Y58880D01*
X636071Y56476D01*
X639720Y54964D01*
X643636Y54449D01*
X647552Y54964D01*
X651201Y56476D01*
X654334Y58880D01*
X656739Y62013D01*
X658250Y65662D01*
X658765Y69578D01*
X658250Y73494D01*
X656739Y77143D01*
X654334Y80276D01*
X651201Y82681D01*
X647552Y84192D01*
X643636Y84707D01*
D02*
G37*
G36*
X593636D02*
X589720Y84192D01*
X586071Y82681D01*
X582938Y80276D01*
X580533Y77143D01*
X579022Y73494D01*
X578507Y69578D01*
X579022Y65662D01*
X580533Y62013D01*
X582938Y58880D01*
X586071Y56476D01*
X589720Y54964D01*
X593636Y54449D01*
X597552Y54964D01*
X601201Y56476D01*
X604334Y58880D01*
X606739Y62013D01*
X608250Y65662D01*
X608765Y69578D01*
X608250Y73494D01*
X606739Y77143D01*
X604334Y80276D01*
X601201Y82681D01*
X597552Y84192D01*
X593636Y84707D01*
D02*
G37*
G36*
X496570Y92511D02*
X493644Y91929D01*
X491163Y90271D01*
X489505Y87790D01*
X488923Y84864D01*
X489505Y81938D01*
X491163Y79457D01*
X493644Y77799D01*
X496570Y77217D01*
X499496Y77799D01*
X501977Y79457D01*
X503635Y81938D01*
X504217Y84864D01*
X503635Y87790D01*
X501977Y90271D01*
X499496Y91929D01*
X496570Y92511D01*
D02*
G37*
G36*
X448056Y151755D02*
X445130Y151173D01*
X442649Y149515D01*
X440991Y147034D01*
X440409Y144108D01*
X440991Y141182D01*
X442649Y138701D01*
X445130Y137043D01*
X448056Y136461D01*
X450982Y137043D01*
X453463Y138701D01*
X455121Y141182D01*
X455703Y144108D01*
X455121Y147034D01*
X453463Y149515D01*
X450982Y151173D01*
X448056Y151755D01*
D02*
G37*
G36*
X557530Y139309D02*
X554604Y138727D01*
X552123Y137069D01*
X550465Y134588D01*
X549883Y131662D01*
X550465Y128736D01*
X552123Y126255D01*
X554604Y124597D01*
X557530Y124015D01*
X560456Y124597D01*
X562937Y126255D01*
X564595Y128736D01*
X565177Y131662D01*
X564595Y134588D01*
X562937Y137069D01*
X560456Y138727D01*
X557530Y139309D01*
D02*
G37*
G36*
X1003808Y182699D02*
X1000023Y182201D01*
X996495Y180740D01*
X993466Y178416D01*
X992684Y177395D01*
X989532D01*
X988749Y178416D01*
X985721Y180740D01*
X982193Y182201D01*
X978408Y182699D01*
X974623Y182201D01*
X971095Y180740D01*
X968066Y178416D01*
X967284Y177395D01*
X964132D01*
X963350Y178416D01*
X960321Y180740D01*
X956793Y182201D01*
X953008Y182699D01*
X949223Y182201D01*
X945695Y180740D01*
X942666Y178416D01*
X941884Y177395D01*
X938732D01*
X937950Y178416D01*
X934921Y180740D01*
X931393Y182201D01*
X927608Y182699D01*
X923823Y182201D01*
X920295Y180740D01*
X917266Y178416D01*
X914942Y175387D01*
X913481Y171859D01*
X912983Y168074D01*
Y161674D01*
X913481Y157889D01*
X914942Y154361D01*
X917266Y151333D01*
X920295Y149008D01*
X923823Y147547D01*
X927608Y147049D01*
X931393Y147547D01*
X934921Y149008D01*
X937950Y151333D01*
X938732Y152353D01*
X941884D01*
X942666Y151333D01*
X945695Y149008D01*
X949223Y147547D01*
X953008Y147049D01*
X956793Y147547D01*
X960321Y149008D01*
X963350Y151333D01*
X964132Y152353D01*
X967284D01*
X968066Y151333D01*
X971095Y149008D01*
X974623Y147547D01*
X978408Y147049D01*
X982193Y147547D01*
X985721Y149008D01*
X988749Y151333D01*
X989532Y152353D01*
X992684D01*
X993466Y151333D01*
X996495Y149008D01*
X1000023Y147547D01*
X1003808Y147049D01*
X1007593Y147547D01*
X1011121Y149008D01*
X1014149Y151333D01*
X1016474Y154361D01*
X1017935Y157889D01*
X1018433Y161674D01*
Y168074D01*
X1017935Y171859D01*
X1016474Y175387D01*
X1014149Y178416D01*
X1011121Y180740D01*
X1007593Y182201D01*
X1003808Y182699D01*
D02*
G37*
G36*
X427990Y177083D02*
X423113Y176113D01*
X418978Y173350D01*
X416215Y169215D01*
X415245Y164338D01*
X416215Y159461D01*
X418978Y155326D01*
X423113Y152563D01*
X427990Y151593D01*
X432867Y152563D01*
X437002Y155326D01*
X439765Y159461D01*
X440735Y164338D01*
X439765Y169215D01*
X437002Y173350D01*
X432867Y176113D01*
X427990Y177083D01*
D02*
G37*
G36*
X694436Y129403D02*
X691510Y128821D01*
X689029Y127163D01*
X687371Y124682D01*
X686789Y121756D01*
X687371Y118830D01*
X689029Y116349D01*
X691510Y114691D01*
X694436Y114109D01*
X697362Y114691D01*
X699843Y116349D01*
X701501Y118830D01*
X702083Y121756D01*
X701501Y124682D01*
X699843Y127163D01*
X697362Y128821D01*
X694436Y129403D01*
D02*
G37*
G36*
X518160Y113565D02*
X515234Y112983D01*
X512753Y111325D01*
X511095Y108844D01*
X510513Y105918D01*
X511095Y102992D01*
X512753Y100511D01*
X515234Y98853D01*
X518160Y98271D01*
X521086Y98853D01*
X523567Y100511D01*
X525225Y102992D01*
X525807Y105918D01*
X525225Y108844D01*
X523567Y111325D01*
X521086Y112983D01*
X518160Y113565D01*
D02*
G37*
G36*
X154032Y116757D02*
X150116Y116242D01*
X146467Y114731D01*
X143334Y112326D01*
X140929Y109193D01*
X139418Y105544D01*
X138903Y101628D01*
X139418Y97712D01*
X140929Y94063D01*
X143334Y90930D01*
X146467Y88525D01*
X150116Y87014D01*
X154032Y86499D01*
X157948Y87014D01*
X161597Y88525D01*
X164730Y90930D01*
X167134Y94063D01*
X168646Y97712D01*
X169161Y101628D01*
X168646Y105544D01*
X167134Y109193D01*
X164730Y112326D01*
X161597Y114731D01*
X157948Y116242D01*
X154032Y116757D01*
D02*
G37*
G36*
X618636Y134707D02*
X614720Y134192D01*
X611071Y132681D01*
X607938Y130276D01*
X605533Y127143D01*
X604022Y123494D01*
X603507Y119578D01*
X604022Y115662D01*
X605533Y112013D01*
X607938Y108880D01*
X611071Y106475D01*
X614720Y104964D01*
X618636Y104449D01*
X622552Y104964D01*
X626201Y106475D01*
X629334Y108880D01*
X631739Y112013D01*
X633250Y115662D01*
X633765Y119578D01*
X633250Y123494D01*
X631739Y127143D01*
X629334Y130276D01*
X626201Y132681D01*
X622552Y134192D01*
X618636Y134707D01*
D02*
G37*
G36*
X427990Y126283D02*
X423113Y125313D01*
X418978Y122550D01*
X416215Y118415D01*
X415245Y113538D01*
X416215Y108661D01*
X418978Y104526D01*
X423113Y101763D01*
X427990Y100793D01*
X432867Y101763D01*
X437002Y104526D01*
X439765Y108661D01*
X440735Y113538D01*
X439765Y118415D01*
X437002Y122550D01*
X432867Y125313D01*
X427990Y126283D01*
D02*
G37*
G36*
X528066Y455731D02*
X525140Y455149D01*
X522659Y453491D01*
X521001Y451010D01*
X520419Y448084D01*
X521001Y445158D01*
X522659Y442677D01*
X525140Y441019D01*
X528066Y440437D01*
X530992Y441019D01*
X533473Y442677D01*
X535131Y445158D01*
X535713Y448084D01*
X535131Y451010D01*
X533473Y453491D01*
X530992Y455149D01*
X528066Y455731D01*
D02*
G37*
G36*
X991362Y704768D02*
X987446Y704252D01*
X983797Y702741D01*
X980664Y700336D01*
X978260Y697203D01*
X976748Y693554D01*
X976233Y689638D01*
X976748Y685722D01*
X978260Y682074D01*
X980664Y678940D01*
X983797Y676536D01*
X987446Y675024D01*
X991362Y674509D01*
X995278Y675024D01*
X998927Y676536D01*
X1002060Y678940D01*
X1004465Y682074D01*
X1005976Y685722D01*
X1006492Y689638D01*
X1005976Y693554D01*
X1004465Y697203D01*
X1002060Y700336D01*
X998927Y702741D01*
X995278Y704252D01*
X991362Y704768D01*
D02*
G37*
G36*
X1041362Y679768D02*
X1037446Y679252D01*
X1033797Y677741D01*
X1030664Y675336D01*
X1028260Y672203D01*
X1026748Y668554D01*
X1026233Y664638D01*
X1026748Y660722D01*
X1028260Y657074D01*
X1030664Y653940D01*
X1033797Y651536D01*
X1037446Y650024D01*
X1041362Y649509D01*
X1045278Y650024D01*
X1048927Y651536D01*
X1052060Y653940D01*
X1054465Y657074D01*
X1055976Y660722D01*
X1056492Y664638D01*
X1055976Y668554D01*
X1054465Y672203D01*
X1052060Y675336D01*
X1048927Y677741D01*
X1045278Y679252D01*
X1041362Y679768D01*
D02*
G37*
G36*
X908906Y741820D02*
X888906D01*
X886955Y741432D01*
X885301Y740327D01*
X884196Y738673D01*
X883808Y736722D01*
Y716722D01*
X884196Y714771D01*
X885301Y713117D01*
X886955Y712012D01*
X888906Y711624D01*
X908906D01*
X910857Y712012D01*
X912511Y713117D01*
X913616Y714771D01*
X914004Y716722D01*
Y736722D01*
X913616Y738673D01*
X912511Y740327D01*
X910857Y741432D01*
X908906Y741820D01*
D02*
G37*
G36*
X1041362Y729768D02*
X1037446Y729252D01*
X1033797Y727741D01*
X1030664Y725336D01*
X1028260Y722203D01*
X1026748Y718554D01*
X1026233Y714638D01*
X1026748Y710722D01*
X1028260Y707074D01*
X1030664Y703940D01*
X1033797Y701536D01*
X1037446Y700024D01*
X1041362Y699509D01*
X1045278Y700024D01*
X1048927Y701536D01*
X1052060Y703940D01*
X1054465Y707074D01*
X1055976Y710722D01*
X1056492Y714638D01*
X1055976Y718554D01*
X1054465Y722203D01*
X1052060Y725336D01*
X1048927Y727741D01*
X1045278Y729252D01*
X1041362Y729768D01*
D02*
G37*
G36*
X1004918Y641462D02*
X984918D01*
X982967Y641074D01*
X981313Y639969D01*
X980208Y638315D01*
X979820Y636364D01*
Y616364D01*
X980208Y614413D01*
X981313Y612759D01*
X982967Y611654D01*
X984918Y611266D01*
X1004918D01*
X1006869Y611654D01*
X1008523Y612759D01*
X1009628Y614413D01*
X1010016Y616364D01*
Y636364D01*
X1009628Y638315D01*
X1008523Y639969D01*
X1006869Y641074D01*
X1004918Y641462D01*
D02*
G37*
G36*
X842612Y575450D02*
X822612D01*
X820661Y575062D01*
X819007Y573957D01*
X817902Y572303D01*
X817514Y570352D01*
Y550352D01*
X817902Y548401D01*
X819007Y546747D01*
X820661Y545642D01*
X822612Y545254D01*
X842612D01*
X844563Y545642D01*
X846217Y546747D01*
X847322Y548401D01*
X847710Y550352D01*
Y570352D01*
X847322Y572303D01*
X846217Y573957D01*
X844563Y575062D01*
X842612Y575450D01*
D02*
G37*
G36*
X986376Y573926D02*
X966376D01*
X964425Y573538D01*
X962771Y572433D01*
X961666Y570779D01*
X961278Y568828D01*
Y548828D01*
X961666Y546877D01*
X962771Y545223D01*
X964425Y544118D01*
X966376Y543730D01*
X986376D01*
X988327Y544118D01*
X989981Y545223D01*
X991086Y546877D01*
X991474Y548828D01*
Y568828D01*
X991086Y570779D01*
X989981Y572433D01*
X988327Y573538D01*
X986376Y573926D01*
D02*
G37*
G36*
X333310Y628575D02*
X329655Y628094D01*
X326250Y626683D01*
X323325Y624439D01*
X321081Y621514D01*
X319670Y618109D01*
X319189Y614454D01*
X319670Y610799D01*
X321081Y607394D01*
X323325Y604469D01*
X326250Y602225D01*
X329655Y600814D01*
X333310Y600333D01*
X336965Y600814D01*
X340370Y602225D01*
X343295Y604469D01*
X345539Y607394D01*
X346950Y610799D01*
X347431Y614454D01*
X346950Y618109D01*
X345539Y621514D01*
X343295Y624439D01*
X340370Y626683D01*
X336965Y628094D01*
X333310Y628575D01*
D02*
G37*
G36*
X672686Y576466D02*
X652686D01*
X650735Y576078D01*
X649081Y574973D01*
X647976Y573319D01*
X647588Y571368D01*
Y551368D01*
X647976Y549417D01*
X649081Y547763D01*
X650735Y546658D01*
X652686Y546270D01*
X672686D01*
X674637Y546658D01*
X676291Y547763D01*
X677396Y549417D01*
X677784Y551368D01*
Y571368D01*
X677396Y573319D01*
X676291Y574973D01*
X674637Y576078D01*
X672686Y576466D01*
D02*
G37*
G36*
X991362Y754768D02*
X987446Y754252D01*
X983797Y752741D01*
X980664Y750336D01*
X978260Y747203D01*
X976748Y743554D01*
X976233Y739638D01*
X976748Y735722D01*
X978260Y732074D01*
X980664Y728940D01*
X983797Y726536D01*
X987446Y725024D01*
X991362Y724509D01*
X995278Y725024D01*
X998927Y726536D01*
X1002060Y728940D01*
X1004465Y732074D01*
X1005976Y735722D01*
X1006492Y739638D01*
X1005976Y743554D01*
X1004465Y747203D01*
X1002060Y750336D01*
X998927Y752741D01*
X995278Y754252D01*
X991362Y754768D01*
D02*
G37*
G36*
X910082Y870733D02*
X905400Y869802D01*
X901431Y867150D01*
X898778Y863180D01*
X898656Y862568D01*
X896107D01*
X895986Y863180D01*
X893334Y867150D01*
X889364Y869802D01*
X884682Y870733D01*
X880000Y869802D01*
X876031Y867150D01*
X873378Y863180D01*
X873257Y862568D01*
X870707D01*
X870586Y863180D01*
X867934Y867150D01*
X863964Y869802D01*
X859282Y870733D01*
X854600Y869802D01*
X850630Y867150D01*
X847978Y863180D01*
X847857Y862568D01*
X845307D01*
X845186Y863180D01*
X842533Y867150D01*
X838564Y869802D01*
X833882Y870733D01*
X829200Y869802D01*
X825230Y867150D01*
X822578Y863180D01*
X822457Y862568D01*
X819908D01*
X819786Y863180D01*
X817133Y867150D01*
X813164Y869802D01*
X808482Y870733D01*
X803800Y869802D01*
X799830Y867150D01*
X797178Y863180D01*
X797057Y862568D01*
X794508D01*
X794386Y863180D01*
X791733Y867150D01*
X787764Y869802D01*
X783082Y870733D01*
X778400Y869802D01*
X774430Y867150D01*
X771778Y863180D01*
X771656Y862568D01*
X769108D01*
X768986Y863180D01*
X766333Y867150D01*
X762364Y869802D01*
X757682Y870733D01*
X753000Y869802D01*
X749031Y867150D01*
X746378Y863180D01*
X746256Y862568D01*
X743708D01*
X743586Y863180D01*
X740934Y867150D01*
X736964Y869802D01*
X732282Y870733D01*
X727600Y869802D01*
X723631Y867150D01*
X720978Y863180D01*
X720856Y862568D01*
X718307D01*
X718186Y863180D01*
X715534Y867150D01*
X711564Y869802D01*
X706882Y870733D01*
X702200Y869802D01*
X698231Y867150D01*
X695578Y863180D01*
X695456Y862568D01*
X692907D01*
X692786Y863180D01*
X690134Y867150D01*
X686164Y869802D01*
X681482Y870733D01*
X676800Y869802D01*
X672831Y867150D01*
X670178Y863180D01*
X670057Y862568D01*
X667507D01*
X667386Y863180D01*
X664734Y867150D01*
X660764Y869802D01*
X656082Y870733D01*
X651400Y869802D01*
X647430Y867150D01*
X644778Y863180D01*
X644657Y862568D01*
X642107D01*
X641986Y863180D01*
X639333Y867150D01*
X635364Y869802D01*
X630682Y870733D01*
X626000Y869802D01*
X622030Y867150D01*
X619378Y863180D01*
X619257Y862568D01*
X616707D01*
X616586Y863180D01*
X613933Y867150D01*
X609964Y869802D01*
X605282Y870733D01*
X600600Y869802D01*
X596631Y867150D01*
X593978Y863180D01*
X593857Y862568D01*
X591307D01*
X591186Y863180D01*
X588534Y867150D01*
X584564Y869802D01*
X579882Y870733D01*
X575200Y869802D01*
X571231Y867150D01*
X568578Y863180D01*
X567647Y858498D01*
X568578Y853816D01*
X571231Y849846D01*
X575200Y847194D01*
X579882Y846263D01*
X579894Y846265D01*
X581283Y844187D01*
X581278Y844180D01*
X580347Y839498D01*
X581278Y834816D01*
X581283Y834809D01*
X579894Y832731D01*
X579882Y832733D01*
X575200Y831802D01*
X571231Y829149D01*
X568578Y825180D01*
X567647Y820498D01*
X568578Y815816D01*
X571231Y811846D01*
X575200Y809194D01*
X579882Y808263D01*
X579894Y808265D01*
X581283Y806187D01*
X581278Y806180D01*
X580347Y801498D01*
X581278Y796816D01*
X583931Y792847D01*
X587900Y790194D01*
X592582Y789263D01*
X597264Y790194D01*
X601233Y792847D01*
X603886Y796816D01*
X604007Y797428D01*
X606557D01*
X606678Y796816D01*
X609330Y792847D01*
X613300Y790194D01*
X617982Y789263D01*
X622664Y790194D01*
X626633Y792847D01*
X629286Y796816D01*
X629408Y797428D01*
X631956D01*
X632078Y796816D01*
X634730Y792847D01*
X638700Y790194D01*
X643382Y789263D01*
X648064Y790194D01*
X652033Y792847D01*
X654686Y796816D01*
X654808Y797428D01*
X657356D01*
X657478Y796816D01*
X660130Y792847D01*
X664100Y790194D01*
X668782Y789263D01*
X673464Y790194D01*
X677433Y792847D01*
X680086Y796816D01*
X680208Y797428D01*
X682757D01*
X682878Y796816D01*
X685530Y792847D01*
X689500Y790194D01*
X694182Y789263D01*
X698864Y790194D01*
X702833Y792847D01*
X705486Y796816D01*
X705608Y797428D01*
X708157D01*
X708278Y796816D01*
X710930Y792847D01*
X714900Y790194D01*
X719582Y789263D01*
X724264Y790194D01*
X728233Y792847D01*
X730886Y796816D01*
X731008Y797428D01*
X733557D01*
X733678Y796816D01*
X736330Y792847D01*
X740300Y790194D01*
X744982Y789263D01*
X749664Y790194D01*
X753633Y792847D01*
X756286Y796816D01*
X756407Y797428D01*
X758957D01*
X759078Y796816D01*
X761730Y792847D01*
X765700Y790194D01*
X770382Y789263D01*
X775064Y790194D01*
X779034Y792847D01*
X781686Y796816D01*
X781807Y797428D01*
X784357D01*
X784478Y796816D01*
X787131Y792847D01*
X791100Y790194D01*
X795782Y789263D01*
X800464Y790194D01*
X804434Y792847D01*
X807086Y796816D01*
X807207Y797428D01*
X809756D01*
X809878Y796816D01*
X812531Y792847D01*
X816500Y790194D01*
X821182Y789263D01*
X825864Y790194D01*
X829834Y792847D01*
X832486Y796816D01*
X832607Y797428D01*
X835156D01*
X835278Y796816D01*
X837931Y792847D01*
X841900Y790194D01*
X846582Y789263D01*
X851264Y790194D01*
X855234Y792847D01*
X857886Y796816D01*
X858008Y797428D01*
X860556D01*
X860678Y796816D01*
X863331Y792847D01*
X867300Y790194D01*
X871982Y789263D01*
X876664Y790194D01*
X880633Y792847D01*
X883286Y796816D01*
X883408Y797428D01*
X885956D01*
X886078Y796816D01*
X888730Y792847D01*
X892700Y790194D01*
X897382Y789263D01*
X902064Y790194D01*
X906033Y792847D01*
X908686Y796816D01*
X908808Y797428D01*
X911357D01*
X911478Y796816D01*
X914130Y792847D01*
X918100Y790194D01*
X922782Y789263D01*
X927464Y790194D01*
X931433Y792847D01*
X934086Y796816D01*
X935017Y801498D01*
X934086Y806180D01*
X931433Y810150D01*
X927464Y812802D01*
X922782Y813733D01*
X922770Y813731D01*
X921381Y815809D01*
X921386Y815816D01*
X922317Y820498D01*
X921386Y825180D01*
X921381Y825187D01*
X922770Y827265D01*
X922782Y827263D01*
X926798Y828062D01*
X929490Y826770D01*
X929931Y823419D01*
X932470Y817289D01*
X936509Y812025D01*
X941773Y807986D01*
X947903Y805447D01*
X954482Y804581D01*
X961060Y805447D01*
X967191Y807986D01*
X972455Y812025D01*
X976494Y817289D01*
X979033Y823419D01*
X979899Y829998D01*
X979033Y836577D01*
X976494Y842707D01*
X972455Y847971D01*
X967191Y852010D01*
X961060Y854549D01*
X954482Y855415D01*
X947903Y854549D01*
X941773Y852010D01*
X936509Y847971D01*
X935166Y846221D01*
X932668Y846302D01*
X931433Y848149D01*
X927464Y850802D01*
X922782Y851733D01*
X922770Y851731D01*
X921381Y853809D01*
X921386Y853816D01*
X922317Y858498D01*
X921386Y863180D01*
X918734Y867150D01*
X914764Y869802D01*
X910082Y870733D01*
D02*
G37*
G36*
X503682D02*
X499000Y869802D01*
X495031Y867150D01*
X492378Y863180D01*
X492257Y862568D01*
X489707D01*
X489586Y863180D01*
X486934Y867150D01*
X482964Y869802D01*
X478282Y870733D01*
X473600Y869802D01*
X469631Y867150D01*
X466978Y863180D01*
X466856Y862568D01*
X464308D01*
X464186Y863180D01*
X461534Y867150D01*
X457564Y869802D01*
X452882Y870733D01*
X448200Y869802D01*
X444230Y867150D01*
X441578Y863180D01*
X441456Y862568D01*
X438908D01*
X438786Y863180D01*
X436133Y867150D01*
X432164Y869802D01*
X427482Y870733D01*
X422800Y869802D01*
X418830Y867150D01*
X416178Y863180D01*
X416057Y862568D01*
X413507D01*
X413386Y863180D01*
X410733Y867150D01*
X406764Y869802D01*
X402082Y870733D01*
X397400Y869802D01*
X393430Y867150D01*
X390778Y863180D01*
X390657Y862568D01*
X388107D01*
X387986Y863180D01*
X385334Y867150D01*
X381364Y869802D01*
X376682Y870733D01*
X372000Y869802D01*
X368031Y867150D01*
X365378Y863180D01*
X365257Y862568D01*
X362707D01*
X362586Y863180D01*
X359934Y867150D01*
X355964Y869802D01*
X351282Y870733D01*
X346600Y869802D01*
X342631Y867150D01*
X339978Y863180D01*
X339856Y862568D01*
X337308D01*
X337186Y863180D01*
X334534Y867150D01*
X330564Y869802D01*
X325882Y870733D01*
X321200Y869802D01*
X317230Y867150D01*
X314578Y863180D01*
X313647Y858498D01*
X314578Y853816D01*
X317230Y849846D01*
X321200Y847194D01*
X325882Y846263D01*
X325894Y846265D01*
X327283Y844187D01*
X327278Y844180D01*
X326347Y839498D01*
X327278Y834816D01*
X327283Y834809D01*
X325894Y832731D01*
X325882Y832733D01*
X321200Y831802D01*
X317230Y829149D01*
X314578Y825180D01*
X313647Y820498D01*
X314578Y815816D01*
X317230Y811846D01*
X321200Y809194D01*
X325882Y808263D01*
X325894Y808265D01*
X327283Y806187D01*
X327278Y806180D01*
X326347Y801498D01*
X327278Y796816D01*
X329930Y792847D01*
X333900Y790194D01*
X338582Y789263D01*
X343264Y790194D01*
X347234Y792847D01*
X349886Y796816D01*
X350008Y797428D01*
X352556D01*
X352678Y796816D01*
X355331Y792847D01*
X359300Y790194D01*
X363982Y789263D01*
X368664Y790194D01*
X372634Y792847D01*
X375286Y796816D01*
X375407Y797428D01*
X377957D01*
X378078Y796816D01*
X380731Y792847D01*
X384700Y790194D01*
X389382Y789263D01*
X394064Y790194D01*
X398033Y792847D01*
X400686Y796816D01*
X400807Y797428D01*
X403357D01*
X403478Y796816D01*
X406130Y792847D01*
X410100Y790194D01*
X414782Y789263D01*
X419464Y790194D01*
X423433Y792847D01*
X426086Y796816D01*
X426208Y797428D01*
X428756D01*
X428878Y796816D01*
X431530Y792847D01*
X435500Y790194D01*
X440182Y789263D01*
X444864Y790194D01*
X448834Y792847D01*
X451486Y796816D01*
X451608Y797428D01*
X454156D01*
X454278Y796816D01*
X456931Y792847D01*
X460900Y790194D01*
X465582Y789263D01*
X470264Y790194D01*
X474234Y792847D01*
X476886Y796816D01*
X477007Y797428D01*
X479557D01*
X479678Y796816D01*
X482331Y792847D01*
X486300Y790194D01*
X490982Y789263D01*
X495664Y790194D01*
X499633Y792847D01*
X502286Y796816D01*
X502407Y797428D01*
X504957D01*
X505078Y796816D01*
X507730Y792847D01*
X511700Y790194D01*
X516382Y789263D01*
X521064Y790194D01*
X525033Y792847D01*
X527686Y796816D01*
X528617Y801498D01*
X527686Y806180D01*
X525033Y810150D01*
X521064Y812802D01*
X516382Y813733D01*
X516370Y813731D01*
X514981Y815809D01*
X514986Y815816D01*
X515917Y820498D01*
X514986Y825180D01*
X514981Y825187D01*
X516370Y827265D01*
X516382Y827263D01*
X521064Y828194D01*
X525033Y830846D01*
X527686Y834816D01*
X528617Y839498D01*
X527686Y844180D01*
X525033Y848149D01*
X521064Y850802D01*
X516382Y851733D01*
X516370Y851731D01*
X514981Y853809D01*
X514986Y853816D01*
X515917Y858498D01*
X514986Y863180D01*
X512333Y867150D01*
X508364Y869802D01*
X503682Y870733D01*
D02*
G37*
G36*
X297650Y906498D02*
X277650D01*
X275699Y906110D01*
X274950Y905609D01*
X274201Y906110D01*
X272250Y906498D01*
X252250D01*
X250299Y906110D01*
X249550Y905609D01*
X248801Y906110D01*
X246850Y906498D01*
X226850D01*
X224899Y906110D01*
X224150Y905609D01*
X223401Y906110D01*
X221450Y906498D01*
X201450D01*
X199499Y906110D01*
X198750Y905609D01*
X198001Y906110D01*
X196050Y906498D01*
X176050D01*
X174099Y906110D01*
X173350Y905609D01*
X172601Y906110D01*
X170650Y906498D01*
X150650D01*
X148699Y906110D01*
X147045Y905005D01*
X145940Y903351D01*
X145552Y901400D01*
Y881400D01*
X145940Y879449D01*
X147045Y877795D01*
X148699Y876690D01*
X150650Y876302D01*
X170650D01*
X172601Y876690D01*
X173350Y877191D01*
X174099Y876690D01*
X176050Y876302D01*
X196050D01*
X198001Y876690D01*
X198750Y877191D01*
X199499Y876690D01*
X201450Y876302D01*
X221450D01*
X223401Y876690D01*
X224150Y877191D01*
X224899Y876690D01*
X226850Y876302D01*
X246850D01*
X248801Y876690D01*
X249550Y877191D01*
X250299Y876690D01*
X252250Y876302D01*
X272250D01*
X274201Y876690D01*
X274950Y877191D01*
X275699Y876690D01*
X277650Y876302D01*
X297650D01*
X299601Y876690D01*
X300399Y877224D01*
X301201Y876688D01*
X303152Y876300D01*
X323152D01*
X325103Y876688D01*
X325852Y877189D01*
X326601Y876688D01*
X328552Y876300D01*
X348552D01*
X350503Y876688D01*
X351252Y877189D01*
X352001Y876688D01*
X353952Y876300D01*
X373952D01*
X375903Y876688D01*
X376652Y877189D01*
X377401Y876688D01*
X379352Y876300D01*
X399352D01*
X401303Y876688D01*
X402052Y877189D01*
X402801Y876688D01*
X404752Y876300D01*
X424752D01*
X426703Y876688D01*
X427452Y877189D01*
X428201Y876688D01*
X430152Y876300D01*
X450152D01*
X452103Y876688D01*
X453757Y877793D01*
X454862Y879447D01*
X455250Y881398D01*
Y901398D01*
X454862Y903349D01*
X453757Y905003D01*
X452103Y906108D01*
X450152Y906496D01*
X430152D01*
X428201Y906108D01*
X427452Y905607D01*
X426703Y906108D01*
X424752Y906496D01*
X404752D01*
X402801Y906108D01*
X402052Y905607D01*
X401303Y906108D01*
X399352Y906496D01*
X379352D01*
X377401Y906108D01*
X376652Y905607D01*
X375903Y906108D01*
X373952Y906496D01*
X353952D01*
X352001Y906108D01*
X351252Y905607D01*
X350503Y906108D01*
X348552Y906496D01*
X328552D01*
X326601Y906108D01*
X325852Y905607D01*
X325103Y906108D01*
X323152Y906496D01*
X303152D01*
X301201Y906108D01*
X300403Y905574D01*
X299601Y906110D01*
X297650Y906498D01*
D02*
G37*
G36*
X907352Y906496D02*
X887352D01*
X885401Y906108D01*
X884652Y905607D01*
X883903Y906108D01*
X881952Y906496D01*
X861952D01*
X860001Y906108D01*
X859252Y905607D01*
X858503Y906108D01*
X856552Y906496D01*
X836552D01*
X834601Y906108D01*
X833852Y905607D01*
X833103Y906108D01*
X831152Y906496D01*
X811152D01*
X809201Y906108D01*
X808452Y905607D01*
X807703Y906108D01*
X805752Y906496D01*
X785752D01*
X783801Y906108D01*
X783052Y905607D01*
X782303Y906108D01*
X780352Y906496D01*
X760352D01*
X758401Y906108D01*
X757652Y905607D01*
X756903Y906108D01*
X754952Y906496D01*
X734952D01*
X733001Y906108D01*
X732252Y905607D01*
X731503Y906108D01*
X729552Y906496D01*
X709552D01*
X707601Y906108D01*
X706852Y905607D01*
X706103Y906108D01*
X704152Y906496D01*
X684152D01*
X682201Y906108D01*
X681452Y905607D01*
X680703Y906108D01*
X678752Y906496D01*
X658752D01*
X656801Y906108D01*
X656052Y905607D01*
X655303Y906108D01*
X653352Y906496D01*
X633352D01*
X631401Y906108D01*
X630652Y905607D01*
X629903Y906108D01*
X627952Y906496D01*
X607952D01*
X606001Y906108D01*
X605252Y905607D01*
X604503Y906108D01*
X602552Y906496D01*
X582552D01*
X580601Y906108D01*
X579852Y905607D01*
X579103Y906108D01*
X577152Y906496D01*
X557152D01*
X555201Y906108D01*
X554452Y905607D01*
X553703Y906108D01*
X551752Y906496D01*
X531752D01*
X529801Y906108D01*
X529052Y905607D01*
X528303Y906108D01*
X526352Y906496D01*
X506352D01*
X504401Y906108D01*
X503652Y905607D01*
X502903Y906108D01*
X500952Y906496D01*
X480952D01*
X479001Y906108D01*
X477347Y905003D01*
X476242Y903349D01*
X475854Y901398D01*
Y881398D01*
X476242Y879447D01*
X477347Y877793D01*
X479001Y876688D01*
X480952Y876300D01*
X500952D01*
X502903Y876688D01*
X503652Y877189D01*
X504401Y876688D01*
X506352Y876300D01*
X526352D01*
X528303Y876688D01*
X529052Y877189D01*
X529801Y876688D01*
X531752Y876300D01*
X551752D01*
X553703Y876688D01*
X554452Y877189D01*
X555201Y876688D01*
X557152Y876300D01*
X577152D01*
X579103Y876688D01*
X579852Y877189D01*
X580601Y876688D01*
X582552Y876300D01*
X602552D01*
X604503Y876688D01*
X605252Y877189D01*
X606001Y876688D01*
X607952Y876300D01*
X627952D01*
X629903Y876688D01*
X630652Y877189D01*
X631401Y876688D01*
X633352Y876300D01*
X653352D01*
X655303Y876688D01*
X656052Y877189D01*
X656801Y876688D01*
X658752Y876300D01*
X678752D01*
X680703Y876688D01*
X681452Y877189D01*
X682201Y876688D01*
X684152Y876300D01*
X704152D01*
X706103Y876688D01*
X706852Y877189D01*
X707601Y876688D01*
X709552Y876300D01*
X729552D01*
X731503Y876688D01*
X732252Y877189D01*
X733001Y876688D01*
X734952Y876300D01*
X754952D01*
X756903Y876688D01*
X757652Y877189D01*
X758401Y876688D01*
X760352Y876300D01*
X780352D01*
X782303Y876688D01*
X783052Y877189D01*
X783801Y876688D01*
X785752Y876300D01*
X805752D01*
X807703Y876688D01*
X808452Y877189D01*
X809201Y876688D01*
X811152Y876300D01*
X831152D01*
X833103Y876688D01*
X833852Y877189D01*
X834601Y876688D01*
X836552Y876300D01*
X856552D01*
X858503Y876688D01*
X859252Y877189D01*
X860001Y876688D01*
X861952Y876300D01*
X881952D01*
X883903Y876688D01*
X884652Y877189D01*
X885401Y876688D01*
X887352Y876300D01*
X907352D01*
X909303Y876688D01*
X910957Y877793D01*
X912062Y879447D01*
X912450Y881398D01*
Y901398D01*
X912062Y903349D01*
X910957Y905003D01*
X909303Y906108D01*
X907352Y906496D01*
D02*
G37*
G36*
X249682Y870733D02*
X245000Y869802D01*
X241031Y867150D01*
X238378Y863180D01*
X238256Y862568D01*
X235707D01*
X235586Y863180D01*
X232934Y867150D01*
X228964Y869802D01*
X224282Y870733D01*
X219600Y869802D01*
X215630Y867150D01*
X212978Y863180D01*
X212857Y862568D01*
X210308D01*
X210186Y863180D01*
X207533Y867150D01*
X203564Y869802D01*
X198882Y870733D01*
X194200Y869802D01*
X190231Y867150D01*
X187578Y863180D01*
X186647Y858498D01*
X187578Y853816D01*
X190231Y849846D01*
X194200Y847194D01*
X198882Y846263D01*
X198894Y846265D01*
X200283Y844187D01*
X200278Y844180D01*
X199347Y839498D01*
X200222Y835096D01*
X200027Y834312D01*
X199110Y832596D01*
X192257D01*
X191733Y836577D01*
X189194Y842707D01*
X185155Y847971D01*
X179891Y852010D01*
X173761Y854549D01*
X167182Y855415D01*
X160604Y854549D01*
X154473Y852010D01*
X149209Y847971D01*
X145170Y842707D01*
X142631Y836577D01*
X141765Y829998D01*
X142631Y823419D01*
X145170Y817289D01*
X149209Y812025D01*
X154473Y807986D01*
X160604Y805447D01*
X167182Y804581D01*
X173761Y805447D01*
X179891Y807986D01*
X184611Y811608D01*
X185585Y811585D01*
X186667Y811380D01*
X187529Y811013D01*
X188277Y809893D01*
X189931Y808788D01*
X191882Y808400D01*
X199110D01*
X200027Y806684D01*
X200222Y805900D01*
X199347Y801498D01*
X200278Y796816D01*
X202931Y792847D01*
X206900Y790194D01*
X211582Y789263D01*
X216264Y790194D01*
X220233Y792847D01*
X222886Y796816D01*
X223008Y797428D01*
X225557D01*
X225678Y796816D01*
X228330Y792847D01*
X232300Y790194D01*
X236982Y789263D01*
X241664Y790194D01*
X245634Y792847D01*
X248286Y796816D01*
X248407Y797428D01*
X250956D01*
X251078Y796816D01*
X253731Y792847D01*
X257700Y790194D01*
X262382Y789263D01*
X267064Y790194D01*
X271033Y792847D01*
X273686Y796816D01*
X274617Y801498D01*
X273686Y806180D01*
X271033Y810150D01*
X267064Y812802D01*
X262382Y813733D01*
X262370Y813731D01*
X260981Y815809D01*
X260986Y815816D01*
X261917Y820498D01*
X260986Y825180D01*
X260981Y825187D01*
X262370Y827265D01*
X262382Y827263D01*
X267064Y828194D01*
X271033Y830846D01*
X273686Y834816D01*
X274617Y839498D01*
X273686Y844180D01*
X271033Y848149D01*
X267064Y850802D01*
X262382Y851733D01*
X262370Y851731D01*
X260981Y853809D01*
X260986Y853816D01*
X261917Y858498D01*
X260986Y863180D01*
X258333Y867150D01*
X254364Y869802D01*
X249682Y870733D01*
D02*
G37*
G36*
X1041362Y779768D02*
X1037446Y779252D01*
X1033797Y777741D01*
X1030664Y775336D01*
X1028260Y772203D01*
X1026748Y768554D01*
X1026233Y764638D01*
X1026748Y760722D01*
X1028260Y757074D01*
X1030664Y753940D01*
X1033797Y751536D01*
X1037446Y750024D01*
X1041362Y749509D01*
X1045278Y750024D01*
X1048927Y751536D01*
X1052060Y753940D01*
X1054465Y757074D01*
X1055976Y760722D01*
X1056492Y764638D01*
X1055976Y768554D01*
X1054465Y772203D01*
X1052060Y775336D01*
X1048927Y777741D01*
X1045278Y779252D01*
X1041362Y779768D01*
D02*
G37*
G36*
X908652Y778904D02*
X888652D01*
X886701Y778516D01*
X885047Y777411D01*
X883942Y775757D01*
X883554Y773806D01*
Y753806D01*
X883942Y751855D01*
X885047Y750201D01*
X886701Y749096D01*
X888652Y748708D01*
X908652D01*
X910603Y749096D01*
X912257Y750201D01*
X913362Y751855D01*
X913750Y753806D01*
Y773806D01*
X913362Y775757D01*
X912257Y777411D01*
X910603Y778516D01*
X908652Y778904D01*
D02*
G37*
G36*
X173830Y783984D02*
X153830D01*
X151879Y783596D01*
X150225Y782491D01*
X149120Y780837D01*
X148732Y778886D01*
Y758886D01*
X149120Y756935D01*
X150225Y755281D01*
X151879Y754176D01*
X153830Y753788D01*
X173830D01*
X175781Y754176D01*
X177435Y755281D01*
X178540Y756935D01*
X178928Y758886D01*
Y778886D01*
X178540Y780837D01*
X177435Y782491D01*
X175781Y783596D01*
X173830Y783984D01*
D02*
G37*
G36*
X127602Y782968D02*
X107602D01*
X105651Y782580D01*
X103997Y781475D01*
X102892Y779821D01*
X102504Y777870D01*
Y757870D01*
X102892Y755919D01*
X103997Y754265D01*
X105651Y753160D01*
X107602Y752772D01*
X127602D01*
X129553Y753160D01*
X131207Y754265D01*
X132312Y755919D01*
X132700Y757870D01*
Y777870D01*
X132312Y779821D01*
X131207Y781475D01*
X129553Y782580D01*
X127602Y782968D01*
D02*
G37*
G36*
X489552Y541595D02*
X486821Y541052D01*
X484505Y539505D01*
X483699D01*
X481383Y541052D01*
X478652Y541595D01*
X475921Y541052D01*
X475099Y540503D01*
X473249Y539652D01*
X471250Y540480D01*
X470483Y540992D01*
X467752Y541535D01*
X465021Y540992D01*
X462705Y539445D01*
X461158Y537129D01*
X460615Y534398D01*
X461112Y531898D01*
X460615Y529398D01*
X461112Y526898D01*
X460615Y524398D01*
X461112Y521898D01*
X460615Y519398D01*
X461112Y516898D01*
X460615Y514398D01*
X461112Y511898D01*
X460615Y509398D01*
X461112Y506898D01*
X460615Y504398D01*
X461158Y501667D01*
X462705Y499351D01*
X465021Y497804D01*
X466088Y497592D01*
X465841Y495092D01*
X453819D01*
X452233Y497024D01*
X452401Y497868D01*
X451819Y500794D01*
X450161Y503275D01*
X447680Y504933D01*
X444754Y505515D01*
X441828Y504933D01*
X439347Y503275D01*
X437689Y500794D01*
X437107Y497868D01*
X437275Y497024D01*
X435689Y495092D01*
X397346D01*
X392583Y498747D01*
X385893Y501518D01*
X378714Y502463D01*
X371535Y501518D01*
X364845Y498747D01*
X359101Y494339D01*
X354693Y488595D01*
X351922Y481905D01*
X350977Y474726D01*
X351922Y467547D01*
X354693Y460857D01*
X359101Y455113D01*
X364845Y450705D01*
X371535Y447934D01*
X378714Y446989D01*
X385893Y447934D01*
X392344Y450606D01*
X432057D01*
X432096Y450602D01*
X432384Y450483D01*
X432421Y450446D01*
X432540Y450158D01*
X432544Y450120D01*
Y438794D01*
X432932Y436843D01*
X433821Y434696D01*
X434927Y433042D01*
X436570Y431399D01*
X438224Y430294D01*
X440371Y429404D01*
X442322Y429016D01*
X443838D01*
X445175Y426516D01*
X444739Y425864D01*
X444157Y422938D01*
X444739Y420012D01*
X445640Y418664D01*
X444303Y416164D01*
X442374D01*
X440423Y415776D01*
X438769Y414671D01*
X437664Y413017D01*
X437276Y411066D01*
Y391066D01*
X437664Y389115D01*
X438769Y387461D01*
X440423Y386356D01*
X442374Y385968D01*
X460887D01*
X461261Y385512D01*
X461758Y383012D01*
X461261Y380512D01*
X461758Y378012D01*
X461261Y375512D01*
X461758Y373012D01*
X461261Y370512D01*
X461804Y367781D01*
X463351Y365465D01*
X465667Y363918D01*
X468367Y363381D01*
X468801Y362731D01*
X471117Y361184D01*
X473848Y360641D01*
X476579Y361184D01*
X478895Y362731D01*
X481340Y361891D01*
X482017Y361438D01*
X484748Y360895D01*
X487479Y361438D01*
X489795Y362985D01*
X490601Y362791D01*
X492917Y361244D01*
X495648Y360701D01*
X498379Y361244D01*
X500695Y362791D01*
X503140Y361951D01*
X503817Y361498D01*
X506548Y360955D01*
X509279Y361498D01*
X509984Y361969D01*
X512401Y362851D01*
X514717Y361304D01*
X517448Y360761D01*
X520179Y361304D01*
X522495Y362851D01*
X524940Y362011D01*
X525617Y361558D01*
X528348Y361015D01*
X531079Y361558D01*
X533395Y363105D01*
X533707Y363573D01*
X533798Y363555D01*
X536529Y364098D01*
X538845Y365645D01*
X539932Y367273D01*
X542432Y366514D01*
Y361630D01*
X542820Y359679D01*
X543925Y358025D01*
X545579Y356920D01*
X547530Y356532D01*
X567530D01*
X569481Y356920D01*
X571135Y358025D01*
X572240Y359679D01*
X572628Y361630D01*
Y381630D01*
X572240Y383581D01*
X571135Y385235D01*
X569481Y386340D01*
X567530Y386728D01*
X547530D01*
X545579Y386340D01*
X543925Y385235D01*
X543168Y384101D01*
X540813Y385076D01*
X540935Y385692D01*
X540438Y388192D01*
X540935Y390692D01*
X540438Y393192D01*
X540935Y395692D01*
X540438Y398192D01*
X540935Y400692D01*
X540392Y403423D01*
X538845Y405739D01*
X536529Y407286D01*
X533798Y407829D01*
X531067Y407286D01*
X528751Y405739D01*
X527945D01*
X525629Y407286D01*
X522898Y407829D01*
X520167Y407286D01*
X519345Y406736D01*
X517495Y405886D01*
X515496Y406713D01*
X514729Y407226D01*
X511998Y407769D01*
X509267Y407226D01*
X506951Y405679D01*
X506145D01*
X503829Y407226D01*
X501098Y407769D01*
X498367Y407226D01*
X496051Y405679D01*
X496011Y405619D01*
X495245D01*
X492929Y407166D01*
X490198Y407709D01*
X487467Y407166D01*
X485151Y405619D01*
X484345D01*
X482029Y407166D01*
X479298Y407709D01*
X476567Y407166D01*
X475745Y406617D01*
X473895Y405766D01*
X471896Y406594D01*
X471129Y407106D01*
X468398Y407649D01*
X467472Y408409D01*
Y411066D01*
X467084Y413017D01*
X465979Y414671D01*
X464325Y415776D01*
X462374Y416164D01*
X459305D01*
X457968Y418664D01*
X458869Y420012D01*
X459451Y422938D01*
X458869Y425864D01*
X458433Y426516D01*
X459770Y429016D01*
X488996D01*
X490947Y429404D01*
X492441Y430023D01*
X494095Y431128D01*
X495238Y432271D01*
X496343Y433925D01*
X496962Y435419D01*
X497350Y437370D01*
Y484152D01*
Y485314D01*
X496962Y487265D01*
X496073Y489412D01*
X494967Y491066D01*
X493324Y492709D01*
X491670Y493815D01*
X490713Y496788D01*
X490975Y497405D01*
X491213Y497651D01*
X492283Y497864D01*
X494599Y499411D01*
X496146Y501727D01*
X496689Y504458D01*
X496192Y506958D01*
X496689Y509458D01*
X496192Y511958D01*
X496689Y514458D01*
X496192Y516958D01*
X496689Y519458D01*
X496192Y521958D01*
X496689Y524458D01*
X496192Y526958D01*
X496689Y529458D01*
X496192Y531958D01*
X496689Y534458D01*
X496146Y537189D01*
X494599Y539505D01*
X492283Y541052D01*
X489552Y541595D01*
D02*
G37*
G36*
X940308Y503991D02*
X937382Y503409D01*
X934901Y501751D01*
X933243Y499270D01*
X932661Y496344D01*
X933243Y493418D01*
X934901Y490937D01*
X937382Y489279D01*
X940308Y488697D01*
X943234Y489279D01*
X945715Y490937D01*
X947373Y493418D01*
X947955Y496344D01*
X947373Y499270D01*
X945715Y501751D01*
X943234Y503409D01*
X940308Y503991D01*
D02*
G37*
G36*
X56482Y506616D02*
X36482D01*
X34531Y506228D01*
X32877Y505123D01*
X31772Y503469D01*
X31384Y501518D01*
Y481518D01*
X31772Y479567D01*
X32877Y477913D01*
X34531Y476808D01*
X36482Y476420D01*
X56482D01*
X58433Y476808D01*
X60087Y477913D01*
X61192Y479567D01*
X61580Y481518D01*
Y501518D01*
X61192Y503469D01*
X60087Y505123D01*
X58433Y506228D01*
X56482Y506616D01*
D02*
G37*
G36*
X622300Y505261D02*
X619374Y504679D01*
X616893Y503021D01*
X615235Y500540D01*
X614653Y497614D01*
X615235Y494688D01*
X616893Y492207D01*
X619374Y490549D01*
X622300Y489967D01*
X625226Y490549D01*
X627707Y492207D01*
X629365Y494688D01*
X629947Y497614D01*
X629365Y500540D01*
X627707Y503021D01*
X625226Y504679D01*
X622300Y505261D01*
D02*
G37*
G36*
X779018Y504499D02*
X776092Y503917D01*
X773611Y502259D01*
X771953Y499778D01*
X771371Y496852D01*
X771953Y493926D01*
X773611Y491445D01*
X776092Y489787D01*
X779018Y489205D01*
X781944Y489787D01*
X784425Y491445D01*
X786083Y493926D01*
X786665Y496852D01*
X786083Y499778D01*
X784425Y502259D01*
X781944Y503917D01*
X779018Y504499D01*
D02*
G37*
G36*
X574294Y490119D02*
X571368Y489537D01*
X568887Y487879D01*
X567229Y485398D01*
X566647Y482472D01*
X567229Y479546D01*
X568887Y477065D01*
X571368Y475407D01*
X574294Y474825D01*
X577220Y475407D01*
X579701Y477065D01*
X581359Y479546D01*
X581941Y482472D01*
X581359Y485398D01*
X579701Y487879D01*
X577220Y489537D01*
X574294Y490119D01*
D02*
G37*
G36*
X704088Y457763D02*
X701162Y457181D01*
X698681Y455523D01*
X697023Y453042D01*
X696441Y450116D01*
X697023Y447190D01*
X698681Y444709D01*
X701162Y443051D01*
X704088Y442469D01*
X707014Y443051D01*
X709495Y444709D01*
X711153Y447190D01*
X711735Y450116D01*
X711153Y453042D01*
X709495Y455523D01*
X707014Y457181D01*
X704088Y457763D01*
D02*
G37*
G36*
X1021334Y458273D02*
X1018213Y457652D01*
X1015566Y455884D01*
X1013798Y453237D01*
X1013177Y450116D01*
X1013798Y446995D01*
X1015566Y444348D01*
X1018213Y442580D01*
X1021334Y441959D01*
X1024455Y442580D01*
X1027102Y444348D01*
X1028870Y446995D01*
X1029491Y450116D01*
X1028870Y453237D01*
X1027102Y455884D01*
X1024455Y457652D01*
X1021334Y458273D01*
D02*
G37*
G36*
X566674Y461545D02*
X563748Y460963D01*
X561267Y459305D01*
X559609Y456824D01*
X559027Y453898D01*
X559609Y450972D01*
X561267Y448491D01*
X563748Y446833D01*
X566674Y446251D01*
X569600Y446833D01*
X572081Y448491D01*
X573739Y450972D01*
X574321Y453898D01*
X573739Y456824D01*
X572081Y459305D01*
X569600Y460963D01*
X566674Y461545D01*
D02*
G37*
G36*
X859282Y457763D02*
X856356Y457181D01*
X853875Y455523D01*
X852217Y453042D01*
X851635Y450116D01*
X852217Y447190D01*
X853875Y444709D01*
X856356Y443051D01*
X859282Y442469D01*
X862208Y443051D01*
X864689Y444709D01*
X866347Y447190D01*
X866929Y450116D01*
X866347Y453042D01*
X864689Y455523D01*
X862208Y457181D01*
X859282Y457763D01*
D02*
G37*
G36*
X915162Y539297D02*
X912236Y538715D01*
X909755Y537057D01*
X908097Y534576D01*
X907515Y531650D01*
X908097Y528724D01*
X909755Y526243D01*
X912236Y524585D01*
X915162Y524003D01*
X918088Y524585D01*
X920569Y526243D01*
X922227Y528724D01*
X922809Y531650D01*
X922227Y534576D01*
X920569Y537057D01*
X918088Y538715D01*
X915162Y539297D01*
D02*
G37*
G36*
X754888Y537773D02*
X751962Y537191D01*
X749481Y535533D01*
X747823Y533052D01*
X747241Y530126D01*
X747823Y527200D01*
X749481Y524719D01*
X751962Y523061D01*
X754888Y522479D01*
X757814Y523061D01*
X760295Y524719D01*
X761953Y527200D01*
X762535Y530126D01*
X761953Y533052D01*
X760295Y535533D01*
X757814Y537191D01*
X754888Y537773D01*
D02*
G37*
G36*
X536796Y581292D02*
X516796D01*
X514845Y580904D01*
X513191Y579799D01*
X512086Y578145D01*
X511698Y576194D01*
Y556194D01*
X512086Y554243D01*
X513191Y552589D01*
X514845Y551484D01*
X516796Y551096D01*
X536796D01*
X538747Y551484D01*
X539557Y552026D01*
X541195Y550243D01*
X540672Y549562D01*
X538951Y547318D01*
X537540Y543913D01*
X537059Y540258D01*
X537540Y536603D01*
X538951Y533198D01*
X541195Y530273D01*
X544120Y528029D01*
X547525Y526618D01*
X551180Y526137D01*
X554835Y526618D01*
X558240Y528029D01*
X561165Y530273D01*
X563409Y533198D01*
X563422Y533230D01*
X566243Y533508D01*
X566855Y532593D01*
X569336Y530935D01*
X572262Y530353D01*
X575188Y530935D01*
X577669Y532593D01*
X579327Y535074D01*
X579909Y538000D01*
X579327Y540926D01*
X577669Y543407D01*
X575188Y545065D01*
X572262Y545647D01*
X569336Y545065D01*
X567363Y543747D01*
X566340Y543814D01*
X565527Y544043D01*
X564577Y544498D01*
X563409Y547318D01*
X561165Y550243D01*
X558240Y552487D01*
X554835Y553898D01*
X551180Y554379D01*
X547525Y553898D01*
X544120Y552487D01*
X543116Y551717D01*
X542518Y551258D01*
X540669Y552990D01*
X541506Y554243D01*
X541894Y556194D01*
Y576194D01*
X541506Y578145D01*
X540401Y579799D01*
X538747Y580904D01*
X536796Y581292D01*
D02*
G37*
G36*
X622584Y540567D02*
X619658Y539985D01*
X617177Y538327D01*
X615519Y535846D01*
X614937Y532920D01*
X615519Y529994D01*
X617177Y527513D01*
X619658Y525855D01*
X622584Y525273D01*
X625510Y525855D01*
X627991Y527513D01*
X629649Y529994D01*
X630231Y532920D01*
X629649Y535846D01*
X627991Y538327D01*
X625510Y539985D01*
X622584Y540567D01*
D02*
G37*
G36*
X941832Y537265D02*
X938906Y536683D01*
X936425Y535025D01*
X934767Y532544D01*
X934185Y529618D01*
X934767Y526692D01*
X936425Y524211D01*
X938906Y522553D01*
X941832Y521971D01*
X944758Y522553D01*
X947239Y524211D01*
X948897Y526692D01*
X949479Y529618D01*
X948897Y532544D01*
X947239Y535025D01*
X944758Y536683D01*
X941832Y537265D01*
D02*
G37*
G36*
X574294Y512119D02*
X571368Y511537D01*
X568887Y509879D01*
X567229Y507398D01*
X566647Y504472D01*
X567229Y501546D01*
X568887Y499065D01*
X571368Y497407D01*
X574294Y496825D01*
X577220Y497407D01*
X579701Y499065D01*
X581359Y501546D01*
X581941Y504472D01*
X581359Y507398D01*
X579701Y509879D01*
X577220Y511537D01*
X574294Y512119D01*
D02*
G37*
G36*
X554990Y511865D02*
X552064Y511283D01*
X549583Y509625D01*
X547925Y507144D01*
X547343Y504218D01*
X547925Y501292D01*
X549583Y498811D01*
X552064Y497153D01*
X554990Y496571D01*
X557916Y497153D01*
X560397Y498811D01*
X562055Y501292D01*
X562637Y504218D01*
X562055Y507144D01*
X560397Y509625D01*
X557916Y511283D01*
X554990Y511865D01*
D02*
G37*
G36*
X782828Y536249D02*
X779902Y535667D01*
X777421Y534009D01*
X775763Y531528D01*
X775181Y528602D01*
X775763Y525676D01*
X777421Y523195D01*
X779902Y521537D01*
X782828Y520955D01*
X785754Y521537D01*
X788235Y523195D01*
X789893Y525676D01*
X790475Y528602D01*
X789893Y531528D01*
X788235Y534009D01*
X785754Y535667D01*
X782828Y536249D01*
D02*
G37*
G36*
X312928Y554787D02*
X305749Y553842D01*
X299059Y551071D01*
X293315Y546663D01*
X288907Y540919D01*
X286136Y534229D01*
X285191Y527050D01*
X286136Y519871D01*
X288907Y513181D01*
X293315Y507437D01*
X299059Y503029D01*
X305749Y500258D01*
X312928Y499313D01*
X320107Y500258D01*
X326797Y503029D01*
X332541Y507437D01*
X336949Y513181D01*
X339720Y519871D01*
X340665Y527050D01*
X339720Y534229D01*
X336949Y540919D01*
X332541Y546663D01*
X326797Y551071D01*
X320107Y553842D01*
X312928Y554787D01*
D02*
G37*
%LPD*%
G36*
X489719Y489105D02*
X491363Y487461D01*
X492252Y485314D01*
Y484152D01*
Y438178D01*
Y437370D01*
X491633Y435876D01*
X490490Y434733D01*
X488996Y434114D01*
X442322D01*
X440175Y435003D01*
X438531Y436647D01*
X437642Y438794D01*
Y439956D01*
Y450370D01*
X437539Y451411D01*
X436743Y453333D01*
X435271Y454805D01*
X433349Y455602D01*
X432308Y455704D01*
X391522D01*
X389375Y456593D01*
X387731Y458237D01*
X386842Y460384D01*
Y461546D01*
X386588Y484152D01*
Y485930D01*
Y486738D01*
X387207Y488232D01*
X388350Y489375D01*
X389844Y489994D01*
X487572D01*
X489719Y489105D01*
D02*
G37*
D35*
X427990Y138938D02*
D03*
D36*
X668636Y119578D02*
D03*
X951122Y91722D02*
D03*
X104032Y101628D02*
D03*
D44*
X553000Y461000D02*
D03*
X73152Y636016D02*
D03*
X404622Y262858D02*
D03*
X1022604Y493234D02*
D03*
X861314Y493550D02*
D03*
X836930Y450878D02*
D03*
X537464Y717578D02*
D03*
X655066Y718594D02*
D03*
X780288Y716308D02*
D03*
X228092Y74898D02*
D03*
X297942D02*
D03*
X427990Y702564D02*
D03*
X704000Y494250D02*
D03*
X529250Y494000D02*
D03*
X1000250Y453250D02*
D03*
X681000Y455000D02*
D03*
X506750Y455500D02*
D03*
X510286Y194564D02*
D03*
D45*
X374000Y176000D02*
D03*
X398000Y147000D02*
D03*
X529336Y534314D02*
D03*
X929386Y399508D02*
D03*
X822260Y425732D02*
D03*
X765556Y398238D02*
D03*
X577658Y422684D02*
D03*
X525334Y415826D02*
D03*
X1025446Y463578D02*
D03*
X1024066Y515648D02*
D03*
X863696Y463578D02*
D03*
X861506Y518188D02*
D03*
X805626Y514378D02*
D03*
X706676Y463578D02*
D03*
X704026Y516918D02*
D03*
X649416Y514378D02*
D03*
X968186Y514378D02*
D03*
X531622Y459514D02*
D03*
X577404Y398046D02*
D03*
X667766Y398300D02*
D03*
X502920Y533400D02*
D03*
X602488Y398526D02*
D03*
X665288Y425732D02*
D03*
X985582Y425986D02*
D03*
X404368Y425704D02*
D03*
X822260Y402110D02*
D03*
X985328Y401348D02*
D03*
X526166Y191036D02*
D03*
D46*
X467912Y480042D02*
D03*
Y475042D02*
D03*
Y470042D02*
D03*
Y465042D02*
D03*
Y460042D02*
D03*
Y455042D02*
D03*
Y450042D02*
D03*
X473362Y447308D02*
D03*
Y452308D02*
D03*
Y457308D02*
D03*
Y462308D02*
D03*
Y467308D02*
D03*
Y472308D02*
D03*
Y477308D02*
D03*
X478812Y450102D02*
D03*
Y455102D02*
D03*
Y460102D02*
D03*
Y465102D02*
D03*
Y470102D02*
D03*
Y475102D02*
D03*
Y480102D02*
D03*
X484262Y447562D02*
D03*
Y452562D02*
D03*
Y457562D02*
D03*
Y462562D02*
D03*
Y467562D02*
D03*
Y472562D02*
D03*
Y477562D02*
D03*
X489712Y450102D02*
D03*
Y455102D02*
D03*
Y460102D02*
D03*
Y470102D02*
D03*
Y475102D02*
D03*
Y480102D02*
D03*
Y465102D02*
D03*
D49*
X378714Y474726D02*
D03*
M02*
