G04 Layer_Physical_Order=4*
G04 Layer_Color=16440176*
%FSLAX44Y44*%
%MOMM*%
G71*
G01*
G75*
%ADD10C,0.3000*%
%ADD31R,2.0000X2.0000*%
%ADD34O,2.3000X1.3000*%
%ADD36C,2.0000*%
%ADD41C,1.4000*%
%ADD45C,0.5000*%
%ADD46C,0.4000*%
%ADD48C,0.6000*%
%ADD50O,1.1000X1.7000*%
%ADD51C,0.3000*%
G36*
X1150000Y0D02*
X0D01*
Y950000D01*
X1150000D01*
Y0D01*
D02*
G37*
%LPC*%
G36*
X647250Y368956D02*
X627250D01*
X625337Y368163D01*
X624544Y366250D01*
Y346250D01*
X625337Y344337D01*
X627250Y343544D01*
X647250D01*
X649163Y344337D01*
X649956Y346250D01*
Y366250D01*
X649163Y368163D01*
X647250Y368956D01*
D02*
G37*
G36*
X567530Y384336D02*
X547530D01*
X545617Y383543D01*
X544824Y381630D01*
Y361630D01*
X545617Y359717D01*
X547530Y358924D01*
X567530D01*
X569443Y359717D01*
X570236Y361630D01*
Y381630D01*
X569443Y383543D01*
X567530Y384336D01*
D02*
G37*
G36*
X805782Y355634D02*
X785782D01*
X783869Y354841D01*
X783076Y352928D01*
Y332928D01*
X783869Y331015D01*
X785782Y330222D01*
X805782D01*
X807695Y331015D01*
X808488Y332928D01*
Y352928D01*
X807695Y354841D01*
X805782Y355634D01*
D02*
G37*
G36*
X532804Y323400D02*
X521804D01*
X519891Y322607D01*
X519098Y320694D01*
Y303694D01*
X519891Y301781D01*
X521804Y300988D01*
X532804D01*
X534717Y301781D01*
X535147Y302818D01*
X536883Y301658D01*
X540004Y301037D01*
X543125Y301658D01*
X545772Y303426D01*
X547540Y306073D01*
X548161Y309194D01*
Y315194D01*
X547540Y318315D01*
X545772Y320962D01*
X543125Y322730D01*
X540004Y323351D01*
X536883Y322730D01*
X535147Y321570D01*
X534717Y322607D01*
X532804Y323400D01*
D02*
G37*
G36*
X941672Y353094D02*
X921672D01*
X919759Y352301D01*
X918966Y350388D01*
Y330388D01*
X919759Y328475D01*
X921672Y327682D01*
X941672D01*
X943585Y328475D01*
X944378Y330388D01*
Y350388D01*
X943585Y352301D01*
X941672Y353094D01*
D02*
G37*
G36*
X667766Y403398D02*
X665815Y403010D01*
X664161Y401905D01*
X663056Y400251D01*
X662668Y398300D01*
X663056Y396349D01*
X664161Y394695D01*
X665815Y393590D01*
X667766Y393202D01*
X669717Y393590D01*
X671371Y394695D01*
X672476Y396349D01*
X672864Y398300D01*
X672476Y400251D01*
X671371Y401905D01*
X669717Y403010D01*
X667766Y403398D01*
D02*
G37*
G36*
X602488Y403624D02*
X600537Y403236D01*
X598883Y402131D01*
X597778Y400477D01*
X597390Y398526D01*
X597778Y396575D01*
X598883Y394921D01*
X600537Y393816D01*
X602488Y393428D01*
X604439Y393816D01*
X606093Y394921D01*
X607198Y396575D01*
X607586Y398526D01*
X607198Y400477D01*
X606093Y402131D01*
X604439Y403236D01*
X602488Y403624D01*
D02*
G37*
G36*
X765556Y403336D02*
X763605Y402948D01*
X761951Y401843D01*
X760846Y400189D01*
X760458Y398238D01*
X760846Y396287D01*
X761951Y394633D01*
X763605Y393528D01*
X765556Y393140D01*
X767507Y393528D01*
X769161Y394633D01*
X770266Y396287D01*
X770654Y398238D01*
X770266Y400189D01*
X769161Y401843D01*
X767507Y402948D01*
X765556Y403336D01*
D02*
G37*
G36*
X462374Y413772D02*
X442374D01*
X440461Y412979D01*
X439668Y411066D01*
Y391066D01*
X440461Y389153D01*
X442374Y388360D01*
X462374D01*
X464096Y389073D01*
X464159Y388756D01*
X464656Y388012D01*
X464159Y387268D01*
X463810Y385512D01*
X464159Y383756D01*
X464656Y383012D01*
X464159Y382268D01*
X463810Y380512D01*
X464159Y378756D01*
X464656Y378012D01*
X464159Y377268D01*
X463810Y375512D01*
X464159Y373756D01*
X464656Y373012D01*
X464159Y372268D01*
X463810Y370512D01*
X464159Y368756D01*
X465154Y367268D01*
X466642Y366273D01*
X468398Y365924D01*
X469582Y366159D01*
X469609Y366022D01*
X470604Y364534D01*
X472092Y363539D01*
X473848Y363190D01*
X475604Y363539D01*
X477092Y364534D01*
X478087Y366022D01*
X478126Y366217D01*
X479298Y365984D01*
X480540Y366231D01*
X481504Y364788D01*
X482992Y363793D01*
X484748Y363444D01*
X486504Y363793D01*
X487992Y364788D01*
X488957Y366231D01*
X490198Y365984D01*
X491382Y366219D01*
X491409Y366082D01*
X492404Y364594D01*
X493892Y363599D01*
X495648Y363250D01*
X497404Y363599D01*
X498892Y364594D01*
X499887Y366082D01*
X499926Y366277D01*
X501098Y366044D01*
X502340Y366291D01*
X503304Y364848D01*
X504792Y363853D01*
X506548Y363504D01*
X508304Y363853D01*
X509792Y364848D01*
X510757Y366291D01*
X511998Y366044D01*
X513182Y366279D01*
X513209Y366142D01*
X514204Y364654D01*
X515692Y363659D01*
X517448Y363310D01*
X519204Y363659D01*
X520692Y364654D01*
X521687Y366142D01*
X521726Y366337D01*
X522898Y366104D01*
X524140Y366351D01*
X525104Y364908D01*
X526592Y363913D01*
X528348Y363564D01*
X530104Y363913D01*
X531592Y364908D01*
X532557Y366351D01*
X533798Y366104D01*
X535554Y366453D01*
X537042Y367448D01*
X538037Y368936D01*
X538386Y370692D01*
X538037Y372448D01*
X537540Y373192D01*
X538037Y373936D01*
X538386Y375692D01*
X538037Y377448D01*
X537540Y378192D01*
X538037Y378936D01*
X538386Y380692D01*
X538037Y382448D01*
X537540Y383192D01*
X538037Y383936D01*
X538386Y385692D01*
X538037Y387448D01*
X537540Y388192D01*
X538037Y388936D01*
X538386Y390692D01*
X538037Y392448D01*
X537540Y393192D01*
X538037Y393936D01*
X538386Y395692D01*
X538037Y397448D01*
X537540Y398192D01*
X538037Y398936D01*
X538386Y400692D01*
X538037Y402448D01*
X537042Y403936D01*
X535554Y404931D01*
X533798Y405280D01*
X532042Y404931D01*
X530554Y403936D01*
X529590Y402493D01*
X528348Y402740D01*
X527107Y402493D01*
X526142Y403936D01*
X524654Y404931D01*
X522898Y405280D01*
X521142Y404931D01*
X519654Y403936D01*
X518659Y402448D01*
X518620Y402253D01*
X517448Y402486D01*
X516264Y402251D01*
X516237Y402388D01*
X515242Y403876D01*
X513754Y404871D01*
X511998Y405220D01*
X510242Y404871D01*
X508754Y403876D01*
X507789Y402433D01*
X506548Y402680D01*
X505307Y402433D01*
X504342Y403876D01*
X502854Y404871D01*
X501098Y405220D01*
X499342Y404871D01*
X497854Y403876D01*
X496859Y402388D01*
X496820Y402193D01*
X495648Y402426D01*
X494464Y402191D01*
X494437Y402328D01*
X493442Y403816D01*
X491954Y404811D01*
X490198Y405160D01*
X488442Y404811D01*
X486954Y403816D01*
X485989Y402373D01*
X484748Y402620D01*
X483507Y402373D01*
X482542Y403816D01*
X481054Y404811D01*
X479298Y405160D01*
X477542Y404811D01*
X476054Y403816D01*
X475059Y402328D01*
X475020Y402133D01*
X473848Y402366D01*
X472664Y402131D01*
X472637Y402268D01*
X471642Y403756D01*
X470154Y404751D01*
X468398Y405100D01*
X466642Y404751D01*
X465154Y403756D01*
X465080Y403646D01*
Y411066D01*
X464287Y412979D01*
X462374Y413772D01*
D02*
G37*
G36*
X577404Y403144D02*
X575453Y402756D01*
X573799Y401651D01*
X572694Y399997D01*
X572306Y398046D01*
X572694Y396095D01*
X573799Y394441D01*
X575453Y393336D01*
X577404Y392948D01*
X579355Y393336D01*
X581009Y394441D01*
X582114Y396095D01*
X582502Y398046D01*
X582114Y399997D01*
X581009Y401651D01*
X579355Y402756D01*
X577404Y403144D01*
D02*
G37*
G36*
X953008Y307309D02*
X948326Y306378D01*
X944357Y303725D01*
X941704Y299756D01*
X940773Y295074D01*
Y288674D01*
X941704Y283992D01*
X944357Y280023D01*
X948326Y277370D01*
X953008Y276439D01*
X957690Y277370D01*
X961659Y280023D01*
X964312Y283992D01*
X965243Y288674D01*
Y295074D01*
X964312Y299756D01*
X961659Y303725D01*
X957690Y306378D01*
X953008Y307309D01*
D02*
G37*
G36*
X978408D02*
X973726Y306378D01*
X969756Y303725D01*
X967104Y299756D01*
X966173Y295074D01*
Y288674D01*
X967104Y283992D01*
X969756Y280023D01*
X973726Y277370D01*
X978408Y276439D01*
X983090Y277370D01*
X987059Y280023D01*
X989712Y283992D01*
X990643Y288674D01*
Y295074D01*
X989712Y299756D01*
X987059Y303725D01*
X983090Y306378D01*
X978408Y307309D01*
D02*
G37*
G36*
X927608D02*
X922926Y306378D01*
X918957Y303725D01*
X916304Y299756D01*
X915373Y295074D01*
Y288674D01*
X916304Y283992D01*
X918957Y280023D01*
X922926Y277370D01*
X927608Y276439D01*
X932290Y277370D01*
X936260Y280023D01*
X938912Y283992D01*
X939843Y288674D01*
Y295074D01*
X938912Y299756D01*
X936260Y303725D01*
X932290Y306378D01*
X927608Y307309D01*
D02*
G37*
G36*
X830908Y266125D02*
X820908D01*
X817396Y265427D01*
X814419Y263438D01*
X812430Y260461D01*
X811732Y256949D01*
X812430Y253437D01*
X814419Y250460D01*
X817396Y248471D01*
X820908Y247773D01*
X830908D01*
X834420Y248471D01*
X837397Y250460D01*
X839386Y253437D01*
X840084Y256949D01*
X839386Y260461D01*
X837397Y263438D01*
X834420Y265427D01*
X830908Y266125D01*
D02*
G37*
G36*
X591894Y266633D02*
X581894D01*
X578382Y265935D01*
X575405Y263946D01*
X573416Y260969D01*
X572718Y257457D01*
X573416Y253945D01*
X575405Y250968D01*
X578382Y248979D01*
X581894Y248281D01*
X591894D01*
X595406Y248979D01*
X598383Y250968D01*
X600372Y253945D01*
X601070Y257457D01*
X600372Y260969D01*
X598383Y263946D01*
X595406Y265935D01*
X591894Y266633D01*
D02*
G37*
G36*
X739394Y307817D02*
X734712Y306886D01*
X730742Y304233D01*
X728090Y300264D01*
X727159Y295582D01*
Y289182D01*
X728090Y284500D01*
X730742Y280530D01*
X734712Y277878D01*
X739394Y276947D01*
X744076Y277878D01*
X748046Y280530D01*
X750698Y284500D01*
X751629Y289182D01*
Y295582D01*
X750698Y300264D01*
X748046Y304233D01*
X744076Y306886D01*
X739394Y307817D01*
D02*
G37*
G36*
X764794D02*
X760112Y306886D01*
X756143Y304233D01*
X753490Y300264D01*
X752559Y295582D01*
Y289182D01*
X753490Y284500D01*
X756143Y280530D01*
X760112Y277878D01*
X764794Y276947D01*
X769476Y277878D01*
X773446Y280530D01*
X776098Y284500D01*
X777029Y289182D01*
Y295582D01*
X776098Y300264D01*
X773446Y304233D01*
X769476Y306886D01*
X764794Y307817D01*
D02*
G37*
G36*
X713994D02*
X709312Y306886D01*
X705342Y304233D01*
X702690Y300264D01*
X701759Y295582D01*
Y289182D01*
X702690Y284500D01*
X705342Y280530D01*
X709312Y277878D01*
X713994Y276947D01*
X718676Y277878D01*
X722645Y280530D01*
X725298Y284500D01*
X726229Y289182D01*
Y295582D01*
X725298Y300264D01*
X722645Y304233D01*
X718676Y306886D01*
X713994Y307817D01*
D02*
G37*
G36*
X1003808Y307309D02*
X999126Y306378D01*
X995156Y303725D01*
X992504Y299756D01*
X991573Y295074D01*
Y288674D01*
X992504Y283992D01*
X995156Y280023D01*
X999126Y277370D01*
X1003808Y276439D01*
X1008490Y277370D01*
X1012459Y280023D01*
X1015112Y283992D01*
X1016043Y288674D01*
Y295074D01*
X1015112Y299756D01*
X1012459Y303725D01*
X1008490Y306378D01*
X1003808Y307309D01*
D02*
G37*
G36*
X688594Y307817D02*
X683912Y306886D01*
X679942Y304233D01*
X677290Y300264D01*
X676359Y295582D01*
Y289182D01*
X677290Y284500D01*
X679942Y280530D01*
X683912Y277878D01*
X688594Y276947D01*
X693276Y277878D01*
X697245Y280530D01*
X699898Y284500D01*
X700829Y289182D01*
Y295582D01*
X699898Y300264D01*
X697245Y304233D01*
X693276Y306886D01*
X688594Y307817D01*
D02*
G37*
G36*
X929386Y430606D02*
X927435Y430218D01*
X925781Y429113D01*
X924676Y427459D01*
X924288Y425508D01*
X924676Y423557D01*
X925781Y421903D01*
X927435Y420798D01*
X929386Y420410D01*
X931337Y420798D01*
X932991Y421903D01*
X934096Y423557D01*
X934484Y425508D01*
X934096Y427459D01*
X932991Y429113D01*
X931337Y430218D01*
X929386Y430606D01*
D02*
G37*
G36*
X404368Y430802D02*
X402417Y430414D01*
X400763Y429309D01*
X399658Y427655D01*
X399270Y425704D01*
X399658Y423753D01*
X400763Y422099D01*
X402417Y420994D01*
X404368Y420606D01*
X406319Y420994D01*
X407973Y422099D01*
X409078Y423753D01*
X409466Y425704D01*
X409078Y427655D01*
X407973Y429309D01*
X406319Y430414D01*
X404368Y430802D01*
D02*
G37*
G36*
X602488Y429814D02*
X600537Y429426D01*
X598883Y428321D01*
X597778Y426667D01*
X597390Y424716D01*
X597778Y422765D01*
X598883Y421111D01*
X600537Y420006D01*
X602488Y419618D01*
X604439Y420006D01*
X606093Y421111D01*
X607198Y422765D01*
X607586Y424716D01*
X607198Y426667D01*
X606093Y428321D01*
X604439Y429426D01*
X602488Y429814D01*
D02*
G37*
G36*
X451804Y428036D02*
X449853Y427648D01*
X448199Y426543D01*
X447094Y424889D01*
X446706Y422938D01*
X447094Y420987D01*
X448199Y419333D01*
X449853Y418228D01*
X451804Y417840D01*
X453755Y418228D01*
X455409Y419333D01*
X456514Y420987D01*
X456902Y422938D01*
X456514Y424889D01*
X455409Y426543D01*
X453755Y427648D01*
X451804Y428036D01*
D02*
G37*
G36*
X423926Y429532D02*
X421975Y429144D01*
X420321Y428039D01*
X419216Y426385D01*
X418828Y424434D01*
X419216Y422483D01*
X420321Y420829D01*
X421975Y419724D01*
X423926Y419336D01*
X425877Y419724D01*
X427531Y420829D01*
X428636Y422483D01*
X429024Y424434D01*
X428636Y426385D01*
X427531Y428039D01*
X425877Y429144D01*
X423926Y429532D01*
D02*
G37*
G36*
X552196Y445816D02*
X550245Y445428D01*
X548591Y444323D01*
X547486Y442669D01*
X547098Y440718D01*
X547486Y438767D01*
X548591Y437113D01*
X550245Y436008D01*
X552196Y435620D01*
X554147Y436008D01*
X555801Y437113D01*
X556906Y438767D01*
X557294Y440718D01*
X556906Y442669D01*
X555801Y444323D01*
X554147Y445428D01*
X552196Y445816D01*
D02*
G37*
G36*
X528066Y453182D02*
X526115Y452794D01*
X524461Y451689D01*
X523356Y450035D01*
X522968Y448084D01*
X523356Y446133D01*
X524461Y444479D01*
X526115Y443374D01*
X528066Y442986D01*
X530017Y443374D01*
X531671Y444479D01*
X532776Y446133D01*
X533164Y448084D01*
X532776Y450035D01*
X531671Y451689D01*
X530017Y452794D01*
X528066Y453182D01*
D02*
G37*
G36*
X985582Y431084D02*
X983631Y430696D01*
X981977Y429590D01*
X980872Y427937D01*
X980484Y425986D01*
X980872Y424035D01*
X981977Y422381D01*
X983631Y421276D01*
X985582Y420888D01*
X987533Y421276D01*
X989187Y422381D01*
X990292Y424035D01*
X990680Y425986D01*
X990292Y427937D01*
X989187Y429590D01*
X987533Y430696D01*
X985582Y431084D01*
D02*
G37*
G36*
X665288Y430830D02*
X663337Y430442D01*
X661683Y429337D01*
X660578Y427683D01*
X660190Y425732D01*
X660578Y423781D01*
X661683Y422127D01*
X663337Y421022D01*
X665288Y420634D01*
X667239Y421022D01*
X668893Y422127D01*
X669998Y423781D01*
X670386Y425732D01*
X669998Y427683D01*
X668893Y429337D01*
X667239Y430442D01*
X665288Y430830D01*
D02*
G37*
G36*
X822260D02*
X820309Y430442D01*
X818655Y429337D01*
X817550Y427683D01*
X817162Y425732D01*
X817550Y423781D01*
X818655Y422127D01*
X820309Y421022D01*
X822260Y420634D01*
X824211Y421022D01*
X825865Y422127D01*
X826970Y423781D01*
X827358Y425732D01*
X826970Y427683D01*
X825865Y429337D01*
X824211Y430442D01*
X822260Y430830D01*
D02*
G37*
G36*
X642750Y406192D02*
X640799Y405804D01*
X639145Y404699D01*
X638040Y403045D01*
X637652Y401094D01*
X638040Y399143D01*
X639145Y397489D01*
X640799Y396384D01*
X642750Y395996D01*
X644701Y396384D01*
X646355Y397489D01*
X647460Y399143D01*
X647848Y401094D01*
X647460Y403045D01*
X646355Y404699D01*
X644701Y405804D01*
X642750Y406192D01*
D02*
G37*
G36*
X965200Y406418D02*
X963249Y406030D01*
X961595Y404925D01*
X960490Y403271D01*
X960102Y401320D01*
X960490Y399369D01*
X961595Y397715D01*
X963249Y396610D01*
X965200Y396222D01*
X967151Y396610D01*
X968805Y397715D01*
X969910Y399369D01*
X970298Y401320D01*
X969910Y403271D01*
X968805Y404925D01*
X967151Y406030D01*
X965200Y406418D01*
D02*
G37*
G36*
X802640Y406164D02*
X800689Y405776D01*
X799035Y404671D01*
X797930Y403017D01*
X797542Y401066D01*
X797930Y399115D01*
X799035Y397461D01*
X800689Y396356D01*
X802640Y395968D01*
X804591Y396356D01*
X806245Y397461D01*
X807350Y399115D01*
X807738Y401066D01*
X807350Y403017D01*
X806245Y404671D01*
X804591Y405776D01*
X802640Y406164D01*
D02*
G37*
G36*
X929386Y404606D02*
X927435Y404218D01*
X925781Y403113D01*
X924676Y401459D01*
X924288Y399508D01*
X924676Y397557D01*
X925781Y395903D01*
X927435Y394798D01*
X929386Y394410D01*
X931337Y394798D01*
X932991Y395903D01*
X934096Y397557D01*
X934484Y399508D01*
X934096Y401459D01*
X932991Y403113D01*
X931337Y404218D01*
X929386Y404606D01*
D02*
G37*
G36*
X553212Y405430D02*
X551261Y405042D01*
X549607Y403937D01*
X548502Y402283D01*
X548114Y400332D01*
X548502Y398381D01*
X549607Y396727D01*
X551261Y395622D01*
X553212Y395234D01*
X555163Y395622D01*
X556817Y396727D01*
X557922Y398381D01*
X558310Y400332D01*
X557922Y402283D01*
X556817Y403937D01*
X555163Y405042D01*
X553212Y405430D01*
D02*
G37*
G36*
X759714Y426004D02*
X757763Y425616D01*
X756109Y424511D01*
X755004Y422857D01*
X754616Y420906D01*
X755004Y418955D01*
X756109Y417301D01*
X757763Y416196D01*
X759714Y415808D01*
X761665Y416196D01*
X763319Y417301D01*
X764424Y418955D01*
X764812Y420906D01*
X764424Y422857D01*
X763319Y424511D01*
X761665Y425616D01*
X759714Y426004D01*
D02*
G37*
G36*
X577658Y427782D02*
X575707Y427394D01*
X574053Y426289D01*
X572948Y424635D01*
X572560Y422684D01*
X572948Y420733D01*
X574053Y419079D01*
X575707Y417974D01*
X577658Y417586D01*
X579609Y417974D01*
X581263Y419079D01*
X582368Y420733D01*
X582756Y422684D01*
X582368Y424635D01*
X581263Y426289D01*
X579609Y427394D01*
X577658Y427782D01*
D02*
G37*
G36*
X525334Y420924D02*
X523383Y420536D01*
X521729Y419431D01*
X520624Y417777D01*
X520236Y415826D01*
X520624Y413875D01*
X521729Y412221D01*
X523383Y411116D01*
X525334Y410728D01*
X527285Y411116D01*
X528939Y412221D01*
X530044Y413875D01*
X530432Y415826D01*
X530044Y417777D01*
X528939Y419431D01*
X527285Y420536D01*
X525334Y420924D01*
D02*
G37*
G36*
X985328Y406446D02*
X983377Y406058D01*
X981723Y404953D01*
X980618Y403299D01*
X980230Y401348D01*
X980618Y399397D01*
X981723Y397743D01*
X983377Y396638D01*
X985328Y396250D01*
X987279Y396638D01*
X988933Y397743D01*
X990038Y399397D01*
X990426Y401348D01*
X990038Y403299D01*
X988933Y404953D01*
X987279Y406058D01*
X985328Y406446D01*
D02*
G37*
G36*
X822260Y407208D02*
X820309Y406820D01*
X818655Y405715D01*
X817550Y404061D01*
X817162Y402110D01*
X817550Y400159D01*
X818655Y398505D01*
X820309Y397400D01*
X822260Y397012D01*
X824211Y397400D01*
X825865Y398505D01*
X826970Y400159D01*
X827358Y402110D01*
X826970Y404061D01*
X825865Y405715D01*
X824211Y406820D01*
X822260Y407208D01*
D02*
G37*
G36*
X154032Y114373D02*
X149155Y113403D01*
X145020Y110640D01*
X142257Y106505D01*
X141287Y101628D01*
X142257Y96751D01*
X145020Y92616D01*
X149155Y89853D01*
X154032Y88883D01*
X158909Y89853D01*
X163044Y92616D01*
X165807Y96751D01*
X166777Y101628D01*
X165807Y106505D01*
X163044Y110640D01*
X158909Y113403D01*
X154032Y114373D01*
D02*
G37*
G36*
X518160Y111016D02*
X516209Y110628D01*
X514555Y109523D01*
X513450Y107869D01*
X513062Y105918D01*
X513450Y103967D01*
X514555Y102313D01*
X516209Y101208D01*
X518160Y100820D01*
X520111Y101208D01*
X521765Y102313D01*
X522870Y103967D01*
X523258Y105918D01*
X522870Y107869D01*
X521765Y109523D01*
X520111Y110628D01*
X518160Y111016D01*
D02*
G37*
G36*
X104032Y114373D02*
X99155Y113403D01*
X95020Y110640D01*
X92257Y106505D01*
X91287Y101628D01*
X92257Y96751D01*
X95020Y92616D01*
X99155Y89853D01*
X104032Y88883D01*
X108909Y89853D01*
X113044Y92616D01*
X115807Y96751D01*
X116777Y101628D01*
X115807Y106505D01*
X113044Y110640D01*
X108909Y113403D01*
X104032Y114373D01*
D02*
G37*
G36*
X951122Y104467D02*
X946245Y103497D01*
X942110Y100734D01*
X939347Y96599D01*
X938377Y91722D01*
X939347Y86845D01*
X942110Y82710D01*
X946245Y79947D01*
X951122Y78977D01*
X955999Y79947D01*
X960134Y82710D01*
X962897Y86845D01*
X963867Y91722D01*
X962897Y96599D01*
X960134Y100734D01*
X955999Y103497D01*
X951122Y104467D01*
D02*
G37*
G36*
X1001122D02*
X996245Y103497D01*
X992110Y100734D01*
X989347Y96599D01*
X988377Y91722D01*
X989347Y86845D01*
X992110Y82710D01*
X996245Y79947D01*
X1001122Y78977D01*
X1005999Y79947D01*
X1010134Y82710D01*
X1012897Y86845D01*
X1013867Y91722D01*
X1012897Y96599D01*
X1010134Y100734D01*
X1005999Y103497D01*
X1001122Y104467D01*
D02*
G37*
G36*
X694436Y126854D02*
X692485Y126466D01*
X690831Y125361D01*
X689726Y123707D01*
X689338Y121756D01*
X689726Y119805D01*
X690831Y118151D01*
X692485Y117046D01*
X694436Y116658D01*
X696387Y117046D01*
X698041Y118151D01*
X699146Y119805D01*
X699534Y121756D01*
X699146Y123707D01*
X698041Y125361D01*
X696387Y126466D01*
X694436Y126854D01*
D02*
G37*
G36*
X557530Y136760D02*
X555579Y136372D01*
X553925Y135267D01*
X552820Y133613D01*
X552432Y131662D01*
X552820Y129711D01*
X553925Y128057D01*
X555579Y126952D01*
X557530Y126564D01*
X559481Y126952D01*
X561135Y128057D01*
X562240Y129711D01*
X562628Y131662D01*
X562240Y133613D01*
X561135Y135267D01*
X559481Y136372D01*
X557530Y136760D01*
D02*
G37*
G36*
X668636Y132323D02*
X663759Y131353D01*
X659624Y128590D01*
X656861Y124455D01*
X655891Y119578D01*
X656861Y114701D01*
X659624Y110566D01*
X663759Y107803D01*
X668636Y106833D01*
X673513Y107803D01*
X677648Y110566D01*
X680411Y114701D01*
X681381Y119578D01*
X680411Y124455D01*
X677648Y128590D01*
X673513Y131353D01*
X668636Y132323D01*
D02*
G37*
G36*
X427990Y123734D02*
X424088Y122958D01*
X420780Y120748D01*
X418570Y117440D01*
X417794Y113538D01*
X418570Y109636D01*
X420780Y106328D01*
X424088Y104118D01*
X427990Y103342D01*
X431892Y104118D01*
X435200Y106328D01*
X437410Y109636D01*
X438186Y113538D01*
X437410Y117440D01*
X435200Y120748D01*
X431892Y122958D01*
X427990Y123734D01*
D02*
G37*
G36*
X618636Y132323D02*
X613759Y131353D01*
X609624Y128590D01*
X606861Y124455D01*
X605891Y119578D01*
X606861Y114701D01*
X609624Y110566D01*
X613759Y107803D01*
X618636Y106833D01*
X623513Y107803D01*
X627648Y110566D01*
X630411Y114701D01*
X631381Y119578D01*
X630411Y124455D01*
X627648Y128590D01*
X623513Y131353D01*
X618636Y132323D01*
D02*
G37*
G36*
X439000Y73706D02*
X419000D01*
X417087Y72913D01*
X416294Y71000D01*
Y51000D01*
X417087Y49087D01*
X419000Y48294D01*
X439000D01*
X440913Y49087D01*
X441706Y51000D01*
Y71000D01*
X440913Y72913D01*
X439000Y73706D01*
D02*
G37*
G36*
X593636Y82323D02*
X588759Y81353D01*
X584624Y78590D01*
X581861Y74455D01*
X580891Y69578D01*
X581861Y64701D01*
X584624Y60566D01*
X588759Y57803D01*
X593636Y56833D01*
X598513Y57803D01*
X602648Y60566D01*
X605411Y64701D01*
X606381Y69578D01*
X605411Y74455D01*
X602648Y78590D01*
X598513Y81353D01*
X593636Y82323D01*
D02*
G37*
G36*
X524604Y55914D02*
X504604D01*
X502691Y55121D01*
X501898Y53208D01*
Y33208D01*
X502691Y31295D01*
X504604Y30502D01*
X524604D01*
X526517Y31295D01*
X527310Y33208D01*
Y53208D01*
X526517Y55121D01*
X524604Y55914D01*
D02*
G37*
G36*
X30000Y57737D02*
X22821Y56792D01*
X16131Y54021D01*
X10387Y49613D01*
X5979Y43869D01*
X3208Y37179D01*
X2263Y30000D01*
X3208Y22821D01*
X5979Y16131D01*
X10387Y10387D01*
X16131Y5979D01*
X22821Y3208D01*
X30000Y2263D01*
X37179Y3208D01*
X43869Y5979D01*
X49613Y10387D01*
X54021Y16131D01*
X56792Y22821D01*
X57737Y30000D01*
X56792Y37179D01*
X54021Y43869D01*
X49613Y49613D01*
X43869Y54021D01*
X37179Y56792D01*
X30000Y57737D01*
D02*
G37*
G36*
X1120000D02*
X1112821Y56792D01*
X1106131Y54021D01*
X1100387Y49613D01*
X1095979Y43869D01*
X1093208Y37179D01*
X1092263Y30000D01*
X1093208Y22821D01*
X1095979Y16131D01*
X1100387Y10387D01*
X1106131Y5979D01*
X1112821Y3208D01*
X1120000Y2263D01*
X1127179Y3208D01*
X1133869Y5979D01*
X1139613Y10387D01*
X1144021Y16131D01*
X1146792Y22821D01*
X1147737Y30000D01*
X1146792Y37179D01*
X1144021Y43869D01*
X1139613Y49613D01*
X1133869Y54021D01*
X1127179Y56792D01*
X1120000Y57737D01*
D02*
G37*
G36*
X819912Y107729D02*
X815035Y106759D01*
X810900Y103996D01*
X808137Y99861D01*
X807167Y94984D01*
Y89984D01*
X808137Y85107D01*
X810900Y80972D01*
X815035Y78209D01*
X819912Y77239D01*
X824789Y78209D01*
X828924Y80972D01*
X831687Y85107D01*
X832657Y89984D01*
Y94984D01*
X831687Y99861D01*
X828924Y103996D01*
X824789Y106759D01*
X819912Y107729D01*
D02*
G37*
G36*
X869912D02*
X865035Y106759D01*
X860900Y103996D01*
X858137Y99861D01*
X857167Y94984D01*
Y89984D01*
X858137Y85107D01*
X860900Y80972D01*
X865035Y78209D01*
X869912Y77239D01*
X874789Y78209D01*
X878924Y80972D01*
X881687Y85107D01*
X882657Y89984D01*
Y94984D01*
X881687Y99861D01*
X878924Y103996D01*
X874789Y106759D01*
X869912Y107729D01*
D02*
G37*
G36*
X769912D02*
X765035Y106759D01*
X760900Y103996D01*
X758137Y99861D01*
X757167Y94984D01*
Y89984D01*
X758137Y85107D01*
X760900Y80972D01*
X765035Y78209D01*
X769912Y77239D01*
X774789Y78209D01*
X778924Y80972D01*
X781687Y85107D01*
X782657Y89984D01*
Y94984D01*
X781687Y99861D01*
X778924Y103996D01*
X774789Y106759D01*
X769912Y107729D01*
D02*
G37*
G36*
X643636Y82323D02*
X638759Y81353D01*
X634624Y78590D01*
X631861Y74455D01*
X630891Y69578D01*
X631861Y64701D01*
X634624Y60566D01*
X638759Y57803D01*
X643636Y56833D01*
X648513Y57803D01*
X652648Y60566D01*
X655411Y64701D01*
X656381Y69578D01*
X655411Y74455D01*
X652648Y78590D01*
X648513Y81353D01*
X643636Y82323D01*
D02*
G37*
G36*
X693636D02*
X688759Y81353D01*
X684624Y78590D01*
X681861Y74455D01*
X680891Y69578D01*
X681861Y64701D01*
X684624Y60566D01*
X688759Y57803D01*
X693636Y56833D01*
X698513Y57803D01*
X702648Y60566D01*
X705411Y64701D01*
X706381Y69578D01*
X705411Y74455D01*
X702648Y78590D01*
X698513Y81353D01*
X693636Y82323D01*
D02*
G37*
G36*
X526166Y196134D02*
X524215Y195746D01*
X522561Y194641D01*
X521456Y192987D01*
X521068Y191036D01*
X521456Y189085D01*
X522561Y187431D01*
X524215Y186326D01*
X526166Y185938D01*
X528117Y186326D01*
X529771Y187431D01*
X530876Y189085D01*
X531264Y191036D01*
X530876Y192987D01*
X529771Y194641D01*
X528117Y195746D01*
X526166Y196134D01*
D02*
G37*
G36*
X830908Y208975D02*
X820908D01*
X817396Y208277D01*
X814419Y206288D01*
X812430Y203311D01*
X811732Y199799D01*
X812430Y196287D01*
X814419Y193310D01*
X817396Y191321D01*
X820908Y190623D01*
X830908D01*
X834420Y191321D01*
X837397Y193310D01*
X839386Y196287D01*
X840084Y199799D01*
X839386Y203311D01*
X837397Y206288D01*
X834420Y208277D01*
X830908Y208975D01*
D02*
G37*
G36*
X374000Y181098D02*
X372049Y180710D01*
X370395Y179605D01*
X369290Y177951D01*
X368902Y176000D01*
X369290Y174049D01*
X370395Y172395D01*
X372049Y171290D01*
X374000Y170902D01*
X375951Y171290D01*
X377605Y172395D01*
X378710Y174049D01*
X379098Y176000D01*
X378710Y177951D01*
X377605Y179605D01*
X375951Y180710D01*
X374000Y181098D01*
D02*
G37*
G36*
X764794Y180817D02*
X760112Y179886D01*
X756143Y177234D01*
X753490Y173264D01*
X752559Y168582D01*
Y162182D01*
X753490Y157500D01*
X756143Y153531D01*
X760112Y150878D01*
X764794Y149947D01*
X769476Y150878D01*
X773446Y153531D01*
X776098Y157500D01*
X777029Y162182D01*
Y168582D01*
X776098Y173264D01*
X773446Y177234D01*
X769476Y179886D01*
X764794Y180817D01*
D02*
G37*
G36*
X427990Y174534D02*
X424088Y173758D01*
X420780Y171548D01*
X418570Y168240D01*
X417794Y164338D01*
X418570Y160436D01*
X420780Y157128D01*
X424088Y154918D01*
X427990Y154142D01*
X431892Y154918D01*
X435200Y157128D01*
X437410Y160436D01*
X438186Y164338D01*
X437410Y168240D01*
X435200Y171548D01*
X431892Y173758D01*
X427990Y174534D01*
D02*
G37*
G36*
X591894Y228533D02*
X581894D01*
X578382Y227835D01*
X575405Y225846D01*
X573416Y222869D01*
X572718Y219357D01*
X573416Y215845D01*
X575405Y212868D01*
X578382Y210879D01*
X581894Y210181D01*
X591894D01*
X595406Y210879D01*
X598383Y212868D01*
X600372Y215845D01*
X601070Y219357D01*
X600372Y222869D01*
X598383Y225846D01*
X595406Y227835D01*
X591894Y228533D01*
D02*
G37*
G36*
X402082Y238383D02*
X397595Y237491D01*
X393791Y234949D01*
X391249Y231145D01*
X390357Y226658D01*
X391249Y222171D01*
X393791Y218367D01*
X397595Y215825D01*
X402082Y214933D01*
X406569Y215825D01*
X410373Y218367D01*
X412915Y222171D01*
X413807Y226658D01*
X412915Y231145D01*
X410373Y234949D01*
X406569Y237491D01*
X402082Y238383D01*
D02*
G37*
G36*
X830908Y228025D02*
X820908D01*
X817396Y227327D01*
X814419Y225338D01*
X812430Y222361D01*
X811732Y218849D01*
X812430Y215337D01*
X814419Y212360D01*
X817396Y210371D01*
X820908Y209673D01*
X830908D01*
X834420Y210371D01*
X837397Y212360D01*
X839386Y215337D01*
X840084Y218849D01*
X839386Y222361D01*
X837397Y225338D01*
X834420Y227327D01*
X830908Y228025D01*
D02*
G37*
G36*
X591894Y209483D02*
X581894D01*
X578382Y208785D01*
X575405Y206796D01*
X573416Y203819D01*
X572718Y200307D01*
X573416Y196795D01*
X575405Y193818D01*
X578382Y191829D01*
X581894Y191131D01*
X591894D01*
X595406Y191829D01*
X598383Y193818D01*
X600372Y196795D01*
X601070Y200307D01*
X600372Y203819D01*
X598383Y206796D01*
X595406Y208785D01*
X591894Y209483D01*
D02*
G37*
G36*
X792734Y260013D02*
X788818Y259498D01*
X785169Y257987D01*
X782036Y255582D01*
X779632Y252449D01*
X778120Y248800D01*
X777605Y244884D01*
X778120Y240968D01*
X779632Y237319D01*
X782036Y234186D01*
X785169Y231782D01*
X788818Y230270D01*
X790943Y229990D01*
X788084Y229614D01*
X784435Y228102D01*
X781302Y225698D01*
X778897Y222565D01*
X777386Y218916D01*
X776871Y215000D01*
X777386Y211084D01*
X778897Y207435D01*
X781302Y204302D01*
X784435Y201898D01*
X788084Y200386D01*
X792000Y199871D01*
X795916Y200386D01*
X799565Y201898D01*
X802698Y204302D01*
X805102Y207435D01*
X806614Y211084D01*
X807129Y215000D01*
X806614Y218916D01*
X805102Y222565D01*
X802698Y225698D01*
X799565Y228102D01*
X795916Y229614D01*
X793791Y229894D01*
X796650Y230270D01*
X800299Y231782D01*
X803432Y234186D01*
X805836Y237319D01*
X807348Y240968D01*
X807863Y244884D01*
X807348Y248800D01*
X805836Y252449D01*
X803432Y255582D01*
X800299Y257987D01*
X796650Y259498D01*
X792734Y260013D01*
D02*
G37*
G36*
X927608Y180309D02*
X922926Y179378D01*
X918957Y176726D01*
X916304Y172756D01*
X915373Y168074D01*
Y161674D01*
X916304Y156992D01*
X918957Y153022D01*
X922926Y150370D01*
X927608Y149439D01*
X932290Y150370D01*
X936260Y153022D01*
X938912Y156992D01*
X939843Y161674D01*
Y168074D01*
X938912Y172756D01*
X936260Y176726D01*
X932290Y179378D01*
X927608Y180309D01*
D02*
G37*
G36*
X953008D02*
X948326Y179378D01*
X944357Y176726D01*
X941704Y172756D01*
X940773Y168074D01*
Y161674D01*
X941704Y156992D01*
X944357Y153022D01*
X948326Y150370D01*
X953008Y149439D01*
X957690Y150370D01*
X961659Y153022D01*
X964312Y156992D01*
X965243Y161674D01*
Y168074D01*
X964312Y172756D01*
X961659Y176726D01*
X957690Y179378D01*
X953008Y180309D01*
D02*
G37*
G36*
X398000Y152098D02*
X396049Y151710D01*
X394395Y150605D01*
X393290Y148951D01*
X392902Y147000D01*
X393290Y145049D01*
X394395Y143395D01*
X396049Y142290D01*
X398000Y141902D01*
X399951Y142290D01*
X401605Y143395D01*
X402710Y145049D01*
X403098Y147000D01*
X402710Y148951D01*
X401605Y150605D01*
X399951Y151710D01*
X398000Y152098D01*
D02*
G37*
G36*
X427990Y149134D02*
X424088Y148358D01*
X420780Y146148D01*
X418570Y142840D01*
X417794Y138938D01*
X418570Y135036D01*
X420780Y131728D01*
X424088Y129518D01*
X427990Y128742D01*
X431892Y129518D01*
X435200Y131728D01*
X437410Y135036D01*
X438186Y138938D01*
X437410Y142840D01*
X435200Y146148D01*
X431892Y148358D01*
X427990Y149134D01*
D02*
G37*
G36*
X448056Y149206D02*
X446105Y148818D01*
X444451Y147713D01*
X443346Y146059D01*
X442958Y144108D01*
X443346Y142157D01*
X444451Y140503D01*
X446105Y139398D01*
X448056Y139010D01*
X450007Y139398D01*
X451661Y140503D01*
X452766Y142157D01*
X453154Y144108D01*
X452766Y146059D01*
X451661Y147713D01*
X450007Y148818D01*
X448056Y149206D01*
D02*
G37*
G36*
X713994Y180817D02*
X709312Y179886D01*
X705342Y177234D01*
X702690Y173264D01*
X701759Y168582D01*
Y162182D01*
X702690Y157500D01*
X705342Y153531D01*
X709312Y150878D01*
X713994Y149947D01*
X718676Y150878D01*
X722645Y153531D01*
X725298Y157500D01*
X726229Y162182D01*
Y168582D01*
X725298Y173264D01*
X722645Y177234D01*
X718676Y179886D01*
X713994Y180817D01*
D02*
G37*
G36*
X739394D02*
X734712Y179886D01*
X730742Y177234D01*
X728090Y173264D01*
X727159Y168582D01*
Y162182D01*
X728090Y157500D01*
X730742Y153531D01*
X734712Y150878D01*
X739394Y149947D01*
X744076Y150878D01*
X748046Y153531D01*
X750698Y157500D01*
X751629Y162182D01*
Y168582D01*
X750698Y173264D01*
X748046Y177234D01*
X744076Y179886D01*
X739394Y180817D01*
D02*
G37*
G36*
X688594D02*
X683912Y179886D01*
X679942Y177234D01*
X677290Y173264D01*
X676359Y168582D01*
Y162182D01*
X677290Y157500D01*
X679942Y153531D01*
X683912Y150878D01*
X688594Y149947D01*
X693276Y150878D01*
X697245Y153531D01*
X699898Y157500D01*
X700829Y162182D01*
Y168582D01*
X699898Y173264D01*
X697245Y177234D01*
X693276Y179886D01*
X688594Y180817D01*
D02*
G37*
G36*
X978408Y180309D02*
X973726Y179378D01*
X969756Y176726D01*
X967104Y172756D01*
X966173Y168074D01*
Y161674D01*
X967104Y156992D01*
X969756Y153022D01*
X973726Y150370D01*
X978408Y149439D01*
X983090Y150370D01*
X987059Y153022D01*
X989712Y156992D01*
X990643Y161674D01*
Y168074D01*
X989712Y172756D01*
X987059Y176726D01*
X983090Y179378D01*
X978408Y180309D01*
D02*
G37*
G36*
X1003808D02*
X999126Y179378D01*
X995156Y176726D01*
X992504Y172756D01*
X991573Y168074D01*
Y161674D01*
X992504Y156992D01*
X995156Y153022D01*
X999126Y150370D01*
X1003808Y149439D01*
X1008490Y150370D01*
X1012459Y153022D01*
X1015112Y156992D01*
X1016043Y161674D01*
Y168074D01*
X1015112Y172756D01*
X1012459Y176726D01*
X1008490Y179378D01*
X1003808Y180309D01*
D02*
G37*
G36*
X173830Y781592D02*
X153830D01*
X151917Y780799D01*
X151124Y778886D01*
Y758886D01*
X151917Y756973D01*
X153830Y756180D01*
X173830D01*
X175743Y756973D01*
X176536Y758886D01*
Y778886D01*
X175743Y780799D01*
X173830Y781592D01*
D02*
G37*
G36*
X549148Y775734D02*
X547197Y775346D01*
X545543Y774241D01*
X544438Y772587D01*
X544349Y772141D01*
X531217Y759008D01*
X531252Y759061D01*
X531640Y761012D01*
X531252Y762963D01*
X530147Y764617D01*
X528493Y765722D01*
X526542Y766110D01*
X524591Y765722D01*
X522937Y764617D01*
X521832Y762963D01*
X521610Y761848D01*
X502830Y743068D01*
X501946Y741745D01*
X501895Y741486D01*
X501636Y740184D01*
X501636Y740184D01*
Y628843D01*
X453014Y580221D01*
X453154Y580926D01*
X452766Y582877D01*
X451661Y584531D01*
X450007Y585636D01*
X448892Y585858D01*
X422670Y612079D01*
Y641185D01*
X426048Y644562D01*
X426048Y644562D01*
X426932Y645885D01*
X427242Y647446D01*
Y654964D01*
X427874Y655909D01*
X428262Y657860D01*
X427874Y659811D01*
X426769Y661465D01*
X425115Y662570D01*
X423164Y662958D01*
X421213Y662570D01*
X419559Y661465D01*
X418454Y659811D01*
X418066Y657860D01*
X418454Y655909D01*
X419086Y654964D01*
Y649135D01*
X415708Y645758D01*
X414824Y644435D01*
X414773Y644176D01*
X414514Y642874D01*
X414514Y642874D01*
Y610390D01*
X414514Y610390D01*
X414773Y609088D01*
X414824Y608829D01*
X415708Y607506D01*
X441526Y581688D01*
X435953Y576114D01*
X413423D01*
X402680Y586858D01*
X401357Y587742D01*
X401098Y587793D01*
X399796Y588052D01*
X399796Y588052D01*
X380149D01*
X377458Y590743D01*
Y593778D01*
X378090Y594723D01*
X378478Y596674D01*
X378090Y598625D01*
X376985Y600279D01*
X375331Y601384D01*
X373380Y601772D01*
X371429Y601384D01*
X369775Y600279D01*
X368670Y598625D01*
X368282Y596674D01*
X368670Y594723D01*
X369302Y593778D01*
Y589054D01*
X369302Y589054D01*
X369561Y587752D01*
X369612Y587493D01*
X370496Y586170D01*
X375576Y581090D01*
X375576Y581090D01*
X376899Y580206D01*
X377158Y580155D01*
X378460Y579896D01*
X378460Y579896D01*
X398107D01*
X408850Y569152D01*
X408850Y569152D01*
X410173Y568268D01*
X411734Y567958D01*
X437642D01*
X437642Y567958D01*
X438944Y568217D01*
X439203Y568268D01*
X440526Y569152D01*
X447343Y575970D01*
X448056Y575828D01*
X448760Y575968D01*
X432651Y559858D01*
X429500D01*
X427850Y560961D01*
X425704Y561388D01*
X423558Y560961D01*
X421739Y559745D01*
X420523Y557926D01*
X420096Y555780D01*
X420523Y553634D01*
X421739Y551815D01*
X423558Y550599D01*
X425704Y550172D01*
X427850Y550599D01*
X429500Y551702D01*
X434340D01*
X434340Y551702D01*
X435642Y551961D01*
X435901Y552012D01*
X437224Y552896D01*
X508598Y624270D01*
X509482Y625593D01*
X509792Y627154D01*
Y679611D01*
X510450Y678626D01*
X561250Y627826D01*
X562573Y626942D01*
X564134Y626632D01*
X643026D01*
X643971Y626000D01*
X645922Y625612D01*
X647873Y626000D01*
X649527Y627105D01*
X650632Y628759D01*
X651020Y630710D01*
X650632Y632661D01*
X649527Y634315D01*
X647873Y635420D01*
X645922Y635808D01*
X643971Y635420D01*
X643026Y634788D01*
X565823D01*
X517412Y683199D01*
Y733669D01*
X549315Y765571D01*
X551099Y765926D01*
X552753Y767031D01*
X553858Y768685D01*
X554246Y770636D01*
X553858Y772587D01*
X552753Y774241D01*
X551099Y775346D01*
X549148Y775734D01*
D02*
G37*
G36*
X1041362Y777383D02*
X1036485Y776413D01*
X1032350Y773650D01*
X1029587Y769516D01*
X1028617Y764638D01*
X1029587Y759761D01*
X1032350Y755626D01*
X1036485Y752863D01*
X1041362Y751893D01*
X1046239Y752863D01*
X1050374Y755626D01*
X1053137Y759761D01*
X1054107Y764638D01*
X1053137Y769516D01*
X1050374Y773650D01*
X1046239Y776413D01*
X1041362Y777383D01*
D02*
G37*
G36*
X127602Y780576D02*
X107602D01*
X105689Y779783D01*
X104896Y777870D01*
Y757870D01*
X105689Y755957D01*
X107602Y755164D01*
X127602D01*
X129515Y755957D01*
X130308Y757870D01*
Y777870D01*
X129515Y779783D01*
X127602Y780576D01*
D02*
G37*
G36*
X897382Y811184D02*
X893675Y810447D01*
X890533Y808347D01*
X888433Y805205D01*
X887696Y801498D01*
X888433Y797791D01*
X890533Y794649D01*
X893675Y792549D01*
X897382Y791812D01*
X901089Y792549D01*
X904231Y794649D01*
X906331Y797791D01*
X907068Y801498D01*
X906331Y805205D01*
X904231Y808347D01*
X901089Y810447D01*
X897382Y811184D01*
D02*
G37*
G36*
X167182Y852894D02*
X161256Y852114D01*
X155734Y849826D01*
X150992Y846188D01*
X147354Y841446D01*
X145066Y835924D01*
X144286Y829998D01*
X145066Y824072D01*
X147354Y818550D01*
X150992Y813808D01*
X155734Y810170D01*
X161256Y807882D01*
X167182Y807102D01*
X173108Y807882D01*
X178630Y810170D01*
X183372Y813808D01*
X187010Y818550D01*
X189176Y823778D01*
Y813498D01*
X189969Y811585D01*
X191882Y810792D01*
X205882D01*
X207795Y811585D01*
X208588Y813498D01*
Y827498D01*
X207795Y829411D01*
X205882Y830204D01*
X191882D01*
X190002Y829425D01*
X190078Y829998D01*
X189298Y835924D01*
X187010Y841446D01*
X183372Y846188D01*
X178630Y849826D01*
X173108Y852114D01*
X167182Y852894D01*
D02*
G37*
G36*
X376682Y830184D02*
X372975Y829447D01*
X369833Y827347D01*
X367733Y824205D01*
X366996Y820498D01*
X367733Y816791D01*
X369833Y813649D01*
X372975Y811549D01*
X376682Y810812D01*
X380389Y811549D01*
X383531Y813649D01*
X385631Y816791D01*
X386368Y820498D01*
X385631Y824205D01*
X383531Y827347D01*
X380389Y829447D01*
X376682Y830184D01*
D02*
G37*
G36*
X922782Y811184D02*
X919075Y810447D01*
X915933Y808347D01*
X913833Y805205D01*
X913096Y801498D01*
X913833Y797791D01*
X915933Y794649D01*
X919075Y792549D01*
X922782Y791812D01*
X926489Y792549D01*
X929631Y794649D01*
X931731Y797791D01*
X932468Y801498D01*
X931731Y805205D01*
X929631Y808347D01*
X926489Y810447D01*
X922782Y811184D01*
D02*
G37*
G36*
X954482Y852894D02*
X948556Y852114D01*
X943034Y849826D01*
X938292Y846188D01*
X934654Y841446D01*
X932366Y835924D01*
X931586Y829998D01*
X932366Y824072D01*
X934654Y818550D01*
X938292Y813808D01*
X943034Y810170D01*
X948556Y807882D01*
X954482Y807102D01*
X960408Y807882D01*
X965930Y810170D01*
X970672Y813808D01*
X974310Y818550D01*
X976598Y824072D01*
X977378Y829998D01*
X976598Y835924D01*
X974310Y841446D01*
X970672Y846188D01*
X965930Y849826D01*
X960408Y852114D01*
X954482Y852894D01*
D02*
G37*
G36*
X1041362Y677383D02*
X1036485Y676413D01*
X1032350Y673650D01*
X1029587Y669516D01*
X1028617Y664638D01*
X1029587Y659761D01*
X1032350Y655626D01*
X1036485Y652863D01*
X1041362Y651893D01*
X1046239Y652863D01*
X1050374Y655626D01*
X1053137Y659761D01*
X1054107Y664638D01*
X1053137Y669516D01*
X1050374Y673650D01*
X1046239Y676413D01*
X1041362Y677383D01*
D02*
G37*
G36*
X991362Y702383D02*
X986485Y701413D01*
X982350Y698650D01*
X979587Y694516D01*
X978617Y689638D01*
X979587Y684761D01*
X982350Y680626D01*
X986485Y677863D01*
X991362Y676893D01*
X996239Y677863D01*
X1000374Y680626D01*
X1003137Y684761D01*
X1004107Y689638D01*
X1003137Y694516D01*
X1000374Y698650D01*
X996239Y701413D01*
X991362Y702383D01*
D02*
G37*
G36*
X1004918Y639070D02*
X984918D01*
X983005Y638277D01*
X982212Y636364D01*
Y616364D01*
X983005Y614451D01*
X984918Y613658D01*
X1004918D01*
X1006831Y614451D01*
X1007624Y616364D01*
Y636364D01*
X1006831Y638277D01*
X1004918Y639070D01*
D02*
G37*
G36*
X73152Y647741D02*
X68665Y646849D01*
X64861Y644307D01*
X62319Y640503D01*
X61427Y636016D01*
X62319Y631529D01*
X64861Y627725D01*
X68665Y625183D01*
X73152Y624291D01*
X77639Y625183D01*
X81443Y627725D01*
X83985Y631529D01*
X84877Y636016D01*
X83985Y640503D01*
X81443Y644307D01*
X77639Y646849D01*
X73152Y647741D01*
D02*
G37*
G36*
X1041362Y727383D02*
X1036485Y726413D01*
X1032350Y723650D01*
X1029587Y719516D01*
X1028617Y714638D01*
X1029587Y709761D01*
X1032350Y705626D01*
X1036485Y702863D01*
X1041362Y701893D01*
X1046239Y702863D01*
X1050374Y705626D01*
X1053137Y709761D01*
X1054107Y714638D01*
X1053137Y719516D01*
X1050374Y723650D01*
X1046239Y726413D01*
X1041362Y727383D01*
D02*
G37*
G36*
X530606Y740964D02*
X528655Y740576D01*
X527001Y739471D01*
X525896Y737817D01*
X525508Y735866D01*
X525896Y733915D01*
X527001Y732261D01*
X528655Y731156D01*
X530606Y730768D01*
X532557Y731156D01*
X534211Y732261D01*
X535316Y733915D01*
X535704Y735866D01*
X535316Y737817D01*
X534211Y739471D01*
X532557Y740576D01*
X530606Y740964D01*
D02*
G37*
G36*
X908652Y776512D02*
X888652D01*
X886739Y775719D01*
X885946Y773806D01*
Y753806D01*
X886739Y751893D01*
X888652Y751100D01*
X908652D01*
X910565Y751893D01*
X911358Y753806D01*
Y773806D01*
X910565Y775719D01*
X908652Y776512D01*
D02*
G37*
G36*
X420116Y712738D02*
X420116Y712738D01*
X404876D01*
X404876Y712738D01*
X403315Y712428D01*
X401992Y711544D01*
X396420Y705972D01*
X395305Y705750D01*
X393651Y704645D01*
X392546Y702991D01*
X392158Y701040D01*
X392546Y699089D01*
X393651Y697435D01*
X395305Y696330D01*
X397256Y695942D01*
X399207Y696330D01*
X400861Y697435D01*
X401966Y699089D01*
X402188Y700204D01*
X406565Y704582D01*
X418427D01*
X419406Y703603D01*
Y703304D01*
X418774Y702359D01*
X418386Y700408D01*
X418774Y698457D01*
X419879Y696803D01*
X421533Y695698D01*
X423484Y695310D01*
X425435Y695698D01*
X427089Y696803D01*
X428194Y698457D01*
X428582Y700408D01*
X428194Y702359D01*
X427562Y703304D01*
Y705292D01*
X427562Y705292D01*
X427304Y706594D01*
X427252Y706853D01*
X426368Y708176D01*
X426368Y708176D01*
X423000Y711544D01*
X421677Y712428D01*
X421418Y712479D01*
X420116Y712738D01*
D02*
G37*
G36*
X908906Y739428D02*
X888906D01*
X886993Y738635D01*
X886200Y736722D01*
Y716722D01*
X886993Y714809D01*
X888906Y714016D01*
X908906D01*
X910819Y714809D01*
X911612Y716722D01*
Y736722D01*
X910819Y738635D01*
X908906Y739428D01*
D02*
G37*
G36*
X910082Y830184D02*
X906375Y829447D01*
X903233Y827347D01*
X901133Y824205D01*
X900396Y820498D01*
X901133Y816791D01*
X903233Y813649D01*
X906375Y811549D01*
X910082Y810812D01*
X913789Y811549D01*
X916931Y813649D01*
X919031Y816791D01*
X919768Y820498D01*
X919031Y824205D01*
X916931Y827347D01*
X913789Y829447D01*
X910082Y830184D01*
D02*
G37*
G36*
X884682Y868184D02*
X880975Y867447D01*
X877833Y865347D01*
X875733Y862205D01*
X874996Y858498D01*
X875733Y854791D01*
X877833Y851649D01*
X880975Y849549D01*
X884682Y848812D01*
X888389Y849549D01*
X891531Y851649D01*
X893631Y854791D01*
X894368Y858498D01*
X893631Y862205D01*
X891531Y865347D01*
X888389Y867447D01*
X884682Y868184D01*
D02*
G37*
G36*
X910082D02*
X906375Y867447D01*
X903233Y865347D01*
X901133Y862205D01*
X900396Y858498D01*
X901133Y854791D01*
X903233Y851649D01*
X906375Y849549D01*
X910082Y848812D01*
X913789Y849549D01*
X916931Y851649D01*
X919031Y854791D01*
X919768Y858498D01*
X919031Y862205D01*
X916931Y865347D01*
X913789Y867447D01*
X910082Y868184D01*
D02*
G37*
G36*
X249682D02*
X245975Y867447D01*
X242833Y865347D01*
X240733Y862205D01*
X239996Y858498D01*
X240733Y854791D01*
X242833Y851649D01*
X245975Y849549D01*
X249682Y848812D01*
X253389Y849549D01*
X256531Y851649D01*
X258631Y854791D01*
X259368Y858498D01*
X258631Y862205D01*
X256531Y865347D01*
X253389Y867447D01*
X249682Y868184D01*
D02*
G37*
G36*
X325882D02*
X322175Y867447D01*
X319033Y865347D01*
X316933Y862205D01*
X316196Y858498D01*
X316933Y854791D01*
X319033Y851649D01*
X322175Y849549D01*
X325882Y848812D01*
X329589Y849549D01*
X332731Y851649D01*
X334831Y854791D01*
X335568Y858498D01*
X334831Y862205D01*
X332731Y865347D01*
X329589Y867447D01*
X325882Y868184D01*
D02*
G37*
G36*
X30000Y947737D02*
X22821Y946792D01*
X16131Y944021D01*
X10387Y939613D01*
X5979Y933869D01*
X3208Y927179D01*
X2263Y920000D01*
X3208Y912821D01*
X5979Y906131D01*
X10387Y900387D01*
X16131Y895979D01*
X22821Y893208D01*
X30000Y892263D01*
X37179Y893208D01*
X43869Y895979D01*
X49613Y900387D01*
X54021Y906131D01*
X56792Y912821D01*
X57737Y920000D01*
X56792Y927179D01*
X54021Y933869D01*
X49613Y939613D01*
X43869Y944021D01*
X37179Y946792D01*
X30000Y947737D01*
D02*
G37*
G36*
X196050Y904106D02*
X176050D01*
X174137Y903313D01*
X173350Y901414D01*
X172563Y903313D01*
X170650Y904106D01*
X150650D01*
X148737Y903313D01*
X147944Y901400D01*
Y881400D01*
X148737Y879487D01*
X150650Y878694D01*
X170650D01*
X172563Y879487D01*
X173350Y881386D01*
X174137Y879487D01*
X176050Y878694D01*
X196050D01*
X197963Y879487D01*
X198756Y881400D01*
Y901400D01*
X197963Y903313D01*
X196050Y904106D01*
D02*
G37*
G36*
X297650D02*
X277650D01*
X275737Y903313D01*
X274950Y901414D01*
X274163Y903313D01*
X272250Y904106D01*
X252250D01*
X250337Y903313D01*
X249550Y901414D01*
X248763Y903313D01*
X246850Y904106D01*
X226850D01*
X224937Y903313D01*
X224144Y901400D01*
Y881400D01*
X224937Y879487D01*
X226850Y878694D01*
X246850D01*
X248763Y879487D01*
X249550Y881386D01*
X250337Y879487D01*
X252250Y878694D01*
X272250D01*
X274163Y879487D01*
X274950Y881386D01*
X275737Y879487D01*
X277650Y878694D01*
X297650D01*
X299563Y879487D01*
X300356Y881400D01*
Y901400D01*
X299563Y903313D01*
X297650Y904106D01*
D02*
G37*
G36*
X1120000Y947737D02*
X1112821Y946792D01*
X1106131Y944021D01*
X1100387Y939613D01*
X1095979Y933869D01*
X1093208Y927179D01*
X1092263Y920000D01*
X1093208Y912821D01*
X1095979Y906131D01*
X1100387Y900387D01*
X1106131Y895979D01*
X1112821Y893208D01*
X1120000Y892263D01*
X1127179Y893208D01*
X1133869Y895979D01*
X1139613Y900387D01*
X1144021Y906131D01*
X1146792Y912821D01*
X1147737Y920000D01*
X1146792Y927179D01*
X1144021Y933869D01*
X1139613Y939613D01*
X1133869Y944021D01*
X1127179Y946792D01*
X1120000Y947737D01*
D02*
G37*
G36*
X907352Y904104D02*
X887352D01*
X885439Y903311D01*
X884652Y901412D01*
X883865Y903311D01*
X881952Y904104D01*
X861952D01*
X860039Y903311D01*
X859252Y901412D01*
X858465Y903311D01*
X856552Y904104D01*
X836552D01*
X834639Y903311D01*
X833852Y901412D01*
X833065Y903311D01*
X831152Y904104D01*
X811152D01*
X809239Y903311D01*
X808452Y901412D01*
X807665Y903311D01*
X805752Y904104D01*
X785752D01*
X783839Y903311D01*
X783052Y901412D01*
X782265Y903311D01*
X780352Y904104D01*
X760352D01*
X758439Y903311D01*
X757652Y901412D01*
X756865Y903311D01*
X754952Y904104D01*
X734952D01*
X733039Y903311D01*
X732252Y901412D01*
X731465Y903311D01*
X729552Y904104D01*
X709552D01*
X707639Y903311D01*
X706852Y901412D01*
X706065Y903311D01*
X704152Y904104D01*
X684152D01*
X682239Y903311D01*
X681452Y901412D01*
X680665Y903311D01*
X678752Y904104D01*
X658752D01*
X656839Y903311D01*
X656052Y901412D01*
X655265Y903311D01*
X653352Y904104D01*
X633352D01*
X631439Y903311D01*
X630652Y901412D01*
X629865Y903311D01*
X627952Y904104D01*
X607952D01*
X606039Y903311D01*
X605252Y901412D01*
X604465Y903311D01*
X602552Y904104D01*
X582552D01*
X580639Y903311D01*
X579852Y901412D01*
X579065Y903311D01*
X577152Y904104D01*
X557152D01*
X555239Y903311D01*
X554452Y901412D01*
X553665Y903311D01*
X551752Y904104D01*
X531752D01*
X529839Y903311D01*
X529052Y901412D01*
X528265Y903311D01*
X526352Y904104D01*
X506352D01*
X504439Y903311D01*
X503652Y901412D01*
X502865Y903311D01*
X500952Y904104D01*
X480952D01*
X479039Y903311D01*
X478246Y901398D01*
Y881422D01*
X455895D01*
X452858Y884460D01*
Y901398D01*
X452065Y903311D01*
X450152Y904104D01*
X430152D01*
X428239Y903311D01*
X427452Y901412D01*
X426665Y903311D01*
X424752Y904104D01*
X404752D01*
X402839Y903311D01*
X402052Y901412D01*
X401265Y903311D01*
X399352Y904104D01*
X379352D01*
X377439Y903311D01*
X376652Y901412D01*
X375865Y903311D01*
X373952Y904104D01*
X353952D01*
X352039Y903311D01*
X351252Y901412D01*
X350465Y903311D01*
X348552Y904104D01*
X328552D01*
X326639Y903311D01*
X325852Y901412D01*
X325065Y903311D01*
X323152Y904104D01*
X303152D01*
X301239Y903311D01*
X300446Y901398D01*
Y881398D01*
X301239Y879485D01*
X303152Y878692D01*
X323152D01*
X325065Y879485D01*
X325852Y881384D01*
X326639Y879485D01*
X328552Y878692D01*
X348552D01*
X350465Y879485D01*
X351252Y881384D01*
X352039Y879485D01*
X353952Y878692D01*
X373952D01*
X375865Y879485D01*
X376652Y881384D01*
X377439Y879485D01*
X379352Y878692D01*
X399352D01*
X401265Y879485D01*
X402052Y881384D01*
X402839Y879485D01*
X404752Y878692D01*
X424752D01*
X426665Y879485D01*
X427452Y881384D01*
X428239Y879485D01*
X430152Y878692D01*
X447090D01*
X450202Y875580D01*
X389686D01*
X389686Y875580D01*
X388125Y875270D01*
X387686Y874977D01*
X386802Y874386D01*
X386802Y874386D01*
X379950Y867534D01*
X376682Y868184D01*
X372975Y867447D01*
X369833Y865347D01*
X367733Y862205D01*
X366996Y858498D01*
X367733Y854791D01*
X369833Y851649D01*
X372975Y849549D01*
X376682Y848812D01*
X380389Y849549D01*
X383531Y851649D01*
X385631Y854791D01*
X386368Y858498D01*
X385718Y861766D01*
X391375Y867424D01*
X398341D01*
X395233Y865347D01*
X393133Y862205D01*
X392396Y858498D01*
X393133Y854791D01*
X395233Y851649D01*
X398375Y849549D01*
X402082Y848812D01*
X405789Y849549D01*
X408931Y851649D01*
X411031Y854791D01*
X411768Y858498D01*
X411031Y862205D01*
X408931Y865347D01*
X405823Y867424D01*
X423741D01*
X420633Y865347D01*
X418533Y862205D01*
X417796Y858498D01*
X418533Y854791D01*
X420633Y851649D01*
X423775Y849549D01*
X427482Y848812D01*
X431189Y849549D01*
X434331Y851649D01*
X436431Y854791D01*
X437168Y858498D01*
X436431Y862205D01*
X434331Y865347D01*
X431223Y867424D01*
X449141D01*
X446033Y865347D01*
X443933Y862205D01*
X443196Y858498D01*
X443933Y854791D01*
X446033Y851649D01*
X449175Y849549D01*
X452882Y848812D01*
X456589Y849549D01*
X459731Y851649D01*
X461831Y854791D01*
X462568Y858498D01*
X461831Y862205D01*
X459731Y865347D01*
X456623Y867424D01*
X474541D01*
X471433Y865347D01*
X469333Y862205D01*
X468596Y858498D01*
X469333Y854791D01*
X471433Y851649D01*
X474575Y849549D01*
X478282Y848812D01*
X481989Y849549D01*
X485131Y851649D01*
X486462Y853641D01*
X486655Y852674D01*
X486706Y852415D01*
X487590Y851092D01*
X489744Y848938D01*
X487275Y848447D01*
X484133Y846347D01*
X482033Y843205D01*
X481296Y839498D01*
X482033Y835791D01*
X484133Y832649D01*
X487275Y830549D01*
X490982Y829812D01*
X494689Y830549D01*
X497831Y832649D01*
X499283Y834821D01*
X499782Y834074D01*
X503674Y830182D01*
X499975Y829447D01*
X496833Y827347D01*
X494733Y824205D01*
X493996Y820498D01*
X494733Y816791D01*
X495505Y815636D01*
X486459D01*
X487231Y816791D01*
X487968Y820498D01*
X487231Y824205D01*
X485131Y827347D01*
X481989Y829447D01*
X478282Y830184D01*
X474575Y829447D01*
X471433Y827347D01*
X469333Y824205D01*
X468596Y820498D01*
X469333Y816791D01*
X470105Y815636D01*
X461059D01*
X461831Y816791D01*
X462568Y820498D01*
X461831Y824205D01*
X459731Y827347D01*
X456589Y829447D01*
X452882Y830184D01*
X449175Y829447D01*
X446033Y827347D01*
X443933Y824205D01*
X443196Y820498D01*
X443933Y816791D01*
X444705Y815636D01*
X435659D01*
X436431Y816791D01*
X437168Y820498D01*
X436431Y824205D01*
X434331Y827347D01*
X431189Y829447D01*
X427482Y830184D01*
X423775Y829447D01*
X420633Y827347D01*
X418533Y824205D01*
X417796Y820498D01*
X418533Y816791D01*
X419305Y815636D01*
X412711D01*
X411118Y817230D01*
X411768Y820498D01*
X411031Y824205D01*
X408931Y827347D01*
X405789Y829447D01*
X402082Y830184D01*
X398375Y829447D01*
X395233Y827347D01*
X393133Y824205D01*
X392396Y820498D01*
X393133Y816791D01*
X395233Y813649D01*
X398375Y811549D01*
X402082Y810812D01*
X405350Y811462D01*
X408138Y808674D01*
X408138Y808674D01*
X409461Y807790D01*
X411022Y807480D01*
X432753D01*
X431233Y805205D01*
X430496Y801498D01*
X431233Y797791D01*
X433333Y794649D01*
X436475Y792549D01*
X440182Y791812D01*
X443889Y792549D01*
X447031Y794649D01*
X449131Y797791D01*
X449868Y801498D01*
X449131Y805205D01*
X447611Y807480D01*
X458153D01*
X456633Y805205D01*
X455896Y801498D01*
X456633Y797791D01*
X458733Y794649D01*
X461875Y792549D01*
X465582Y791812D01*
X469289Y792549D01*
X472431Y794649D01*
X474531Y797791D01*
X475268Y801498D01*
X474531Y805205D01*
X473011Y807480D01*
X483553D01*
X482033Y805205D01*
X481296Y801498D01*
X482033Y797791D01*
X484133Y794649D01*
X487275Y792549D01*
X490982Y791812D01*
X494689Y792549D01*
X497831Y794649D01*
X499931Y797791D01*
X500668Y801498D01*
X499931Y805205D01*
X498411Y807480D01*
X508953D01*
X507433Y805205D01*
X506696Y801498D01*
X507433Y797791D01*
X509533Y794649D01*
X512675Y792549D01*
X516382Y791812D01*
X520089Y792549D01*
X523231Y794649D01*
X525331Y797791D01*
X526068Y801498D01*
X525331Y805205D01*
X523811Y807480D01*
X526123D01*
X555738Y777865D01*
Y689610D01*
X555738Y689610D01*
X555997Y688308D01*
X556048Y688049D01*
X556932Y686726D01*
X563282Y680376D01*
X563282Y680376D01*
X564605Y679492D01*
X566166Y679182D01*
X596735D01*
X618730Y657187D01*
Y652808D01*
X618730Y652808D01*
X618989Y651506D01*
X619040Y651247D01*
X619924Y649924D01*
X625750Y644098D01*
X625972Y642983D01*
X627077Y641329D01*
X628731Y640224D01*
X630682Y639836D01*
X632633Y640224D01*
X634287Y641329D01*
X635392Y642983D01*
X635780Y644934D01*
X635392Y646885D01*
X634287Y648539D01*
X632633Y649644D01*
X631518Y649866D01*
X626886Y654497D01*
Y658876D01*
X626886Y658876D01*
X626627Y660178D01*
X626576Y660437D01*
X625692Y661760D01*
X601308Y686144D01*
X599985Y687028D01*
X599726Y687079D01*
X598424Y687338D01*
X598424Y687338D01*
X567855D01*
X563894Y691299D01*
Y779554D01*
X563894Y779554D01*
X563584Y781115D01*
X562700Y782438D01*
X530696Y814442D01*
X529373Y815326D01*
X529114Y815377D01*
X527812Y815636D01*
X527812Y815636D01*
X511859D01*
X512631Y816791D01*
X513368Y820498D01*
X512631Y824205D01*
X511926Y825260D01*
X522567D01*
X576820Y771007D01*
Y762028D01*
X576820Y762028D01*
X577079Y760726D01*
X577130Y760467D01*
X578014Y759144D01*
X634894Y702264D01*
X635116Y701149D01*
X636221Y699495D01*
X637875Y698390D01*
X638990Y698168D01*
X639812Y697347D01*
Y660530D01*
X639180Y659585D01*
X638792Y657634D01*
X639180Y655683D01*
X640285Y654029D01*
X641939Y652924D01*
X643890Y652536D01*
X645841Y652924D01*
X647495Y654029D01*
X648600Y655683D01*
X648988Y657634D01*
X648600Y659585D01*
X647968Y660530D01*
Y699036D01*
X647658Y700597D01*
X646774Y701920D01*
X646774Y701920D01*
X644758Y703936D01*
X644536Y705051D01*
X643431Y706705D01*
X641777Y707810D01*
X640662Y708032D01*
X584976Y763717D01*
Y772696D01*
X584758Y773793D01*
X584709Y774039D01*
X654036Y704713D01*
Y618683D01*
X644704Y609352D01*
X642955Y609004D01*
X641301Y607899D01*
X640196Y606245D01*
X639808Y604294D01*
X640196Y602343D01*
X641301Y600689D01*
X642955Y599584D01*
X644906Y599196D01*
X646857Y599584D01*
X648511Y600689D01*
X649616Y602343D01*
X649712Y602824D01*
X660998Y614110D01*
X660998Y614110D01*
X661882Y615433D01*
X661933Y615692D01*
X662192Y616994D01*
X662192Y616994D01*
Y706402D01*
X662192Y706402D01*
X661933Y707704D01*
X661882Y707963D01*
X660998Y709286D01*
X660998Y709286D01*
X583960Y786323D01*
Y797302D01*
X585733Y794649D01*
X588875Y792549D01*
X592582Y791812D01*
X593064Y791908D01*
X686710Y698262D01*
X686932Y697147D01*
X688037Y695493D01*
X689691Y694388D01*
X691642Y694000D01*
X693593Y694388D01*
X695247Y695493D01*
X696352Y697147D01*
X696740Y699098D01*
X696352Y701049D01*
X695247Y702703D01*
X693593Y703808D01*
X692478Y704030D01*
X600404Y796104D01*
X601531Y797791D01*
X601646Y798370D01*
X602398Y797244D01*
X612304Y787338D01*
X612304Y787338D01*
X613627Y786454D01*
X615188Y786144D01*
X623659D01*
X712110Y697692D01*
X712332Y696577D01*
X713437Y694923D01*
X715091Y693818D01*
X717042Y693430D01*
X718993Y693818D01*
X720647Y694923D01*
X721752Y696577D01*
X722140Y698528D01*
X721752Y700479D01*
X720647Y702133D01*
X718993Y703238D01*
X717878Y703460D01*
X687176Y734162D01*
X688675Y733160D01*
X690626Y732772D01*
X692577Y733160D01*
X693522Y733792D01*
X715861D01*
X731910Y717742D01*
X731910Y717742D01*
X733233Y716858D01*
X733492Y716807D01*
X734794Y716548D01*
X734794Y716548D01*
X738556D01*
Y701679D01*
X685127Y648250D01*
X683362D01*
X682417Y648882D01*
X680466Y649270D01*
X678515Y648882D01*
X676861Y647777D01*
X675756Y646123D01*
X675368Y644172D01*
X675756Y642221D01*
X676861Y640567D01*
X678515Y639462D01*
X680466Y639074D01*
X682417Y639462D01*
X683362Y640094D01*
X686816D01*
X686816Y640094D01*
X688118Y640353D01*
X688377Y640404D01*
X689700Y641288D01*
X707503Y659091D01*
Y643702D01*
X656171Y592370D01*
X515620D01*
X514059Y592060D01*
X512736Y591176D01*
X512736Y591176D01*
X500469Y578908D01*
X474218D01*
X474218Y578908D01*
X472916Y578649D01*
X472657Y578598D01*
X471334Y577714D01*
X471334Y577714D01*
X458888Y565268D01*
X458004Y563945D01*
X457953Y563686D01*
X457694Y562384D01*
X457694Y562384D01*
Y540959D01*
X447474Y530740D01*
X446359Y530518D01*
X444705Y529413D01*
X443600Y527759D01*
X443212Y525808D01*
X443600Y523857D01*
X444705Y522203D01*
X446359Y521098D01*
X448310Y520710D01*
X450261Y521098D01*
X451915Y522203D01*
X453020Y523857D01*
X453242Y524972D01*
X463287Y535017D01*
X463164Y534398D01*
X463513Y532642D01*
X464010Y531898D01*
X463513Y531154D01*
X463164Y529398D01*
X463513Y527642D01*
X464010Y526898D01*
X463513Y526154D01*
X463164Y524398D01*
X463513Y522642D01*
X464010Y521898D01*
X463513Y521154D01*
X463164Y519398D01*
X463513Y517642D01*
X464010Y516898D01*
X463513Y516154D01*
X463164Y514398D01*
X463513Y512642D01*
X464010Y511898D01*
X463513Y511154D01*
X463164Y509398D01*
X463513Y507642D01*
X464010Y506898D01*
X463513Y506154D01*
X463164Y504398D01*
X463513Y502642D01*
X464508Y501154D01*
X465996Y500159D01*
X467752Y499810D01*
X468936Y500045D01*
X468963Y499908D01*
X469958Y498420D01*
X471446Y497425D01*
X473202Y497076D01*
X474958Y497425D01*
X476446Y498420D01*
X477441Y499908D01*
X477480Y500103D01*
X478652Y499870D01*
X479893Y500117D01*
X480858Y498674D01*
X482346Y497679D01*
X484102Y497330D01*
X485858Y497679D01*
X487346Y498674D01*
X488311Y500117D01*
X489552Y499870D01*
X491308Y500219D01*
X492796Y501214D01*
X493791Y502702D01*
X494140Y504458D01*
X493791Y506214D01*
X493294Y506958D01*
X493791Y507702D01*
X494140Y509458D01*
X493791Y511214D01*
X493294Y511958D01*
X493791Y512702D01*
X494140Y514458D01*
X493791Y516214D01*
X493294Y516958D01*
X493791Y517702D01*
X494140Y519458D01*
X493791Y521214D01*
X493294Y521958D01*
X493791Y522702D01*
X494140Y524458D01*
X493791Y526214D01*
X493294Y526958D01*
X493791Y527702D01*
X494140Y529458D01*
X493791Y531214D01*
X493294Y531958D01*
X493791Y532702D01*
X494140Y534458D01*
X493791Y536214D01*
X492796Y537702D01*
X491308Y538697D01*
X489552Y539046D01*
X487796Y538697D01*
X486308Y537702D01*
X485344Y536259D01*
X484102Y536506D01*
X482861Y536259D01*
X481896Y537702D01*
X480408Y538697D01*
X478652Y539046D01*
X476896Y538697D01*
X475408Y537702D01*
X474413Y536214D01*
X474374Y536019D01*
X473202Y536252D01*
X472018Y536017D01*
X471991Y536154D01*
X470996Y537642D01*
X469508Y538637D01*
X467752Y538986D01*
X465996Y538637D01*
X465683Y538428D01*
X465850Y539270D01*
Y560695D01*
X466653Y561497D01*
X466324Y559844D01*
X466751Y557698D01*
X467967Y555879D01*
X469786Y554663D01*
X471732Y554276D01*
X479970Y546038D01*
X479970Y546038D01*
X481293Y545154D01*
X481552Y545103D01*
X482854Y544844D01*
X482854Y544844D01*
X495389D01*
X501931Y538301D01*
X500969Y538110D01*
X499315Y537005D01*
X498210Y535351D01*
X497822Y533400D01*
X498210Y531449D01*
X499315Y529795D01*
X500969Y528690D01*
X502920Y528302D01*
X504871Y528690D01*
X506525Y529795D01*
X507630Y531449D01*
X507821Y532411D01*
X538898Y501334D01*
X540221Y500450D01*
X540480Y500399D01*
X541782Y500140D01*
X541782Y500140D01*
X552094D01*
X553039Y499508D01*
X554990Y499120D01*
X556941Y499508D01*
X558595Y500613D01*
X559700Y502267D01*
X560088Y504218D01*
X559700Y506169D01*
X558595Y507823D01*
X556941Y508928D01*
X554990Y509316D01*
X553039Y508928D01*
X552094Y508296D01*
X543471D01*
X499962Y551806D01*
X498639Y552690D01*
X498380Y552741D01*
X497078Y553000D01*
X497078Y553000D01*
X484543D01*
X477500Y560044D01*
X477113Y561990D01*
X475897Y563809D01*
X474078Y565025D01*
X471932Y565452D01*
X470279Y565123D01*
X475907Y570752D01*
X502158D01*
X502158Y570752D01*
X503460Y571011D01*
X503719Y571062D01*
X505042Y571946D01*
X517309Y584214D01*
X657860D01*
X657860Y584214D01*
X659162Y584473D01*
X659421Y584524D01*
X660744Y585408D01*
X714465Y639129D01*
X714465Y639129D01*
X715349Y640452D01*
X715400Y640711D01*
X715659Y642013D01*
X715659Y642013D01*
Y657850D01*
X775373Y717564D01*
X817078D01*
X818023Y716932D01*
X819974Y716544D01*
X821925Y716932D01*
X823579Y718037D01*
X824684Y719691D01*
X825072Y721642D01*
X824684Y723593D01*
X823579Y725247D01*
X821925Y726352D01*
X819974Y726740D01*
X818023Y726352D01*
X817078Y725720D01*
X773684D01*
X772123Y725410D01*
X770800Y724526D01*
X770800Y724526D01*
X746712Y700438D01*
Y717730D01*
X747344Y718675D01*
X747566Y719790D01*
X764692Y736916D01*
X764692Y736916D01*
X765576Y738239D01*
X765886Y739800D01*
Y744146D01*
X766518Y745091D01*
X766906Y747042D01*
X766518Y748993D01*
X765413Y750647D01*
X763759Y751752D01*
X761808Y752140D01*
X759857Y751752D01*
X758203Y750647D01*
X757098Y748993D01*
X756710Y747042D01*
X757098Y745091D01*
X757730Y744146D01*
Y741489D01*
X741798Y725558D01*
X740683Y725336D01*
X739738Y724704D01*
X736483D01*
X720434Y740754D01*
X719111Y741638D01*
X718852Y741689D01*
X717550Y741948D01*
X717550Y741948D01*
X693522D01*
X692577Y742580D01*
X690626Y742968D01*
X688675Y742580D01*
X687021Y741475D01*
X685916Y739821D01*
X685528Y737870D01*
X685916Y735919D01*
X686918Y734420D01*
X628232Y793106D01*
X626909Y793990D01*
X626650Y794041D01*
X625348Y794300D01*
X625348Y794300D01*
X624309D01*
X624831Y794649D01*
X626138Y796605D01*
X626152Y796535D01*
X627036Y795212D01*
X659548Y762700D01*
X659548Y762700D01*
X660871Y761816D01*
X662432Y761506D01*
X682237D01*
X681344Y760169D01*
X680956Y758218D01*
X681344Y756267D01*
X682449Y754613D01*
X684103Y753508D01*
X686054Y753120D01*
X688005Y753508D01*
X688950Y754140D01*
X703166D01*
X703166Y754140D01*
X704468Y754399D01*
X704727Y754450D01*
X706050Y755334D01*
X706633Y755918D01*
X762914D01*
X763859Y755286D01*
X765810Y754898D01*
X767761Y755286D01*
X769415Y756391D01*
X770520Y758045D01*
X770908Y759996D01*
X770608Y761506D01*
X801143D01*
X840190Y722458D01*
X840577Y720512D01*
X841793Y718693D01*
X843612Y717477D01*
X845758Y717050D01*
X847904Y717477D01*
X848346Y717772D01*
Y669737D01*
X834300Y655692D01*
X833416Y654369D01*
X833365Y654110D01*
X833106Y652808D01*
X833106Y652808D01*
Y644172D01*
X833106Y644172D01*
X833365Y642870D01*
X833416Y642611D01*
X834300Y641288D01*
X839888Y635700D01*
X841211Y634816D01*
X841470Y634765D01*
X842772Y634506D01*
X842772Y634506D01*
X869888D01*
X869888Y634506D01*
X871190Y634765D01*
X871449Y634816D01*
X872772Y635700D01*
X879868Y642796D01*
X880983Y643018D01*
X882637Y644123D01*
X883742Y645777D01*
X884130Y647728D01*
X883742Y649679D01*
X882637Y651333D01*
X880983Y652438D01*
X879032Y652826D01*
X877081Y652438D01*
X875427Y651333D01*
X874322Y649679D01*
X874100Y648564D01*
X868199Y642662D01*
X847171D01*
X848217Y643361D01*
X849322Y645015D01*
X849544Y646130D01*
X861404Y657990D01*
X861404Y657990D01*
X862288Y659313D01*
X862598Y660874D01*
Y799978D01*
X863033Y797791D01*
X865133Y794649D01*
X868275Y792549D01*
X871982Y791812D01*
X875689Y792549D01*
X878831Y794649D01*
X880931Y797791D01*
X881668Y801498D01*
X880931Y805205D01*
X878831Y808347D01*
X875689Y810447D01*
X872244Y811132D01*
X873088Y811976D01*
X873088Y811976D01*
X873972Y813299D01*
X874282Y814860D01*
Y823750D01*
X874282Y823750D01*
X873972Y825311D01*
X873679Y825750D01*
X873088Y826634D01*
X873088Y826634D01*
X869395Y830327D01*
X871982Y829812D01*
X875689Y830549D01*
X878831Y832649D01*
X880931Y835791D01*
X881668Y839498D01*
X880931Y843205D01*
X878831Y846347D01*
X875689Y848447D01*
X871982Y849184D01*
X868275Y848447D01*
X865133Y846347D01*
X863033Y843205D01*
X862296Y839498D01*
X862811Y836911D01*
X862090Y837631D01*
Y844578D01*
X861780Y846139D01*
X860896Y847462D01*
X859502Y848856D01*
X862989Y849549D01*
X866131Y851649D01*
X868231Y854791D01*
X868968Y858498D01*
X868231Y862205D01*
X866131Y865347D01*
X862989Y867447D01*
X859282Y868184D01*
X855575Y867447D01*
X852433Y865347D01*
X850660Y862694D01*
Y867692D01*
X850660Y867692D01*
X850401Y868994D01*
X850350Y869253D01*
X849466Y870576D01*
X849466Y870576D01*
X841350Y878692D01*
X856552D01*
X858465Y879485D01*
X859252Y881384D01*
X860039Y879485D01*
X861952Y878692D01*
X881952D01*
X883865Y879485D01*
X884652Y881384D01*
X885439Y879485D01*
X887352Y878692D01*
X907352D01*
X909265Y879485D01*
X910058Y881398D01*
Y901398D01*
X909265Y903311D01*
X907352Y904104D01*
D02*
G37*
G36*
X236982Y849184D02*
X233275Y848447D01*
X230133Y846347D01*
X228033Y843205D01*
X227296Y839498D01*
X228033Y835791D01*
X230133Y832649D01*
X233275Y830549D01*
X236982Y829812D01*
X240689Y830549D01*
X243831Y832649D01*
X245931Y835791D01*
X246668Y839498D01*
X245931Y843205D01*
X243831Y846347D01*
X240689Y848447D01*
X236982Y849184D01*
D02*
G37*
G36*
X440182D02*
X436475Y848447D01*
X433333Y846347D01*
X431233Y843205D01*
X430496Y839498D01*
X431233Y835791D01*
X433333Y832649D01*
X436475Y830549D01*
X440182Y829812D01*
X443889Y830549D01*
X447031Y832649D01*
X449131Y835791D01*
X449868Y839498D01*
X449131Y843205D01*
X447031Y846347D01*
X443889Y848447D01*
X440182Y849184D01*
D02*
G37*
G36*
X351282Y868184D02*
X347575Y867447D01*
X344433Y865347D01*
X342333Y862205D01*
X341596Y858498D01*
X342333Y854791D01*
X344433Y851649D01*
X347204Y849798D01*
Y836615D01*
X334816Y824227D01*
X332731Y827347D01*
X329589Y829447D01*
X325882Y830184D01*
X322175Y829447D01*
X319033Y827347D01*
X316933Y824205D01*
X316196Y820498D01*
X316846Y817230D01*
X314999Y815382D01*
X257689D01*
X258631Y816791D01*
X259368Y820498D01*
X258631Y824205D01*
X256531Y827347D01*
X253389Y829447D01*
X249682Y830184D01*
X245975Y829447D01*
X242833Y827347D01*
X240733Y824205D01*
X239996Y820498D01*
X240733Y816791D01*
X241675Y815382D01*
X232289D01*
X233231Y816791D01*
X233968Y820498D01*
X233231Y824205D01*
X231131Y827347D01*
X227989Y829447D01*
X224282Y830184D01*
X220575Y829447D01*
X217433Y827347D01*
X215333Y824205D01*
X214596Y820498D01*
X215333Y816791D01*
X217433Y813649D01*
X220575Y811549D01*
X223086Y811050D01*
X219213Y807177D01*
X218431Y808347D01*
X215289Y810447D01*
X211582Y811184D01*
X207875Y810447D01*
X204733Y808347D01*
X202633Y805205D01*
X201896Y801498D01*
X202633Y797791D01*
X204733Y794649D01*
X207875Y792549D01*
X211582Y791812D01*
X215289Y792549D01*
X217410Y793966D01*
Y779782D01*
X216524Y778457D01*
X216136Y776506D01*
X216524Y774555D01*
X217629Y772901D01*
X219283Y771796D01*
X221234Y771408D01*
X223185Y771796D01*
X224839Y772901D01*
X225944Y774555D01*
X226332Y776506D01*
X225944Y778457D01*
X225566Y779022D01*
Y801995D01*
X227849Y804277D01*
X227296Y801498D01*
X228033Y797791D01*
X230133Y794649D01*
X233275Y792549D01*
X236982Y791812D01*
X240689Y792549D01*
X243831Y794649D01*
X245931Y797791D01*
X246668Y801498D01*
X245931Y805205D01*
X244580Y807226D01*
X316688D01*
X316688Y807226D01*
X317990Y807485D01*
X318249Y807536D01*
X319572Y808420D01*
X322614Y811462D01*
X324474Y811092D01*
X295836Y782454D01*
X294721Y782232D01*
X293067Y781127D01*
X291962Y779473D01*
X291574Y777522D01*
X291962Y775571D01*
X293067Y773917D01*
X294721Y772812D01*
X296672Y772424D01*
X298623Y772812D01*
X300277Y773917D01*
X301382Y775571D01*
X301604Y776686D01*
X337148Y812230D01*
X338032Y813553D01*
X338342Y815114D01*
X338342Y815114D01*
Y816219D01*
X341766Y819642D01*
X342333Y816791D01*
X344433Y813649D01*
X347575Y811549D01*
X351282Y810812D01*
X354989Y811549D01*
X358131Y813649D01*
X360231Y816791D01*
X360968Y820498D01*
X360231Y824205D01*
X358131Y827347D01*
X354989Y829447D01*
X352138Y830014D01*
X354166Y832042D01*
X355050Y833365D01*
X355360Y834926D01*
X355360Y834926D01*
Y849798D01*
X358131Y851649D01*
X360231Y854791D01*
X360968Y858498D01*
X360231Y862205D01*
X358131Y865347D01*
X354989Y867447D01*
X351282Y868184D01*
D02*
G37*
G36*
X211582Y849184D02*
X207875Y848447D01*
X204733Y846347D01*
X202633Y843205D01*
X201896Y839498D01*
X202633Y835791D01*
X204733Y832649D01*
X207875Y830549D01*
X211582Y829812D01*
X215289Y830549D01*
X218431Y832649D01*
X220531Y835791D01*
X221268Y839498D01*
X220531Y843205D01*
X218431Y846347D01*
X215289Y848447D01*
X211582Y849184D01*
D02*
G37*
G36*
X465582D02*
X461875Y848447D01*
X458733Y846347D01*
X456633Y843205D01*
X455896Y839498D01*
X456633Y835791D01*
X458733Y832649D01*
X461875Y830549D01*
X465582Y829812D01*
X469289Y830549D01*
X472431Y832649D01*
X474531Y835791D01*
X475268Y839498D01*
X474531Y843205D01*
X472431Y846347D01*
X469289Y848447D01*
X465582Y849184D01*
D02*
G37*
G36*
X198882Y868184D02*
X195175Y867447D01*
X192033Y865347D01*
X189933Y862205D01*
X189196Y858498D01*
X189933Y854791D01*
X192033Y851649D01*
X195175Y849549D01*
X198882Y848812D01*
X202589Y849549D01*
X205731Y851649D01*
X207831Y854791D01*
X208568Y858498D01*
X207831Y862205D01*
X205731Y865347D01*
X202589Y867447D01*
X198882Y868184D01*
D02*
G37*
G36*
X224282D02*
X220575Y867447D01*
X217433Y865347D01*
X215333Y862205D01*
X214596Y858498D01*
X215333Y854791D01*
X217433Y851649D01*
X220575Y849549D01*
X224282Y848812D01*
X227989Y849549D01*
X231131Y851649D01*
X233231Y854791D01*
X233968Y858498D01*
X233231Y862205D01*
X231131Y865347D01*
X227989Y867447D01*
X224282Y868184D01*
D02*
G37*
G36*
X897382Y849184D02*
X893675Y848447D01*
X890533Y846347D01*
X888433Y843205D01*
X887696Y839498D01*
X888433Y835791D01*
X890533Y832649D01*
X893675Y830549D01*
X897382Y829812D01*
X901089Y830549D01*
X904231Y832649D01*
X906331Y835791D01*
X907068Y839498D01*
X906331Y843205D01*
X904231Y846347D01*
X901089Y848447D01*
X897382Y849184D01*
D02*
G37*
G36*
X922782D02*
X919075Y848447D01*
X915933Y846347D01*
X913833Y843205D01*
X913096Y839498D01*
X913833Y835791D01*
X915933Y832649D01*
X919075Y830549D01*
X922782Y829812D01*
X926489Y830549D01*
X929631Y832649D01*
X931731Y835791D01*
X932468Y839498D01*
X931731Y843205D01*
X929631Y846347D01*
X926489Y848447D01*
X922782Y849184D01*
D02*
G37*
G36*
X940308Y501442D02*
X938357Y501054D01*
X936703Y499949D01*
X935598Y498295D01*
X935210Y496344D01*
X935598Y494393D01*
X936703Y492739D01*
X938357Y491634D01*
X940308Y491246D01*
X942259Y491634D01*
X943913Y492739D01*
X945018Y494393D01*
X945406Y496344D01*
X945018Y498295D01*
X943913Y499949D01*
X942259Y501054D01*
X940308Y501442D01*
D02*
G37*
G36*
X779018Y501950D02*
X777067Y501562D01*
X775413Y500457D01*
X774308Y498803D01*
X773920Y496852D01*
X774308Y494901D01*
X775413Y493247D01*
X777067Y492142D01*
X779018Y491754D01*
X780969Y492142D01*
X782623Y493247D01*
X783728Y494901D01*
X784116Y496852D01*
X783728Y498803D01*
X782623Y500457D01*
X780969Y501562D01*
X779018Y501950D01*
D02*
G37*
G36*
X56482Y504224D02*
X36482D01*
X34569Y503431D01*
X33776Y501518D01*
Y481518D01*
X34569Y479605D01*
X36482Y478812D01*
X56482D01*
X58395Y479605D01*
X59188Y481518D01*
Y501518D01*
X58395Y503431D01*
X56482Y504224D01*
D02*
G37*
G36*
X489712Y484690D02*
X487956Y484341D01*
X486468Y483346D01*
X485503Y481903D01*
X484262Y482150D01*
X483021Y481903D01*
X482056Y483346D01*
X480568Y484341D01*
X478812Y484690D01*
X477056Y484341D01*
X475568Y483346D01*
X474573Y481858D01*
X474534Y481663D01*
X473362Y481896D01*
X472178Y481661D01*
X472151Y481798D01*
X471156Y483286D01*
X469668Y484281D01*
X467912Y484630D01*
X466156Y484281D01*
X464668Y483286D01*
X463673Y481798D01*
X463324Y480042D01*
X463673Y478286D01*
X464170Y477542D01*
X463673Y476798D01*
X463324Y475042D01*
X463673Y473286D01*
X464170Y472542D01*
X463673Y471798D01*
X463324Y470042D01*
X463673Y468286D01*
X464170Y467542D01*
X463673Y466798D01*
X463324Y465042D01*
X463673Y463286D01*
X464170Y462542D01*
X463673Y461798D01*
X463324Y460042D01*
X463673Y458286D01*
X464170Y457542D01*
X463673Y456798D01*
X463324Y455042D01*
X463673Y453286D01*
X464170Y452542D01*
X463673Y451798D01*
X463324Y450042D01*
X463673Y448286D01*
X464668Y446798D01*
X466156Y445803D01*
X467912Y445454D01*
X469096Y445689D01*
X469123Y445552D01*
X470118Y444064D01*
X471606Y443069D01*
X473362Y442720D01*
X475118Y443069D01*
X476606Y444064D01*
X477601Y445552D01*
X477640Y445747D01*
X478812Y445514D01*
X480053Y445761D01*
X481018Y444318D01*
X482506Y443323D01*
X484262Y442974D01*
X486018Y443323D01*
X487506Y444318D01*
X488470Y445761D01*
X489712Y445514D01*
X491468Y445863D01*
X492956Y446858D01*
X493951Y448346D01*
X494300Y450102D01*
X493951Y451858D01*
X493454Y452602D01*
X493951Y453346D01*
X494300Y455102D01*
X493951Y456858D01*
X493454Y457602D01*
X493951Y458346D01*
X494300Y460102D01*
X493951Y461858D01*
X493454Y462602D01*
X493951Y463346D01*
X494300Y465102D01*
X493951Y466858D01*
X493454Y467602D01*
X493951Y468346D01*
X494300Y470102D01*
X493951Y471858D01*
X493454Y472602D01*
X493951Y473346D01*
X494300Y475102D01*
X493951Y476858D01*
X493454Y477602D01*
X493951Y478346D01*
X494300Y480102D01*
X493951Y481858D01*
X492956Y483346D01*
X491468Y484341D01*
X489712Y484690D01*
D02*
G37*
G36*
X622300Y502712D02*
X620349Y502324D01*
X618695Y501219D01*
X617590Y499565D01*
X617202Y497614D01*
X617590Y495663D01*
X618695Y494009D01*
X620349Y492904D01*
X622300Y492516D01*
X624251Y492904D01*
X625905Y494009D01*
X627010Y495663D01*
X627398Y497614D01*
X627010Y499565D01*
X625905Y501219D01*
X624251Y502324D01*
X622300Y502712D01*
D02*
G37*
G36*
X312928Y552266D02*
X306402Y551407D01*
X300320Y548887D01*
X295098Y544880D01*
X291091Y539658D01*
X288571Y533576D01*
X287712Y527050D01*
X288571Y520524D01*
X291091Y514442D01*
X295098Y509220D01*
X300320Y505213D01*
X306402Y502693D01*
X312928Y501834D01*
X319454Y502693D01*
X325536Y505213D01*
X330758Y509220D01*
X334765Y514442D01*
X337285Y520524D01*
X338144Y527050D01*
X337285Y533576D01*
X334765Y539658D01*
X330758Y544880D01*
X325536Y548887D01*
X319454Y551407D01*
X312928Y552266D01*
D02*
G37*
G36*
X805626Y519476D02*
X803675Y519088D01*
X802021Y517983D01*
X800916Y516329D01*
X800528Y514378D01*
X800916Y512427D01*
X802021Y510773D01*
X803675Y509668D01*
X805626Y509280D01*
X807577Y509668D01*
X809231Y510773D01*
X810336Y512427D01*
X810724Y514378D01*
X810336Y516329D01*
X809231Y517983D01*
X807577Y519088D01*
X805626Y519476D01*
D02*
G37*
G36*
X444754Y502966D02*
X442803Y502578D01*
X441149Y501473D01*
X440044Y499819D01*
X439656Y497868D01*
X440044Y495917D01*
X441149Y494263D01*
X442803Y493158D01*
X444754Y492770D01*
X446705Y493158D01*
X448359Y494263D01*
X449464Y495917D01*
X449852Y497868D01*
X449464Y499819D01*
X448359Y501473D01*
X446705Y502578D01*
X444754Y502966D01*
D02*
G37*
G36*
X574294Y509570D02*
X572343Y509182D01*
X570689Y508077D01*
X569584Y506423D01*
X569196Y504472D01*
X569584Y502521D01*
X570689Y500867D01*
X572343Y499762D01*
X574294Y499374D01*
X576245Y499762D01*
X577899Y500867D01*
X579004Y502521D01*
X579392Y504472D01*
X579004Y506423D01*
X577899Y508077D01*
X576245Y509182D01*
X574294Y509570D01*
D02*
G37*
G36*
Y487570D02*
X572343Y487182D01*
X570689Y486077D01*
X569584Y484423D01*
X569196Y482472D01*
X569584Y480521D01*
X570689Y478867D01*
X572343Y477762D01*
X574294Y477374D01*
X576245Y477762D01*
X577899Y478867D01*
X579004Y480521D01*
X579392Y482472D01*
X579004Y484423D01*
X577899Y486077D01*
X576245Y487182D01*
X574294Y487570D01*
D02*
G37*
G36*
X859282Y455214D02*
X857331Y454826D01*
X855677Y453721D01*
X854572Y452067D01*
X854184Y450116D01*
X854572Y448165D01*
X855677Y446511D01*
X857331Y445406D01*
X859282Y445018D01*
X861233Y445406D01*
X862887Y446511D01*
X863992Y448165D01*
X864380Y450116D01*
X863992Y452067D01*
X862887Y453721D01*
X861233Y454826D01*
X859282Y455214D01*
D02*
G37*
G36*
X566674Y458996D02*
X564723Y458608D01*
X563069Y457503D01*
X561964Y455849D01*
X561576Y453898D01*
X561964Y451947D01*
X563069Y450293D01*
X564723Y449188D01*
X566674Y448800D01*
X568625Y449188D01*
X570279Y450293D01*
X571384Y451947D01*
X571772Y453898D01*
X571384Y455849D01*
X570279Y457503D01*
X568625Y458608D01*
X566674Y458996D01*
D02*
G37*
G36*
X1021334Y455724D02*
X1019188Y455297D01*
X1017369Y454081D01*
X1016153Y452262D01*
X1015726Y450116D01*
X1016153Y447970D01*
X1017369Y446151D01*
X1019188Y444935D01*
X1021334Y444508D01*
X1023480Y444935D01*
X1025299Y446151D01*
X1026515Y447970D01*
X1026942Y450116D01*
X1026515Y452262D01*
X1025299Y454081D01*
X1023480Y455297D01*
X1021334Y455724D01*
D02*
G37*
G36*
X704088Y455214D02*
X702137Y454826D01*
X700483Y453721D01*
X699378Y452067D01*
X698990Y450116D01*
X699378Y448165D01*
X700483Y446511D01*
X702137Y445406D01*
X704088Y445018D01*
X706039Y445406D01*
X707693Y446511D01*
X708798Y448165D01*
X709186Y450116D01*
X708798Y452067D01*
X707693Y453721D01*
X706039Y454826D01*
X704088Y455214D01*
D02*
G37*
G36*
X378714Y499942D02*
X372188Y499082D01*
X366106Y496563D01*
X360884Y492556D01*
X356877Y487334D01*
X354357Y481252D01*
X353498Y474726D01*
X354357Y468200D01*
X356877Y462118D01*
X360884Y456896D01*
X366106Y452889D01*
X372188Y450369D01*
X378714Y449510D01*
X385240Y450369D01*
X391322Y452889D01*
X396544Y456896D01*
X400551Y462118D01*
X403070Y468200D01*
X403930Y474726D01*
X403070Y481252D01*
X400551Y487334D01*
X396544Y492556D01*
X391322Y496563D01*
X385240Y499082D01*
X378714Y499942D01*
D02*
G37*
G36*
X863696Y468676D02*
X861745Y468288D01*
X860091Y467183D01*
X858986Y465529D01*
X858598Y463578D01*
X858986Y461627D01*
X860091Y459973D01*
X861745Y458868D01*
X863696Y458480D01*
X865647Y458868D01*
X867301Y459973D01*
X868406Y461627D01*
X868794Y463578D01*
X868406Y465529D01*
X867301Y467183D01*
X865647Y468288D01*
X863696Y468676D01*
D02*
G37*
G36*
X1025446D02*
X1023495Y468288D01*
X1021841Y467183D01*
X1020736Y465529D01*
X1020348Y463578D01*
X1020736Y461627D01*
X1021841Y459973D01*
X1023495Y458868D01*
X1025446Y458480D01*
X1027397Y458868D01*
X1029051Y459973D01*
X1030156Y461627D01*
X1030544Y463578D01*
X1030156Y465529D01*
X1029051Y467183D01*
X1027397Y468288D01*
X1025446Y468676D01*
D02*
G37*
G36*
X531622Y464612D02*
X529671Y464224D01*
X528017Y463119D01*
X526912Y461465D01*
X526524Y459514D01*
X526912Y457563D01*
X528017Y455909D01*
X529671Y454804D01*
X531622Y454416D01*
X533573Y454804D01*
X535227Y455909D01*
X536332Y457563D01*
X536720Y459514D01*
X536332Y461465D01*
X535227Y463119D01*
X533573Y464224D01*
X531622Y464612D01*
D02*
G37*
G36*
X706676Y468676D02*
X704725Y468288D01*
X703071Y467183D01*
X701966Y465529D01*
X701578Y463578D01*
X701966Y461627D01*
X703071Y459973D01*
X704725Y458868D01*
X706676Y458480D01*
X708627Y458868D01*
X710281Y459973D01*
X711386Y461627D01*
X711774Y463578D01*
X711386Y465529D01*
X710281Y467183D01*
X708627Y468288D01*
X706676Y468676D01*
D02*
G37*
G36*
X622584Y538018D02*
X620633Y537630D01*
X618979Y536525D01*
X617874Y534871D01*
X617486Y532920D01*
X617874Y530969D01*
X618979Y529315D01*
X620633Y528210D01*
X622584Y527822D01*
X624535Y528210D01*
X626189Y529315D01*
X627294Y530969D01*
X627682Y532920D01*
X627294Y534871D01*
X626189Y536525D01*
X624535Y537630D01*
X622584Y538018D01*
D02*
G37*
G36*
X551180Y551983D02*
X546693Y551091D01*
X542889Y548549D01*
X540347Y544745D01*
X539455Y540258D01*
X540347Y535771D01*
X542889Y531967D01*
X546693Y529425D01*
X551180Y528533D01*
X555667Y529425D01*
X559471Y531967D01*
X562013Y535771D01*
X562905Y540258D01*
X562013Y544745D01*
X559471Y548549D01*
X555667Y551091D01*
X551180Y551983D01*
D02*
G37*
G36*
X529336Y539412D02*
X527385Y539024D01*
X525731Y537919D01*
X524626Y536265D01*
X524238Y534314D01*
X524626Y532363D01*
X525731Y530709D01*
X527385Y529604D01*
X529336Y529216D01*
X531287Y529604D01*
X532941Y530709D01*
X534046Y532363D01*
X534434Y534314D01*
X534046Y536265D01*
X532941Y537919D01*
X531287Y539024D01*
X529336Y539412D01*
D02*
G37*
G36*
X941832Y534716D02*
X939881Y534328D01*
X938227Y533223D01*
X937122Y531569D01*
X936734Y529618D01*
X937122Y527667D01*
X938227Y526013D01*
X939881Y524908D01*
X941832Y524520D01*
X943783Y524908D01*
X945437Y526013D01*
X946542Y527667D01*
X946930Y529618D01*
X946542Y531569D01*
X945437Y533223D01*
X943783Y534328D01*
X941832Y534716D01*
D02*
G37*
G36*
X754888Y535224D02*
X752937Y534836D01*
X751283Y533731D01*
X750178Y532077D01*
X749790Y530126D01*
X750178Y528175D01*
X751283Y526521D01*
X752937Y525416D01*
X754888Y525028D01*
X756839Y525416D01*
X758493Y526521D01*
X759598Y528175D01*
X759986Y530126D01*
X759598Y532077D01*
X758493Y533731D01*
X756839Y534836D01*
X754888Y535224D01*
D02*
G37*
G36*
X915162Y536748D02*
X913211Y536360D01*
X911557Y535255D01*
X910452Y533601D01*
X910064Y531650D01*
X910452Y529699D01*
X911557Y528045D01*
X913211Y526940D01*
X915162Y526552D01*
X917113Y526940D01*
X918767Y528045D01*
X919872Y529699D01*
X920260Y531650D01*
X919872Y533601D01*
X918767Y535255D01*
X917113Y536360D01*
X915162Y536748D01*
D02*
G37*
G36*
X672686Y574074D02*
X652686D01*
X650773Y573281D01*
X649980Y571368D01*
Y551368D01*
X650773Y549455D01*
X652686Y548662D01*
X672686D01*
X674599Y549455D01*
X675392Y551368D01*
Y571368D01*
X674599Y573281D01*
X672686Y574074D01*
D02*
G37*
G36*
X536796Y578900D02*
X516796D01*
X514883Y578107D01*
X514090Y576194D01*
Y556194D01*
X514883Y554281D01*
X516796Y553488D01*
X536796D01*
X538709Y554281D01*
X539502Y556194D01*
Y576194D01*
X538709Y578107D01*
X536796Y578900D01*
D02*
G37*
G36*
X333310Y626179D02*
X328823Y625287D01*
X325019Y622745D01*
X322477Y618941D01*
X321585Y614454D01*
X322477Y609967D01*
X325019Y606163D01*
X328823Y603621D01*
X333310Y602729D01*
X337797Y603621D01*
X341601Y606163D01*
X344143Y609967D01*
X345035Y614454D01*
X344143Y618941D01*
X341601Y622745D01*
X337797Y625287D01*
X333310Y626179D01*
D02*
G37*
G36*
X572262Y543098D02*
X570311Y542710D01*
X568657Y541605D01*
X567552Y539951D01*
X567164Y538000D01*
X567552Y536049D01*
X568657Y534395D01*
X570311Y533290D01*
X572262Y532902D01*
X574213Y533290D01*
X575867Y534395D01*
X576972Y536049D01*
X577360Y538000D01*
X576972Y539951D01*
X575867Y541605D01*
X574213Y542710D01*
X572262Y543098D01*
D02*
G37*
G36*
X986376Y571534D02*
X966376D01*
X964463Y570741D01*
X963670Y568828D01*
Y548828D01*
X964463Y546915D01*
X966376Y546122D01*
X986376D01*
X988289Y546915D01*
X989082Y548828D01*
Y568828D01*
X988289Y570741D01*
X986376Y571534D01*
D02*
G37*
G36*
X842612Y573058D02*
X822612D01*
X820699Y572265D01*
X819906Y570352D01*
Y550352D01*
X820699Y548439D01*
X822612Y547646D01*
X842612D01*
X844525Y548439D01*
X845318Y550352D01*
Y570352D01*
X844525Y572265D01*
X842612Y573058D01*
D02*
G37*
G36*
X1024066Y520746D02*
X1022115Y520358D01*
X1020461Y519253D01*
X1019356Y517599D01*
X1018968Y515648D01*
X1019356Y513697D01*
X1020461Y512043D01*
X1022115Y510938D01*
X1024066Y510550D01*
X1026017Y510938D01*
X1027671Y512043D01*
X1028776Y513697D01*
X1029164Y515648D01*
X1028776Y517599D01*
X1027671Y519253D01*
X1026017Y520358D01*
X1024066Y520746D01*
D02*
G37*
G36*
X704026Y522016D02*
X702075Y521628D01*
X700421Y520523D01*
X699316Y518869D01*
X698928Y516918D01*
X699316Y514967D01*
X700421Y513313D01*
X702075Y512208D01*
X704026Y511820D01*
X705977Y512208D01*
X707631Y513313D01*
X708736Y514967D01*
X709124Y516918D01*
X708736Y518869D01*
X707631Y520523D01*
X705977Y521628D01*
X704026Y522016D01*
D02*
G37*
G36*
X968186Y519476D02*
X966235Y519088D01*
X964581Y517983D01*
X963476Y516329D01*
X963088Y514378D01*
X963476Y512427D01*
X964581Y510773D01*
X966235Y509668D01*
X968186Y509280D01*
X970137Y509668D01*
X971791Y510773D01*
X972896Y512427D01*
X973284Y514378D01*
X972896Y516329D01*
X971791Y517983D01*
X970137Y519088D01*
X968186Y519476D01*
D02*
G37*
G36*
X649416Y519476D02*
X647465Y519088D01*
X645811Y517983D01*
X644706Y516329D01*
X644318Y514378D01*
X644706Y512427D01*
X645811Y510773D01*
X647465Y509668D01*
X649416Y509280D01*
X651367Y509668D01*
X653021Y510773D01*
X654126Y512427D01*
X654514Y514378D01*
X654126Y516329D01*
X653021Y517983D01*
X651367Y519088D01*
X649416Y519476D01*
D02*
G37*
G36*
X861506Y523286D02*
X859555Y522898D01*
X857901Y521793D01*
X856796Y520139D01*
X856408Y518188D01*
X856796Y516237D01*
X857901Y514583D01*
X859555Y513478D01*
X861506Y513090D01*
X863457Y513478D01*
X865111Y514583D01*
X866216Y516237D01*
X866604Y518188D01*
X866216Y520139D01*
X865111Y521793D01*
X863457Y522898D01*
X861506Y523286D01*
D02*
G37*
G36*
X782828Y533700D02*
X780877Y533312D01*
X779223Y532207D01*
X778118Y530553D01*
X777730Y528602D01*
X778118Y526651D01*
X779223Y524997D01*
X780877Y523892D01*
X782828Y523504D01*
X784779Y523892D01*
X786433Y524997D01*
X787538Y526651D01*
X787926Y528602D01*
X787538Y530553D01*
X786433Y532207D01*
X784779Y533312D01*
X782828Y533700D01*
D02*
G37*
%LPD*%
G36*
X763533Y832649D02*
X765557Y831296D01*
X763688Y829428D01*
X762804Y828105D01*
X762753Y827846D01*
X762494Y826544D01*
X762494Y826544D01*
Y813247D01*
X754017Y804771D01*
X753931Y805205D01*
X751831Y808347D01*
X748689Y810447D01*
X744982Y811184D01*
X744105Y811010D01*
X748628Y815532D01*
X748628Y815532D01*
X749512Y816855D01*
X749822Y818416D01*
Y824347D01*
X753529Y828054D01*
X755142D01*
X755142Y828054D01*
X756444Y828313D01*
X756703Y828364D01*
X758026Y829248D01*
X760820Y832042D01*
X760820Y832042D01*
X761704Y833365D01*
X762014Y834923D01*
X763533Y832649D01*
D02*
G37*
G36*
X842504Y866003D02*
Y862694D01*
X840731Y865347D01*
X837589Y867447D01*
X833882Y868184D01*
X830175Y867447D01*
X827033Y865347D01*
X824933Y862205D01*
X824196Y858498D01*
X824933Y854791D01*
X827033Y851649D01*
X830175Y849549D01*
X833882Y848812D01*
X837589Y849549D01*
X840731Y851649D01*
X842765Y854693D01*
X842814Y854447D01*
X843698Y853124D01*
X847900Y848922D01*
X846582Y849184D01*
X842875Y848447D01*
X839733Y846347D01*
X837633Y843205D01*
X836896Y839498D01*
X837633Y835791D01*
X839733Y832649D01*
X842875Y830549D01*
X846582Y829812D01*
X850289Y830549D01*
X853431Y832649D01*
X854416Y834123D01*
X855128Y833058D01*
X858215Y829972D01*
X855575Y829447D01*
X852433Y827347D01*
X850333Y824205D01*
X849596Y820498D01*
X850333Y816791D01*
X852433Y813649D01*
X855575Y811549D01*
X859282Y810812D01*
X860663Y811087D01*
X855636Y806060D01*
X855298Y805553D01*
X853431Y808347D01*
X850289Y810447D01*
X846582Y811184D01*
X842875Y810447D01*
X839733Y808347D01*
X837633Y805205D01*
X836896Y801498D01*
X837633Y797791D01*
X839733Y794649D01*
X842875Y792549D01*
X846582Y791812D01*
X850289Y792549D01*
X853431Y794649D01*
X854442Y796161D01*
Y773144D01*
X837020Y790566D01*
X835697Y791450D01*
X835438Y791501D01*
X834136Y791760D01*
X834136Y791760D01*
X811287D01*
X804818Y798230D01*
X805468Y801498D01*
X804731Y805205D01*
X802631Y808347D01*
X799489Y810447D01*
X795782Y811184D01*
X792075Y810447D01*
X788933Y808347D01*
X786833Y805205D01*
X786096Y801498D01*
X786833Y797791D01*
X788933Y794649D01*
X792075Y792549D01*
X795782Y791812D01*
X799050Y792462D01*
X806714Y784798D01*
X806714Y784798D01*
X808037Y783914D01*
X809598Y783604D01*
X832447D01*
X848346Y767705D01*
Y727544D01*
X847904Y727839D01*
X845958Y728226D01*
X805716Y768468D01*
X804393Y769352D01*
X804134Y769403D01*
X802832Y769662D01*
X802832Y769662D01*
X664121D01*
X641622Y792162D01*
X643382Y791812D01*
X647089Y792549D01*
X650231Y794649D01*
X652331Y797791D01*
X653068Y801498D01*
X652331Y805205D01*
X651169Y806944D01*
X660995D01*
X659833Y805205D01*
X659096Y801498D01*
X659833Y797791D01*
X661933Y794649D01*
X665075Y792549D01*
X668782Y791812D01*
X672489Y792549D01*
X675631Y794649D01*
X677731Y797791D01*
X677916Y798720D01*
X678893Y797257D01*
X680547Y796152D01*
X682498Y795764D01*
X684449Y796152D01*
X685748Y797020D01*
X687333Y794649D01*
X690475Y792549D01*
X692662Y792114D01*
X693028Y790275D01*
X694133Y788621D01*
X695787Y787516D01*
X696902Y787294D01*
X697648Y786548D01*
X697648Y786548D01*
X698971Y785664D01*
X700532Y785354D01*
X714248D01*
X714248Y785354D01*
X715550Y785613D01*
X715809Y785664D01*
X717132Y786548D01*
X717370Y786786D01*
X717536Y786819D01*
Y786412D01*
X717846Y784851D01*
X718730Y783528D01*
X720053Y782644D01*
X720393Y782577D01*
X718492Y780676D01*
X717377Y780454D01*
X715723Y779349D01*
X714618Y777695D01*
X714230Y775744D01*
X714618Y773793D01*
X715723Y772139D01*
X717377Y771034D01*
X719328Y770646D01*
X721279Y771034D01*
X722933Y772139D01*
X724038Y773793D01*
X724260Y774908D01*
X725243Y775892D01*
X741616D01*
X741616Y775892D01*
X742918Y776151D01*
X743177Y776202D01*
X744500Y777086D01*
X757772Y790358D01*
X758656Y791681D01*
X758707Y791940D01*
X758966Y793242D01*
X758966Y793242D01*
Y798185D01*
X760959Y800177D01*
X761433Y797791D01*
X763533Y794649D01*
X766675Y792549D01*
X770382Y791812D01*
X774089Y792549D01*
X777231Y794649D01*
X779331Y797791D01*
X780068Y801498D01*
X779331Y805205D01*
X777231Y808347D01*
X774089Y810447D01*
X770569Y811147D01*
X770650Y811558D01*
Y824498D01*
X774329D01*
X774133Y824205D01*
X773396Y820498D01*
X774133Y816791D01*
X776233Y813649D01*
X779375Y811549D01*
X783082Y810812D01*
X786789Y811549D01*
X789931Y813649D01*
X792031Y816791D01*
X792768Y820498D01*
X792031Y824205D01*
X789931Y827347D01*
X786789Y829447D01*
X785209Y829761D01*
X785966Y830518D01*
X785966Y830518D01*
X786557Y831402D01*
X786850Y831841D01*
X787160Y833402D01*
X787160Y833402D01*
Y835302D01*
X788933Y832649D01*
X792075Y830549D01*
X795782Y829812D01*
X799489Y830549D01*
X802631Y832649D01*
X804731Y835791D01*
X805468Y839498D01*
X804731Y843205D01*
X802631Y846347D01*
X799489Y848447D01*
X795782Y849184D01*
X792075Y848447D01*
X788933Y846347D01*
X787160Y843694D01*
Y849798D01*
X789931Y851649D01*
X792031Y854791D01*
X792768Y858498D01*
X792031Y862205D01*
X789931Y865347D01*
X788724Y866154D01*
X795059D01*
X799446Y861766D01*
X798796Y858498D01*
X799533Y854791D01*
X801633Y851649D01*
X804775Y849549D01*
X808482Y848812D01*
X812189Y849549D01*
X815331Y851649D01*
X817431Y854791D01*
X818168Y858498D01*
X817431Y862205D01*
X815331Y865347D01*
X812189Y867447D01*
X808482Y868184D01*
X805214Y867534D01*
X800244Y872504D01*
X836003D01*
X842504Y866003D01*
D02*
G37*
G36*
X631608Y827470D02*
X631608Y827470D01*
X632492Y826879D01*
X632931Y826586D01*
X634492Y826276D01*
X634492Y826276D01*
X648517D01*
X647133Y824205D01*
X646396Y820498D01*
X647133Y816791D01*
X648263Y815100D01*
X636924D01*
X636697Y815252D01*
X634746Y815640D01*
X632795Y815252D01*
X631141Y814147D01*
X630036Y812493D01*
X629648Y810542D01*
X629851Y809520D01*
X622314Y817057D01*
Y822226D01*
X622314Y822226D01*
X622055Y823528D01*
X622004Y823787D01*
X621120Y825110D01*
X616029Y830200D01*
X617982Y829812D01*
X621689Y830549D01*
X624831Y832649D01*
X625471Y833607D01*
X631608Y827470D01*
D02*
G37*
%LPC*%
G36*
X833882Y830184D02*
X830175Y829447D01*
X827033Y827347D01*
X824933Y824205D01*
X824196Y820498D01*
X824933Y816791D01*
X827033Y813649D01*
X830175Y811549D01*
X833882Y810812D01*
X837589Y811549D01*
X840731Y813649D01*
X842831Y816791D01*
X843568Y820498D01*
X842831Y824205D01*
X840731Y827347D01*
X837589Y829447D01*
X833882Y830184D01*
D02*
G37*
G36*
X808482D02*
X804775Y829447D01*
X801633Y827347D01*
X799533Y824205D01*
X798796Y820498D01*
X799533Y816791D01*
X801633Y813649D01*
X804775Y811549D01*
X808482Y810812D01*
X812189Y811549D01*
X815331Y813649D01*
X817431Y816791D01*
X818168Y820498D01*
X817431Y824205D01*
X815331Y827347D01*
X812189Y829447D01*
X808482Y830184D01*
D02*
G37*
G36*
X821182Y849184D02*
X817475Y848447D01*
X814333Y846347D01*
X812233Y843205D01*
X811496Y839498D01*
X812233Y835791D01*
X814333Y832649D01*
X817475Y830549D01*
X821182Y829812D01*
X824889Y830549D01*
X828031Y832649D01*
X830131Y835791D01*
X830868Y839498D01*
X830131Y843205D01*
X828031Y846347D01*
X824889Y848447D01*
X821182Y849184D01*
D02*
G37*
G36*
Y811184D02*
X817475Y810447D01*
X814333Y808347D01*
X812233Y805205D01*
X811496Y801498D01*
X812233Y797791D01*
X814333Y794649D01*
X817475Y792549D01*
X821182Y791812D01*
X824889Y792549D01*
X828031Y794649D01*
X830131Y797791D01*
X830868Y801498D01*
X830131Y805205D01*
X828031Y808347D01*
X824889Y810447D01*
X821182Y811184D01*
D02*
G37*
%LPD*%
D10*
X684276Y839498D02*
X694182D01*
X446024Y580418D02*
X448056D01*
X423484Y700408D02*
Y705292D01*
X420116Y708660D02*
X423484Y705292D01*
X404876Y708660D02*
X420116D01*
X397256Y701040D02*
X404876Y708660D01*
X634746Y810542D02*
X635226Y811022D01*
X664972D01*
X559816Y689610D02*
X566166Y683260D01*
X598424D01*
X622808Y658876D01*
Y652808D02*
Y658876D01*
Y652808D02*
X630682Y644934D01*
X423164Y647446D02*
Y657860D01*
X418592Y642874D02*
X423164Y647446D01*
X418592Y610390D02*
Y642874D01*
X733806Y801878D02*
Y806478D01*
X721614Y789686D02*
X733806Y801878D01*
X721614Y786412D02*
Y789686D01*
X733806Y806478D02*
X745744Y818416D01*
X714248Y789432D02*
X716534Y791718D01*
X700532Y789432D02*
X714248D01*
X697738Y792226D02*
X700532Y789432D01*
X664972Y811022D02*
X665226Y811276D01*
X723138Y822198D02*
Y829056D01*
X710946Y810006D02*
X723138Y822198D01*
X686562Y810006D02*
X710946D01*
X682498Y805942D02*
X686562Y810006D01*
X724916Y830834D02*
X736600D01*
X723138Y829056D02*
X724916Y830834D01*
X682498Y800862D02*
Y805942D01*
X734794Y720626D02*
X742634D01*
X717550Y737870D02*
X734794Y720626D01*
X690626Y737870D02*
X717550D01*
X418592Y610390D02*
X448056Y580926D01*
X437642Y572036D02*
X446024Y580418D01*
X411734Y572036D02*
X437642D01*
X399796Y583974D02*
X411734Y572036D01*
X378460Y583974D02*
X399796D01*
X373380Y589054D02*
X378460Y583974D01*
X373380Y589054D02*
Y596674D01*
X844612Y646966D02*
X858520Y660874D01*
X592582Y798158D02*
X691642Y699098D01*
X592582Y798158D02*
Y801498D01*
X625348Y790222D02*
X717042Y698528D01*
X615188Y790222D02*
X625348D01*
X605282Y800128D02*
X615188Y790222D01*
X605282Y800128D02*
Y803684D01*
X592582Y816384D02*
X605282Y803684D01*
X592582Y816384D02*
Y839498D01*
X802832Y765584D02*
X845758Y722658D01*
X662432Y765584D02*
X802832D01*
X629920Y798096D02*
X662432Y765584D01*
X629920Y798096D02*
Y803684D01*
X618236Y815368D02*
X629920Y803684D01*
X618236Y815368D02*
Y822226D01*
X605282Y835180D02*
X618236Y822226D01*
X605282Y835180D02*
Y858498D01*
X448310Y525808D02*
X461772Y539270D01*
Y562384D01*
X474218Y574830D01*
X502158D01*
X773684Y721642D02*
X819974D01*
X747726Y858498D02*
X757682D01*
X737476Y848248D02*
X747726Y858498D01*
X726581Y848248D02*
X737476D01*
X723646Y851182D02*
X726581Y848248D01*
X715264Y851182D02*
X723646D01*
X703580Y839498D02*
X715264Y851182D01*
X694182Y839498D02*
X703580D01*
X630682Y858498D02*
X640130D01*
X651764Y846864D01*
X660400D01*
X664718Y851182D01*
X672592D01*
X684276Y839498D01*
X541782Y504218D02*
X554990D01*
X497078Y548922D02*
X541782Y504218D01*
X482854Y548922D02*
X497078D01*
X471932Y559844D02*
X482854Y548922D01*
X425704Y555780D02*
X434340D01*
X643890Y657634D02*
Y699036D01*
X639826Y703100D02*
X643890Y699036D01*
X481330Y871502D02*
X490474Y862358D01*
X389686Y871502D02*
X481330D01*
X376682Y858498D02*
X389686Y871502D01*
X869888Y638584D02*
X879032Y647728D01*
X842772Y638584D02*
X869888D01*
X837184Y644172D02*
X842772Y638584D01*
X837184Y644172D02*
Y652808D01*
X852424Y668048D01*
Y769394D01*
X834136Y787682D02*
X852424Y769394D01*
X809598Y787682D02*
X834136D01*
X795782Y801498D02*
X809598Y787682D01*
X858520Y660874D02*
Y803176D01*
X870204Y814860D01*
Y823750D01*
X858012Y835942D02*
X870204Y823750D01*
X858012Y835942D02*
Y844578D01*
X846582Y856008D02*
X858012Y844578D01*
X846582Y856008D02*
Y867692D01*
X745744Y818416D02*
Y826036D01*
X751840Y832132D01*
X755142D01*
X757936Y834926D01*
Y842292D01*
X770890Y855246D01*
Y862104D01*
X779018Y870232D01*
X796748D01*
X808482Y858498D01*
X515620Y588292D02*
X657860D01*
X711581Y642013D01*
Y659539D01*
X502158Y574830D02*
X515620Y588292D01*
X711581Y659539D02*
X773684Y721642D01*
X644906Y604294D02*
X645414D01*
X579882Y784634D02*
Y820498D01*
X505714Y627154D02*
Y740184D01*
X526542Y761012D01*
X434340Y555780D02*
X505714Y627154D01*
X564134Y630710D02*
X645922D01*
X513334Y681510D02*
X564134Y630710D01*
X316688Y811304D02*
X325882Y820498D01*
X229108Y811304D02*
X316688D01*
X221488Y803684D02*
X229108Y811304D01*
X221234Y776506D02*
X221488Y776252D01*
X351282Y834926D02*
Y858498D01*
X334264Y817908D02*
X351282Y834926D01*
X334264Y815114D02*
Y817908D01*
X296672Y777522D02*
X334264Y815114D01*
X673354Y876582D02*
X837692D01*
X668752Y881184D02*
X673354Y876582D01*
X668752Y881184D02*
Y891398D01*
X837692Y876582D02*
X846582Y867692D01*
X704392Y858498D02*
X706882D01*
X691134Y871756D02*
X704392Y858498D01*
X633730Y871756D02*
X691134D01*
X628142Y877344D02*
X633730Y871756D01*
X454206Y877344D02*
X628142D01*
X440152Y891398D02*
X454206Y877344D01*
X710438Y830354D02*
X719582Y839498D01*
X634492Y830354D02*
X710438D01*
X627888Y836958D02*
X634492Y830354D01*
X627888Y836958D02*
Y847118D01*
X621030Y853976D02*
X627888Y847118D01*
X621030Y853976D02*
Y861342D01*
X613664Y868708D02*
X621030Y861342D01*
X542544Y868708D02*
X613664D01*
X535178Y861342D02*
X542544Y868708D01*
X761808Y739800D02*
Y747042D01*
X742634Y720626D02*
X761808Y739800D01*
X556006Y836450D02*
X574548D01*
X542036Y850420D02*
X556006Y836450D01*
X510794Y850420D02*
X542036D01*
X507238Y846864D02*
X510794Y850420D01*
X580898Y762028D02*
X639826Y703100D01*
X580898Y762028D02*
Y772696D01*
X524256Y829338D02*
X580898Y772696D01*
X510286Y829338D02*
X524256D01*
X502666Y836958D02*
X510286Y829338D01*
X490474Y853976D02*
Y862358D01*
X502666Y836958D02*
Y841784D01*
X490474Y853976D02*
X502666Y841784D01*
X645414Y604294D02*
X658114Y616994D01*
Y706402D01*
X579882Y784634D02*
X658114Y706402D01*
X742634Y699990D02*
Y720626D01*
X527812Y811558D02*
X559816Y779554D01*
X411022Y811558D02*
X527812D01*
X402082Y820498D02*
X411022Y811558D01*
X559816Y689610D02*
Y779554D01*
X686816Y644172D02*
X742634Y699990D01*
X680466Y644172D02*
X686816D01*
X704944Y759996D02*
X765810D01*
X703166Y758218D02*
X704944Y759996D01*
X783082Y833402D02*
Y858498D01*
X778256Y828576D02*
X783082Y833402D01*
X768604Y828576D02*
X778256D01*
X766572Y826544D02*
X768604Y828576D01*
X766572Y811558D02*
Y826544D01*
X754888Y799874D02*
X766572Y811558D01*
X686054Y758218D02*
X703166D01*
X513334Y681510D02*
Y735358D01*
X548488Y770512D01*
X754888Y793242D02*
Y799874D01*
X741616Y779970D02*
X754888Y793242D01*
X719328Y775744D02*
X723554Y779970D01*
X741616D01*
X221488Y776252D02*
Y803684D01*
D31*
X211450Y891400D02*
D03*
X668752Y891398D02*
D03*
X440152D02*
D03*
D34*
X586894Y238407D02*
D03*
X825908Y237899D02*
D03*
D36*
X991362Y739638D02*
D03*
D41*
X884682Y820498D02*
D03*
X808482Y858498D02*
D03*
X783082D02*
D03*
X795782Y801498D02*
D03*
X757682Y858498D02*
D03*
Y820498D02*
D03*
X706882Y858498D02*
D03*
X719582Y839498D02*
D03*
X694182D02*
D03*
X630682Y858498D02*
D03*
Y820498D02*
D03*
X605282Y858498D02*
D03*
X592582Y839498D02*
D03*
X579882Y820498D02*
D03*
X592582Y801498D02*
D03*
X414782Y839498D02*
D03*
X402082Y820498D02*
D03*
X414782Y801498D02*
D03*
X376682Y858498D02*
D03*
X389382Y839498D02*
D03*
Y801498D02*
D03*
X351282Y858498D02*
D03*
X363982Y839498D02*
D03*
Y801498D02*
D03*
X338582Y839498D02*
D03*
X325882Y820498D02*
D03*
X338582Y801498D02*
D03*
X262382Y839498D02*
D03*
Y801498D02*
D03*
D45*
X423484Y700408D02*
D03*
X413484D02*
D03*
X650494Y723138D02*
D03*
X634746Y810542D02*
D03*
X423164Y657860D02*
D03*
X716534Y791718D02*
D03*
X697738Y792226D02*
D03*
X736600Y830834D02*
D03*
X665226Y811276D02*
D03*
X682498Y800862D02*
D03*
X747268Y688086D02*
D03*
X690626Y737870D02*
D03*
X739140Y772160D02*
D03*
X496570Y84864D02*
D03*
X521208Y138202D02*
D03*
X767334Y201644D02*
D03*
X745092Y580898D02*
D03*
X797092Y640898D02*
D03*
X699516Y620804D02*
D03*
X698754Y646712D02*
D03*
X452628Y559844D02*
D03*
X1097280Y683604D02*
D03*
X1083502Y600230D02*
D03*
X594788Y663346D02*
D03*
X615188Y653824D02*
D03*
X220980Y753838D02*
D03*
X270256D02*
D03*
X294894Y753838D02*
D03*
X420178Y774474D02*
D03*
X368492Y697258D02*
D03*
X367854Y728754D02*
D03*
X368808Y753838D02*
D03*
X397448Y748058D02*
D03*
X470978Y774474D02*
D03*
X476606Y735866D02*
D03*
X504190Y757648D02*
D03*
X550542Y761012D02*
D03*
X602934Y753646D02*
D03*
X574802Y750660D02*
D03*
X704342Y774474D02*
D03*
X814070Y745772D02*
D03*
X950784Y758980D02*
D03*
X958912Y601500D02*
D03*
X843342Y622328D02*
D03*
X844612Y596928D02*
D03*
X903032Y647728D02*
D03*
X927416Y659920D02*
D03*
X897382Y696558D02*
D03*
X762762Y723166D02*
D03*
X820166Y695796D02*
D03*
X795020Y691732D02*
D03*
X768858Y691224D02*
D03*
X636778Y679732D02*
D03*
X694120Y573560D02*
D03*
X693612Y598198D02*
D03*
X589280Y613692D02*
D03*
X467868Y612106D02*
D03*
X542544Y614646D02*
D03*
X495300Y586830D02*
D03*
X443230Y607026D02*
D03*
X421832Y582450D02*
D03*
X370016Y623344D02*
D03*
X373380Y573368D02*
D03*
X373318Y522760D02*
D03*
X260542Y614200D02*
D03*
X283910Y564134D02*
D03*
X855918Y285524D02*
D03*
X612456Y154206D02*
D03*
X524826Y343182D02*
D03*
X190754Y386870D02*
D03*
X380808Y389918D02*
D03*
X367852Y440718D02*
D03*
X311852D02*
D03*
X448056Y580926D02*
D03*
X373380Y596674D02*
D03*
X844612Y646966D02*
D03*
X691642Y699098D02*
D03*
X526542Y761012D02*
D03*
X819974Y721642D02*
D03*
X554990Y504218D02*
D03*
X645922Y630710D02*
D03*
X717042Y698528D02*
D03*
X448310Y525808D02*
D03*
X643890Y657634D02*
D03*
X639826Y703100D02*
D03*
X879032Y647728D02*
D03*
X644906Y604294D02*
D03*
X221234Y776506D02*
D03*
X296672Y777522D02*
D03*
X530606Y735866D02*
D03*
X535178Y861342D02*
D03*
X742634Y720626D02*
D03*
X761808Y747042D02*
D03*
X574548Y836450D02*
D03*
X507238Y846864D02*
D03*
X680466Y644172D02*
D03*
X630682Y644934D02*
D03*
X765810Y759996D02*
D03*
X719328Y775744D02*
D03*
X686054Y758218D02*
D03*
X151892Y196878D02*
D03*
X638556Y170970D02*
D03*
X852170Y163604D02*
D03*
X827278Y302542D02*
D03*
X716280Y230660D02*
D03*
X741680Y229644D02*
D03*
X339852Y416080D02*
D03*
X214630Y461038D02*
D03*
X216408Y436908D02*
D03*
X290322Y462054D02*
D03*
X549148Y770636D02*
D03*
X856832Y255298D02*
D03*
X767334Y257870D02*
D03*
X397256Y701040D02*
D03*
D46*
X467912Y480042D02*
D03*
Y475042D02*
D03*
Y470042D02*
D03*
Y465042D02*
D03*
Y460042D02*
D03*
Y455042D02*
D03*
Y450042D02*
D03*
X473362Y447308D02*
D03*
Y452308D02*
D03*
Y457308D02*
D03*
Y462308D02*
D03*
Y467308D02*
D03*
Y472308D02*
D03*
Y477308D02*
D03*
X478812Y450102D02*
D03*
Y455102D02*
D03*
Y460102D02*
D03*
Y465102D02*
D03*
Y470102D02*
D03*
Y475102D02*
D03*
Y480102D02*
D03*
X484262Y447562D02*
D03*
Y452562D02*
D03*
Y457562D02*
D03*
Y462562D02*
D03*
Y467562D02*
D03*
Y472562D02*
D03*
Y477562D02*
D03*
X489712Y450102D02*
D03*
Y455102D02*
D03*
Y460102D02*
D03*
Y470102D02*
D03*
Y475102D02*
D03*
Y480102D02*
D03*
Y465102D02*
D03*
D48*
X845758Y722658D02*
D03*
X425704Y555780D02*
D03*
X471932Y559844D02*
D03*
D50*
X552704Y312194D02*
D03*
D51*
X721614Y786412D02*
D03*
M02*
