G04 Layer_Color=128*
%FSLAX44Y44*%
%MOMM*%
G71*
G01*
G75*
%ADD84C,0.0508*%
D84*
X421984Y700408D02*
X424984D01*
X423484Y698908D02*
Y701908D01*
X411984Y700408D02*
X414984D01*
X413484Y698908D02*
Y701908D01*
X648994Y723138D02*
X651994D01*
X650494Y721638D02*
Y724638D01*
X421664Y657860D02*
X424664D01*
X423164Y656360D02*
Y659360D01*
X715034Y791718D02*
X718034D01*
X716534Y790218D02*
Y793218D01*
X680998Y800862D02*
X683998D01*
X682498Y799362D02*
Y802362D01*
X745768Y688086D02*
X748768D01*
X747268Y686586D02*
Y689586D01*
X689126Y737870D02*
X692126D01*
X690626Y736370D02*
Y739370D01*
X737640Y772160D02*
X740640D01*
X739140Y770660D02*
Y773660D01*
X519708Y138202D02*
X522708D01*
X521208Y136702D02*
Y139702D01*
X765834Y201644D02*
X768834D01*
X767334Y200144D02*
Y203144D01*
X743592Y580898D02*
X746592D01*
X745092Y579398D02*
Y582398D01*
X795592Y640898D02*
X798592D01*
X797092Y639398D02*
Y642398D01*
X698016Y620804D02*
X701016D01*
X699516Y619304D02*
Y622304D01*
X697254Y646712D02*
X700254D01*
X698754Y645212D02*
Y648212D01*
X451128Y559844D02*
X454128D01*
X452628Y558344D02*
Y561344D01*
X1095780Y683604D02*
X1098780D01*
X1097280Y682104D02*
Y685104D01*
X1082002Y600230D02*
X1085002D01*
X1083502Y598730D02*
Y601730D01*
X593288Y663346D02*
X596288D01*
X594788Y661846D02*
Y664846D01*
X613688Y653824D02*
X616688D01*
X615188Y652324D02*
Y655324D01*
X219480Y753838D02*
X222480D01*
X220980Y752338D02*
Y755338D01*
X268756Y753838D02*
X271756D01*
X270256Y752338D02*
Y755338D01*
X293394Y753838D02*
X296394D01*
X294894Y752338D02*
Y755338D01*
X418678Y774474D02*
X421678D01*
X420178Y772974D02*
Y775974D01*
X366992Y697258D02*
X369992D01*
X368492Y695758D02*
Y698758D01*
X366354Y728754D02*
X369354D01*
X367854Y727254D02*
Y730254D01*
X367308Y753838D02*
X370308D01*
X368808Y752338D02*
Y755338D01*
X395948Y748058D02*
X398948D01*
X397448Y746558D02*
Y749558D01*
X469478Y774474D02*
X472478D01*
X470978Y772974D02*
Y775974D01*
X475106Y735866D02*
X478106D01*
X476606Y734366D02*
Y737366D01*
X502690Y757648D02*
X505690D01*
X504190Y756148D02*
Y759148D01*
X549042Y761012D02*
X552042D01*
X550542Y759512D02*
Y762512D01*
X601434Y753646D02*
X604434D01*
X602934Y752146D02*
Y755146D01*
X573302Y750660D02*
X576302D01*
X574802Y749160D02*
Y752160D01*
X702842Y774474D02*
X705842D01*
X704342Y772974D02*
Y775974D01*
X812570Y745772D02*
X815570D01*
X814070Y744272D02*
Y747272D01*
X949284Y758980D02*
X952284D01*
X950784Y757480D02*
Y760480D01*
X957412Y601500D02*
X960412D01*
X958912Y600000D02*
Y603000D01*
X841842Y622328D02*
X844842D01*
X843342Y620828D02*
Y623828D01*
X843112Y596928D02*
X846112D01*
X844612Y595428D02*
Y598428D01*
X901532Y647728D02*
X904532D01*
X903032Y646228D02*
Y649228D01*
X925916Y659920D02*
X928916D01*
X927416Y658420D02*
Y661420D01*
X895882Y696558D02*
X898882D01*
X897382Y695058D02*
Y698058D01*
X761262Y723166D02*
X764262D01*
X762762Y721666D02*
Y724666D01*
X818666Y695796D02*
X821666D01*
X820166Y694296D02*
Y697296D01*
X793520Y691732D02*
X796520D01*
X795020Y690232D02*
Y693232D01*
X767358Y691224D02*
X770358D01*
X768858Y689724D02*
Y692724D01*
X635278Y679732D02*
X638278D01*
X636778Y678232D02*
Y681232D01*
X692620Y573560D02*
X695620D01*
X694120Y572060D02*
Y575060D01*
X692112Y598198D02*
X695112D01*
X693612Y596698D02*
Y599698D01*
X587780Y613692D02*
X590780D01*
X589280Y612192D02*
Y615192D01*
X466368Y612106D02*
X469368D01*
X467868Y610606D02*
Y613606D01*
X541044Y614646D02*
X544044D01*
X542544Y613146D02*
Y616146D01*
X493800Y586830D02*
X496800D01*
X495300Y585330D02*
Y588330D01*
X441730Y607026D02*
X444730D01*
X443230Y605526D02*
Y608526D01*
X420332Y582450D02*
X423332D01*
X421832Y580950D02*
Y583950D01*
X368516Y623344D02*
X371516D01*
X370016Y621844D02*
Y624844D01*
X371880Y573368D02*
X374880D01*
X373380Y571868D02*
Y574868D01*
X371818Y522760D02*
X374818D01*
X373318Y521260D02*
Y524260D01*
X259042Y614200D02*
X262042D01*
X260542Y612700D02*
Y615700D01*
X282410Y564134D02*
X285410D01*
X283910Y562634D02*
Y565634D01*
X854418Y285524D02*
X857418D01*
X855918Y284024D02*
Y287024D01*
X610956Y154206D02*
X613956D01*
X612456Y152706D02*
Y155706D01*
X523326Y343182D02*
X526326D01*
X524826Y341682D02*
Y344682D01*
X189254Y386870D02*
X192254D01*
X190754Y385370D02*
Y388370D01*
X379308Y389918D02*
X382308D01*
X380808Y388418D02*
Y391418D01*
X366352Y440718D02*
X369352D01*
X367852Y439218D02*
Y442218D01*
X310352Y440718D02*
X313352D01*
X311852Y439218D02*
Y442218D01*
X446556Y580926D02*
X449556D01*
X448056Y579426D02*
Y582426D01*
X371880Y596674D02*
X374880D01*
X373380Y595174D02*
Y598174D01*
X843112Y646966D02*
X846112D01*
X844612Y645466D02*
Y648466D01*
X844258Y722658D02*
X847258D01*
X845758Y721158D02*
Y724158D01*
X690142Y699098D02*
X693142D01*
X691642Y697598D02*
Y700598D01*
X525042Y761012D02*
X528042D01*
X526542Y759512D02*
Y762512D01*
X818474Y721642D02*
X821474D01*
X819974Y720142D02*
Y723142D01*
X644422Y630710D02*
X647422D01*
X645922Y629210D02*
Y632210D01*
X715542Y698528D02*
X718542D01*
X717042Y697028D02*
Y700028D01*
X424204Y555780D02*
X427204D01*
X425704Y554280D02*
Y557280D01*
X446810Y525808D02*
X449810D01*
X448310Y524308D02*
Y527308D01*
X470432Y559844D02*
X473432D01*
X471932Y558344D02*
Y561344D01*
X642390Y657634D02*
X645390D01*
X643890Y656134D02*
Y659134D01*
X638326Y703100D02*
X641326D01*
X639826Y701600D02*
Y704600D01*
X877532Y647728D02*
X880532D01*
X879032Y646228D02*
Y649228D01*
X643406Y604294D02*
X646406D01*
X644906Y602794D02*
Y605794D01*
X219734Y776506D02*
X222734D01*
X221234Y775006D02*
Y778006D01*
X295172Y777522D02*
X298172D01*
X296672Y776022D02*
Y779022D01*
X529106Y735866D02*
X532106D01*
X530606Y734366D02*
Y737366D01*
X741134Y720626D02*
X744134D01*
X742634Y719126D02*
Y722126D01*
X760308Y747042D02*
X763308D01*
X761808Y745542D02*
Y748542D01*
X678966Y644172D02*
X681966D01*
X680466Y642672D02*
Y645672D01*
X629182Y644934D02*
X632182D01*
X630682Y643434D02*
Y646434D01*
X764310Y759996D02*
X767310D01*
X765810Y758496D02*
Y761496D01*
X684554Y758218D02*
X687554D01*
X686054Y756718D02*
Y759718D01*
X150392Y196878D02*
X153392D01*
X151892Y195378D02*
Y198378D01*
X637056Y170970D02*
X640056D01*
X638556Y169470D02*
Y172470D01*
X850670Y163604D02*
X853670D01*
X852170Y162104D02*
Y165104D01*
X825778Y302542D02*
X828778D01*
X827278Y301042D02*
Y304042D01*
X714780Y230660D02*
X717780D01*
X716280Y229160D02*
Y232160D01*
X740180Y229644D02*
X743180D01*
X741680Y228144D02*
Y231144D01*
X338352Y416080D02*
X341352D01*
X339852Y414580D02*
Y417580D01*
X213130Y461038D02*
X216130D01*
X214630Y459538D02*
Y462538D01*
X214908Y436908D02*
X217908D01*
X216408Y435408D02*
Y438408D01*
X288822Y462054D02*
X291822D01*
X290322Y460554D02*
Y463554D01*
X547648Y770636D02*
X550648D01*
X549148Y769136D02*
Y772136D01*
X855332Y255298D02*
X858332D01*
X856832Y253798D02*
Y256798D01*
X765834Y257870D02*
X768834D01*
X767334Y256370D02*
Y259370D01*
X395756Y701040D02*
X398756D01*
X397256Y699540D02*
Y702540D01*
M02*
