G04 Layer_Color=128*
%FSLAX44Y44*%
%MOMM*%
G71*
G01*
G75*
%ADD84C,0.0508*%
D84*
X372500Y176000D02*
X375500D01*
X374000Y174500D02*
Y177500D01*
X396500Y147000D02*
X399500D01*
X398000Y145500D02*
Y148500D01*
X527836Y534314D02*
X530836D01*
X529336Y532814D02*
Y535814D01*
X927886Y399508D02*
X930886D01*
X929386Y398008D02*
Y401008D01*
X820760Y425732D02*
X823760D01*
X822260Y424232D02*
Y427232D01*
X764056Y398238D02*
X767056D01*
X765556Y396738D02*
Y399738D01*
X576158Y422684D02*
X579158D01*
X577658Y421184D02*
Y424184D01*
X523834Y415826D02*
X526834D01*
X525334Y414326D02*
Y417326D01*
X1023946Y463578D02*
X1026946D01*
X1025446Y462078D02*
Y465078D01*
X1022566Y515648D02*
X1025566D01*
X1024066Y514148D02*
Y517148D01*
X862196Y463578D02*
X865196D01*
X863696Y462078D02*
Y465078D01*
X860006Y518188D02*
X863006D01*
X861506Y516688D02*
Y519688D01*
X804126Y514378D02*
X807126D01*
X805626Y512878D02*
Y515878D01*
X705176Y463578D02*
X708176D01*
X706676Y462078D02*
Y465078D01*
X702526Y516918D02*
X705526D01*
X704026Y515418D02*
Y518418D01*
X647916Y514378D02*
X650916D01*
X649416Y512878D02*
Y515878D01*
X966686Y514378D02*
X969686D01*
X968186Y512878D02*
Y515878D01*
X530122Y459514D02*
X533122D01*
X531622Y458014D02*
Y461014D01*
X575904Y398046D02*
X578904D01*
X577404Y396546D02*
Y399546D01*
X666266Y398300D02*
X669266D01*
X667766Y396800D02*
Y399800D01*
X501420Y533400D02*
X504420D01*
X502920Y531900D02*
Y534900D01*
X600988Y398526D02*
X603988D01*
X602488Y397026D02*
Y400026D01*
X663788Y425732D02*
X666788D01*
X665288Y424232D02*
Y427232D01*
X984082Y425986D02*
X987082D01*
X985582Y424486D02*
Y427486D01*
X402868Y425704D02*
X405868D01*
X404368Y424204D02*
Y427204D01*
X820760Y402110D02*
X823760D01*
X822260Y400610D02*
Y403610D01*
X983828Y401348D02*
X986828D01*
X985328Y399848D02*
Y402848D01*
X524666Y191036D02*
X527666D01*
X526166Y189536D02*
Y192536D01*
M02*
